G04 #@! TF.GenerationSoftware,KiCad,Pcbnew,7.0.0*
G04 #@! TF.CreationDate,2023-02-20T20:21:07-05:00*
G04 #@! TF.ProjectId,PCB,5043422e-6b69-4636-9164-5f7063625858,rev?*
G04 #@! TF.SameCoordinates,Original*
G04 #@! TF.FileFunction,Copper,L2,Bot*
G04 #@! TF.FilePolarity,Positive*
%FSLAX46Y46*%
G04 Gerber Fmt 4.6, Leading zero omitted, Abs format (unit mm)*
G04 Created by KiCad (PCBNEW 7.0.0) date 2023-02-20 20:21:07*
%MOMM*%
%LPD*%
G01*
G04 APERTURE LIST*
G04 #@! TA.AperFunction,ComponentPad*
%ADD10C,1.400000*%
G04 #@! TD*
G04 #@! TA.AperFunction,ComponentPad*
%ADD11O,1.400000X1.400000*%
G04 #@! TD*
G04 #@! TA.AperFunction,ComponentPad*
%ADD12R,1.800000X1.800000*%
G04 #@! TD*
G04 #@! TA.AperFunction,ComponentPad*
%ADD13C,1.800000*%
G04 #@! TD*
G04 #@! TA.AperFunction,ComponentPad*
%ADD14R,1.350000X1.350000*%
G04 #@! TD*
G04 #@! TA.AperFunction,ComponentPad*
%ADD15O,1.350000X1.350000*%
G04 #@! TD*
G04 #@! TA.AperFunction,ComponentPad*
%ADD16R,1.980000X3.960000*%
G04 #@! TD*
G04 #@! TA.AperFunction,ComponentPad*
%ADD17O,1.980000X3.960000*%
G04 #@! TD*
G04 #@! TA.AperFunction,ComponentPad*
%ADD18R,1.700000X1.700000*%
G04 #@! TD*
G04 #@! TA.AperFunction,ComponentPad*
%ADD19O,1.700000X1.700000*%
G04 #@! TD*
G04 #@! TA.AperFunction,ComponentPad*
%ADD20R,3.960000X1.980000*%
G04 #@! TD*
G04 #@! TA.AperFunction,ComponentPad*
%ADD21O,3.960000X1.980000*%
G04 #@! TD*
G04 #@! TA.AperFunction,ComponentPad*
%ADD22R,1.900000X1.900000*%
G04 #@! TD*
G04 #@! TA.AperFunction,ComponentPad*
%ADD23C,1.900000*%
G04 #@! TD*
G04 #@! TA.AperFunction,ComponentPad*
%ADD24C,1.700000*%
G04 #@! TD*
G04 #@! TA.AperFunction,ViaPad*
%ADD25C,0.800000*%
G04 #@! TD*
G04 #@! TA.AperFunction,Conductor*
%ADD26C,0.250000*%
G04 #@! TD*
G04 APERTURE END LIST*
D10*
X146250044Y-70161250D03*
D11*
X146250043Y-77781249D03*
D12*
X142239999Y-82089999D03*
D13*
X144780000Y-82090000D03*
D14*
X196575807Y-51280577D03*
D15*
X196575807Y-53280577D03*
X196575807Y-55280577D03*
X196575807Y-57280577D03*
X196575807Y-59280577D03*
X196575807Y-61280577D03*
D16*
X150889355Y-50325320D03*
D17*
X155889355Y-50325320D03*
D18*
X188713765Y-65940924D03*
D19*
X186173765Y-65940924D03*
X183633765Y-65940924D03*
X181093765Y-65940924D03*
X178553765Y-65940924D03*
X176013765Y-65940924D03*
X173473765Y-65940924D03*
X170933765Y-65940924D03*
D20*
X142000591Y-65520593D03*
D21*
X142000591Y-60520593D03*
D16*
X139117719Y-50359450D03*
D17*
X144117719Y-50359450D03*
D10*
X141599153Y-70187193D03*
D11*
X141599152Y-77807192D03*
D14*
X157479999Y-65499999D03*
D15*
X157479999Y-63499999D03*
X157479999Y-61499999D03*
X157479999Y-59499999D03*
D22*
X137159999Y-74857703D03*
D23*
X137160000Y-77357704D03*
X137160000Y-79857704D03*
D10*
X143952579Y-70177101D03*
D11*
X143952578Y-77797100D03*
D24*
X169490000Y-86076000D03*
X172030000Y-86076000D03*
X192350000Y-70820000D03*
X174570000Y-86076000D03*
X177110000Y-86076000D03*
X166950000Y-70820000D03*
X179650000Y-86076000D03*
X182190000Y-86076000D03*
X184730000Y-86076000D03*
X187270000Y-86076000D03*
X189810000Y-86076000D03*
X192350000Y-86076000D03*
X194890000Y-86076000D03*
X194890000Y-70820000D03*
X187270000Y-70820000D03*
X184730000Y-70820000D03*
X182190000Y-70820000D03*
X179650000Y-70820000D03*
X177110000Y-70820000D03*
X174570000Y-70820000D03*
X189810000Y-70820000D03*
X161870000Y-70820000D03*
X166950000Y-86076000D03*
X156790000Y-70820000D03*
D18*
X154249999Y-86075999D03*
D24*
X169490000Y-70820000D03*
X172030000Y-70820000D03*
X164410000Y-70820000D03*
X164410000Y-86076000D03*
X161870000Y-86076000D03*
X154250000Y-70820000D03*
X156790000Y-86076000D03*
X159330000Y-86076000D03*
X159330000Y-70820000D03*
D25*
X160020000Y-78740000D03*
X180340000Y-78740000D03*
X160020000Y-55880000D03*
X160020000Y-76200000D03*
X160020000Y-48260000D03*
X162560000Y-75284500D03*
X152400000Y-74834500D03*
X150566754Y-74384500D03*
X167640000Y-73660000D03*
X149860000Y-73660000D03*
X187960000Y-60960000D03*
X147320000Y-73660000D03*
X178309964Y-70006893D03*
X182880000Y-73660000D03*
X198120000Y-71120000D03*
X195580000Y-67855500D03*
D26*
X161020000Y-77740000D02*
X160020000Y-78740000D01*
X161020000Y-71670000D02*
X161020000Y-77740000D01*
X161870000Y-70820000D02*
X161020000Y-71670000D01*
X170180000Y-78740000D02*
X180340000Y-78740000D01*
X166100000Y-74660000D02*
X170180000Y-78740000D01*
X166100000Y-71670000D02*
X166100000Y-74660000D01*
X166950000Y-70820000D02*
X166100000Y-71670000D01*
X160505000Y-56365000D02*
X160020000Y-55880000D01*
X160505000Y-75715000D02*
X160505000Y-56365000D01*
X160020000Y-76200000D02*
X160505000Y-75715000D01*
X162560000Y-75284500D02*
X163045000Y-74799500D01*
X163045000Y-74799500D02*
X163045000Y-51285000D01*
X163045000Y-51285000D02*
X160020000Y-48260000D01*
X152400000Y-66040000D02*
X155889356Y-62550644D01*
X152400000Y-74834500D02*
X152400000Y-66040000D01*
X155889356Y-62550644D02*
X155889356Y-50325321D01*
X150566754Y-74384500D02*
X150889356Y-74061898D01*
X150889356Y-74061898D02*
X150889356Y-50325321D01*
X141515000Y-72935000D02*
X139700000Y-71120000D01*
X149860000Y-73660000D02*
X149135000Y-72935000D01*
X168365000Y-74385000D02*
X167640000Y-73660000D01*
X188785000Y-74385000D02*
X168365000Y-74385000D01*
X149135000Y-72935000D02*
X141515000Y-72935000D01*
X192350000Y-70820000D02*
X188785000Y-74385000D01*
X139700000Y-71120000D02*
X139700000Y-67821186D01*
X139700000Y-67821186D02*
X142000592Y-65520594D01*
X190500000Y-63500000D02*
X187960000Y-60960000D01*
X187270000Y-70820000D02*
X190500000Y-67590000D01*
X190500000Y-67590000D02*
X190500000Y-63500000D01*
X182370036Y-73150036D02*
X180318335Y-73150036D01*
X182880000Y-73660000D02*
X182370036Y-73150036D01*
X146122296Y-74857704D02*
X147320000Y-73660000D01*
X137160000Y-74857704D02*
X146122296Y-74857704D01*
X178309964Y-71141665D02*
X178309964Y-70006893D01*
X180318335Y-73150036D02*
X178309964Y-71141665D01*
X198120000Y-71120000D02*
X195580000Y-68580000D01*
X195580000Y-68580000D02*
X195580000Y-67855500D01*
X141599153Y-77807193D02*
X143942487Y-77807193D01*
X143942487Y-77807193D02*
X143952579Y-77797101D01*
X146510000Y-82090000D02*
X147320000Y-81280000D01*
X147320000Y-81280000D02*
X147320000Y-78851206D01*
X144780000Y-82090000D02*
X146510000Y-82090000D01*
X147320000Y-78851206D02*
X146250044Y-77781250D01*
X164410000Y-70820000D02*
X164410000Y-86076000D01*
G04 #@! TA.AperFunction,Conductor*
G36*
X198926500Y-43207381D02*
G01*
X198972619Y-43253500D01*
X198989500Y-43316500D01*
X198989500Y-70399706D01*
X198975162Y-70458081D01*
X198935410Y-70503171D01*
X198879292Y-70524712D01*
X198819580Y-70517803D01*
X198769864Y-70484016D01*
X198735674Y-70446044D01*
X198735673Y-70446043D01*
X198731253Y-70441134D01*
X198725911Y-70437253D01*
X198725908Y-70437250D01*
X198607807Y-70351445D01*
X198576752Y-70328882D01*
X198402288Y-70251206D01*
X198395835Y-70249834D01*
X198395831Y-70249833D01*
X198221943Y-70212872D01*
X198221940Y-70212871D01*
X198215487Y-70211500D01*
X198208884Y-70211500D01*
X198159595Y-70211500D01*
X198111377Y-70201909D01*
X198070500Y-70174595D01*
X196376171Y-68480266D01*
X196346865Y-68434265D01*
X196339746Y-68380189D01*
X196356144Y-68328176D01*
X196414527Y-68227056D01*
X196473542Y-68045428D01*
X196493504Y-67855500D01*
X196473542Y-67665572D01*
X196420854Y-67503417D01*
X196416569Y-67490228D01*
X196416568Y-67490226D01*
X196414527Y-67483944D01*
X196319040Y-67318556D01*
X196191253Y-67176634D01*
X196185911Y-67172753D01*
X196185908Y-67172750D01*
X196108057Y-67116188D01*
X196036752Y-67064382D01*
X195862288Y-66986706D01*
X195855835Y-66985334D01*
X195855831Y-66985333D01*
X195681943Y-66948372D01*
X195681940Y-66948371D01*
X195675487Y-66947000D01*
X195484513Y-66947000D01*
X195478060Y-66948371D01*
X195478056Y-66948372D01*
X195304168Y-66985333D01*
X195304161Y-66985335D01*
X195297712Y-66986706D01*
X195291682Y-66989390D01*
X195291681Y-66989391D01*
X195129278Y-67061697D01*
X195129275Y-67061698D01*
X195123248Y-67064382D01*
X195117907Y-67068262D01*
X195117906Y-67068263D01*
X194974091Y-67172750D01*
X194974083Y-67172756D01*
X194968747Y-67176634D01*
X194964330Y-67181539D01*
X194964325Y-67181544D01*
X194845820Y-67313158D01*
X194840960Y-67318556D01*
X194837661Y-67324269D01*
X194837658Y-67324274D01*
X194757206Y-67463622D01*
X194745473Y-67483944D01*
X194743434Y-67490218D01*
X194743430Y-67490228D01*
X194688497Y-67659294D01*
X194688495Y-67659301D01*
X194686458Y-67665572D01*
X194685768Y-67672133D01*
X194685768Y-67672135D01*
X194671756Y-67805453D01*
X194666496Y-67855500D01*
X194667186Y-67862065D01*
X194683004Y-68012570D01*
X194686458Y-68045428D01*
X194688495Y-68051700D01*
X194688497Y-68051705D01*
X194743430Y-68220771D01*
X194743433Y-68220778D01*
X194745473Y-68227056D01*
X194748777Y-68232778D01*
X194833884Y-68380189D01*
X194840960Y-68392444D01*
X194855501Y-68408593D01*
X194913031Y-68472487D01*
X194936302Y-68509800D01*
X194945333Y-68552838D01*
X194946438Y-68587986D01*
X194946500Y-68591945D01*
X194946500Y-68619856D01*
X194946995Y-68623774D01*
X194946997Y-68623806D01*
X194947008Y-68623888D01*
X194947937Y-68635697D01*
X194949077Y-68671969D01*
X194949078Y-68671976D01*
X194949327Y-68679889D01*
X194951537Y-68687498D01*
X194951538Y-68687500D01*
X194954978Y-68699342D01*
X194958986Y-68718693D01*
X194961526Y-68738797D01*
X194964444Y-68746169D01*
X194964445Y-68746170D01*
X194977800Y-68779901D01*
X194981645Y-68791130D01*
X194991771Y-68825986D01*
X194991773Y-68825992D01*
X194993982Y-68833593D01*
X194998014Y-68840411D01*
X194998015Y-68840413D01*
X195004293Y-68851029D01*
X195012990Y-68868782D01*
X195020448Y-68887617D01*
X195025107Y-68894030D01*
X195025108Y-68894031D01*
X195046432Y-68923381D01*
X195052948Y-68933301D01*
X195062301Y-68949115D01*
X195075458Y-68971362D01*
X195081063Y-68976967D01*
X195089778Y-68985682D01*
X195102618Y-69000715D01*
X195114528Y-69017107D01*
X195120635Y-69022159D01*
X195120636Y-69022160D01*
X195148598Y-69045292D01*
X195157378Y-69053282D01*
X195415159Y-69311063D01*
X195448208Y-69369227D01*
X195446826Y-69436110D01*
X195411402Y-69492859D01*
X195351922Y-69523476D01*
X195285153Y-69519331D01*
X195229570Y-69500249D01*
X195229556Y-69500245D01*
X195224635Y-69498556D01*
X195219498Y-69497698D01*
X195219495Y-69497698D01*
X195007706Y-69462357D01*
X195007703Y-69462356D01*
X195002569Y-69461500D01*
X194777431Y-69461500D01*
X194772297Y-69462356D01*
X194772293Y-69462357D01*
X194560504Y-69497698D01*
X194560498Y-69497699D01*
X194555365Y-69498556D01*
X194550443Y-69500245D01*
X194550434Y-69500248D01*
X194347357Y-69569964D01*
X194347344Y-69569969D01*
X194342426Y-69571658D01*
X194337847Y-69574135D01*
X194337840Y-69574139D01*
X194149005Y-69676331D01*
X194148997Y-69676336D01*
X194144424Y-69678811D01*
X194140313Y-69682010D01*
X194140311Y-69682012D01*
X193970878Y-69813888D01*
X193970872Y-69813893D01*
X193966760Y-69817094D01*
X193963237Y-69820919D01*
X193963227Y-69820930D01*
X193817806Y-69978899D01*
X193817802Y-69978902D01*
X193814278Y-69982732D01*
X193811430Y-69987090D01*
X193811427Y-69987095D01*
X193725483Y-70118643D01*
X193679969Y-70160542D01*
X193620000Y-70175728D01*
X193560031Y-70160542D01*
X193514517Y-70118643D01*
X193428572Y-69987095D01*
X193425722Y-69982732D01*
X193347799Y-69898086D01*
X193276772Y-69820930D01*
X193276767Y-69820925D01*
X193273240Y-69817094D01*
X193095576Y-69678811D01*
X193090997Y-69676333D01*
X193090994Y-69676331D01*
X192902159Y-69574139D01*
X192902156Y-69574137D01*
X192897574Y-69571658D01*
X192892650Y-69569967D01*
X192892642Y-69569964D01*
X192689565Y-69500248D01*
X192689559Y-69500246D01*
X192684635Y-69498556D01*
X192679498Y-69497698D01*
X192679495Y-69497698D01*
X192467706Y-69462357D01*
X192467703Y-69462356D01*
X192462569Y-69461500D01*
X192237431Y-69461500D01*
X192232297Y-69462356D01*
X192232293Y-69462357D01*
X192020504Y-69497698D01*
X192020498Y-69497699D01*
X192015365Y-69498556D01*
X192010443Y-69500245D01*
X192010434Y-69500248D01*
X191807357Y-69569964D01*
X191807344Y-69569969D01*
X191802426Y-69571658D01*
X191797847Y-69574135D01*
X191797840Y-69574139D01*
X191609005Y-69676331D01*
X191608997Y-69676336D01*
X191604424Y-69678811D01*
X191600313Y-69682010D01*
X191600311Y-69682012D01*
X191430878Y-69813888D01*
X191430872Y-69813893D01*
X191426760Y-69817094D01*
X191423237Y-69820919D01*
X191423227Y-69820930D01*
X191277806Y-69978899D01*
X191277802Y-69978902D01*
X191274278Y-69982732D01*
X191271430Y-69987090D01*
X191271427Y-69987095D01*
X191185483Y-70118643D01*
X191139969Y-70160542D01*
X191080000Y-70175728D01*
X191020031Y-70160542D01*
X190974517Y-70118643D01*
X190888572Y-69987095D01*
X190885722Y-69982732D01*
X190807799Y-69898086D01*
X190736772Y-69820930D01*
X190736767Y-69820925D01*
X190733240Y-69817094D01*
X190555576Y-69678811D01*
X190550997Y-69676333D01*
X190550994Y-69676331D01*
X190362159Y-69574139D01*
X190362156Y-69574137D01*
X190357574Y-69571658D01*
X190352650Y-69569967D01*
X190352642Y-69569964D01*
X190149565Y-69500248D01*
X190149559Y-69500246D01*
X190144635Y-69498556D01*
X190139498Y-69497698D01*
X190139495Y-69497698D01*
X189927706Y-69462357D01*
X189927703Y-69462356D01*
X189922569Y-69461500D01*
X189828593Y-69461500D01*
X189771390Y-69447767D01*
X189726657Y-69409561D01*
X189704144Y-69355211D01*
X189708760Y-69296564D01*
X189739498Y-69246405D01*
X190159917Y-68825986D01*
X190892264Y-68093639D01*
X190900535Y-68086113D01*
X190907018Y-68082000D01*
X190953660Y-68032329D01*
X190956352Y-68029551D01*
X190976135Y-68009770D01*
X190978613Y-68006574D01*
X190986308Y-67997563D01*
X191016586Y-67965321D01*
X191026348Y-67947562D01*
X191037195Y-67931050D01*
X191049614Y-67915041D01*
X191067179Y-67874446D01*
X191072388Y-67863814D01*
X191093695Y-67825060D01*
X191098733Y-67805434D01*
X191105134Y-67786737D01*
X191113181Y-67768145D01*
X191120096Y-67724477D01*
X191122504Y-67712853D01*
X191131529Y-67677705D01*
X191133500Y-67670030D01*
X191133500Y-67649776D01*
X191135051Y-67630065D01*
X191136980Y-67617885D01*
X191138220Y-67610057D01*
X191134058Y-67566038D01*
X191133500Y-67554181D01*
X191133500Y-63578763D01*
X191134027Y-63567579D01*
X191135701Y-63560091D01*
X191133561Y-63492032D01*
X191133500Y-63488075D01*
X191133500Y-63464100D01*
X191133500Y-63460144D01*
X191132993Y-63456134D01*
X191132061Y-63444294D01*
X191130673Y-63400110D01*
X191125020Y-63380656D01*
X191121012Y-63361297D01*
X191118474Y-63341203D01*
X191102197Y-63300092D01*
X191098358Y-63288882D01*
X191086018Y-63246406D01*
X191075703Y-63228966D01*
X191067010Y-63211221D01*
X191059552Y-63192383D01*
X191033564Y-63156614D01*
X191027046Y-63146690D01*
X191008578Y-63115462D01*
X191004542Y-63108637D01*
X190990217Y-63094312D01*
X190977376Y-63079277D01*
X190970134Y-63069309D01*
X190970131Y-63069306D01*
X190965472Y-63062893D01*
X190947532Y-63048052D01*
X190931405Y-63034710D01*
X190922626Y-63026721D01*
X189176483Y-61280578D01*
X195387238Y-61280578D01*
X195387776Y-61286384D01*
X195406937Y-61493171D01*
X195406938Y-61493181D01*
X195407476Y-61498977D01*
X195467499Y-61709939D01*
X195470095Y-61715152D01*
X195545769Y-61867127D01*
X195565265Y-61906279D01*
X195568773Y-61910925D01*
X195568776Y-61910929D01*
X195693931Y-62076661D01*
X195693935Y-62076665D01*
X195697444Y-62081312D01*
X195701746Y-62085234D01*
X195701749Y-62085237D01*
X195751237Y-62130351D01*
X195859535Y-62229077D01*
X195901491Y-62255055D01*
X196041063Y-62341475D01*
X196041066Y-62341476D01*
X196046017Y-62344542D01*
X196250540Y-62423775D01*
X196466141Y-62464078D01*
X196679648Y-62464078D01*
X196685475Y-62464078D01*
X196901076Y-62423775D01*
X197105599Y-62344542D01*
X197292081Y-62229077D01*
X197454172Y-62081312D01*
X197586351Y-61906279D01*
X197684117Y-61709939D01*
X197744140Y-61498977D01*
X197764378Y-61280578D01*
X197744140Y-61062179D01*
X197684117Y-60851217D01*
X197586351Y-60654877D01*
X197571862Y-60635690D01*
X197457684Y-60484494D01*
X197457681Y-60484490D01*
X197454172Y-60479844D01*
X197449866Y-60475919D01*
X197449861Y-60475913D01*
X197337730Y-60373693D01*
X197301425Y-60315060D01*
X197301425Y-60246096D01*
X197337730Y-60187463D01*
X197449861Y-60085242D01*
X197449866Y-60085237D01*
X197454172Y-60081312D01*
X197586351Y-59906279D01*
X197684117Y-59709939D01*
X197744140Y-59498977D01*
X197764378Y-59280578D01*
X197744140Y-59062179D01*
X197684117Y-58851217D01*
X197586351Y-58654877D01*
X197582839Y-58650226D01*
X197457684Y-58484494D01*
X197457681Y-58484490D01*
X197454172Y-58479844D01*
X197449869Y-58475921D01*
X197449866Y-58475918D01*
X197337729Y-58373692D01*
X197301425Y-58315058D01*
X197301425Y-58246095D01*
X197337727Y-58187464D01*
X197454172Y-58081312D01*
X197586351Y-57906279D01*
X197684117Y-57709939D01*
X197744140Y-57498977D01*
X197764378Y-57280578D01*
X197744140Y-57062179D01*
X197684117Y-56851217D01*
X197586351Y-56654877D01*
X197513847Y-56558866D01*
X197457684Y-56484494D01*
X197457681Y-56484490D01*
X197454172Y-56479844D01*
X197337357Y-56373354D01*
X197301054Y-56314722D01*
X197301054Y-56245758D01*
X197337359Y-56187125D01*
X197449490Y-56084904D01*
X197457313Y-56076323D01*
X197582412Y-55910665D01*
X197588520Y-55900800D01*
X197681053Y-55714969D01*
X197685241Y-55704157D01*
X197729490Y-55548639D01*
X197730019Y-55537198D01*
X197718875Y-55534578D01*
X195432741Y-55534578D01*
X195421596Y-55537198D01*
X195422125Y-55548639D01*
X195466374Y-55704157D01*
X195470562Y-55714969D01*
X195563095Y-55900800D01*
X195569203Y-55910665D01*
X195694302Y-56076323D01*
X195702120Y-56084899D01*
X195814257Y-56187125D01*
X195850561Y-56245759D01*
X195850561Y-56314722D01*
X195814257Y-56373355D01*
X195701749Y-56475918D01*
X195701740Y-56475926D01*
X195697444Y-56479844D01*
X195693939Y-56484484D01*
X195693931Y-56484494D01*
X195568776Y-56650226D01*
X195568770Y-56650235D01*
X195565265Y-56654877D01*
X195562671Y-56660084D01*
X195562668Y-56660091D01*
X195481036Y-56824031D01*
X195467499Y-56851217D01*
X195407476Y-57062179D01*
X195406939Y-57067972D01*
X195406937Y-57067984D01*
X195387776Y-57274772D01*
X195387238Y-57280578D01*
X195387776Y-57286384D01*
X195406937Y-57493171D01*
X195406938Y-57493181D01*
X195407476Y-57498977D01*
X195467499Y-57709939D01*
X195565265Y-57906279D01*
X195568773Y-57910925D01*
X195568776Y-57910929D01*
X195693931Y-58076661D01*
X195693935Y-58076665D01*
X195697444Y-58081312D01*
X195701748Y-58085236D01*
X195701754Y-58085242D01*
X195813885Y-58187462D01*
X195850190Y-58246095D01*
X195850190Y-58315058D01*
X195813886Y-58373692D01*
X195701750Y-58475918D01*
X195701746Y-58475921D01*
X195697444Y-58479844D01*
X195693939Y-58484484D01*
X195693931Y-58484494D01*
X195568776Y-58650226D01*
X195568770Y-58650235D01*
X195565265Y-58654877D01*
X195562671Y-58660084D01*
X195562668Y-58660091D01*
X195540846Y-58703916D01*
X195467499Y-58851217D01*
X195465904Y-58856819D01*
X195465904Y-58856822D01*
X195414019Y-59039184D01*
X195407476Y-59062179D01*
X195406939Y-59067972D01*
X195406937Y-59067984D01*
X195395026Y-59196533D01*
X195387238Y-59280578D01*
X195387776Y-59286384D01*
X195406937Y-59493171D01*
X195406938Y-59493181D01*
X195407476Y-59498977D01*
X195467499Y-59709939D01*
X195565265Y-59906279D01*
X195568773Y-59910925D01*
X195568776Y-59910929D01*
X195693931Y-60076661D01*
X195693935Y-60076665D01*
X195697444Y-60081312D01*
X195701746Y-60085234D01*
X195701749Y-60085237D01*
X195813886Y-60187463D01*
X195850190Y-60246096D01*
X195850190Y-60315060D01*
X195813886Y-60373693D01*
X195701749Y-60475918D01*
X195701740Y-60475926D01*
X195697444Y-60479844D01*
X195693939Y-60484484D01*
X195693931Y-60484494D01*
X195568776Y-60650226D01*
X195568770Y-60650235D01*
X195565265Y-60654877D01*
X195562671Y-60660084D01*
X195562668Y-60660091D01*
X195504457Y-60776995D01*
X195467499Y-60851217D01*
X195465904Y-60856819D01*
X195465904Y-60856822D01*
X195421976Y-61011217D01*
X195407476Y-61062179D01*
X195406939Y-61067972D01*
X195406937Y-61067984D01*
X195387776Y-61274772D01*
X195387238Y-61280578D01*
X189176483Y-61280578D01*
X188907122Y-61011217D01*
X188882491Y-60976366D01*
X188870907Y-60935292D01*
X188870407Y-60930532D01*
X188853542Y-60770072D01*
X188794527Y-60588444D01*
X188699040Y-60423056D01*
X188571253Y-60281134D01*
X188565911Y-60277253D01*
X188565908Y-60277250D01*
X188442326Y-60187463D01*
X188416752Y-60168882D01*
X188242288Y-60091206D01*
X188235835Y-60089834D01*
X188235831Y-60089833D01*
X188061943Y-60052872D01*
X188061940Y-60052871D01*
X188055487Y-60051500D01*
X187864513Y-60051500D01*
X187858060Y-60052871D01*
X187858056Y-60052872D01*
X187684168Y-60089833D01*
X187684161Y-60089835D01*
X187677712Y-60091206D01*
X187671682Y-60093890D01*
X187671681Y-60093891D01*
X187509278Y-60166197D01*
X187509275Y-60166198D01*
X187503248Y-60168882D01*
X187497907Y-60172762D01*
X187497906Y-60172763D01*
X187354091Y-60277250D01*
X187354083Y-60277256D01*
X187348747Y-60281134D01*
X187344330Y-60286039D01*
X187344325Y-60286044D01*
X187258773Y-60381060D01*
X187220960Y-60423056D01*
X187217661Y-60428769D01*
X187217658Y-60428774D01*
X187176536Y-60500000D01*
X187125473Y-60588444D01*
X187123434Y-60594718D01*
X187123430Y-60594728D01*
X187068497Y-60763794D01*
X187068495Y-60763801D01*
X187066458Y-60770072D01*
X187065768Y-60776633D01*
X187065768Y-60776635D01*
X187064239Y-60791184D01*
X187046496Y-60960000D01*
X187047186Y-60966565D01*
X187065715Y-61142864D01*
X187066458Y-61149928D01*
X187068495Y-61156200D01*
X187068497Y-61156205D01*
X187123430Y-61325271D01*
X187123433Y-61325278D01*
X187125473Y-61331556D01*
X187220960Y-61496944D01*
X187348747Y-61638866D01*
X187503248Y-61751118D01*
X187677712Y-61828794D01*
X187864513Y-61868500D01*
X187920406Y-61868500D01*
X187968624Y-61878091D01*
X188009501Y-61905405D01*
X189829595Y-63725499D01*
X189856909Y-63766376D01*
X189866500Y-63814594D01*
X189866500Y-64479645D01*
X189852148Y-64538047D01*
X189812361Y-64583144D01*
X189756203Y-64604663D01*
X189696468Y-64597701D01*
X189680349Y-64591689D01*
X189680346Y-64591688D01*
X189672967Y-64588936D01*
X189665139Y-64588094D01*
X189665133Y-64588093D01*
X189615754Y-64582785D01*
X189615751Y-64582784D01*
X189612404Y-64582425D01*
X187815128Y-64582425D01*
X187811781Y-64582784D01*
X187811777Y-64582785D01*
X187762398Y-64588093D01*
X187762391Y-64588094D01*
X187754565Y-64588936D01*
X187747189Y-64591686D01*
X187747185Y-64591688D01*
X187626002Y-64636887D01*
X187625996Y-64636890D01*
X187617562Y-64640036D01*
X187610354Y-64645431D01*
X187610348Y-64645435D01*
X187507716Y-64722265D01*
X187507712Y-64722268D01*
X187500505Y-64727664D01*
X187495109Y-64734871D01*
X187495106Y-64734875D01*
X187418276Y-64837507D01*
X187418272Y-64837513D01*
X187412877Y-64844721D01*
X187409730Y-64853156D01*
X187409725Y-64853167D01*
X187368570Y-64963508D01*
X187332039Y-65015547D01*
X187274748Y-65043123D01*
X187211286Y-65039213D01*
X187157814Y-65004813D01*
X187100192Y-64942219D01*
X187092554Y-64935187D01*
X186923177Y-64803356D01*
X186914484Y-64797677D01*
X186725723Y-64695524D01*
X186716206Y-64691349D01*
X186513208Y-64621660D01*
X186503138Y-64619110D01*
X186441304Y-64608792D01*
X186430167Y-64609368D01*
X186427766Y-64620261D01*
X186427766Y-67261589D01*
X186430167Y-67272481D01*
X186441304Y-67273057D01*
X186503138Y-67262739D01*
X186513208Y-67260189D01*
X186716206Y-67190500D01*
X186725723Y-67186325D01*
X186914484Y-67084172D01*
X186923177Y-67078493D01*
X187092554Y-66946662D01*
X187100191Y-66939631D01*
X187157813Y-66877037D01*
X187211286Y-66842636D01*
X187274748Y-66838726D01*
X187332039Y-66866302D01*
X187368571Y-66918341D01*
X187409728Y-67028688D01*
X187409730Y-67028691D01*
X187412877Y-67037129D01*
X187418274Y-67044339D01*
X187418276Y-67044342D01*
X187444155Y-67078912D01*
X187500505Y-67154186D01*
X187507716Y-67159584D01*
X187543437Y-67186325D01*
X187617562Y-67241814D01*
X187754565Y-67292914D01*
X187815128Y-67299425D01*
X187818497Y-67299425D01*
X189590481Y-67299425D01*
X189647684Y-67313158D01*
X189692417Y-67351364D01*
X189714930Y-67405714D01*
X189710314Y-67464361D01*
X189679577Y-67514517D01*
X188047815Y-69146279D01*
X187727439Y-69466655D01*
X187671790Y-69499039D01*
X187607956Y-69499696D01*
X187604635Y-69498556D01*
X187599501Y-69497699D01*
X187599500Y-69497699D01*
X187387706Y-69462357D01*
X187387703Y-69462356D01*
X187382569Y-69461500D01*
X187157431Y-69461500D01*
X187152297Y-69462356D01*
X187152293Y-69462357D01*
X186940504Y-69497698D01*
X186940498Y-69497699D01*
X186935365Y-69498556D01*
X186930443Y-69500245D01*
X186930434Y-69500248D01*
X186727357Y-69569964D01*
X186727344Y-69569969D01*
X186722426Y-69571658D01*
X186717847Y-69574135D01*
X186717840Y-69574139D01*
X186529005Y-69676331D01*
X186528997Y-69676336D01*
X186524424Y-69678811D01*
X186520313Y-69682010D01*
X186520311Y-69682012D01*
X186350878Y-69813888D01*
X186350872Y-69813893D01*
X186346760Y-69817094D01*
X186343237Y-69820919D01*
X186343227Y-69820930D01*
X186197806Y-69978899D01*
X186197802Y-69978902D01*
X186194278Y-69982732D01*
X186191430Y-69987090D01*
X186191427Y-69987095D01*
X186105483Y-70118643D01*
X186059969Y-70160542D01*
X186000000Y-70175728D01*
X185940031Y-70160542D01*
X185894517Y-70118643D01*
X185808572Y-69987095D01*
X185805722Y-69982732D01*
X185727799Y-69898086D01*
X185656772Y-69820930D01*
X185656767Y-69820925D01*
X185653240Y-69817094D01*
X185475576Y-69678811D01*
X185470997Y-69676333D01*
X185470994Y-69676331D01*
X185282159Y-69574139D01*
X185282156Y-69574137D01*
X185277574Y-69571658D01*
X185272650Y-69569967D01*
X185272642Y-69569964D01*
X185069565Y-69500248D01*
X185069559Y-69500246D01*
X185064635Y-69498556D01*
X185059498Y-69497698D01*
X185059495Y-69497698D01*
X184847706Y-69462357D01*
X184847703Y-69462356D01*
X184842569Y-69461500D01*
X184617431Y-69461500D01*
X184612297Y-69462356D01*
X184612293Y-69462357D01*
X184400504Y-69497698D01*
X184400498Y-69497699D01*
X184395365Y-69498556D01*
X184390443Y-69500245D01*
X184390434Y-69500248D01*
X184187357Y-69569964D01*
X184187344Y-69569969D01*
X184182426Y-69571658D01*
X184177847Y-69574135D01*
X184177840Y-69574139D01*
X183989005Y-69676331D01*
X183988997Y-69676336D01*
X183984424Y-69678811D01*
X183980313Y-69682010D01*
X183980311Y-69682012D01*
X183810878Y-69813888D01*
X183810872Y-69813893D01*
X183806760Y-69817094D01*
X183803237Y-69820919D01*
X183803227Y-69820930D01*
X183657806Y-69978899D01*
X183657802Y-69978902D01*
X183654278Y-69982732D01*
X183651430Y-69987090D01*
X183651427Y-69987095D01*
X183565483Y-70118643D01*
X183519969Y-70160542D01*
X183460000Y-70175728D01*
X183400031Y-70160542D01*
X183354517Y-70118643D01*
X183268572Y-69987095D01*
X183265722Y-69982732D01*
X183187799Y-69898086D01*
X183116772Y-69820930D01*
X183116767Y-69820925D01*
X183113240Y-69817094D01*
X182935576Y-69678811D01*
X182930997Y-69676333D01*
X182930994Y-69676331D01*
X182742159Y-69574139D01*
X182742156Y-69574137D01*
X182737574Y-69571658D01*
X182732650Y-69569967D01*
X182732642Y-69569964D01*
X182529565Y-69500248D01*
X182529559Y-69500246D01*
X182524635Y-69498556D01*
X182519498Y-69497698D01*
X182519495Y-69497698D01*
X182307706Y-69462357D01*
X182307703Y-69462356D01*
X182302569Y-69461500D01*
X182077431Y-69461500D01*
X182072297Y-69462356D01*
X182072293Y-69462357D01*
X181860504Y-69497698D01*
X181860498Y-69497699D01*
X181855365Y-69498556D01*
X181850443Y-69500245D01*
X181850434Y-69500248D01*
X181647357Y-69569964D01*
X181647344Y-69569969D01*
X181642426Y-69571658D01*
X181637847Y-69574135D01*
X181637840Y-69574139D01*
X181449005Y-69676331D01*
X181448997Y-69676336D01*
X181444424Y-69678811D01*
X181440313Y-69682010D01*
X181440311Y-69682012D01*
X181270878Y-69813888D01*
X181270872Y-69813893D01*
X181266760Y-69817094D01*
X181263237Y-69820919D01*
X181263227Y-69820930D01*
X181117806Y-69978899D01*
X181117802Y-69978902D01*
X181114278Y-69982732D01*
X181111430Y-69987090D01*
X181111427Y-69987095D01*
X181025483Y-70118643D01*
X180979969Y-70160542D01*
X180920000Y-70175728D01*
X180860031Y-70160542D01*
X180814517Y-70118643D01*
X180728572Y-69987095D01*
X180725722Y-69982732D01*
X180647799Y-69898086D01*
X180576772Y-69820930D01*
X180576767Y-69820925D01*
X180573240Y-69817094D01*
X180395576Y-69678811D01*
X180390997Y-69676333D01*
X180390994Y-69676331D01*
X180202159Y-69574139D01*
X180202156Y-69574137D01*
X180197574Y-69571658D01*
X180192650Y-69569967D01*
X180192642Y-69569964D01*
X179989565Y-69500248D01*
X179989559Y-69500246D01*
X179984635Y-69498556D01*
X179979498Y-69497698D01*
X179979495Y-69497698D01*
X179767706Y-69462357D01*
X179767703Y-69462356D01*
X179762569Y-69461500D01*
X179537431Y-69461500D01*
X179532297Y-69462356D01*
X179532293Y-69462357D01*
X179320504Y-69497698D01*
X179320498Y-69497699D01*
X179315365Y-69498556D01*
X179310445Y-69500244D01*
X179310429Y-69500249D01*
X179204994Y-69536445D01*
X179147923Y-69542231D01*
X179094201Y-69522117D01*
X179054964Y-69480272D01*
X179052305Y-69475667D01*
X179049004Y-69469949D01*
X178921217Y-69328027D01*
X178915875Y-69324146D01*
X178915872Y-69324143D01*
X178808874Y-69246405D01*
X178766716Y-69215775D01*
X178592252Y-69138099D01*
X178585799Y-69136727D01*
X178585795Y-69136726D01*
X178411907Y-69099765D01*
X178411904Y-69099764D01*
X178405451Y-69098393D01*
X178214477Y-69098393D01*
X178208024Y-69099764D01*
X178208020Y-69099765D01*
X178034132Y-69136726D01*
X178034125Y-69136728D01*
X178027676Y-69138099D01*
X178021646Y-69140783D01*
X178021645Y-69140784D01*
X177859242Y-69213090D01*
X177859239Y-69213091D01*
X177853212Y-69215775D01*
X177847871Y-69219655D01*
X177847870Y-69219656D01*
X177704055Y-69324143D01*
X177704047Y-69324149D01*
X177698711Y-69328027D01*
X177694296Y-69332930D01*
X177694293Y-69332933D01*
X177577044Y-69463152D01*
X177520025Y-69499403D01*
X177452476Y-69500985D01*
X177449556Y-69500245D01*
X177444635Y-69498556D01*
X177439507Y-69497700D01*
X177439502Y-69497699D01*
X177227706Y-69462357D01*
X177227703Y-69462356D01*
X177222569Y-69461500D01*
X176997431Y-69461500D01*
X176992297Y-69462356D01*
X176992293Y-69462357D01*
X176780504Y-69497698D01*
X176780498Y-69497699D01*
X176775365Y-69498556D01*
X176770443Y-69500245D01*
X176770434Y-69500248D01*
X176567357Y-69569964D01*
X176567344Y-69569969D01*
X176562426Y-69571658D01*
X176557847Y-69574135D01*
X176557840Y-69574139D01*
X176369005Y-69676331D01*
X176368997Y-69676336D01*
X176364424Y-69678811D01*
X176360313Y-69682010D01*
X176360311Y-69682012D01*
X176190878Y-69813888D01*
X176190872Y-69813893D01*
X176186760Y-69817094D01*
X176183237Y-69820919D01*
X176183227Y-69820930D01*
X176037806Y-69978899D01*
X176037802Y-69978902D01*
X176034278Y-69982732D01*
X176031430Y-69987090D01*
X176031427Y-69987095D01*
X175945483Y-70118643D01*
X175899969Y-70160542D01*
X175840000Y-70175728D01*
X175780031Y-70160542D01*
X175734517Y-70118643D01*
X175648572Y-69987095D01*
X175645722Y-69982732D01*
X175567799Y-69898086D01*
X175496772Y-69820930D01*
X175496767Y-69820925D01*
X175493240Y-69817094D01*
X175315576Y-69678811D01*
X175310997Y-69676333D01*
X175310994Y-69676331D01*
X175122159Y-69574139D01*
X175122156Y-69574137D01*
X175117574Y-69571658D01*
X175112650Y-69569967D01*
X175112642Y-69569964D01*
X174909565Y-69500248D01*
X174909559Y-69500246D01*
X174904635Y-69498556D01*
X174899498Y-69497698D01*
X174899495Y-69497698D01*
X174687706Y-69462357D01*
X174687703Y-69462356D01*
X174682569Y-69461500D01*
X174457431Y-69461500D01*
X174452297Y-69462356D01*
X174452293Y-69462357D01*
X174240504Y-69497698D01*
X174240498Y-69497699D01*
X174235365Y-69498556D01*
X174230443Y-69500245D01*
X174230434Y-69500248D01*
X174027357Y-69569964D01*
X174027344Y-69569969D01*
X174022426Y-69571658D01*
X174017847Y-69574135D01*
X174017840Y-69574139D01*
X173829005Y-69676331D01*
X173828997Y-69676336D01*
X173824424Y-69678811D01*
X173820313Y-69682010D01*
X173820311Y-69682012D01*
X173650878Y-69813888D01*
X173650872Y-69813893D01*
X173646760Y-69817094D01*
X173643237Y-69820919D01*
X173643227Y-69820930D01*
X173497806Y-69978899D01*
X173497802Y-69978902D01*
X173494278Y-69982732D01*
X173491430Y-69987090D01*
X173491427Y-69987095D01*
X173405483Y-70118643D01*
X173359969Y-70160542D01*
X173300000Y-70175728D01*
X173240031Y-70160542D01*
X173194517Y-70118643D01*
X173108572Y-69987095D01*
X173105722Y-69982732D01*
X173027799Y-69898086D01*
X172956772Y-69820930D01*
X172956767Y-69820925D01*
X172953240Y-69817094D01*
X172775576Y-69678811D01*
X172770997Y-69676333D01*
X172770994Y-69676331D01*
X172582159Y-69574139D01*
X172582156Y-69574137D01*
X172577574Y-69571658D01*
X172572650Y-69569967D01*
X172572642Y-69569964D01*
X172369565Y-69500248D01*
X172369559Y-69500246D01*
X172364635Y-69498556D01*
X172359498Y-69497698D01*
X172359495Y-69497698D01*
X172147706Y-69462357D01*
X172147703Y-69462356D01*
X172142569Y-69461500D01*
X171917431Y-69461500D01*
X171912297Y-69462356D01*
X171912293Y-69462357D01*
X171700504Y-69497698D01*
X171700498Y-69497699D01*
X171695365Y-69498556D01*
X171690443Y-69500245D01*
X171690434Y-69500248D01*
X171487357Y-69569964D01*
X171487344Y-69569969D01*
X171482426Y-69571658D01*
X171477847Y-69574135D01*
X171477840Y-69574139D01*
X171289005Y-69676331D01*
X171288997Y-69676336D01*
X171284424Y-69678811D01*
X171280313Y-69682010D01*
X171280311Y-69682012D01*
X171110878Y-69813888D01*
X171110872Y-69813893D01*
X171106760Y-69817094D01*
X171103237Y-69820919D01*
X171103227Y-69820930D01*
X170957806Y-69978899D01*
X170957802Y-69978902D01*
X170954278Y-69982732D01*
X170951430Y-69987090D01*
X170951427Y-69987095D01*
X170865483Y-70118643D01*
X170819969Y-70160542D01*
X170760000Y-70175728D01*
X170700031Y-70160542D01*
X170654517Y-70118643D01*
X170568572Y-69987095D01*
X170565722Y-69982732D01*
X170487799Y-69898086D01*
X170416772Y-69820930D01*
X170416767Y-69820925D01*
X170413240Y-69817094D01*
X170235576Y-69678811D01*
X170230997Y-69676333D01*
X170230994Y-69676331D01*
X170042159Y-69574139D01*
X170042156Y-69574137D01*
X170037574Y-69571658D01*
X170032650Y-69569967D01*
X170032642Y-69569964D01*
X169829565Y-69500248D01*
X169829559Y-69500246D01*
X169824635Y-69498556D01*
X169819498Y-69497698D01*
X169819495Y-69497698D01*
X169607706Y-69462357D01*
X169607703Y-69462356D01*
X169602569Y-69461500D01*
X169377431Y-69461500D01*
X169372297Y-69462356D01*
X169372293Y-69462357D01*
X169160504Y-69497698D01*
X169160498Y-69497699D01*
X169155365Y-69498556D01*
X169150443Y-69500245D01*
X169150434Y-69500248D01*
X168947357Y-69569964D01*
X168947344Y-69569969D01*
X168942426Y-69571658D01*
X168937847Y-69574135D01*
X168937840Y-69574139D01*
X168749005Y-69676331D01*
X168748997Y-69676336D01*
X168744424Y-69678811D01*
X168740313Y-69682010D01*
X168740311Y-69682012D01*
X168570878Y-69813888D01*
X168570872Y-69813893D01*
X168566760Y-69817094D01*
X168563237Y-69820919D01*
X168563227Y-69820930D01*
X168417806Y-69978899D01*
X168417802Y-69978902D01*
X168414278Y-69982732D01*
X168411430Y-69987090D01*
X168411427Y-69987095D01*
X168325483Y-70118643D01*
X168279969Y-70160542D01*
X168220000Y-70175728D01*
X168160031Y-70160542D01*
X168114517Y-70118643D01*
X168028572Y-69987095D01*
X168025722Y-69982732D01*
X167947799Y-69898086D01*
X167876772Y-69820930D01*
X167876767Y-69820925D01*
X167873240Y-69817094D01*
X167695576Y-69678811D01*
X167690997Y-69676333D01*
X167690994Y-69676331D01*
X167502159Y-69574139D01*
X167502156Y-69574137D01*
X167497574Y-69571658D01*
X167492650Y-69569967D01*
X167492642Y-69569964D01*
X167289565Y-69500248D01*
X167289559Y-69500246D01*
X167284635Y-69498556D01*
X167279498Y-69497698D01*
X167279495Y-69497698D01*
X167067706Y-69462357D01*
X167067703Y-69462356D01*
X167062569Y-69461500D01*
X166837431Y-69461500D01*
X166832297Y-69462356D01*
X166832293Y-69462357D01*
X166620504Y-69497698D01*
X166620498Y-69497699D01*
X166615365Y-69498556D01*
X166610443Y-69500245D01*
X166610434Y-69500248D01*
X166407357Y-69569964D01*
X166407344Y-69569969D01*
X166402426Y-69571658D01*
X166397847Y-69574135D01*
X166397840Y-69574139D01*
X166209005Y-69676331D01*
X166208997Y-69676336D01*
X166204424Y-69678811D01*
X166200313Y-69682010D01*
X166200311Y-69682012D01*
X166030878Y-69813888D01*
X166030872Y-69813893D01*
X166026760Y-69817094D01*
X166023237Y-69820919D01*
X166023227Y-69820930D01*
X165877806Y-69978899D01*
X165877802Y-69978902D01*
X165874278Y-69982732D01*
X165871430Y-69987090D01*
X165871427Y-69987095D01*
X165785483Y-70118643D01*
X165739969Y-70160542D01*
X165680000Y-70175728D01*
X165620031Y-70160542D01*
X165574517Y-70118643D01*
X165488572Y-69987095D01*
X165485722Y-69982732D01*
X165407799Y-69898086D01*
X165336772Y-69820930D01*
X165336767Y-69820925D01*
X165333240Y-69817094D01*
X165155576Y-69678811D01*
X165150997Y-69676333D01*
X165150994Y-69676331D01*
X164962159Y-69574139D01*
X164962156Y-69574137D01*
X164957574Y-69571658D01*
X164952650Y-69569967D01*
X164952642Y-69569964D01*
X164749565Y-69500248D01*
X164749559Y-69500246D01*
X164744635Y-69498556D01*
X164739498Y-69497698D01*
X164739495Y-69497698D01*
X164527706Y-69462357D01*
X164527703Y-69462356D01*
X164522569Y-69461500D01*
X164297431Y-69461500D01*
X164292297Y-69462356D01*
X164292293Y-69462357D01*
X164080504Y-69497698D01*
X164080498Y-69497699D01*
X164075365Y-69498556D01*
X164070443Y-69500245D01*
X164070434Y-69500248D01*
X163867358Y-69569964D01*
X163867349Y-69569967D01*
X163862426Y-69571658D01*
X163857841Y-69574138D01*
X163855113Y-69575336D01*
X163794095Y-69585518D01*
X163735584Y-69565431D01*
X163693686Y-69519917D01*
X163678500Y-69459948D01*
X163678500Y-65940925D01*
X169570610Y-65940925D01*
X169589202Y-66165293D01*
X169644470Y-66383541D01*
X169646563Y-66388314D01*
X169646565Y-66388318D01*
X169664048Y-66428175D01*
X169734906Y-66589716D01*
X169858044Y-66778193D01*
X169861572Y-66782025D01*
X170006993Y-66939994D01*
X170006997Y-66939998D01*
X170010526Y-66943831D01*
X170188190Y-67082114D01*
X170386192Y-67189267D01*
X170391121Y-67190959D01*
X170391123Y-67190960D01*
X170415988Y-67199496D01*
X170599131Y-67262369D01*
X170821197Y-67299425D01*
X171041124Y-67299425D01*
X171046335Y-67299425D01*
X171268401Y-67262369D01*
X171481340Y-67189267D01*
X171679342Y-67082114D01*
X171857006Y-66943831D01*
X172009488Y-66778193D01*
X172098583Y-66641821D01*
X172144094Y-66599926D01*
X172204063Y-66584739D01*
X172264033Y-66599925D01*
X172309547Y-66641823D01*
X172395588Y-66773517D01*
X172401976Y-66781724D01*
X172547333Y-66939625D01*
X172554977Y-66946662D01*
X172724354Y-67078493D01*
X172733047Y-67084172D01*
X172921808Y-67186325D01*
X172931325Y-67190500D01*
X173134323Y-67260189D01*
X173144393Y-67262739D01*
X173206227Y-67273057D01*
X173217364Y-67272481D01*
X173219766Y-67261589D01*
X173727766Y-67261589D01*
X173730167Y-67272481D01*
X173741304Y-67273057D01*
X173803138Y-67262739D01*
X173813208Y-67260189D01*
X174016206Y-67190500D01*
X174025723Y-67186325D01*
X174214484Y-67084172D01*
X174223177Y-67078493D01*
X174392554Y-66946662D01*
X174400198Y-66939625D01*
X174545555Y-66781724D01*
X174551947Y-66773512D01*
X174637984Y-66641824D01*
X174683498Y-66599925D01*
X174743467Y-66584739D01*
X174803436Y-66599925D01*
X174848949Y-66641823D01*
X174938044Y-66778193D01*
X174941572Y-66782025D01*
X175086993Y-66939994D01*
X175086997Y-66939998D01*
X175090526Y-66943831D01*
X175268190Y-67082114D01*
X175466192Y-67189267D01*
X175471121Y-67190959D01*
X175471123Y-67190960D01*
X175495988Y-67199496D01*
X175679131Y-67262369D01*
X175901197Y-67299425D01*
X176121124Y-67299425D01*
X176126335Y-67299425D01*
X176348401Y-67262369D01*
X176561340Y-67189267D01*
X176759342Y-67082114D01*
X176937006Y-66943831D01*
X177089488Y-66778193D01*
X177178583Y-66641821D01*
X177224094Y-66599926D01*
X177284063Y-66584739D01*
X177344033Y-66599925D01*
X177389547Y-66641823D01*
X177475588Y-66773517D01*
X177481976Y-66781724D01*
X177627333Y-66939625D01*
X177634977Y-66946662D01*
X177804354Y-67078493D01*
X177813047Y-67084172D01*
X178001808Y-67186325D01*
X178011325Y-67190500D01*
X178214323Y-67260189D01*
X178224393Y-67262739D01*
X178286227Y-67273057D01*
X178297364Y-67272481D01*
X178299766Y-67261589D01*
X178807766Y-67261589D01*
X178810167Y-67272481D01*
X178821304Y-67273057D01*
X178883138Y-67262739D01*
X178893208Y-67260189D01*
X179096206Y-67190500D01*
X179105723Y-67186325D01*
X179294484Y-67084172D01*
X179303177Y-67078493D01*
X179472554Y-66946662D01*
X179480198Y-66939625D01*
X179625555Y-66781724D01*
X179631947Y-66773512D01*
X179717984Y-66641824D01*
X179763498Y-66599925D01*
X179823467Y-66584739D01*
X179883436Y-66599925D01*
X179928949Y-66641823D01*
X180018044Y-66778193D01*
X180021572Y-66782025D01*
X180166993Y-66939994D01*
X180166997Y-66939998D01*
X180170526Y-66943831D01*
X180348190Y-67082114D01*
X180546192Y-67189267D01*
X180551121Y-67190959D01*
X180551123Y-67190960D01*
X180575988Y-67199496D01*
X180759131Y-67262369D01*
X180981197Y-67299425D01*
X181201124Y-67299425D01*
X181206335Y-67299425D01*
X181428401Y-67262369D01*
X181641340Y-67189267D01*
X181839342Y-67082114D01*
X182017006Y-66943831D01*
X182169488Y-66778193D01*
X182258284Y-66642279D01*
X182303796Y-66600382D01*
X182363766Y-66585196D01*
X182423736Y-66600382D01*
X182469247Y-66642279D01*
X182558044Y-66778193D01*
X182561572Y-66782025D01*
X182706993Y-66939994D01*
X182706997Y-66939998D01*
X182710526Y-66943831D01*
X182888190Y-67082114D01*
X183086192Y-67189267D01*
X183091121Y-67190959D01*
X183091123Y-67190960D01*
X183115988Y-67199496D01*
X183299131Y-67262369D01*
X183521197Y-67299425D01*
X183741124Y-67299425D01*
X183746335Y-67299425D01*
X183968401Y-67262369D01*
X184181340Y-67189267D01*
X184379342Y-67082114D01*
X184557006Y-66943831D01*
X184709488Y-66778193D01*
X184798583Y-66641821D01*
X184844094Y-66599926D01*
X184904063Y-66584739D01*
X184964033Y-66599925D01*
X185009547Y-66641823D01*
X185095588Y-66773517D01*
X185101976Y-66781724D01*
X185247333Y-66939625D01*
X185254977Y-66946662D01*
X185424354Y-67078493D01*
X185433047Y-67084172D01*
X185621808Y-67186325D01*
X185631325Y-67190500D01*
X185834323Y-67260189D01*
X185844393Y-67262739D01*
X185906227Y-67273057D01*
X185917364Y-67272481D01*
X185919766Y-67261589D01*
X185919766Y-64620261D01*
X185917364Y-64609368D01*
X185906227Y-64608792D01*
X185844393Y-64619110D01*
X185834323Y-64621660D01*
X185631325Y-64691349D01*
X185621808Y-64695524D01*
X185433047Y-64797677D01*
X185424354Y-64803356D01*
X185254977Y-64935187D01*
X185247333Y-64942224D01*
X185101976Y-65100125D01*
X185095582Y-65108340D01*
X185009546Y-65240026D01*
X184964033Y-65281924D01*
X184904063Y-65297110D01*
X184844094Y-65281923D01*
X184798582Y-65240026D01*
X184709488Y-65103657D01*
X184580471Y-64963508D01*
X184560538Y-64941855D01*
X184560533Y-64941850D01*
X184557006Y-64938019D01*
X184379342Y-64799736D01*
X184374763Y-64797258D01*
X184374760Y-64797256D01*
X184185925Y-64695064D01*
X184185922Y-64695062D01*
X184181340Y-64692583D01*
X184176416Y-64690892D01*
X184176408Y-64690889D01*
X183973331Y-64621173D01*
X183973325Y-64621171D01*
X183968401Y-64619481D01*
X183963264Y-64618623D01*
X183963261Y-64618623D01*
X183751472Y-64583282D01*
X183751469Y-64583281D01*
X183746335Y-64582425D01*
X183521197Y-64582425D01*
X183516063Y-64583281D01*
X183516059Y-64583282D01*
X183304270Y-64618623D01*
X183304264Y-64618624D01*
X183299131Y-64619481D01*
X183294209Y-64621170D01*
X183294200Y-64621173D01*
X183091123Y-64690889D01*
X183091110Y-64690894D01*
X183086192Y-64692583D01*
X183081613Y-64695060D01*
X183081606Y-64695064D01*
X182892771Y-64797256D01*
X182892763Y-64797261D01*
X182888190Y-64799736D01*
X182884079Y-64802935D01*
X182884077Y-64802937D01*
X182714644Y-64934813D01*
X182714638Y-64934818D01*
X182710526Y-64938019D01*
X182707003Y-64941844D01*
X182706993Y-64941855D01*
X182561572Y-65099824D01*
X182561568Y-65099827D01*
X182558044Y-65103657D01*
X182555196Y-65108015D01*
X182555193Y-65108020D01*
X182469249Y-65239568D01*
X182423735Y-65281467D01*
X182363766Y-65296653D01*
X182303797Y-65281467D01*
X182258283Y-65239568D01*
X182251646Y-65229410D01*
X182169488Y-65103657D01*
X182040471Y-64963508D01*
X182020538Y-64941855D01*
X182020533Y-64941850D01*
X182017006Y-64938019D01*
X181839342Y-64799736D01*
X181834763Y-64797258D01*
X181834760Y-64797256D01*
X181645925Y-64695064D01*
X181645922Y-64695062D01*
X181641340Y-64692583D01*
X181636416Y-64690892D01*
X181636408Y-64690889D01*
X181433331Y-64621173D01*
X181433325Y-64621171D01*
X181428401Y-64619481D01*
X181423264Y-64618623D01*
X181423261Y-64618623D01*
X181211472Y-64583282D01*
X181211469Y-64583281D01*
X181206335Y-64582425D01*
X180981197Y-64582425D01*
X180976063Y-64583281D01*
X180976059Y-64583282D01*
X180764270Y-64618623D01*
X180764264Y-64618624D01*
X180759131Y-64619481D01*
X180754209Y-64621170D01*
X180754200Y-64621173D01*
X180551123Y-64690889D01*
X180551110Y-64690894D01*
X180546192Y-64692583D01*
X180541613Y-64695060D01*
X180541606Y-64695064D01*
X180352771Y-64797256D01*
X180352763Y-64797261D01*
X180348190Y-64799736D01*
X180344079Y-64802935D01*
X180344077Y-64802937D01*
X180174644Y-64934813D01*
X180174638Y-64934818D01*
X180170526Y-64938019D01*
X180167003Y-64941844D01*
X180166993Y-64941855D01*
X180021572Y-65099824D01*
X180021568Y-65099827D01*
X180018044Y-65103657D01*
X179928950Y-65240026D01*
X179883436Y-65281924D01*
X179823467Y-65297110D01*
X179763498Y-65281924D01*
X179717984Y-65240026D01*
X179631943Y-65108332D01*
X179625555Y-65100125D01*
X179480198Y-64942224D01*
X179472554Y-64935187D01*
X179303177Y-64803356D01*
X179294484Y-64797677D01*
X179105723Y-64695524D01*
X179096206Y-64691349D01*
X178893208Y-64621660D01*
X178883138Y-64619110D01*
X178821304Y-64608792D01*
X178810167Y-64609368D01*
X178807766Y-64620261D01*
X178807766Y-67261589D01*
X178299766Y-67261589D01*
X178299766Y-64620261D01*
X178297364Y-64609368D01*
X178286227Y-64608792D01*
X178224393Y-64619110D01*
X178214323Y-64621660D01*
X178011325Y-64691349D01*
X178001808Y-64695524D01*
X177813047Y-64797677D01*
X177804354Y-64803356D01*
X177634977Y-64935187D01*
X177627333Y-64942224D01*
X177481976Y-65100125D01*
X177475582Y-65108340D01*
X177389546Y-65240026D01*
X177344033Y-65281924D01*
X177284063Y-65297110D01*
X177224094Y-65281923D01*
X177178582Y-65240026D01*
X177089488Y-65103657D01*
X176960471Y-64963508D01*
X176940538Y-64941855D01*
X176940533Y-64941850D01*
X176937006Y-64938019D01*
X176759342Y-64799736D01*
X176754763Y-64797258D01*
X176754760Y-64797256D01*
X176565925Y-64695064D01*
X176565922Y-64695062D01*
X176561340Y-64692583D01*
X176556416Y-64690892D01*
X176556408Y-64690889D01*
X176353331Y-64621173D01*
X176353325Y-64621171D01*
X176348401Y-64619481D01*
X176343264Y-64618623D01*
X176343261Y-64618623D01*
X176131472Y-64583282D01*
X176131469Y-64583281D01*
X176126335Y-64582425D01*
X175901197Y-64582425D01*
X175896063Y-64583281D01*
X175896059Y-64583282D01*
X175684270Y-64618623D01*
X175684264Y-64618624D01*
X175679131Y-64619481D01*
X175674209Y-64621170D01*
X175674200Y-64621173D01*
X175471123Y-64690889D01*
X175471110Y-64690894D01*
X175466192Y-64692583D01*
X175461613Y-64695060D01*
X175461606Y-64695064D01*
X175272771Y-64797256D01*
X175272763Y-64797261D01*
X175268190Y-64799736D01*
X175264079Y-64802935D01*
X175264077Y-64802937D01*
X175094644Y-64934813D01*
X175094638Y-64934818D01*
X175090526Y-64938019D01*
X175087003Y-64941844D01*
X175086993Y-64941855D01*
X174941572Y-65099824D01*
X174941568Y-65099827D01*
X174938044Y-65103657D01*
X174848950Y-65240026D01*
X174803436Y-65281924D01*
X174743467Y-65297110D01*
X174683498Y-65281924D01*
X174637984Y-65240026D01*
X174551943Y-65108332D01*
X174545555Y-65100125D01*
X174400198Y-64942224D01*
X174392554Y-64935187D01*
X174223177Y-64803356D01*
X174214484Y-64797677D01*
X174025723Y-64695524D01*
X174016206Y-64691349D01*
X173813208Y-64621660D01*
X173803138Y-64619110D01*
X173741304Y-64608792D01*
X173730167Y-64609368D01*
X173727766Y-64620261D01*
X173727766Y-67261589D01*
X173219766Y-67261589D01*
X173219766Y-64620261D01*
X173217364Y-64609368D01*
X173206227Y-64608792D01*
X173144393Y-64619110D01*
X173134323Y-64621660D01*
X172931325Y-64691349D01*
X172921808Y-64695524D01*
X172733047Y-64797677D01*
X172724354Y-64803356D01*
X172554977Y-64935187D01*
X172547333Y-64942224D01*
X172401976Y-65100125D01*
X172395582Y-65108340D01*
X172309546Y-65240026D01*
X172264033Y-65281924D01*
X172204063Y-65297110D01*
X172144094Y-65281923D01*
X172098582Y-65240026D01*
X172009488Y-65103657D01*
X171880471Y-64963508D01*
X171860538Y-64941855D01*
X171860533Y-64941850D01*
X171857006Y-64938019D01*
X171679342Y-64799736D01*
X171674763Y-64797258D01*
X171674760Y-64797256D01*
X171485925Y-64695064D01*
X171485922Y-64695062D01*
X171481340Y-64692583D01*
X171476416Y-64690892D01*
X171476408Y-64690889D01*
X171273331Y-64621173D01*
X171273325Y-64621171D01*
X171268401Y-64619481D01*
X171263264Y-64618623D01*
X171263261Y-64618623D01*
X171051472Y-64583282D01*
X171051469Y-64583281D01*
X171046335Y-64582425D01*
X170821197Y-64582425D01*
X170816063Y-64583281D01*
X170816059Y-64583282D01*
X170604270Y-64618623D01*
X170604264Y-64618624D01*
X170599131Y-64619481D01*
X170594209Y-64621170D01*
X170594200Y-64621173D01*
X170391123Y-64690889D01*
X170391110Y-64690894D01*
X170386192Y-64692583D01*
X170381613Y-64695060D01*
X170381606Y-64695064D01*
X170192771Y-64797256D01*
X170192763Y-64797261D01*
X170188190Y-64799736D01*
X170184079Y-64802935D01*
X170184077Y-64802937D01*
X170014644Y-64934813D01*
X170014638Y-64934818D01*
X170010526Y-64938019D01*
X170007003Y-64941844D01*
X170006993Y-64941855D01*
X169861572Y-65099824D01*
X169861568Y-65099827D01*
X169858044Y-65103657D01*
X169855196Y-65108015D01*
X169855193Y-65108020D01*
X169737758Y-65287768D01*
X169734906Y-65292134D01*
X169732814Y-65296903D01*
X169732812Y-65296907D01*
X169646565Y-65493531D01*
X169646562Y-65493539D01*
X169644470Y-65498309D01*
X169643189Y-65503365D01*
X169643188Y-65503370D01*
X169595644Y-65691117D01*
X169589202Y-65716557D01*
X169588772Y-65721745D01*
X169588771Y-65721752D01*
X169578703Y-65843259D01*
X169570610Y-65940925D01*
X163678500Y-65940925D01*
X163678500Y-53280578D01*
X195387238Y-53280578D01*
X195387776Y-53286384D01*
X195406937Y-53493171D01*
X195406938Y-53493181D01*
X195407476Y-53498977D01*
X195467499Y-53709939D01*
X195565265Y-53906279D01*
X195568773Y-53910925D01*
X195568776Y-53910929D01*
X195693931Y-54076661D01*
X195693935Y-54076665D01*
X195697444Y-54081312D01*
X195814257Y-54187800D01*
X195850561Y-54246433D01*
X195850561Y-54315396D01*
X195814257Y-54374030D01*
X195702121Y-54476256D01*
X195694302Y-54484832D01*
X195569203Y-54650490D01*
X195563095Y-54660355D01*
X195470562Y-54846186D01*
X195466374Y-54856998D01*
X195422125Y-55012516D01*
X195421596Y-55023957D01*
X195432741Y-55026578D01*
X197718875Y-55026578D01*
X197730019Y-55023957D01*
X197729490Y-55012516D01*
X197685241Y-54856998D01*
X197681053Y-54846186D01*
X197588520Y-54660355D01*
X197582412Y-54650490D01*
X197457313Y-54484832D01*
X197449495Y-54476256D01*
X197337358Y-54374030D01*
X197301054Y-54315396D01*
X197301054Y-54246433D01*
X197337356Y-54187803D01*
X197454172Y-54081312D01*
X197586351Y-53906279D01*
X197684117Y-53709939D01*
X197744140Y-53498977D01*
X197764378Y-53280578D01*
X197744140Y-53062179D01*
X197684117Y-52851217D01*
X197586351Y-52654877D01*
X197582840Y-52650228D01*
X197582839Y-52650226D01*
X197510495Y-52554427D01*
X197485978Y-52493803D01*
X197495149Y-52429057D01*
X197535534Y-52377629D01*
X197614069Y-52318839D01*
X197701697Y-52201782D01*
X197752797Y-52064779D01*
X197759308Y-52004216D01*
X197759308Y-50556940D01*
X197752797Y-50496377D01*
X197701697Y-50359374D01*
X197614069Y-50242317D01*
X197606857Y-50236918D01*
X197504225Y-50160088D01*
X197504222Y-50160086D01*
X197497012Y-50154689D01*
X197488574Y-50151542D01*
X197488571Y-50151540D01*
X197367388Y-50106341D01*
X197367386Y-50106340D01*
X197360009Y-50103589D01*
X197352181Y-50102747D01*
X197352175Y-50102746D01*
X197302796Y-50097438D01*
X197302793Y-50097437D01*
X197299446Y-50097078D01*
X195852170Y-50097078D01*
X195848823Y-50097437D01*
X195848819Y-50097438D01*
X195799440Y-50102746D01*
X195799433Y-50102747D01*
X195791607Y-50103589D01*
X195784231Y-50106339D01*
X195784227Y-50106341D01*
X195663044Y-50151540D01*
X195663038Y-50151543D01*
X195654604Y-50154689D01*
X195647396Y-50160084D01*
X195647390Y-50160088D01*
X195544758Y-50236918D01*
X195544754Y-50236921D01*
X195537547Y-50242317D01*
X195532151Y-50249524D01*
X195532148Y-50249528D01*
X195455318Y-50352160D01*
X195455314Y-50352166D01*
X195449919Y-50359374D01*
X195446773Y-50367808D01*
X195446770Y-50367814D01*
X195401571Y-50488997D01*
X195401569Y-50489001D01*
X195398819Y-50496377D01*
X195397977Y-50504203D01*
X195397976Y-50504210D01*
X195392668Y-50553589D01*
X195392308Y-50556940D01*
X195392308Y-52004216D01*
X195392667Y-52007563D01*
X195392668Y-52007566D01*
X195397976Y-52056945D01*
X195397977Y-52056951D01*
X195398819Y-52064779D01*
X195401570Y-52072156D01*
X195401571Y-52072158D01*
X195446770Y-52193341D01*
X195446772Y-52193344D01*
X195449919Y-52201782D01*
X195455316Y-52208992D01*
X195455318Y-52208995D01*
X195506109Y-52276843D01*
X195537547Y-52318839D01*
X195616079Y-52377628D01*
X195656466Y-52429057D01*
X195665637Y-52493803D01*
X195641121Y-52554426D01*
X195568775Y-52650227D01*
X195568768Y-52650238D01*
X195565265Y-52654877D01*
X195562671Y-52660084D01*
X195562668Y-52660091D01*
X195486120Y-52813821D01*
X195467499Y-52851217D01*
X195407476Y-53062179D01*
X195406939Y-53067972D01*
X195406937Y-53067984D01*
X195387776Y-53274772D01*
X195387238Y-53280578D01*
X163678500Y-53280578D01*
X163678500Y-51363767D01*
X163679027Y-51352583D01*
X163680702Y-51345091D01*
X163678562Y-51277014D01*
X163678500Y-51273055D01*
X163678500Y-51249108D01*
X163678500Y-51245144D01*
X163677994Y-51241147D01*
X163677061Y-51229297D01*
X163675673Y-51185111D01*
X163670020Y-51165657D01*
X163666012Y-51146298D01*
X163664467Y-51134068D01*
X163663474Y-51126203D01*
X163660556Y-51118833D01*
X163660555Y-51118829D01*
X163647196Y-51085089D01*
X163643350Y-51073855D01*
X163633230Y-51039020D01*
X163633229Y-51039018D01*
X163631018Y-51031407D01*
X163620708Y-51013973D01*
X163612007Y-50996213D01*
X163604552Y-50977383D01*
X163578565Y-50941616D01*
X163572047Y-50931693D01*
X163553578Y-50900463D01*
X163549542Y-50893638D01*
X163535218Y-50879314D01*
X163522382Y-50864286D01*
X163510472Y-50847893D01*
X163504367Y-50842842D01*
X163504360Y-50842835D01*
X163476394Y-50819700D01*
X163467615Y-50811711D01*
X160967122Y-48311217D01*
X160942491Y-48276366D01*
X160930907Y-48235292D01*
X160929916Y-48225859D01*
X160913542Y-48070072D01*
X160876684Y-47956637D01*
X160856569Y-47894728D01*
X160856568Y-47894726D01*
X160854527Y-47888444D01*
X160759040Y-47723056D01*
X160631253Y-47581134D01*
X160625911Y-47577253D01*
X160625908Y-47577250D01*
X160548057Y-47520688D01*
X160476752Y-47468882D01*
X160302288Y-47391206D01*
X160295835Y-47389834D01*
X160295831Y-47389833D01*
X160121943Y-47352872D01*
X160121940Y-47352871D01*
X160115487Y-47351500D01*
X159924513Y-47351500D01*
X159918060Y-47352871D01*
X159918056Y-47352872D01*
X159744168Y-47389833D01*
X159744161Y-47389835D01*
X159737712Y-47391206D01*
X159731682Y-47393890D01*
X159731681Y-47393891D01*
X159569278Y-47466197D01*
X159569275Y-47466198D01*
X159563248Y-47468882D01*
X159557907Y-47472762D01*
X159557906Y-47472763D01*
X159414091Y-47577250D01*
X159414083Y-47577256D01*
X159408747Y-47581134D01*
X159404330Y-47586039D01*
X159404325Y-47586044D01*
X159285379Y-47718148D01*
X159280960Y-47723056D01*
X159277661Y-47728769D01*
X159277658Y-47728774D01*
X159188777Y-47882721D01*
X159185473Y-47888444D01*
X159183434Y-47894718D01*
X159183430Y-47894728D01*
X159128497Y-48063794D01*
X159128495Y-48063801D01*
X159126458Y-48070072D01*
X159125768Y-48076633D01*
X159125768Y-48076635D01*
X159109748Y-48229060D01*
X159106496Y-48260000D01*
X159126458Y-48449928D01*
X159128495Y-48456200D01*
X159128497Y-48456205D01*
X159183430Y-48625271D01*
X159183433Y-48625278D01*
X159185473Y-48631556D01*
X159280960Y-48796944D01*
X159408747Y-48938866D01*
X159563248Y-49051118D01*
X159737712Y-49128794D01*
X159924513Y-49168500D01*
X159980406Y-49168500D01*
X160028624Y-49178091D01*
X160069501Y-49205405D01*
X162374595Y-51510500D01*
X162401909Y-51551377D01*
X162411500Y-51599595D01*
X162411500Y-69393628D01*
X162397529Y-69451294D01*
X162358716Y-69496173D01*
X162303666Y-69518312D01*
X162244588Y-69512801D01*
X162209442Y-69500735D01*
X162199372Y-69498185D01*
X161987664Y-69462857D01*
X161977316Y-69462000D01*
X161762684Y-69462000D01*
X161752335Y-69462857D01*
X161540627Y-69498185D01*
X161530557Y-69500735D01*
X161327555Y-69570426D01*
X161315110Y-69575885D01*
X161254092Y-69586065D01*
X161195583Y-69565978D01*
X161153686Y-69520465D01*
X161138500Y-69460496D01*
X161138500Y-56443768D01*
X161139027Y-56432584D01*
X161140702Y-56425092D01*
X161138561Y-56357001D01*
X161138500Y-56353044D01*
X161138500Y-56329109D01*
X161138500Y-56325144D01*
X161137995Y-56321152D01*
X161137062Y-56309305D01*
X161135674Y-56265111D01*
X161130017Y-56245642D01*
X161126013Y-56226302D01*
X161123474Y-56206203D01*
X161107200Y-56165099D01*
X161103356Y-56153872D01*
X161093230Y-56119017D01*
X161093229Y-56119016D01*
X161091019Y-56111407D01*
X161080703Y-56093964D01*
X161072005Y-56076209D01*
X161064552Y-56057383D01*
X161038561Y-56021609D01*
X161032055Y-56011705D01*
X161009542Y-55973638D01*
X160995218Y-55959314D01*
X160982382Y-55944286D01*
X160970472Y-55927893D01*
X160964361Y-55922837D01*
X160963710Y-55922144D01*
X160940998Y-55888343D01*
X160930252Y-55849063D01*
X160913542Y-55690072D01*
X160854527Y-55508444D01*
X160759040Y-55343056D01*
X160631253Y-55201134D01*
X160625911Y-55197253D01*
X160625908Y-55197250D01*
X160548057Y-55140688D01*
X160476752Y-55088882D01*
X160302288Y-55011206D01*
X160295835Y-55009834D01*
X160295831Y-55009833D01*
X160121943Y-54972872D01*
X160121940Y-54972871D01*
X160115487Y-54971500D01*
X159924513Y-54971500D01*
X159918060Y-54972871D01*
X159918056Y-54972872D01*
X159744168Y-55009833D01*
X159744161Y-55009835D01*
X159737712Y-55011206D01*
X159731682Y-55013890D01*
X159731681Y-55013891D01*
X159569278Y-55086197D01*
X159569275Y-55086198D01*
X159563248Y-55088882D01*
X159557907Y-55092762D01*
X159557906Y-55092763D01*
X159414091Y-55197250D01*
X159414083Y-55197256D01*
X159408747Y-55201134D01*
X159404330Y-55206039D01*
X159404325Y-55206044D01*
X159285379Y-55338148D01*
X159280960Y-55343056D01*
X159277661Y-55348769D01*
X159277658Y-55348774D01*
X159188777Y-55502721D01*
X159185473Y-55508444D01*
X159183434Y-55514718D01*
X159183430Y-55514728D01*
X159128497Y-55683794D01*
X159128495Y-55683801D01*
X159126458Y-55690072D01*
X159125768Y-55696633D01*
X159125768Y-55696635D01*
X159123841Y-55714969D01*
X159106496Y-55880000D01*
X159126458Y-56069928D01*
X159142408Y-56119017D01*
X159183430Y-56245271D01*
X159183433Y-56245278D01*
X159185473Y-56251556D01*
X159280960Y-56416944D01*
X159408747Y-56558866D01*
X159563248Y-56671118D01*
X159737712Y-56748794D01*
X159744175Y-56750167D01*
X159744176Y-56750168D01*
X159771698Y-56756019D01*
X159823074Y-56779976D01*
X159858748Y-56824031D01*
X159871500Y-56879265D01*
X159871500Y-69393099D01*
X159857529Y-69450765D01*
X159818716Y-69495644D01*
X159763666Y-69517783D01*
X159704588Y-69512272D01*
X159669565Y-69500248D01*
X159669559Y-69500246D01*
X159664635Y-69498556D01*
X159659498Y-69497698D01*
X159659495Y-69497698D01*
X159447706Y-69462357D01*
X159447703Y-69462356D01*
X159442569Y-69461500D01*
X159217431Y-69461500D01*
X159212297Y-69462356D01*
X159212293Y-69462357D01*
X159000504Y-69497698D01*
X159000498Y-69497699D01*
X158995365Y-69498556D01*
X158990443Y-69500245D01*
X158990434Y-69500248D01*
X158787357Y-69569964D01*
X158787344Y-69569969D01*
X158782426Y-69571658D01*
X158777847Y-69574135D01*
X158777840Y-69574139D01*
X158589005Y-69676331D01*
X158588997Y-69676336D01*
X158584424Y-69678811D01*
X158580313Y-69682010D01*
X158580311Y-69682012D01*
X158410878Y-69813888D01*
X158410872Y-69813893D01*
X158406760Y-69817094D01*
X158403237Y-69820919D01*
X158403227Y-69820930D01*
X158257806Y-69978899D01*
X158257802Y-69978902D01*
X158254278Y-69982732D01*
X158251430Y-69987090D01*
X158251427Y-69987095D01*
X158165483Y-70118643D01*
X158119969Y-70160542D01*
X158060000Y-70175728D01*
X158000031Y-70160542D01*
X157954517Y-70118643D01*
X157868572Y-69987095D01*
X157865722Y-69982732D01*
X157787799Y-69898086D01*
X157716772Y-69820930D01*
X157716767Y-69820925D01*
X157713240Y-69817094D01*
X157535576Y-69678811D01*
X157530997Y-69676333D01*
X157530994Y-69676331D01*
X157342159Y-69574139D01*
X157342156Y-69574137D01*
X157337574Y-69571658D01*
X157332650Y-69569967D01*
X157332642Y-69569964D01*
X157129565Y-69500248D01*
X157129559Y-69500246D01*
X157124635Y-69498556D01*
X157119498Y-69497698D01*
X157119495Y-69497698D01*
X156907706Y-69462357D01*
X156907703Y-69462356D01*
X156902569Y-69461500D01*
X156677431Y-69461500D01*
X156672297Y-69462356D01*
X156672293Y-69462357D01*
X156460504Y-69497698D01*
X156460498Y-69497699D01*
X156455365Y-69498556D01*
X156450443Y-69500245D01*
X156450434Y-69500248D01*
X156247357Y-69569964D01*
X156247344Y-69569969D01*
X156242426Y-69571658D01*
X156237847Y-69574135D01*
X156237840Y-69574139D01*
X156049005Y-69676331D01*
X156048997Y-69676336D01*
X156044424Y-69678811D01*
X156040313Y-69682010D01*
X156040311Y-69682012D01*
X155870878Y-69813888D01*
X155870872Y-69813893D01*
X155866760Y-69817094D01*
X155863237Y-69820919D01*
X155863227Y-69820930D01*
X155717806Y-69978899D01*
X155717802Y-69978902D01*
X155714278Y-69982732D01*
X155711430Y-69987090D01*
X155711427Y-69987095D01*
X155625483Y-70118643D01*
X155579969Y-70160542D01*
X155520000Y-70175728D01*
X155460031Y-70160542D01*
X155414517Y-70118643D01*
X155328572Y-69987095D01*
X155325722Y-69982732D01*
X155247799Y-69898086D01*
X155176772Y-69820930D01*
X155176767Y-69820925D01*
X155173240Y-69817094D01*
X154995576Y-69678811D01*
X154990997Y-69676333D01*
X154990994Y-69676331D01*
X154802159Y-69574139D01*
X154802156Y-69574137D01*
X154797574Y-69571658D01*
X154792650Y-69569967D01*
X154792642Y-69569964D01*
X154589565Y-69500248D01*
X154589559Y-69500246D01*
X154584635Y-69498556D01*
X154579498Y-69497698D01*
X154579495Y-69497698D01*
X154367706Y-69462357D01*
X154367703Y-69462356D01*
X154362569Y-69461500D01*
X154137431Y-69461500D01*
X154132297Y-69462356D01*
X154132293Y-69462357D01*
X153920504Y-69497698D01*
X153920498Y-69497699D01*
X153915365Y-69498556D01*
X153910443Y-69500245D01*
X153910434Y-69500248D01*
X153707357Y-69569964D01*
X153707344Y-69569969D01*
X153702426Y-69571658D01*
X153697847Y-69574135D01*
X153697840Y-69574139D01*
X153509005Y-69676331D01*
X153508997Y-69676336D01*
X153504424Y-69678811D01*
X153500313Y-69682010D01*
X153500311Y-69682012D01*
X153330878Y-69813888D01*
X153330872Y-69813893D01*
X153326760Y-69817094D01*
X153323237Y-69820919D01*
X153323227Y-69820930D01*
X153252201Y-69898086D01*
X153202377Y-69931228D01*
X153142881Y-69937647D01*
X153087134Y-69915895D01*
X153047710Y-69870877D01*
X153033500Y-69812748D01*
X153033500Y-66354594D01*
X153043091Y-66306376D01*
X153070405Y-66265499D01*
X153115681Y-66220223D01*
X156297000Y-66220223D01*
X156297359Y-66226938D01*
X156302662Y-66276257D01*
X156306259Y-66291478D01*
X156351405Y-66412519D01*
X156359954Y-66428175D01*
X156436697Y-66530692D01*
X156449307Y-66543302D01*
X156551824Y-66620045D01*
X156567480Y-66628594D01*
X156688521Y-66673740D01*
X156703742Y-66677337D01*
X156753061Y-66682640D01*
X156759777Y-66683000D01*
X157209410Y-66683000D01*
X157222493Y-66679493D01*
X157226000Y-66666410D01*
X157734000Y-66666410D01*
X157737506Y-66679493D01*
X157750590Y-66683000D01*
X158200223Y-66683000D01*
X158206938Y-66682640D01*
X158256257Y-66677337D01*
X158271478Y-66673740D01*
X158392519Y-66628594D01*
X158408175Y-66620045D01*
X158510692Y-66543302D01*
X158523302Y-66530692D01*
X158600045Y-66428175D01*
X158608594Y-66412519D01*
X158653740Y-66291478D01*
X158657337Y-66276257D01*
X158662640Y-66226938D01*
X158663000Y-66220223D01*
X158663000Y-65770590D01*
X158659493Y-65757506D01*
X158646410Y-65754000D01*
X157750590Y-65754000D01*
X157737506Y-65757506D01*
X157734000Y-65770590D01*
X157734000Y-66666410D01*
X157226000Y-66666410D01*
X157226000Y-65770590D01*
X157222493Y-65757506D01*
X157209410Y-65754000D01*
X156313590Y-65754000D01*
X156300506Y-65757506D01*
X156297000Y-65770590D01*
X156297000Y-66220223D01*
X153115681Y-66220223D01*
X153799553Y-65536351D01*
X156091198Y-63244704D01*
X156143576Y-63213269D01*
X156204587Y-63210166D01*
X156259886Y-63236125D01*
X156296476Y-63285045D01*
X156305753Y-63345425D01*
X156291430Y-63500000D01*
X156291968Y-63505806D01*
X156311129Y-63712593D01*
X156311130Y-63712603D01*
X156311668Y-63718399D01*
X156371691Y-63929361D01*
X156469457Y-64125701D01*
X156472964Y-64130345D01*
X156472968Y-64130351D01*
X156545613Y-64226548D01*
X156570129Y-64287171D01*
X156560960Y-64351917D01*
X156520573Y-64403347D01*
X156449308Y-64456696D01*
X156436697Y-64469307D01*
X156359954Y-64571824D01*
X156351405Y-64587480D01*
X156306259Y-64708521D01*
X156302662Y-64723742D01*
X156297359Y-64773061D01*
X156297000Y-64779777D01*
X156297000Y-65229410D01*
X156300506Y-65242493D01*
X156313590Y-65246000D01*
X158646410Y-65246000D01*
X158659493Y-65242493D01*
X158663000Y-65229410D01*
X158663000Y-64779777D01*
X158662640Y-64773061D01*
X158657337Y-64723742D01*
X158653740Y-64708521D01*
X158608594Y-64587480D01*
X158600045Y-64571824D01*
X158523302Y-64469307D01*
X158510695Y-64456700D01*
X158439426Y-64403348D01*
X158399040Y-64351917D01*
X158389870Y-64287170D01*
X158414384Y-64226551D01*
X158490543Y-64125701D01*
X158588309Y-63929361D01*
X158648332Y-63718399D01*
X158668570Y-63500000D01*
X158654584Y-63349069D01*
X158648870Y-63287406D01*
X158648869Y-63287405D01*
X158648332Y-63281601D01*
X158588309Y-63070639D01*
X158490543Y-62874299D01*
X158456831Y-62829657D01*
X158361876Y-62703916D01*
X158361873Y-62703912D01*
X158358364Y-62699266D01*
X158354058Y-62695341D01*
X158354053Y-62695335D01*
X158241922Y-62593115D01*
X158205617Y-62534482D01*
X158205617Y-62465518D01*
X158241922Y-62406885D01*
X158354053Y-62304664D01*
X158354053Y-62304663D01*
X158358364Y-62300734D01*
X158490543Y-62125701D01*
X158588309Y-61929361D01*
X158648332Y-61718399D01*
X158668570Y-61500000D01*
X158648332Y-61281601D01*
X158588309Y-61070639D01*
X158490543Y-60874299D01*
X158477345Y-60856822D01*
X158361876Y-60703916D01*
X158361873Y-60703912D01*
X158358364Y-60699266D01*
X158354058Y-60695341D01*
X158354053Y-60695335D01*
X158241922Y-60593115D01*
X158205617Y-60534482D01*
X158205617Y-60465518D01*
X158241922Y-60406885D01*
X158354053Y-60304664D01*
X158354053Y-60304663D01*
X158358364Y-60300734D01*
X158490543Y-60125701D01*
X158588309Y-59929361D01*
X158648332Y-59718399D01*
X158668570Y-59500000D01*
X158648332Y-59281601D01*
X158588309Y-59070639D01*
X158490543Y-58874299D01*
X158477345Y-58856822D01*
X158361876Y-58703916D01*
X158361873Y-58703912D01*
X158358364Y-58699266D01*
X158354061Y-58695343D01*
X158354058Y-58695340D01*
X158200576Y-58555424D01*
X158200575Y-58555423D01*
X158196273Y-58551501D01*
X158090035Y-58485721D01*
X158014744Y-58439102D01*
X158014737Y-58439098D01*
X158009791Y-58436036D01*
X158004360Y-58433932D01*
X158004358Y-58433931D01*
X157810703Y-58358908D01*
X157810697Y-58358906D01*
X157805268Y-58356803D01*
X157799548Y-58355733D01*
X157799542Y-58355732D01*
X157595392Y-58317570D01*
X157595389Y-58317569D01*
X157589667Y-58316500D01*
X157370333Y-58316500D01*
X157364611Y-58317569D01*
X157364607Y-58317570D01*
X157160457Y-58355732D01*
X157160448Y-58355734D01*
X157154732Y-58356803D01*
X157149305Y-58358905D01*
X157149296Y-58358908D01*
X156955641Y-58433931D01*
X156955635Y-58433933D01*
X156950209Y-58436036D01*
X156945266Y-58439096D01*
X156945255Y-58439102D01*
X156768678Y-58548435D01*
X156768674Y-58548437D01*
X156763727Y-58551501D01*
X156759433Y-58555415D01*
X156759423Y-58555423D01*
X156733742Y-58578836D01*
X156683338Y-58606911D01*
X156625704Y-58609576D01*
X156572924Y-58586271D01*
X156536065Y-58541884D01*
X156522856Y-58485721D01*
X156522856Y-52751429D01*
X156540615Y-52686932D01*
X156588887Y-52640615D01*
X156690443Y-52585655D01*
X156711767Y-52574115D01*
X156907741Y-52421582D01*
X157075936Y-52238873D01*
X157211764Y-52030973D01*
X157311521Y-51803551D01*
X157372484Y-51562811D01*
X157387856Y-51377302D01*
X157387856Y-49273340D01*
X157372484Y-49087831D01*
X157311521Y-48847091D01*
X157211764Y-48619669D01*
X157075936Y-48411769D01*
X157049380Y-48382922D01*
X156911273Y-48232896D01*
X156911268Y-48232891D01*
X156907741Y-48229060D01*
X156903632Y-48225862D01*
X156903629Y-48225859D01*
X156715877Y-48079726D01*
X156711767Y-48076527D01*
X156556427Y-47992461D01*
X156497945Y-47960812D01*
X156497942Y-47960810D01*
X156493360Y-47958331D01*
X156488436Y-47956640D01*
X156488428Y-47956637D01*
X156263407Y-47879388D01*
X156263401Y-47879386D01*
X156258477Y-47877696D01*
X156253340Y-47876838D01*
X156253337Y-47876838D01*
X156018662Y-47837678D01*
X156018659Y-47837677D01*
X156013525Y-47836821D01*
X155765187Y-47836821D01*
X155760053Y-47837677D01*
X155760049Y-47837678D01*
X155525374Y-47876838D01*
X155525368Y-47876839D01*
X155520235Y-47877696D01*
X155515312Y-47879385D01*
X155515304Y-47879388D01*
X155290283Y-47956637D01*
X155290270Y-47956642D01*
X155285352Y-47958331D01*
X155280774Y-47960808D01*
X155280766Y-47960812D01*
X155071527Y-48074047D01*
X155071523Y-48074049D01*
X155066945Y-48076527D01*
X155062839Y-48079722D01*
X155062834Y-48079726D01*
X154875082Y-48225859D01*
X154875073Y-48225867D01*
X154870971Y-48229060D01*
X154867449Y-48232885D01*
X154867438Y-48232896D01*
X154706311Y-48407928D01*
X154706306Y-48407934D01*
X154702776Y-48411769D01*
X154699930Y-48416124D01*
X154699923Y-48416134D01*
X154569797Y-48615307D01*
X154569792Y-48615314D01*
X154566948Y-48619669D01*
X154564855Y-48624438D01*
X154564854Y-48624442D01*
X154469283Y-48842320D01*
X154469280Y-48842328D01*
X154467191Y-48847091D01*
X154465914Y-48852131D01*
X154465913Y-48852136D01*
X154407506Y-49082780D01*
X154407503Y-49082792D01*
X154406228Y-49087831D01*
X154405798Y-49093013D01*
X154405797Y-49093023D01*
X154391071Y-49270739D01*
X154391070Y-49270751D01*
X154390856Y-49273340D01*
X154390856Y-51377302D01*
X154391070Y-51379891D01*
X154391071Y-51379902D01*
X154405797Y-51557618D01*
X154405798Y-51557626D01*
X154406228Y-51562811D01*
X154407504Y-51567851D01*
X154407506Y-51567861D01*
X154465913Y-51798505D01*
X154467191Y-51803551D01*
X154566948Y-52030973D01*
X154569796Y-52035332D01*
X154569797Y-52035334D01*
X154699923Y-52234507D01*
X154699926Y-52234511D01*
X154702776Y-52238873D01*
X154706311Y-52242713D01*
X154867438Y-52417745D01*
X154867443Y-52417749D01*
X154870971Y-52421582D01*
X154875080Y-52424780D01*
X154875082Y-52424782D01*
X155062836Y-52570917D01*
X155066945Y-52574115D01*
X155071524Y-52576593D01*
X155071527Y-52576595D01*
X155189825Y-52640615D01*
X155238097Y-52686932D01*
X155255856Y-52751429D01*
X155255856Y-62236050D01*
X155246265Y-62284268D01*
X155218951Y-62325145D01*
X152007742Y-65536351D01*
X151999459Y-65543888D01*
X151992982Y-65548000D01*
X151987563Y-65553769D01*
X151987555Y-65553777D01*
X151946370Y-65597635D01*
X151943621Y-65600472D01*
X151926667Y-65617427D01*
X151926660Y-65617434D01*
X151923865Y-65620230D01*
X151921442Y-65623352D01*
X151921426Y-65623371D01*
X151921365Y-65623451D01*
X151913690Y-65632435D01*
X151888838Y-65658902D01*
X151888835Y-65658904D01*
X151883414Y-65664679D01*
X151879600Y-65671614D01*
X151879592Y-65671627D01*
X151873650Y-65682436D01*
X151862803Y-65698949D01*
X151855243Y-65708695D01*
X151855237Y-65708704D01*
X151850386Y-65714959D01*
X151847242Y-65722223D01*
X151847238Y-65722231D01*
X151832824Y-65755540D01*
X151827604Y-65766195D01*
X151810125Y-65797989D01*
X151810121Y-65797997D01*
X151806305Y-65804940D01*
X151804333Y-65812616D01*
X151804331Y-65812624D01*
X151801266Y-65824562D01*
X151794865Y-65843259D01*
X151789968Y-65854576D01*
X151789966Y-65854581D01*
X151786819Y-65861855D01*
X151785579Y-65869680D01*
X151785577Y-65869689D01*
X151779901Y-65905524D01*
X151777495Y-65917144D01*
X151770898Y-65942839D01*
X151742493Y-65995815D01*
X151692777Y-66029603D01*
X151633065Y-66036513D01*
X151576947Y-66014971D01*
X151537194Y-65969882D01*
X151522856Y-65911506D01*
X151522856Y-62549898D01*
X151536589Y-62492695D01*
X151574795Y-62447962D01*
X151629145Y-62425449D01*
X151687792Y-62430065D01*
X151737951Y-62460803D01*
X151877678Y-62600530D01*
X152065516Y-62732056D01*
X152273339Y-62828965D01*
X152494834Y-62888315D01*
X152723269Y-62908300D01*
X152951704Y-62888315D01*
X153173199Y-62828965D01*
X153381022Y-62732056D01*
X153568860Y-62600530D01*
X153731005Y-62438385D01*
X153862531Y-62250547D01*
X153959440Y-62042724D01*
X154018790Y-61821229D01*
X154038775Y-61592794D01*
X154018790Y-61364359D01*
X153959440Y-61142864D01*
X153862531Y-60935041D01*
X153731005Y-60747203D01*
X153568860Y-60585058D01*
X153447384Y-60499999D01*
X153385530Y-60456688D01*
X153385525Y-60456685D01*
X153381022Y-60453532D01*
X153315666Y-60423056D01*
X153178184Y-60358947D01*
X153178178Y-60358945D01*
X153173199Y-60356623D01*
X153167893Y-60355201D01*
X153167887Y-60355199D01*
X152957013Y-60298695D01*
X152957006Y-60298693D01*
X152951704Y-60297273D01*
X152946234Y-60296794D01*
X152946226Y-60296793D01*
X152728744Y-60277767D01*
X152723269Y-60277288D01*
X152717794Y-60277767D01*
X152500311Y-60296793D01*
X152500301Y-60296794D01*
X152494834Y-60297273D01*
X152489532Y-60298693D01*
X152489524Y-60298695D01*
X152278650Y-60355199D01*
X152278640Y-60355202D01*
X152273339Y-60356623D01*
X152268362Y-60358943D01*
X152268353Y-60358947D01*
X152070503Y-60451206D01*
X152070498Y-60451208D01*
X152065516Y-60453532D01*
X152061017Y-60456682D01*
X152061007Y-60456688D01*
X151882189Y-60581899D01*
X151882186Y-60581901D01*
X151877678Y-60585058D01*
X151873786Y-60588949D01*
X151873780Y-60588955D01*
X151737951Y-60724785D01*
X151687792Y-60755523D01*
X151629145Y-60760139D01*
X151574795Y-60737626D01*
X151536589Y-60692893D01*
X151522856Y-60635690D01*
X151522856Y-52939821D01*
X151539737Y-52876821D01*
X151585856Y-52830702D01*
X151648856Y-52813821D01*
X151924625Y-52813821D01*
X151927994Y-52813821D01*
X151988557Y-52807310D01*
X152125560Y-52756210D01*
X152242617Y-52668582D01*
X152330245Y-52551525D01*
X152381345Y-52414522D01*
X152387856Y-52353959D01*
X152387856Y-48296683D01*
X152381345Y-48236120D01*
X152330245Y-48099117D01*
X152313334Y-48076527D01*
X152248015Y-47989271D01*
X152242617Y-47982060D01*
X152208656Y-47956637D01*
X152132773Y-47899831D01*
X152132770Y-47899829D01*
X152125560Y-47894432D01*
X152117122Y-47891285D01*
X152117119Y-47891283D01*
X151995936Y-47846084D01*
X151995934Y-47846083D01*
X151988557Y-47843332D01*
X151980729Y-47842490D01*
X151980723Y-47842489D01*
X151931344Y-47837181D01*
X151931341Y-47837180D01*
X151927994Y-47836821D01*
X149850718Y-47836821D01*
X149847371Y-47837180D01*
X149847367Y-47837181D01*
X149797988Y-47842489D01*
X149797981Y-47842490D01*
X149790155Y-47843332D01*
X149782779Y-47846082D01*
X149782775Y-47846084D01*
X149661592Y-47891283D01*
X149661586Y-47891286D01*
X149653152Y-47894432D01*
X149645944Y-47899827D01*
X149645938Y-47899831D01*
X149543306Y-47976661D01*
X149543302Y-47976664D01*
X149536095Y-47982060D01*
X149530699Y-47989267D01*
X149530696Y-47989271D01*
X149453866Y-48091903D01*
X149453862Y-48091909D01*
X149448467Y-48099117D01*
X149445321Y-48107551D01*
X149445318Y-48107557D01*
X149400119Y-48228740D01*
X149400117Y-48228744D01*
X149397367Y-48236120D01*
X149396525Y-48243946D01*
X149396524Y-48243953D01*
X149391216Y-48293332D01*
X149390856Y-48296683D01*
X149390856Y-52353959D01*
X149391215Y-52357306D01*
X149391216Y-52357309D01*
X149396524Y-52406688D01*
X149396525Y-52406694D01*
X149397367Y-52414522D01*
X149400118Y-52421899D01*
X149400119Y-52421901D01*
X149445318Y-52543084D01*
X149445320Y-52543087D01*
X149448467Y-52551525D01*
X149453864Y-52558735D01*
X149453866Y-52558738D01*
X149529739Y-52660091D01*
X149536095Y-52668582D01*
X149653152Y-52756210D01*
X149790155Y-52807310D01*
X149850718Y-52813821D01*
X150129856Y-52813821D01*
X150192856Y-52830702D01*
X150238975Y-52876821D01*
X150255856Y-52939821D01*
X150255856Y-72659748D01*
X150243582Y-72713992D01*
X150209150Y-72757668D01*
X150159270Y-72782267D01*
X150103659Y-72782995D01*
X149961943Y-72752872D01*
X149961940Y-72752871D01*
X149955487Y-72751500D01*
X149948884Y-72751500D01*
X149899596Y-72751500D01*
X149851378Y-72741909D01*
X149810501Y-72714596D01*
X149638646Y-72542742D01*
X149631111Y-72534461D01*
X149627000Y-72527982D01*
X149577347Y-72481355D01*
X149574505Y-72478600D01*
X149557574Y-72461669D01*
X149557573Y-72461668D01*
X149554770Y-72458865D01*
X149551575Y-72456386D01*
X149542554Y-72448682D01*
X149516097Y-72423838D01*
X149510321Y-72418414D01*
X149503377Y-72414596D01*
X149503371Y-72414592D01*
X149492566Y-72408652D01*
X149476047Y-72397801D01*
X149460041Y-72385386D01*
X149452766Y-72382238D01*
X149452763Y-72382236D01*
X149419466Y-72367828D01*
X149408804Y-72362605D01*
X149377007Y-72345124D01*
X149377005Y-72345123D01*
X149370060Y-72341305D01*
X149362383Y-72339334D01*
X149362381Y-72339333D01*
X149350438Y-72336267D01*
X149331734Y-72329863D01*
X149320420Y-72324967D01*
X149320418Y-72324966D01*
X149313145Y-72321819D01*
X149305319Y-72320579D01*
X149305318Y-72320579D01*
X149269475Y-72314902D01*
X149257859Y-72312496D01*
X149215030Y-72301500D01*
X149207101Y-72301500D01*
X149194776Y-72301500D01*
X149175065Y-72299949D01*
X149162885Y-72298019D01*
X149162878Y-72298018D01*
X149155057Y-72296780D01*
X149147173Y-72297525D01*
X149147165Y-72297525D01*
X149111039Y-72300941D01*
X149099181Y-72301500D01*
X141829594Y-72301500D01*
X141781376Y-72291909D01*
X141740501Y-72264597D01*
X140975276Y-71499371D01*
X140941602Y-71438622D01*
X140945238Y-71369256D01*
X140985079Y-71312357D01*
X141049018Y-71285217D01*
X141117623Y-71296083D01*
X141184243Y-71327149D01*
X141388498Y-71381879D01*
X141599153Y-71400309D01*
X141809808Y-71381879D01*
X142014063Y-71327149D01*
X142205711Y-71237782D01*
X142270995Y-71192070D01*
X143300241Y-71192070D01*
X143307793Y-71200312D01*
X143341765Y-71224100D01*
X143351258Y-71229581D01*
X143532855Y-71314260D01*
X143543150Y-71318007D01*
X143736701Y-71369870D01*
X143747488Y-71371772D01*
X143947104Y-71389236D01*
X143958054Y-71389236D01*
X144157669Y-71371772D01*
X144168456Y-71369870D01*
X144362007Y-71318007D01*
X144372302Y-71314260D01*
X144553902Y-71229580D01*
X144563387Y-71224103D01*
X144597363Y-71200312D01*
X144604915Y-71192070D01*
X144598905Y-71182637D01*
X144592487Y-71176219D01*
X145597706Y-71176219D01*
X145605258Y-71184461D01*
X145639230Y-71208249D01*
X145648723Y-71213730D01*
X145830320Y-71298409D01*
X145840615Y-71302156D01*
X146034166Y-71354019D01*
X146044953Y-71355921D01*
X146244569Y-71373385D01*
X146255519Y-71373385D01*
X146455134Y-71355921D01*
X146465921Y-71354019D01*
X146659472Y-71302156D01*
X146669767Y-71298409D01*
X146851367Y-71213729D01*
X146860852Y-71208252D01*
X146894828Y-71184461D01*
X146902380Y-71176219D01*
X146896370Y-71166786D01*
X146261773Y-70532189D01*
X146250043Y-70525417D01*
X146238315Y-70532188D01*
X145603713Y-71166789D01*
X145597706Y-71176219D01*
X144592487Y-71176219D01*
X143964308Y-70548040D01*
X143952578Y-70541268D01*
X143940850Y-70548039D01*
X143306248Y-71182640D01*
X143300241Y-71192070D01*
X142270995Y-71192070D01*
X142378929Y-71116494D01*
X142528454Y-70966969D01*
X142649742Y-70793751D01*
X142664299Y-70762532D01*
X142710792Y-70709515D01*
X142778491Y-70689781D01*
X142846192Y-70709512D01*
X142892688Y-70762529D01*
X142900098Y-70778419D01*
X142905579Y-70787914D01*
X142929367Y-70821886D01*
X142937608Y-70829437D01*
X142947038Y-70823430D01*
X143581638Y-70188831D01*
X143588411Y-70177100D01*
X144316746Y-70177100D01*
X144323518Y-70188830D01*
X144958115Y-70823427D01*
X144967548Y-70829437D01*
X144975790Y-70821885D01*
X145002734Y-70783408D01*
X145004284Y-70784493D01*
X145041349Y-70746564D01*
X145101231Y-70728370D01*
X145162479Y-70741231D01*
X145209984Y-70781975D01*
X145226831Y-70806034D01*
X145235073Y-70813586D01*
X145244503Y-70807579D01*
X145879103Y-70172980D01*
X145885876Y-70161249D01*
X146614211Y-70161249D01*
X146620983Y-70172979D01*
X147255580Y-70807576D01*
X147265013Y-70813586D01*
X147273255Y-70806034D01*
X147297046Y-70772058D01*
X147302523Y-70762573D01*
X147387203Y-70580973D01*
X147390950Y-70570678D01*
X147442813Y-70377127D01*
X147444715Y-70366340D01*
X147462179Y-70166725D01*
X147462179Y-70155775D01*
X147444715Y-69956159D01*
X147442813Y-69945372D01*
X147390950Y-69751821D01*
X147387203Y-69741526D01*
X147302524Y-69559929D01*
X147297043Y-69550436D01*
X147273255Y-69516464D01*
X147265013Y-69508912D01*
X147255583Y-69514919D01*
X146620982Y-70149521D01*
X146614211Y-70161249D01*
X145885876Y-70161249D01*
X145879104Y-70149520D01*
X145244506Y-69514922D01*
X145235073Y-69508912D01*
X145226831Y-69516464D01*
X145199889Y-69554943D01*
X145198358Y-69553871D01*
X145161180Y-69591843D01*
X145101319Y-69609984D01*
X145040109Y-69597103D01*
X144992636Y-69556374D01*
X144975789Y-69532314D01*
X144967548Y-69524763D01*
X144958118Y-69530770D01*
X144323517Y-70165372D01*
X144316746Y-70177100D01*
X143588411Y-70177100D01*
X143581639Y-70165371D01*
X142947041Y-69530773D01*
X142937608Y-69524763D01*
X142929366Y-69532315D01*
X142905577Y-69566290D01*
X142900101Y-69575776D01*
X142887982Y-69601764D01*
X142841485Y-69654781D01*
X142773785Y-69674512D01*
X142706086Y-69654778D01*
X142659592Y-69601759D01*
X142649742Y-69580635D01*
X142646032Y-69575336D01*
X142531613Y-69411928D01*
X142531610Y-69411925D01*
X142528454Y-69407417D01*
X142378929Y-69257892D01*
X142374421Y-69254736D01*
X142374417Y-69254732D01*
X142242167Y-69162130D01*
X143300241Y-69162130D01*
X143306251Y-69171563D01*
X143940849Y-69806161D01*
X143952578Y-69812933D01*
X143964309Y-69806160D01*
X144598908Y-69171560D01*
X144604915Y-69162130D01*
X144597364Y-69153889D01*
X144586496Y-69146279D01*
X145597706Y-69146279D01*
X145603716Y-69155712D01*
X146238314Y-69790310D01*
X146250043Y-69797082D01*
X146261774Y-69790309D01*
X146896373Y-69155709D01*
X146902380Y-69146279D01*
X146894829Y-69138038D01*
X146860857Y-69114250D01*
X146851360Y-69108767D01*
X146669767Y-69024090D01*
X146659472Y-69020343D01*
X146465921Y-68968480D01*
X146455134Y-68966578D01*
X146255519Y-68949115D01*
X146244569Y-68949115D01*
X146044953Y-68966578D01*
X146034166Y-68968480D01*
X145840615Y-69020343D01*
X145830320Y-69024090D01*
X145648721Y-69108770D01*
X145639233Y-69114248D01*
X145605258Y-69138037D01*
X145597706Y-69146279D01*
X144586496Y-69146279D01*
X144563392Y-69130101D01*
X144553895Y-69124618D01*
X144372302Y-69039941D01*
X144362007Y-69036194D01*
X144168456Y-68984331D01*
X144157669Y-68982429D01*
X143958054Y-68964966D01*
X143947104Y-68964966D01*
X143747488Y-68982429D01*
X143736701Y-68984331D01*
X143543150Y-69036194D01*
X143532855Y-69039941D01*
X143351256Y-69124621D01*
X143341768Y-69130099D01*
X143307793Y-69153888D01*
X143300241Y-69162130D01*
X142242167Y-69162130D01*
X142210216Y-69139758D01*
X142210212Y-69139756D01*
X142205711Y-69136604D01*
X142200732Y-69134282D01*
X142200730Y-69134281D01*
X142019045Y-69049560D01*
X142019043Y-69049559D01*
X142014063Y-69047237D01*
X142008754Y-69045814D01*
X142008753Y-69045814D01*
X141889207Y-69013782D01*
X141809808Y-68992507D01*
X141804332Y-68992027D01*
X141804327Y-68992027D01*
X141604628Y-68974556D01*
X141599153Y-68974077D01*
X141593678Y-68974556D01*
X141393978Y-68992027D01*
X141393971Y-68992028D01*
X141388498Y-68992507D01*
X141383184Y-68993930D01*
X141383183Y-68993931D01*
X141189552Y-69045814D01*
X141189547Y-69045815D01*
X141184243Y-69047237D01*
X141179265Y-69049557D01*
X141179260Y-69049560D01*
X140997575Y-69134281D01*
X140997567Y-69134285D01*
X140992595Y-69136604D01*
X140988098Y-69139752D01*
X140988089Y-69139758D01*
X140823888Y-69254732D01*
X140823878Y-69254740D01*
X140819377Y-69257892D01*
X140815487Y-69261781D01*
X140815481Y-69261787D01*
X140673747Y-69403521D01*
X140673741Y-69403527D01*
X140669852Y-69407417D01*
X140666700Y-69411918D01*
X140666692Y-69411928D01*
X140562713Y-69560428D01*
X140514735Y-69601406D01*
X140452906Y-69613985D01*
X140392730Y-69595012D01*
X140349298Y-69549244D01*
X140333500Y-69488158D01*
X140333500Y-68135780D01*
X140343091Y-68087562D01*
X140370405Y-68046685D01*
X141361091Y-67055999D01*
X141401968Y-67028685D01*
X141450186Y-67019094D01*
X144025861Y-67019094D01*
X144029230Y-67019094D01*
X144089793Y-67012583D01*
X144226796Y-66961483D01*
X144343853Y-66873855D01*
X144431481Y-66756798D01*
X144482581Y-66619795D01*
X144489092Y-66559232D01*
X144489092Y-64481956D01*
X144482581Y-64421393D01*
X144431481Y-64284390D01*
X144343853Y-64167333D01*
X144294443Y-64130345D01*
X144234009Y-64085104D01*
X144234006Y-64085102D01*
X144226796Y-64079705D01*
X144218358Y-64076558D01*
X144218355Y-64076556D01*
X144097172Y-64031357D01*
X144097170Y-64031356D01*
X144089793Y-64028605D01*
X144081965Y-64027763D01*
X144081959Y-64027762D01*
X144032580Y-64022454D01*
X144032577Y-64022453D01*
X144029230Y-64022094D01*
X139971954Y-64022094D01*
X139968607Y-64022453D01*
X139968603Y-64022454D01*
X139919224Y-64027762D01*
X139919217Y-64027763D01*
X139911391Y-64028605D01*
X139904015Y-64031355D01*
X139904011Y-64031357D01*
X139782828Y-64076556D01*
X139782822Y-64076559D01*
X139774388Y-64079705D01*
X139767180Y-64085100D01*
X139767174Y-64085104D01*
X139664542Y-64161934D01*
X139664538Y-64161937D01*
X139657331Y-64167333D01*
X139651935Y-64174540D01*
X139651932Y-64174544D01*
X139575102Y-64277176D01*
X139575098Y-64277182D01*
X139569703Y-64284390D01*
X139566557Y-64292824D01*
X139566554Y-64292830D01*
X139521355Y-64414013D01*
X139521353Y-64414017D01*
X139518603Y-64421393D01*
X139517761Y-64429219D01*
X139517760Y-64429226D01*
X139512452Y-64478605D01*
X139512092Y-64481956D01*
X139512092Y-66559232D01*
X139512451Y-66562579D01*
X139512452Y-66562582D01*
X139517760Y-66611961D01*
X139517761Y-66611967D01*
X139518603Y-66619795D01*
X139521354Y-66627172D01*
X139521355Y-66627174D01*
X139566554Y-66748357D01*
X139566556Y-66748360D01*
X139569703Y-66756798D01*
X139632186Y-66840266D01*
X139655572Y-66894877D01*
X139651334Y-66954137D01*
X139620412Y-67004867D01*
X139307742Y-67317537D01*
X139299459Y-67325074D01*
X139292982Y-67329186D01*
X139287563Y-67334955D01*
X139287555Y-67334963D01*
X139246370Y-67378821D01*
X139243621Y-67381658D01*
X139226667Y-67398613D01*
X139226660Y-67398620D01*
X139223865Y-67401416D01*
X139221442Y-67404538D01*
X139221426Y-67404557D01*
X139221365Y-67404637D01*
X139213690Y-67413621D01*
X139188838Y-67440088D01*
X139188835Y-67440090D01*
X139183414Y-67445865D01*
X139179600Y-67452800D01*
X139179592Y-67452813D01*
X139173650Y-67463622D01*
X139162803Y-67480135D01*
X139155243Y-67489881D01*
X139155237Y-67489890D01*
X139150386Y-67496145D01*
X139147242Y-67503409D01*
X139147238Y-67503417D01*
X139132824Y-67536726D01*
X139127604Y-67547381D01*
X139110125Y-67579175D01*
X139110121Y-67579183D01*
X139106305Y-67586126D01*
X139104333Y-67593802D01*
X139104331Y-67593810D01*
X139101266Y-67605748D01*
X139094865Y-67624445D01*
X139089968Y-67635762D01*
X139089966Y-67635767D01*
X139086819Y-67643041D01*
X139085579Y-67650866D01*
X139085577Y-67650875D01*
X139079901Y-67686710D01*
X139077495Y-67698330D01*
X139068471Y-67733475D01*
X139068469Y-67733483D01*
X139066500Y-67741156D01*
X139066500Y-67749085D01*
X139066500Y-67761410D01*
X139064949Y-67781121D01*
X139063019Y-67793300D01*
X139063018Y-67793307D01*
X139061780Y-67801129D01*
X139062525Y-67809012D01*
X139062525Y-67809020D01*
X139065941Y-67845147D01*
X139066500Y-67857005D01*
X139066500Y-71041233D01*
X139065972Y-71052416D01*
X139064298Y-71059909D01*
X139064547Y-71067833D01*
X139064547Y-71067835D01*
X139066438Y-71127986D01*
X139066500Y-71131945D01*
X139066500Y-71159856D01*
X139066995Y-71163774D01*
X139066997Y-71163806D01*
X139067008Y-71163888D01*
X139067937Y-71175697D01*
X139069077Y-71211969D01*
X139069078Y-71211976D01*
X139069327Y-71219889D01*
X139071537Y-71227498D01*
X139071538Y-71227500D01*
X139074978Y-71239342D01*
X139078986Y-71258693D01*
X139081526Y-71278797D01*
X139084444Y-71286169D01*
X139084445Y-71286170D01*
X139097800Y-71319901D01*
X139101645Y-71331130D01*
X139111771Y-71365986D01*
X139111773Y-71365992D01*
X139113982Y-71373593D01*
X139118014Y-71380411D01*
X139118015Y-71380413D01*
X139124293Y-71391029D01*
X139132990Y-71408782D01*
X139140448Y-71427617D01*
X139145107Y-71434030D01*
X139145108Y-71434031D01*
X139166432Y-71463381D01*
X139172948Y-71473301D01*
X139191422Y-71504538D01*
X139195458Y-71511362D01*
X139201063Y-71516967D01*
X139209778Y-71525682D01*
X139222618Y-71540715D01*
X139234528Y-71557107D01*
X139240635Y-71562159D01*
X139240636Y-71562160D01*
X139268598Y-71585292D01*
X139277378Y-71593282D01*
X141011342Y-73327246D01*
X141018884Y-73335533D01*
X141023000Y-73342018D01*
X141028779Y-73347444D01*
X141028780Y-73347446D01*
X141072667Y-73388658D01*
X141075509Y-73391413D01*
X141095231Y-73411135D01*
X141098359Y-73413561D01*
X141098360Y-73413562D01*
X141098414Y-73413604D01*
X141107446Y-73421317D01*
X141139679Y-73451586D01*
X141146624Y-73455404D01*
X141157430Y-73461345D01*
X141173956Y-73472201D01*
X141183690Y-73479751D01*
X141183692Y-73479752D01*
X141189960Y-73484614D01*
X141230530Y-73502170D01*
X141241186Y-73507390D01*
X141279940Y-73528695D01*
X141299566Y-73533734D01*
X141318259Y-73540134D01*
X141336855Y-73548181D01*
X141344686Y-73549421D01*
X141344689Y-73549422D01*
X141358784Y-73551654D01*
X141380525Y-73555097D01*
X141392125Y-73557498D01*
X141434970Y-73568500D01*
X141455224Y-73568500D01*
X141474934Y-73570050D01*
X141494943Y-73573220D01*
X141538961Y-73569058D01*
X141550819Y-73568500D01*
X146211403Y-73568500D01*
X146268606Y-73582233D01*
X146313339Y-73620439D01*
X146335852Y-73674789D01*
X146331236Y-73733436D01*
X146300499Y-73783595D01*
X145896796Y-74187299D01*
X145855918Y-74214613D01*
X145807700Y-74224204D01*
X138744500Y-74224204D01*
X138681500Y-74207323D01*
X138635381Y-74161204D01*
X138618500Y-74098204D01*
X138618500Y-73862435D01*
X138618500Y-73859066D01*
X138611989Y-73798503D01*
X138560889Y-73661500D01*
X138518906Y-73605418D01*
X138483038Y-73557504D01*
X138473261Y-73544443D01*
X138462524Y-73536405D01*
X138363417Y-73462214D01*
X138363414Y-73462212D01*
X138356204Y-73456815D01*
X138347766Y-73453668D01*
X138347763Y-73453666D01*
X138226580Y-73408467D01*
X138226578Y-73408466D01*
X138219201Y-73405715D01*
X138211373Y-73404873D01*
X138211367Y-73404872D01*
X138161988Y-73399564D01*
X138161985Y-73399563D01*
X138158638Y-73399204D01*
X136161362Y-73399204D01*
X136158015Y-73399563D01*
X136158011Y-73399564D01*
X136108632Y-73404872D01*
X136108625Y-73404873D01*
X136100799Y-73405715D01*
X136093423Y-73408465D01*
X136093419Y-73408467D01*
X135972236Y-73453666D01*
X135972230Y-73453669D01*
X135963796Y-73456815D01*
X135956588Y-73462210D01*
X135956582Y-73462214D01*
X135853950Y-73539044D01*
X135853946Y-73539047D01*
X135846739Y-73544443D01*
X135841343Y-73551650D01*
X135841340Y-73551654D01*
X135764510Y-73654286D01*
X135764506Y-73654292D01*
X135759111Y-73661500D01*
X135755965Y-73669934D01*
X135755962Y-73669940D01*
X135710763Y-73791123D01*
X135710761Y-73791127D01*
X135708011Y-73798503D01*
X135707169Y-73806329D01*
X135707168Y-73806336D01*
X135703188Y-73843364D01*
X135701500Y-73859066D01*
X135701500Y-75856342D01*
X135701859Y-75859689D01*
X135701860Y-75859692D01*
X135707168Y-75909071D01*
X135707169Y-75909077D01*
X135708011Y-75916905D01*
X135710762Y-75924282D01*
X135710763Y-75924284D01*
X135755962Y-76045467D01*
X135755964Y-76045470D01*
X135759111Y-76053908D01*
X135764508Y-76061118D01*
X135764510Y-76061121D01*
X135835464Y-76155904D01*
X135846739Y-76170965D01*
X135963796Y-76258593D01*
X135972239Y-76261742D01*
X135973748Y-76262566D01*
X136016105Y-76300217D01*
X136037677Y-76352621D01*
X136034101Y-76409179D01*
X136010846Y-76450097D01*
X136012220Y-76451167D01*
X136002639Y-76463475D01*
X135876182Y-76657032D01*
X135871239Y-76666167D01*
X135778365Y-76877897D01*
X135774992Y-76887722D01*
X135718237Y-77111844D01*
X135716525Y-77122098D01*
X135697433Y-77352515D01*
X135697433Y-77362893D01*
X135716525Y-77593309D01*
X135718237Y-77603563D01*
X135774992Y-77827685D01*
X135778365Y-77837510D01*
X135871239Y-78049240D01*
X135876182Y-78058375D01*
X135956987Y-78182056D01*
X135965078Y-78189900D01*
X135974613Y-78183879D01*
X137070904Y-77087588D01*
X137127388Y-77054976D01*
X137192610Y-77054976D01*
X137249094Y-77087588D01*
X138345387Y-78183881D01*
X138354919Y-78189900D01*
X138363014Y-78182052D01*
X138443817Y-78058375D01*
X138448760Y-78049240D01*
X138541634Y-77837510D01*
X138545007Y-77827685D01*
X138550196Y-77807193D01*
X140386037Y-77807193D01*
X140386516Y-77812668D01*
X140398772Y-77952763D01*
X140404467Y-78017848D01*
X140416139Y-78061407D01*
X140455625Y-78208774D01*
X140459197Y-78222103D01*
X140461519Y-78227083D01*
X140461520Y-78227085D01*
X140541780Y-78399204D01*
X140548564Y-78413751D01*
X140551716Y-78418252D01*
X140551718Y-78418256D01*
X140666692Y-78582457D01*
X140666696Y-78582461D01*
X140669852Y-78586969D01*
X140819377Y-78736494D01*
X140823885Y-78739650D01*
X140823888Y-78739653D01*
X140966144Y-78839261D01*
X140992595Y-78857782D01*
X141184243Y-78947149D01*
X141388498Y-79001879D01*
X141599153Y-79020309D01*
X141809808Y-79001879D01*
X142014063Y-78947149D01*
X142205711Y-78857782D01*
X142378929Y-78736494D01*
X142528454Y-78586969D01*
X142593255Y-78494422D01*
X142638288Y-78454930D01*
X142696468Y-78440693D01*
X142862329Y-78440693D01*
X142920509Y-78454930D01*
X142965542Y-78494422D01*
X142974931Y-78507830D01*
X143023278Y-78576877D01*
X143172803Y-78726402D01*
X143177311Y-78729558D01*
X143177314Y-78729561D01*
X143256217Y-78784809D01*
X143346021Y-78847690D01*
X143537669Y-78937057D01*
X143741924Y-78991787D01*
X143952579Y-79010217D01*
X144163234Y-78991787D01*
X144367489Y-78937057D01*
X144559137Y-78847690D01*
X144732355Y-78726402D01*
X144881880Y-78576877D01*
X145003168Y-78403659D01*
X145004886Y-78404862D01*
X145041354Y-78367515D01*
X145101245Y-78349300D01*
X145162509Y-78362155D01*
X145210026Y-78402905D01*
X145246454Y-78454930D01*
X145313692Y-78550957D01*
X145320743Y-78561026D01*
X145470268Y-78710551D01*
X145474776Y-78713707D01*
X145474779Y-78713710D01*
X145619886Y-78815314D01*
X145643486Y-78831839D01*
X145835134Y-78921206D01*
X146039389Y-78975936D01*
X146250044Y-78994366D01*
X146460699Y-78975936D01*
X146466015Y-78974511D01*
X146470600Y-78973703D01*
X146530372Y-78977617D01*
X146581582Y-79008692D01*
X146649595Y-79076705D01*
X146676909Y-79117582D01*
X146686500Y-79165800D01*
X146686500Y-80965405D01*
X146676909Y-81013623D01*
X146649595Y-81054501D01*
X146284499Y-81419596D01*
X146243622Y-81446909D01*
X146195404Y-81456500D01*
X146116762Y-81456500D01*
X146056793Y-81441314D01*
X146011279Y-81399415D01*
X145959437Y-81320065D01*
X145895314Y-81221917D01*
X145767336Y-81082896D01*
X145740752Y-81054018D01*
X145740747Y-81054013D01*
X145737220Y-81050182D01*
X145681386Y-81006724D01*
X145557130Y-80910011D01*
X145557127Y-80910009D01*
X145553017Y-80906810D01*
X145548438Y-80904332D01*
X145548435Y-80904330D01*
X145352312Y-80798194D01*
X145352309Y-80798192D01*
X145347727Y-80795713D01*
X145342799Y-80794021D01*
X145342794Y-80794019D01*
X145131881Y-80721612D01*
X145131875Y-80721610D01*
X145126951Y-80719920D01*
X145121814Y-80719062D01*
X145121811Y-80719062D01*
X144901849Y-80682357D01*
X144901846Y-80682356D01*
X144896712Y-80681500D01*
X144663288Y-80681500D01*
X144658154Y-80682356D01*
X144658150Y-80682357D01*
X144438188Y-80719062D01*
X144438182Y-80719063D01*
X144433049Y-80719920D01*
X144428127Y-80721609D01*
X144428118Y-80721612D01*
X144217205Y-80794019D01*
X144217196Y-80794022D01*
X144212273Y-80795713D01*
X144207694Y-80798190D01*
X144207687Y-80798194D01*
X144011564Y-80904330D01*
X144011556Y-80904335D01*
X144006983Y-80906810D01*
X144002877Y-80910005D01*
X144002869Y-80910011D01*
X143826898Y-81046976D01*
X143826892Y-81046981D01*
X143822780Y-81050182D01*
X143819251Y-81054014D01*
X143817748Y-81055399D01*
X143764144Y-81084632D01*
X143703090Y-81085232D01*
X143648922Y-81057057D01*
X143614360Y-81006724D01*
X143594038Y-80952238D01*
X143594037Y-80952236D01*
X143590889Y-80943796D01*
X143583881Y-80934435D01*
X143508659Y-80833950D01*
X143503261Y-80826739D01*
X143496049Y-80821340D01*
X143393417Y-80744510D01*
X143393414Y-80744508D01*
X143386204Y-80739111D01*
X143377766Y-80735964D01*
X143377763Y-80735962D01*
X143256580Y-80690763D01*
X143256578Y-80690762D01*
X143249201Y-80688011D01*
X143241373Y-80687169D01*
X143241367Y-80687168D01*
X143191988Y-80681860D01*
X143191985Y-80681859D01*
X143188638Y-80681500D01*
X141291362Y-80681500D01*
X141288015Y-80681859D01*
X141288011Y-80681860D01*
X141238632Y-80687168D01*
X141238625Y-80687169D01*
X141230799Y-80688011D01*
X141223423Y-80690761D01*
X141223419Y-80690763D01*
X141102236Y-80735962D01*
X141102230Y-80735965D01*
X141093796Y-80739111D01*
X141086588Y-80744506D01*
X141086582Y-80744510D01*
X140983950Y-80821340D01*
X140983946Y-80821343D01*
X140976739Y-80826739D01*
X140971343Y-80833946D01*
X140971340Y-80833950D01*
X140894510Y-80936582D01*
X140894506Y-80936588D01*
X140889111Y-80943796D01*
X140885965Y-80952230D01*
X140885962Y-80952236D01*
X140840763Y-81073419D01*
X140840761Y-81073423D01*
X140838011Y-81080799D01*
X140837169Y-81088625D01*
X140837168Y-81088632D01*
X140831860Y-81138011D01*
X140831500Y-81141362D01*
X140831500Y-83038638D01*
X140831859Y-83041985D01*
X140831860Y-83041988D01*
X140837168Y-83091367D01*
X140837169Y-83091373D01*
X140838011Y-83099201D01*
X140840762Y-83106578D01*
X140840763Y-83106580D01*
X140885962Y-83227763D01*
X140885964Y-83227766D01*
X140889111Y-83236204D01*
X140894508Y-83243414D01*
X140894510Y-83243417D01*
X140914401Y-83269988D01*
X140976739Y-83353261D01*
X141093796Y-83440889D01*
X141230799Y-83491989D01*
X141291362Y-83498500D01*
X143185269Y-83498500D01*
X143188638Y-83498500D01*
X143249201Y-83491989D01*
X143386204Y-83440889D01*
X143503261Y-83353261D01*
X143590889Y-83236204D01*
X143614360Y-83173275D01*
X143648923Y-83122941D01*
X143703092Y-83094767D01*
X143764148Y-83095368D01*
X143817752Y-83124604D01*
X143819247Y-83125980D01*
X143822780Y-83129818D01*
X144006983Y-83273190D01*
X144212273Y-83384287D01*
X144433049Y-83460080D01*
X144663288Y-83498500D01*
X144891501Y-83498500D01*
X144896712Y-83498500D01*
X145126951Y-83460080D01*
X145347727Y-83384287D01*
X145553017Y-83273190D01*
X145737220Y-83129818D01*
X145895314Y-82958083D01*
X146011278Y-82780585D01*
X146056793Y-82738686D01*
X146116762Y-82723500D01*
X146431233Y-82723500D01*
X146442416Y-82724027D01*
X146449909Y-82725702D01*
X146517985Y-82723562D01*
X146521945Y-82723500D01*
X146545894Y-82723500D01*
X146549856Y-82723500D01*
X146553856Y-82722994D01*
X146565699Y-82722061D01*
X146609889Y-82720673D01*
X146629333Y-82715023D01*
X146648702Y-82711012D01*
X146668797Y-82708474D01*
X146709915Y-82692193D01*
X146721117Y-82688357D01*
X146763593Y-82676018D01*
X146781039Y-82665699D01*
X146798769Y-82657013D01*
X146817617Y-82649552D01*
X146853387Y-82623561D01*
X146863298Y-82617051D01*
X146901362Y-82594542D01*
X146915688Y-82580215D01*
X146930717Y-82567378D01*
X146947107Y-82555472D01*
X146975294Y-82521397D01*
X146983272Y-82512630D01*
X147712266Y-81783636D01*
X147720531Y-81776114D01*
X147727018Y-81772000D01*
X147773661Y-81722328D01*
X147776353Y-81719550D01*
X147796135Y-81699770D01*
X147798613Y-81696574D01*
X147806308Y-81687563D01*
X147836586Y-81655321D01*
X147846348Y-81637562D01*
X147857195Y-81621050D01*
X147869614Y-81605041D01*
X147887179Y-81564446D01*
X147892388Y-81553814D01*
X147913695Y-81515060D01*
X147918733Y-81495434D01*
X147925134Y-81476737D01*
X147933181Y-81458145D01*
X147940096Y-81414477D01*
X147942504Y-81402853D01*
X147951529Y-81367705D01*
X147953500Y-81360030D01*
X147953500Y-81339776D01*
X147955051Y-81320065D01*
X147958220Y-81300057D01*
X147954058Y-81256038D01*
X147953500Y-81244181D01*
X147953500Y-78929973D01*
X147954027Y-78918789D01*
X147955702Y-78911297D01*
X147953562Y-78843220D01*
X147953500Y-78839261D01*
X147953500Y-78815314D01*
X147953500Y-78811350D01*
X147952994Y-78807353D01*
X147952061Y-78795503D01*
X147951725Y-78784809D01*
X147950673Y-78751316D01*
X147945020Y-78731862D01*
X147941012Y-78712503D01*
X147938474Y-78692409D01*
X147922197Y-78651299D01*
X147918351Y-78640066D01*
X147906018Y-78597613D01*
X147895707Y-78580179D01*
X147887008Y-78562421D01*
X147882469Y-78550957D01*
X147879552Y-78543589D01*
X147853561Y-78507816D01*
X147847050Y-78497904D01*
X147824542Y-78459843D01*
X147810218Y-78445519D01*
X147797376Y-78430483D01*
X147790134Y-78420515D01*
X147790131Y-78420512D01*
X147785472Y-78414099D01*
X147779030Y-78408770D01*
X147751405Y-78385916D01*
X147742626Y-78377927D01*
X147477486Y-78112787D01*
X147446411Y-78061577D01*
X147442497Y-78001804D01*
X147443305Y-77997222D01*
X147444730Y-77991905D01*
X147463160Y-77781250D01*
X147444730Y-77570595D01*
X147390000Y-77366340D01*
X147300633Y-77174692D01*
X147289965Y-77159456D01*
X147182504Y-77005985D01*
X147182501Y-77005982D01*
X147179345Y-77001474D01*
X147029820Y-76851949D01*
X147025312Y-76848793D01*
X147025308Y-76848789D01*
X146861107Y-76733815D01*
X146861103Y-76733813D01*
X146856602Y-76730661D01*
X146851623Y-76728339D01*
X146851621Y-76728338D01*
X146669936Y-76643617D01*
X146669934Y-76643616D01*
X146664954Y-76641294D01*
X146659645Y-76639871D01*
X146659644Y-76639871D01*
X146518064Y-76601935D01*
X146460699Y-76586564D01*
X146455223Y-76586084D01*
X146455218Y-76586084D01*
X146255519Y-76568613D01*
X146250044Y-76568134D01*
X146244569Y-76568613D01*
X146044869Y-76586084D01*
X146044862Y-76586085D01*
X146039389Y-76586564D01*
X146034075Y-76587987D01*
X146034074Y-76587988D01*
X145840443Y-76639871D01*
X145840438Y-76639872D01*
X145835134Y-76641294D01*
X145830156Y-76643614D01*
X145830151Y-76643617D01*
X145648466Y-76728338D01*
X145648458Y-76728342D01*
X145643486Y-76730661D01*
X145638989Y-76733809D01*
X145638980Y-76733815D01*
X145474779Y-76848789D01*
X145474769Y-76848797D01*
X145470268Y-76851949D01*
X145466378Y-76855838D01*
X145466372Y-76855844D01*
X145324638Y-76997578D01*
X145324632Y-76997584D01*
X145320743Y-77001474D01*
X145317591Y-77005975D01*
X145317583Y-77005985D01*
X145199455Y-77174692D01*
X145197763Y-77173507D01*
X145161140Y-77210912D01*
X145101278Y-77229054D01*
X145040068Y-77216173D01*
X144992595Y-77175443D01*
X144885039Y-77021836D01*
X144885036Y-77021833D01*
X144881880Y-77017325D01*
X144732355Y-76867800D01*
X144727847Y-76864644D01*
X144727843Y-76864640D01*
X144563642Y-76749666D01*
X144563638Y-76749664D01*
X144559137Y-76746512D01*
X144554158Y-76744190D01*
X144554156Y-76744189D01*
X144372471Y-76659468D01*
X144372469Y-76659467D01*
X144367489Y-76657145D01*
X144362180Y-76655722D01*
X144362179Y-76655722D01*
X144168548Y-76603839D01*
X144168549Y-76603839D01*
X144163234Y-76602415D01*
X144157758Y-76601935D01*
X144157753Y-76601935D01*
X143958054Y-76584464D01*
X143952579Y-76583985D01*
X143947104Y-76584464D01*
X143747404Y-76601935D01*
X143747397Y-76601936D01*
X143741924Y-76602415D01*
X143736610Y-76603838D01*
X143736609Y-76603839D01*
X143542978Y-76655722D01*
X143542973Y-76655723D01*
X143537669Y-76657145D01*
X143532691Y-76659465D01*
X143532686Y-76659468D01*
X143351001Y-76744189D01*
X143350993Y-76744193D01*
X143346021Y-76746512D01*
X143341524Y-76749660D01*
X143341515Y-76749666D01*
X143177314Y-76864640D01*
X143177304Y-76864648D01*
X143172803Y-76867800D01*
X143168913Y-76871689D01*
X143168907Y-76871695D01*
X143027175Y-77013427D01*
X143027169Y-77013433D01*
X143023278Y-77017325D01*
X143020121Y-77021833D01*
X143020119Y-77021836D01*
X142951409Y-77119964D01*
X142906376Y-77159456D01*
X142848196Y-77173693D01*
X142696468Y-77173693D01*
X142638288Y-77159456D01*
X142593255Y-77119963D01*
X142531613Y-77031928D01*
X142531610Y-77031925D01*
X142528454Y-77027417D01*
X142378929Y-76877892D01*
X142374421Y-76874736D01*
X142374417Y-76874732D01*
X142210216Y-76759758D01*
X142210212Y-76759756D01*
X142205711Y-76756604D01*
X142200732Y-76754282D01*
X142200730Y-76754281D01*
X142019045Y-76669560D01*
X142019043Y-76669559D01*
X142014063Y-76667237D01*
X142008754Y-76665814D01*
X142008753Y-76665814D01*
X141815122Y-76613931D01*
X141815123Y-76613931D01*
X141809808Y-76612507D01*
X141804332Y-76612027D01*
X141804327Y-76612027D01*
X141604628Y-76594556D01*
X141599153Y-76594077D01*
X141593678Y-76594556D01*
X141393978Y-76612027D01*
X141393971Y-76612028D01*
X141388498Y-76612507D01*
X141383184Y-76613930D01*
X141383183Y-76613931D01*
X141189552Y-76665814D01*
X141189547Y-76665815D01*
X141184243Y-76667237D01*
X141179265Y-76669557D01*
X141179260Y-76669560D01*
X140997575Y-76754281D01*
X140997567Y-76754285D01*
X140992595Y-76756604D01*
X140988098Y-76759752D01*
X140988089Y-76759758D01*
X140823888Y-76874732D01*
X140823878Y-76874740D01*
X140819377Y-76877892D01*
X140815487Y-76881781D01*
X140815481Y-76881787D01*
X140673747Y-77023521D01*
X140673741Y-77023527D01*
X140669852Y-77027417D01*
X140666700Y-77031918D01*
X140666692Y-77031928D01*
X140551718Y-77196129D01*
X140551712Y-77196138D01*
X140548564Y-77200635D01*
X140546245Y-77205607D01*
X140546241Y-77205615D01*
X140461520Y-77387300D01*
X140461517Y-77387305D01*
X140459197Y-77392283D01*
X140457775Y-77397587D01*
X140457774Y-77397592D01*
X140411418Y-77570595D01*
X140404467Y-77596538D01*
X140403988Y-77602011D01*
X140403987Y-77602018D01*
X140403852Y-77603563D01*
X140386037Y-77807193D01*
X138550196Y-77807193D01*
X138601762Y-77603563D01*
X138603474Y-77593309D01*
X138622567Y-77362893D01*
X138622567Y-77352515D01*
X138603474Y-77122098D01*
X138601762Y-77111844D01*
X138545007Y-76887722D01*
X138541634Y-76877897D01*
X138448760Y-76666167D01*
X138443817Y-76657032D01*
X138317362Y-76463478D01*
X138307782Y-76451171D01*
X138309155Y-76450102D01*
X138285898Y-76409179D01*
X138282322Y-76352620D01*
X138303895Y-76300215D01*
X138346253Y-76262565D01*
X138347757Y-76261743D01*
X138356204Y-76258593D01*
X138473261Y-76170965D01*
X138560889Y-76053908D01*
X138611989Y-75916905D01*
X138618500Y-75856342D01*
X138618500Y-75617204D01*
X138635381Y-75554204D01*
X138681500Y-75508085D01*
X138744500Y-75491204D01*
X146043529Y-75491204D01*
X146054712Y-75491731D01*
X146062205Y-75493406D01*
X146130281Y-75491266D01*
X146134241Y-75491204D01*
X146158190Y-75491204D01*
X146162152Y-75491204D01*
X146166152Y-75490698D01*
X146177995Y-75489765D01*
X146222185Y-75488377D01*
X146241629Y-75482727D01*
X146260998Y-75478716D01*
X146281093Y-75476178D01*
X146322211Y-75459897D01*
X146333413Y-75456061D01*
X146375889Y-75443722D01*
X146393335Y-75433403D01*
X146411065Y-75424717D01*
X146429913Y-75417256D01*
X146465683Y-75391265D01*
X146475594Y-75384755D01*
X146513658Y-75362246D01*
X146527984Y-75347919D01*
X146543013Y-75335082D01*
X146559403Y-75323176D01*
X146587594Y-75289097D01*
X146595564Y-75280338D01*
X147270499Y-74605404D01*
X147311377Y-74578091D01*
X147359595Y-74568500D01*
X147408884Y-74568500D01*
X147415487Y-74568500D01*
X147602288Y-74528794D01*
X147776752Y-74451118D01*
X147931253Y-74338866D01*
X148059040Y-74196944D01*
X148154527Y-74031556D01*
X148213542Y-73849928D01*
X148231262Y-73681329D01*
X148252113Y-73624042D01*
X148297419Y-73583249D01*
X148356572Y-73568500D01*
X148820405Y-73568500D01*
X148868632Y-73578095D01*
X148909514Y-73605418D01*
X148912891Y-73608796D01*
X148937512Y-73643642D01*
X148949092Y-73684707D01*
X148959486Y-73783595D01*
X148966458Y-73849928D01*
X148968495Y-73856200D01*
X148968497Y-73856205D01*
X149023430Y-74025271D01*
X149023433Y-74025278D01*
X149025473Y-74031556D01*
X149120960Y-74196944D01*
X149248747Y-74338866D01*
X149403248Y-74451118D01*
X149577712Y-74528794D01*
X149593207Y-74532087D01*
X149651324Y-74561696D01*
X149686848Y-74616397D01*
X149732227Y-74756056D01*
X149786095Y-74849358D01*
X149822806Y-74912944D01*
X149827714Y-74921444D01*
X149920441Y-75024428D01*
X149944692Y-75051362D01*
X149955501Y-75063366D01*
X149960843Y-75067247D01*
X149960845Y-75067249D01*
X149989811Y-75088294D01*
X150110002Y-75175618D01*
X150284466Y-75253294D01*
X150471267Y-75293000D01*
X150655638Y-75293000D01*
X150662241Y-75293000D01*
X150849042Y-75253294D01*
X151023506Y-75175618D01*
X151178007Y-75063366D01*
X151286430Y-74942949D01*
X151333675Y-74910113D01*
X151390600Y-74901706D01*
X151445327Y-74919485D01*
X151486442Y-74959743D01*
X151505370Y-75014083D01*
X151505767Y-75017861D01*
X151505768Y-75017864D01*
X151506458Y-75024428D01*
X151508495Y-75030700D01*
X151508497Y-75030705D01*
X151563430Y-75199771D01*
X151563433Y-75199778D01*
X151565473Y-75206056D01*
X151610763Y-75284500D01*
X151655649Y-75362246D01*
X151660960Y-75371444D01*
X151788747Y-75513366D01*
X151794089Y-75517247D01*
X151794091Y-75517249D01*
X151837298Y-75548641D01*
X151943248Y-75625618D01*
X152117712Y-75703294D01*
X152304513Y-75743000D01*
X152488884Y-75743000D01*
X152495487Y-75743000D01*
X152682288Y-75703294D01*
X152856752Y-75625618D01*
X153011253Y-75513366D01*
X153139040Y-75371444D01*
X153234527Y-75206056D01*
X153293542Y-75024428D01*
X153313504Y-74834500D01*
X153293542Y-74644572D01*
X153256993Y-74532087D01*
X153236569Y-74469228D01*
X153236568Y-74469226D01*
X153234527Y-74462944D01*
X153139040Y-74297556D01*
X153065861Y-74216283D01*
X153041869Y-74177130D01*
X153033500Y-74131976D01*
X153033500Y-71827252D01*
X153047710Y-71769123D01*
X153087134Y-71724105D01*
X153142881Y-71702353D01*
X153202377Y-71708772D01*
X153252201Y-71741914D01*
X153323227Y-71819069D01*
X153323231Y-71819073D01*
X153326760Y-71822906D01*
X153504424Y-71961189D01*
X153702426Y-72068342D01*
X153707355Y-72070034D01*
X153707357Y-72070035D01*
X153785674Y-72096921D01*
X153915365Y-72141444D01*
X154137431Y-72178500D01*
X154357358Y-72178500D01*
X154362569Y-72178500D01*
X154584635Y-72141444D01*
X154797574Y-72068342D01*
X154995576Y-71961189D01*
X155173240Y-71822906D01*
X155325722Y-71657268D01*
X155414518Y-71521354D01*
X155460030Y-71479457D01*
X155520000Y-71464271D01*
X155579970Y-71479457D01*
X155625481Y-71521354D01*
X155714278Y-71657268D01*
X155717806Y-71661100D01*
X155863227Y-71819069D01*
X155863231Y-71819073D01*
X155866760Y-71822906D01*
X156044424Y-71961189D01*
X156242426Y-72068342D01*
X156247355Y-72070034D01*
X156247357Y-72070035D01*
X156325674Y-72096921D01*
X156455365Y-72141444D01*
X156677431Y-72178500D01*
X156897358Y-72178500D01*
X156902569Y-72178500D01*
X157124635Y-72141444D01*
X157337574Y-72068342D01*
X157535576Y-71961189D01*
X157713240Y-71822906D01*
X157865722Y-71657268D01*
X157954518Y-71521354D01*
X158000030Y-71479457D01*
X158060000Y-71464271D01*
X158119970Y-71479457D01*
X158165481Y-71521354D01*
X158254278Y-71657268D01*
X158257806Y-71661100D01*
X158403227Y-71819069D01*
X158403231Y-71819073D01*
X158406760Y-71822906D01*
X158584424Y-71961189D01*
X158782426Y-72068342D01*
X158787355Y-72070034D01*
X158787357Y-72070035D01*
X158865674Y-72096921D01*
X158995365Y-72141444D01*
X159217431Y-72178500D01*
X159437358Y-72178500D01*
X159442569Y-72178500D01*
X159664635Y-72141444D01*
X159704588Y-72127727D01*
X159763666Y-72122217D01*
X159818716Y-72144356D01*
X159857529Y-72189235D01*
X159871500Y-72246901D01*
X159871500Y-75200735D01*
X159858748Y-75255969D01*
X159823074Y-75300024D01*
X159771698Y-75323981D01*
X159744176Y-75329831D01*
X159744167Y-75329833D01*
X159737712Y-75331206D01*
X159731682Y-75333890D01*
X159731681Y-75333891D01*
X159569278Y-75406197D01*
X159569275Y-75406198D01*
X159563248Y-75408882D01*
X159557907Y-75412762D01*
X159557906Y-75412763D01*
X159414091Y-75517250D01*
X159414083Y-75517256D01*
X159408747Y-75521134D01*
X159404330Y-75526039D01*
X159404325Y-75526044D01*
X159292922Y-75649771D01*
X159280960Y-75663056D01*
X159277661Y-75668769D01*
X159277658Y-75668774D01*
X159200333Y-75802705D01*
X159185473Y-75828444D01*
X159183434Y-75834718D01*
X159183430Y-75834728D01*
X159128497Y-76003794D01*
X159128495Y-76003801D01*
X159126458Y-76010072D01*
X159125768Y-76016633D01*
X159125768Y-76016635D01*
X159113680Y-76131646D01*
X159106496Y-76200000D01*
X159126458Y-76389928D01*
X159128495Y-76396200D01*
X159128497Y-76396205D01*
X159183430Y-76565271D01*
X159183433Y-76565278D01*
X159185473Y-76571556D01*
X159227078Y-76643617D01*
X159277332Y-76730661D01*
X159280960Y-76736944D01*
X159408747Y-76878866D01*
X159563248Y-76991118D01*
X159737712Y-77068794D01*
X159924513Y-77108500D01*
X160108884Y-77108500D01*
X160115487Y-77108500D01*
X160302288Y-77068794D01*
X160476752Y-76991118D01*
X160631253Y-76878866D01*
X160759040Y-76736944D01*
X160854527Y-76571556D01*
X160913542Y-76389928D01*
X160930907Y-76224705D01*
X160942492Y-76183631D01*
X160967125Y-76148778D01*
X160981135Y-76134769D01*
X160983589Y-76131604D01*
X160991310Y-76122559D01*
X161021586Y-76090321D01*
X161031345Y-76072567D01*
X161042198Y-76056045D01*
X161054614Y-76040040D01*
X161072177Y-75999450D01*
X161077388Y-75988815D01*
X161098695Y-75950060D01*
X161103732Y-75930442D01*
X161110138Y-75911730D01*
X161115032Y-75900421D01*
X161118181Y-75893145D01*
X161125096Y-75849477D01*
X161127504Y-75837853D01*
X161138500Y-75795030D01*
X161138500Y-75774776D01*
X161140051Y-75755065D01*
X161141980Y-75742885D01*
X161143220Y-75735057D01*
X161139058Y-75691038D01*
X161138500Y-75679181D01*
X161138500Y-72179504D01*
X161153686Y-72119535D01*
X161195583Y-72074022D01*
X161254092Y-72053935D01*
X161315110Y-72064115D01*
X161327555Y-72069573D01*
X161530557Y-72139264D01*
X161540627Y-72141814D01*
X161752335Y-72177142D01*
X161762684Y-72178000D01*
X161977316Y-72178000D01*
X161987664Y-72177142D01*
X162199372Y-72141814D01*
X162209442Y-72139264D01*
X162244588Y-72127199D01*
X162303666Y-72121688D01*
X162358716Y-72143827D01*
X162397529Y-72188706D01*
X162411500Y-72246372D01*
X162411500Y-74285235D01*
X162398748Y-74340469D01*
X162363074Y-74384524D01*
X162311698Y-74408481D01*
X162284176Y-74414331D01*
X162284167Y-74414333D01*
X162277712Y-74415706D01*
X162271682Y-74418390D01*
X162271681Y-74418391D01*
X162109278Y-74490697D01*
X162109275Y-74490698D01*
X162103248Y-74493382D01*
X162097907Y-74497262D01*
X162097906Y-74497263D01*
X161954091Y-74601750D01*
X161954083Y-74601756D01*
X161948747Y-74605634D01*
X161944330Y-74610539D01*
X161944325Y-74610544D01*
X161849646Y-74715697D01*
X161820960Y-74747556D01*
X161817661Y-74753269D01*
X161817658Y-74753274D01*
X161731961Y-74901706D01*
X161725473Y-74912944D01*
X161723434Y-74919218D01*
X161723430Y-74919228D01*
X161668497Y-75088294D01*
X161668495Y-75088301D01*
X161666458Y-75094572D01*
X161665768Y-75101133D01*
X161665768Y-75101135D01*
X161653680Y-75216146D01*
X161646496Y-75284500D01*
X161666458Y-75474428D01*
X161668495Y-75480700D01*
X161668497Y-75480705D01*
X161723430Y-75649771D01*
X161723433Y-75649778D01*
X161725473Y-75656056D01*
X161820960Y-75821444D01*
X161948747Y-75963366D01*
X162103248Y-76075618D01*
X162277712Y-76153294D01*
X162464513Y-76193000D01*
X162648884Y-76193000D01*
X162655487Y-76193000D01*
X162842288Y-76153294D01*
X163016752Y-76075618D01*
X163171253Y-75963366D01*
X163299040Y-75821444D01*
X163394527Y-75656056D01*
X163453542Y-75474428D01*
X163470907Y-75309205D01*
X163482492Y-75268131D01*
X163507125Y-75233278D01*
X163521135Y-75219269D01*
X163523589Y-75216104D01*
X163531299Y-75207071D01*
X163558655Y-75177941D01*
X163608569Y-75145382D01*
X163667865Y-75139402D01*
X163723276Y-75161342D01*
X163762406Y-75206294D01*
X163776500Y-75264200D01*
X163776500Y-84799079D01*
X163758741Y-84863577D01*
X163710469Y-84909893D01*
X163669004Y-84932331D01*
X163668991Y-84932339D01*
X163664424Y-84934811D01*
X163660313Y-84938010D01*
X163660311Y-84938012D01*
X163490878Y-85069888D01*
X163490872Y-85069893D01*
X163486760Y-85073094D01*
X163483237Y-85076919D01*
X163483227Y-85076930D01*
X163337806Y-85234899D01*
X163337802Y-85234902D01*
X163334278Y-85238732D01*
X163331430Y-85243090D01*
X163331427Y-85243095D01*
X163245483Y-85374643D01*
X163199969Y-85416542D01*
X163140000Y-85431728D01*
X163080031Y-85416542D01*
X163034517Y-85374643D01*
X163001365Y-85323900D01*
X162945722Y-85238732D01*
X162864125Y-85150095D01*
X162796772Y-85076930D01*
X162796767Y-85076925D01*
X162793240Y-85073094D01*
X162615576Y-84934811D01*
X162610997Y-84932333D01*
X162610994Y-84932331D01*
X162422159Y-84830139D01*
X162422156Y-84830137D01*
X162417574Y-84827658D01*
X162412650Y-84825967D01*
X162412642Y-84825964D01*
X162209565Y-84756248D01*
X162209559Y-84756246D01*
X162204635Y-84754556D01*
X162199498Y-84753698D01*
X162199495Y-84753698D01*
X161987706Y-84718357D01*
X161987703Y-84718356D01*
X161982569Y-84717500D01*
X161757431Y-84717500D01*
X161752297Y-84718356D01*
X161752293Y-84718357D01*
X161540504Y-84753698D01*
X161540498Y-84753699D01*
X161535365Y-84754556D01*
X161530443Y-84756245D01*
X161530434Y-84756248D01*
X161327357Y-84825964D01*
X161327344Y-84825969D01*
X161322426Y-84827658D01*
X161317847Y-84830135D01*
X161317840Y-84830139D01*
X161129005Y-84932331D01*
X161128997Y-84932336D01*
X161124424Y-84934811D01*
X161120313Y-84938010D01*
X161120311Y-84938012D01*
X160950878Y-85069888D01*
X160950872Y-85069893D01*
X160946760Y-85073094D01*
X160943237Y-85076919D01*
X160943227Y-85076930D01*
X160797806Y-85234899D01*
X160797802Y-85234902D01*
X160794278Y-85238732D01*
X160791430Y-85243090D01*
X160791427Y-85243095D01*
X160705483Y-85374643D01*
X160659969Y-85416542D01*
X160600000Y-85431728D01*
X160540031Y-85416542D01*
X160494517Y-85374643D01*
X160461365Y-85323900D01*
X160405722Y-85238732D01*
X160324125Y-85150095D01*
X160256772Y-85076930D01*
X160256767Y-85076925D01*
X160253240Y-85073094D01*
X160075576Y-84934811D01*
X160070997Y-84932333D01*
X160070994Y-84932331D01*
X159882159Y-84830139D01*
X159882156Y-84830137D01*
X159877574Y-84827658D01*
X159872650Y-84825967D01*
X159872642Y-84825964D01*
X159669565Y-84756248D01*
X159669559Y-84756246D01*
X159664635Y-84754556D01*
X159659498Y-84753698D01*
X159659495Y-84753698D01*
X159447706Y-84718357D01*
X159447703Y-84718356D01*
X159442569Y-84717500D01*
X159217431Y-84717500D01*
X159212297Y-84718356D01*
X159212293Y-84718357D01*
X159000504Y-84753698D01*
X159000498Y-84753699D01*
X158995365Y-84754556D01*
X158990443Y-84756245D01*
X158990434Y-84756248D01*
X158787357Y-84825964D01*
X158787344Y-84825969D01*
X158782426Y-84827658D01*
X158777847Y-84830135D01*
X158777840Y-84830139D01*
X158589005Y-84932331D01*
X158588997Y-84932336D01*
X158584424Y-84934811D01*
X158580313Y-84938010D01*
X158580311Y-84938012D01*
X158410878Y-85069888D01*
X158410872Y-85069893D01*
X158406760Y-85073094D01*
X158403237Y-85076919D01*
X158403227Y-85076930D01*
X158257806Y-85234899D01*
X158257802Y-85234902D01*
X158254278Y-85238732D01*
X158251430Y-85243090D01*
X158251427Y-85243095D01*
X158165483Y-85374643D01*
X158119969Y-85416542D01*
X158060000Y-85431728D01*
X158000031Y-85416542D01*
X157954517Y-85374643D01*
X157921365Y-85323900D01*
X157865722Y-85238732D01*
X157784125Y-85150095D01*
X157716772Y-85076930D01*
X157716767Y-85076925D01*
X157713240Y-85073094D01*
X157535576Y-84934811D01*
X157530997Y-84932333D01*
X157530994Y-84932331D01*
X157342159Y-84830139D01*
X157342156Y-84830137D01*
X157337574Y-84827658D01*
X157332650Y-84825967D01*
X157332642Y-84825964D01*
X157129565Y-84756248D01*
X157129559Y-84756246D01*
X157124635Y-84754556D01*
X157119498Y-84753698D01*
X157119495Y-84753698D01*
X156907706Y-84718357D01*
X156907703Y-84718356D01*
X156902569Y-84717500D01*
X156677431Y-84717500D01*
X156672297Y-84718356D01*
X156672293Y-84718357D01*
X156460504Y-84753698D01*
X156460498Y-84753699D01*
X156455365Y-84754556D01*
X156450443Y-84756245D01*
X156450434Y-84756248D01*
X156247357Y-84825964D01*
X156247344Y-84825969D01*
X156242426Y-84827658D01*
X156237847Y-84830135D01*
X156237840Y-84830139D01*
X156049005Y-84932331D01*
X156048997Y-84932336D01*
X156044424Y-84934811D01*
X156040313Y-84938010D01*
X156040311Y-84938012D01*
X155870878Y-85069888D01*
X155870872Y-85069893D01*
X155866760Y-85073094D01*
X155863237Y-85076920D01*
X155863226Y-85076931D01*
X155805754Y-85139362D01*
X155752281Y-85173761D01*
X155688820Y-85177671D01*
X155631530Y-85150095D01*
X155594998Y-85098056D01*
X155554037Y-84988236D01*
X155554036Y-84988235D01*
X155550889Y-84979796D01*
X155538891Y-84963769D01*
X155468659Y-84869950D01*
X155463261Y-84862739D01*
X155456049Y-84857340D01*
X155353417Y-84780510D01*
X155353414Y-84780508D01*
X155346204Y-84775111D01*
X155337766Y-84771964D01*
X155337763Y-84771962D01*
X155216580Y-84726763D01*
X155216578Y-84726762D01*
X155209201Y-84724011D01*
X155201373Y-84723169D01*
X155201367Y-84723168D01*
X155151988Y-84717860D01*
X155151985Y-84717859D01*
X155148638Y-84717500D01*
X153351362Y-84717500D01*
X153348015Y-84717859D01*
X153348011Y-84717860D01*
X153298632Y-84723168D01*
X153298625Y-84723169D01*
X153290799Y-84724011D01*
X153283423Y-84726761D01*
X153283419Y-84726763D01*
X153162236Y-84771962D01*
X153162230Y-84771965D01*
X153153796Y-84775111D01*
X153146588Y-84780506D01*
X153146582Y-84780510D01*
X153043950Y-84857340D01*
X153043946Y-84857343D01*
X153036739Y-84862739D01*
X153031343Y-84869946D01*
X153031340Y-84869950D01*
X152954510Y-84972582D01*
X152954506Y-84972588D01*
X152949111Y-84979796D01*
X152945965Y-84988230D01*
X152945962Y-84988236D01*
X152900763Y-85109419D01*
X152900761Y-85109423D01*
X152898011Y-85116799D01*
X152897169Y-85124625D01*
X152897168Y-85124632D01*
X152894431Y-85150095D01*
X152891500Y-85177362D01*
X152891500Y-86974638D01*
X152891859Y-86977985D01*
X152891860Y-86977988D01*
X152897168Y-87027367D01*
X152897169Y-87027373D01*
X152898011Y-87035201D01*
X152900762Y-87042578D01*
X152900763Y-87042580D01*
X152945962Y-87163763D01*
X152945964Y-87163766D01*
X152949111Y-87172204D01*
X152954508Y-87179414D01*
X152954510Y-87179417D01*
X152980078Y-87213571D01*
X153036739Y-87289261D01*
X153043950Y-87294659D01*
X153145787Y-87370894D01*
X153153796Y-87376889D01*
X153290799Y-87427989D01*
X153351362Y-87434500D01*
X155145269Y-87434500D01*
X155148638Y-87434500D01*
X155209201Y-87427989D01*
X155346204Y-87376889D01*
X155463261Y-87289261D01*
X155550889Y-87172204D01*
X155594998Y-87053943D01*
X155631530Y-87001904D01*
X155688820Y-86974328D01*
X155752282Y-86978238D01*
X155805755Y-87012638D01*
X155826526Y-87035201D01*
X155866760Y-87078906D01*
X156044424Y-87217189D01*
X156242426Y-87324342D01*
X156247355Y-87326034D01*
X156247357Y-87326035D01*
X156348895Y-87360893D01*
X156455365Y-87397444D01*
X156677431Y-87434500D01*
X156897358Y-87434500D01*
X156902569Y-87434500D01*
X157124635Y-87397444D01*
X157337574Y-87324342D01*
X157535576Y-87217189D01*
X157713240Y-87078906D01*
X157865722Y-86913268D01*
X157954518Y-86777354D01*
X158000030Y-86735457D01*
X158060000Y-86720271D01*
X158119970Y-86735457D01*
X158165481Y-86777354D01*
X158254278Y-86913268D01*
X158257806Y-86917100D01*
X158403227Y-87075069D01*
X158403231Y-87075073D01*
X158406760Y-87078906D01*
X158584424Y-87217189D01*
X158782426Y-87324342D01*
X158787355Y-87326034D01*
X158787357Y-87326035D01*
X158888895Y-87360893D01*
X158995365Y-87397444D01*
X159217431Y-87434500D01*
X159437358Y-87434500D01*
X159442569Y-87434500D01*
X159664635Y-87397444D01*
X159877574Y-87324342D01*
X160075576Y-87217189D01*
X160253240Y-87078906D01*
X160405722Y-86913268D01*
X160494518Y-86777354D01*
X160540030Y-86735457D01*
X160600000Y-86720271D01*
X160659970Y-86735457D01*
X160705481Y-86777354D01*
X160794278Y-86913268D01*
X160797806Y-86917100D01*
X160943227Y-87075069D01*
X160943231Y-87075073D01*
X160946760Y-87078906D01*
X161124424Y-87217189D01*
X161322426Y-87324342D01*
X161327355Y-87326034D01*
X161327357Y-87326035D01*
X161428895Y-87360893D01*
X161535365Y-87397444D01*
X161757431Y-87434500D01*
X161977358Y-87434500D01*
X161982569Y-87434500D01*
X162204635Y-87397444D01*
X162417574Y-87324342D01*
X162615576Y-87217189D01*
X162793240Y-87078906D01*
X162945722Y-86913268D01*
X163034518Y-86777354D01*
X163080030Y-86735457D01*
X163140000Y-86720271D01*
X163199970Y-86735457D01*
X163245481Y-86777354D01*
X163334278Y-86913268D01*
X163337806Y-86917100D01*
X163483227Y-87075069D01*
X163483231Y-87075073D01*
X163486760Y-87078906D01*
X163664424Y-87217189D01*
X163862426Y-87324342D01*
X163867355Y-87326034D01*
X163867357Y-87326035D01*
X163968895Y-87360893D01*
X164075365Y-87397444D01*
X164297431Y-87434500D01*
X164517358Y-87434500D01*
X164522569Y-87434500D01*
X164744635Y-87397444D01*
X164957574Y-87324342D01*
X165155576Y-87217189D01*
X165176977Y-87200532D01*
X166190210Y-87200532D01*
X166198446Y-87211901D01*
X166200592Y-87213571D01*
X166209278Y-87219246D01*
X166398042Y-87321400D01*
X166407559Y-87325575D01*
X166610557Y-87395264D01*
X166620627Y-87397814D01*
X166832335Y-87433142D01*
X166842684Y-87434000D01*
X167057316Y-87434000D01*
X167067664Y-87433142D01*
X167279372Y-87397814D01*
X167289442Y-87395264D01*
X167492440Y-87325575D01*
X167501957Y-87321400D01*
X167690720Y-87219246D01*
X167699410Y-87213569D01*
X167701552Y-87211902D01*
X167709787Y-87200533D01*
X167703019Y-87188229D01*
X166961729Y-86446939D01*
X166949999Y-86440167D01*
X166938271Y-86446938D01*
X166196978Y-87188230D01*
X166190210Y-87200532D01*
X165176977Y-87200532D01*
X165333240Y-87078906D01*
X165485722Y-86913268D01*
X165574817Y-86776896D01*
X165620328Y-86735001D01*
X165680297Y-86719814D01*
X165740266Y-86735000D01*
X165785780Y-86776897D01*
X165819232Y-86828098D01*
X165827328Y-86835947D01*
X165836859Y-86829929D01*
X166579059Y-86087730D01*
X166585832Y-86075999D01*
X167314167Y-86075999D01*
X167320939Y-86087729D01*
X168063138Y-86829928D01*
X168072670Y-86835947D01*
X168080765Y-86828099D01*
X168114217Y-86776898D01*
X168159731Y-86734999D01*
X168219700Y-86719813D01*
X168279669Y-86734999D01*
X168325183Y-86776898D01*
X168346764Y-86809930D01*
X168414278Y-86913268D01*
X168417806Y-86917100D01*
X168563227Y-87075069D01*
X168563231Y-87075073D01*
X168566760Y-87078906D01*
X168744424Y-87217189D01*
X168942426Y-87324342D01*
X168947355Y-87326034D01*
X168947357Y-87326035D01*
X169048895Y-87360893D01*
X169155365Y-87397444D01*
X169377431Y-87434500D01*
X169597358Y-87434500D01*
X169602569Y-87434500D01*
X169824635Y-87397444D01*
X170037574Y-87324342D01*
X170235576Y-87217189D01*
X170413240Y-87078906D01*
X170565722Y-86913268D01*
X170654518Y-86777354D01*
X170700030Y-86735457D01*
X170760000Y-86720271D01*
X170819970Y-86735457D01*
X170865481Y-86777354D01*
X170954278Y-86913268D01*
X170957806Y-86917100D01*
X171103227Y-87075069D01*
X171103231Y-87075073D01*
X171106760Y-87078906D01*
X171284424Y-87217189D01*
X171482426Y-87324342D01*
X171487355Y-87326034D01*
X171487357Y-87326035D01*
X171588895Y-87360893D01*
X171695365Y-87397444D01*
X171917431Y-87434500D01*
X172137358Y-87434500D01*
X172142569Y-87434500D01*
X172364635Y-87397444D01*
X172577574Y-87324342D01*
X172775576Y-87217189D01*
X172953240Y-87078906D01*
X173105722Y-86913268D01*
X173194518Y-86777354D01*
X173240030Y-86735457D01*
X173300000Y-86720271D01*
X173359970Y-86735457D01*
X173405481Y-86777354D01*
X173494278Y-86913268D01*
X173497806Y-86917100D01*
X173643227Y-87075069D01*
X173643231Y-87075073D01*
X173646760Y-87078906D01*
X173824424Y-87217189D01*
X174022426Y-87324342D01*
X174027355Y-87326034D01*
X174027357Y-87326035D01*
X174128895Y-87360893D01*
X174235365Y-87397444D01*
X174457431Y-87434500D01*
X174677358Y-87434500D01*
X174682569Y-87434500D01*
X174904635Y-87397444D01*
X175117574Y-87324342D01*
X175315576Y-87217189D01*
X175493240Y-87078906D01*
X175645722Y-86913268D01*
X175734518Y-86777354D01*
X175780030Y-86735457D01*
X175840000Y-86720271D01*
X175899970Y-86735457D01*
X175945481Y-86777354D01*
X176034278Y-86913268D01*
X176037806Y-86917100D01*
X176183227Y-87075069D01*
X176183231Y-87075073D01*
X176186760Y-87078906D01*
X176364424Y-87217189D01*
X176562426Y-87324342D01*
X176567355Y-87326034D01*
X176567357Y-87326035D01*
X176668895Y-87360893D01*
X176775365Y-87397444D01*
X176997431Y-87434500D01*
X177217358Y-87434500D01*
X177222569Y-87434500D01*
X177444635Y-87397444D01*
X177657574Y-87324342D01*
X177855576Y-87217189D01*
X178033240Y-87078906D01*
X178185722Y-86913268D01*
X178274518Y-86777354D01*
X178320030Y-86735457D01*
X178380000Y-86720271D01*
X178439970Y-86735457D01*
X178485481Y-86777354D01*
X178574278Y-86913268D01*
X178577806Y-86917100D01*
X178723227Y-87075069D01*
X178723231Y-87075073D01*
X178726760Y-87078906D01*
X178904424Y-87217189D01*
X179102426Y-87324342D01*
X179107355Y-87326034D01*
X179107357Y-87326035D01*
X179208895Y-87360893D01*
X179315365Y-87397444D01*
X179537431Y-87434500D01*
X179757358Y-87434500D01*
X179762569Y-87434500D01*
X179984635Y-87397444D01*
X180197574Y-87324342D01*
X180395576Y-87217189D01*
X180573240Y-87078906D01*
X180725722Y-86913268D01*
X180814518Y-86777354D01*
X180860030Y-86735457D01*
X180920000Y-86720271D01*
X180979970Y-86735457D01*
X181025481Y-86777354D01*
X181114278Y-86913268D01*
X181117806Y-86917100D01*
X181263227Y-87075069D01*
X181263231Y-87075073D01*
X181266760Y-87078906D01*
X181444424Y-87217189D01*
X181642426Y-87324342D01*
X181647355Y-87326034D01*
X181647357Y-87326035D01*
X181748895Y-87360893D01*
X181855365Y-87397444D01*
X182077431Y-87434500D01*
X182297358Y-87434500D01*
X182302569Y-87434500D01*
X182524635Y-87397444D01*
X182737574Y-87324342D01*
X182935576Y-87217189D01*
X183113240Y-87078906D01*
X183265722Y-86913268D01*
X183354518Y-86777354D01*
X183400030Y-86735457D01*
X183460000Y-86720271D01*
X183519970Y-86735457D01*
X183565481Y-86777354D01*
X183654278Y-86913268D01*
X183657806Y-86917100D01*
X183803227Y-87075069D01*
X183803231Y-87075073D01*
X183806760Y-87078906D01*
X183984424Y-87217189D01*
X184182426Y-87324342D01*
X184187355Y-87326034D01*
X184187357Y-87326035D01*
X184288895Y-87360893D01*
X184395365Y-87397444D01*
X184617431Y-87434500D01*
X184837358Y-87434500D01*
X184842569Y-87434500D01*
X185064635Y-87397444D01*
X185277574Y-87324342D01*
X185475576Y-87217189D01*
X185653240Y-87078906D01*
X185805722Y-86913268D01*
X185894518Y-86777354D01*
X185940030Y-86735457D01*
X186000000Y-86720271D01*
X186059970Y-86735457D01*
X186105481Y-86777354D01*
X186194278Y-86913268D01*
X186197806Y-86917100D01*
X186343227Y-87075069D01*
X186343231Y-87075073D01*
X186346760Y-87078906D01*
X186524424Y-87217189D01*
X186722426Y-87324342D01*
X186727355Y-87326034D01*
X186727357Y-87326035D01*
X186828895Y-87360893D01*
X186935365Y-87397444D01*
X187157431Y-87434500D01*
X187377358Y-87434500D01*
X187382569Y-87434500D01*
X187604635Y-87397444D01*
X187817574Y-87324342D01*
X188015576Y-87217189D01*
X188193240Y-87078906D01*
X188345722Y-86913268D01*
X188434518Y-86777354D01*
X188480030Y-86735457D01*
X188540000Y-86720271D01*
X188599970Y-86735457D01*
X188645481Y-86777354D01*
X188734278Y-86913268D01*
X188737806Y-86917100D01*
X188883227Y-87075069D01*
X188883231Y-87075073D01*
X188886760Y-87078906D01*
X189064424Y-87217189D01*
X189262426Y-87324342D01*
X189267355Y-87326034D01*
X189267357Y-87326035D01*
X189368895Y-87360893D01*
X189475365Y-87397444D01*
X189697431Y-87434500D01*
X189917358Y-87434500D01*
X189922569Y-87434500D01*
X190144635Y-87397444D01*
X190357574Y-87324342D01*
X190555576Y-87217189D01*
X190733240Y-87078906D01*
X190885722Y-86913268D01*
X190974518Y-86777354D01*
X191020030Y-86735457D01*
X191080000Y-86720271D01*
X191139970Y-86735457D01*
X191185481Y-86777354D01*
X191274278Y-86913268D01*
X191277806Y-86917100D01*
X191423227Y-87075069D01*
X191423231Y-87075073D01*
X191426760Y-87078906D01*
X191604424Y-87217189D01*
X191802426Y-87324342D01*
X191807355Y-87326034D01*
X191807357Y-87326035D01*
X191908895Y-87360893D01*
X192015365Y-87397444D01*
X192237431Y-87434500D01*
X192457358Y-87434500D01*
X192462569Y-87434500D01*
X192684635Y-87397444D01*
X192897574Y-87324342D01*
X193095576Y-87217189D01*
X193273240Y-87078906D01*
X193425722Y-86913268D01*
X193514518Y-86777354D01*
X193560030Y-86735457D01*
X193620000Y-86720271D01*
X193679970Y-86735457D01*
X193725481Y-86777354D01*
X193814278Y-86913268D01*
X193817806Y-86917100D01*
X193963227Y-87075069D01*
X193963231Y-87075073D01*
X193966760Y-87078906D01*
X194144424Y-87217189D01*
X194342426Y-87324342D01*
X194347355Y-87326034D01*
X194347357Y-87326035D01*
X194448895Y-87360893D01*
X194555365Y-87397444D01*
X194777431Y-87434500D01*
X194997358Y-87434500D01*
X195002569Y-87434500D01*
X195224635Y-87397444D01*
X195437574Y-87324342D01*
X195635576Y-87217189D01*
X195813240Y-87078906D01*
X195965722Y-86913268D01*
X196088860Y-86724791D01*
X196179296Y-86518616D01*
X196234564Y-86300368D01*
X196253156Y-86076000D01*
X196234564Y-85851632D01*
X196179296Y-85633384D01*
X196088860Y-85427209D01*
X195965722Y-85238732D01*
X195884125Y-85150095D01*
X195816772Y-85076930D01*
X195816767Y-85076925D01*
X195813240Y-85073094D01*
X195635576Y-84934811D01*
X195630997Y-84932333D01*
X195630994Y-84932331D01*
X195442159Y-84830139D01*
X195442156Y-84830137D01*
X195437574Y-84827658D01*
X195432650Y-84825967D01*
X195432642Y-84825964D01*
X195229565Y-84756248D01*
X195229559Y-84756246D01*
X195224635Y-84754556D01*
X195219498Y-84753698D01*
X195219495Y-84753698D01*
X195007706Y-84718357D01*
X195007703Y-84718356D01*
X195002569Y-84717500D01*
X194777431Y-84717500D01*
X194772297Y-84718356D01*
X194772293Y-84718357D01*
X194560504Y-84753698D01*
X194560498Y-84753699D01*
X194555365Y-84754556D01*
X194550443Y-84756245D01*
X194550434Y-84756248D01*
X194347357Y-84825964D01*
X194347344Y-84825969D01*
X194342426Y-84827658D01*
X194337847Y-84830135D01*
X194337840Y-84830139D01*
X194149005Y-84932331D01*
X194148997Y-84932336D01*
X194144424Y-84934811D01*
X194140313Y-84938010D01*
X194140311Y-84938012D01*
X193970878Y-85069888D01*
X193970872Y-85069893D01*
X193966760Y-85073094D01*
X193963237Y-85076919D01*
X193963227Y-85076930D01*
X193817806Y-85234899D01*
X193817802Y-85234902D01*
X193814278Y-85238732D01*
X193811430Y-85243090D01*
X193811427Y-85243095D01*
X193725483Y-85374643D01*
X193679969Y-85416542D01*
X193620000Y-85431728D01*
X193560031Y-85416542D01*
X193514517Y-85374643D01*
X193481365Y-85323900D01*
X193425722Y-85238732D01*
X193344125Y-85150095D01*
X193276772Y-85076930D01*
X193276767Y-85076925D01*
X193273240Y-85073094D01*
X193095576Y-84934811D01*
X193090997Y-84932333D01*
X193090994Y-84932331D01*
X192902159Y-84830139D01*
X192902156Y-84830137D01*
X192897574Y-84827658D01*
X192892650Y-84825967D01*
X192892642Y-84825964D01*
X192689565Y-84756248D01*
X192689559Y-84756246D01*
X192684635Y-84754556D01*
X192679498Y-84753698D01*
X192679495Y-84753698D01*
X192467706Y-84718357D01*
X192467703Y-84718356D01*
X192462569Y-84717500D01*
X192237431Y-84717500D01*
X192232297Y-84718356D01*
X192232293Y-84718357D01*
X192020504Y-84753698D01*
X192020498Y-84753699D01*
X192015365Y-84754556D01*
X192010443Y-84756245D01*
X192010434Y-84756248D01*
X191807357Y-84825964D01*
X191807344Y-84825969D01*
X191802426Y-84827658D01*
X191797847Y-84830135D01*
X191797840Y-84830139D01*
X191609005Y-84932331D01*
X191608997Y-84932336D01*
X191604424Y-84934811D01*
X191600313Y-84938010D01*
X191600311Y-84938012D01*
X191430878Y-85069888D01*
X191430872Y-85069893D01*
X191426760Y-85073094D01*
X191423237Y-85076919D01*
X191423227Y-85076930D01*
X191277806Y-85234899D01*
X191277802Y-85234902D01*
X191274278Y-85238732D01*
X191271430Y-85243090D01*
X191271427Y-85243095D01*
X191185483Y-85374643D01*
X191139969Y-85416542D01*
X191080000Y-85431728D01*
X191020031Y-85416542D01*
X190974517Y-85374643D01*
X190941365Y-85323900D01*
X190885722Y-85238732D01*
X190804125Y-85150095D01*
X190736772Y-85076930D01*
X190736767Y-85076925D01*
X190733240Y-85073094D01*
X190555576Y-84934811D01*
X190550997Y-84932333D01*
X190550994Y-84932331D01*
X190362159Y-84830139D01*
X190362156Y-84830137D01*
X190357574Y-84827658D01*
X190352650Y-84825967D01*
X190352642Y-84825964D01*
X190149565Y-84756248D01*
X190149559Y-84756246D01*
X190144635Y-84754556D01*
X190139498Y-84753698D01*
X190139495Y-84753698D01*
X189927706Y-84718357D01*
X189927703Y-84718356D01*
X189922569Y-84717500D01*
X189697431Y-84717500D01*
X189692297Y-84718356D01*
X189692293Y-84718357D01*
X189480504Y-84753698D01*
X189480498Y-84753699D01*
X189475365Y-84754556D01*
X189470443Y-84756245D01*
X189470434Y-84756248D01*
X189267357Y-84825964D01*
X189267344Y-84825969D01*
X189262426Y-84827658D01*
X189257847Y-84830135D01*
X189257840Y-84830139D01*
X189069005Y-84932331D01*
X189068997Y-84932336D01*
X189064424Y-84934811D01*
X189060313Y-84938010D01*
X189060311Y-84938012D01*
X188890878Y-85069888D01*
X188890872Y-85069893D01*
X188886760Y-85073094D01*
X188883237Y-85076919D01*
X188883227Y-85076930D01*
X188737806Y-85234899D01*
X188737802Y-85234902D01*
X188734278Y-85238732D01*
X188731430Y-85243090D01*
X188731427Y-85243095D01*
X188645483Y-85374643D01*
X188599969Y-85416542D01*
X188540000Y-85431728D01*
X188480031Y-85416542D01*
X188434517Y-85374643D01*
X188401365Y-85323900D01*
X188345722Y-85238732D01*
X188264125Y-85150095D01*
X188196772Y-85076930D01*
X188196767Y-85076925D01*
X188193240Y-85073094D01*
X188015576Y-84934811D01*
X188010997Y-84932333D01*
X188010994Y-84932331D01*
X187822159Y-84830139D01*
X187822156Y-84830137D01*
X187817574Y-84827658D01*
X187812650Y-84825967D01*
X187812642Y-84825964D01*
X187609565Y-84756248D01*
X187609559Y-84756246D01*
X187604635Y-84754556D01*
X187599498Y-84753698D01*
X187599495Y-84753698D01*
X187387706Y-84718357D01*
X187387703Y-84718356D01*
X187382569Y-84717500D01*
X187157431Y-84717500D01*
X187152297Y-84718356D01*
X187152293Y-84718357D01*
X186940504Y-84753698D01*
X186940498Y-84753699D01*
X186935365Y-84754556D01*
X186930443Y-84756245D01*
X186930434Y-84756248D01*
X186727357Y-84825964D01*
X186727344Y-84825969D01*
X186722426Y-84827658D01*
X186717847Y-84830135D01*
X186717840Y-84830139D01*
X186529005Y-84932331D01*
X186528997Y-84932336D01*
X186524424Y-84934811D01*
X186520313Y-84938010D01*
X186520311Y-84938012D01*
X186350878Y-85069888D01*
X186350872Y-85069893D01*
X186346760Y-85073094D01*
X186343237Y-85076919D01*
X186343227Y-85076930D01*
X186197806Y-85234899D01*
X186197802Y-85234902D01*
X186194278Y-85238732D01*
X186191430Y-85243090D01*
X186191427Y-85243095D01*
X186105483Y-85374643D01*
X186059969Y-85416542D01*
X186000000Y-85431728D01*
X185940031Y-85416542D01*
X185894517Y-85374643D01*
X185861365Y-85323900D01*
X185805722Y-85238732D01*
X185724125Y-85150095D01*
X185656772Y-85076930D01*
X185656767Y-85076925D01*
X185653240Y-85073094D01*
X185475576Y-84934811D01*
X185470997Y-84932333D01*
X185470994Y-84932331D01*
X185282159Y-84830139D01*
X185282156Y-84830137D01*
X185277574Y-84827658D01*
X185272650Y-84825967D01*
X185272642Y-84825964D01*
X185069565Y-84756248D01*
X185069559Y-84756246D01*
X185064635Y-84754556D01*
X185059498Y-84753698D01*
X185059495Y-84753698D01*
X184847706Y-84718357D01*
X184847703Y-84718356D01*
X184842569Y-84717500D01*
X184617431Y-84717500D01*
X184612297Y-84718356D01*
X184612293Y-84718357D01*
X184400504Y-84753698D01*
X184400498Y-84753699D01*
X184395365Y-84754556D01*
X184390443Y-84756245D01*
X184390434Y-84756248D01*
X184187357Y-84825964D01*
X184187344Y-84825969D01*
X184182426Y-84827658D01*
X184177847Y-84830135D01*
X184177840Y-84830139D01*
X183989005Y-84932331D01*
X183988997Y-84932336D01*
X183984424Y-84934811D01*
X183980313Y-84938010D01*
X183980311Y-84938012D01*
X183810878Y-85069888D01*
X183810872Y-85069893D01*
X183806760Y-85073094D01*
X183803237Y-85076919D01*
X183803227Y-85076930D01*
X183657806Y-85234899D01*
X183657802Y-85234902D01*
X183654278Y-85238732D01*
X183651430Y-85243090D01*
X183651427Y-85243095D01*
X183565483Y-85374643D01*
X183519969Y-85416542D01*
X183460000Y-85431728D01*
X183400031Y-85416542D01*
X183354517Y-85374643D01*
X183321365Y-85323900D01*
X183265722Y-85238732D01*
X183184125Y-85150095D01*
X183116772Y-85076930D01*
X183116767Y-85076925D01*
X183113240Y-85073094D01*
X182935576Y-84934811D01*
X182930997Y-84932333D01*
X182930994Y-84932331D01*
X182742159Y-84830139D01*
X182742156Y-84830137D01*
X182737574Y-84827658D01*
X182732650Y-84825967D01*
X182732642Y-84825964D01*
X182529565Y-84756248D01*
X182529559Y-84756246D01*
X182524635Y-84754556D01*
X182519498Y-84753698D01*
X182519495Y-84753698D01*
X182307706Y-84718357D01*
X182307703Y-84718356D01*
X182302569Y-84717500D01*
X182077431Y-84717500D01*
X182072297Y-84718356D01*
X182072293Y-84718357D01*
X181860504Y-84753698D01*
X181860498Y-84753699D01*
X181855365Y-84754556D01*
X181850443Y-84756245D01*
X181850434Y-84756248D01*
X181647357Y-84825964D01*
X181647344Y-84825969D01*
X181642426Y-84827658D01*
X181637847Y-84830135D01*
X181637840Y-84830139D01*
X181449005Y-84932331D01*
X181448997Y-84932336D01*
X181444424Y-84934811D01*
X181440313Y-84938010D01*
X181440311Y-84938012D01*
X181270878Y-85069888D01*
X181270872Y-85069893D01*
X181266760Y-85073094D01*
X181263237Y-85076919D01*
X181263227Y-85076930D01*
X181117806Y-85234899D01*
X181117802Y-85234902D01*
X181114278Y-85238732D01*
X181111430Y-85243090D01*
X181111427Y-85243095D01*
X181025483Y-85374643D01*
X180979969Y-85416542D01*
X180920000Y-85431728D01*
X180860031Y-85416542D01*
X180814517Y-85374643D01*
X180781365Y-85323900D01*
X180725722Y-85238732D01*
X180644125Y-85150095D01*
X180576772Y-85076930D01*
X180576767Y-85076925D01*
X180573240Y-85073094D01*
X180395576Y-84934811D01*
X180390997Y-84932333D01*
X180390994Y-84932331D01*
X180202159Y-84830139D01*
X180202156Y-84830137D01*
X180197574Y-84827658D01*
X180192650Y-84825967D01*
X180192642Y-84825964D01*
X179989565Y-84756248D01*
X179989559Y-84756246D01*
X179984635Y-84754556D01*
X179979498Y-84753698D01*
X179979495Y-84753698D01*
X179767706Y-84718357D01*
X179767703Y-84718356D01*
X179762569Y-84717500D01*
X179537431Y-84717500D01*
X179532297Y-84718356D01*
X179532293Y-84718357D01*
X179320504Y-84753698D01*
X179320498Y-84753699D01*
X179315365Y-84754556D01*
X179310443Y-84756245D01*
X179310434Y-84756248D01*
X179107357Y-84825964D01*
X179107344Y-84825969D01*
X179102426Y-84827658D01*
X179097847Y-84830135D01*
X179097840Y-84830139D01*
X178909005Y-84932331D01*
X178908997Y-84932336D01*
X178904424Y-84934811D01*
X178900313Y-84938010D01*
X178900311Y-84938012D01*
X178730878Y-85069888D01*
X178730872Y-85069893D01*
X178726760Y-85073094D01*
X178723237Y-85076919D01*
X178723227Y-85076930D01*
X178577806Y-85234899D01*
X178577802Y-85234902D01*
X178574278Y-85238732D01*
X178571430Y-85243090D01*
X178571427Y-85243095D01*
X178485483Y-85374643D01*
X178439969Y-85416542D01*
X178380000Y-85431728D01*
X178320031Y-85416542D01*
X178274517Y-85374643D01*
X178241365Y-85323900D01*
X178185722Y-85238732D01*
X178104125Y-85150095D01*
X178036772Y-85076930D01*
X178036767Y-85076925D01*
X178033240Y-85073094D01*
X177855576Y-84934811D01*
X177850997Y-84932333D01*
X177850994Y-84932331D01*
X177662159Y-84830139D01*
X177662156Y-84830137D01*
X177657574Y-84827658D01*
X177652650Y-84825967D01*
X177652642Y-84825964D01*
X177449565Y-84756248D01*
X177449559Y-84756246D01*
X177444635Y-84754556D01*
X177439498Y-84753698D01*
X177439495Y-84753698D01*
X177227706Y-84718357D01*
X177227703Y-84718356D01*
X177222569Y-84717500D01*
X176997431Y-84717500D01*
X176992297Y-84718356D01*
X176992293Y-84718357D01*
X176780504Y-84753698D01*
X176780498Y-84753699D01*
X176775365Y-84754556D01*
X176770443Y-84756245D01*
X176770434Y-84756248D01*
X176567357Y-84825964D01*
X176567344Y-84825969D01*
X176562426Y-84827658D01*
X176557847Y-84830135D01*
X176557840Y-84830139D01*
X176369005Y-84932331D01*
X176368997Y-84932336D01*
X176364424Y-84934811D01*
X176360313Y-84938010D01*
X176360311Y-84938012D01*
X176190878Y-85069888D01*
X176190872Y-85069893D01*
X176186760Y-85073094D01*
X176183237Y-85076919D01*
X176183227Y-85076930D01*
X176037806Y-85234899D01*
X176037802Y-85234902D01*
X176034278Y-85238732D01*
X176031430Y-85243090D01*
X176031427Y-85243095D01*
X175945483Y-85374643D01*
X175899969Y-85416542D01*
X175840000Y-85431728D01*
X175780031Y-85416542D01*
X175734517Y-85374643D01*
X175701365Y-85323900D01*
X175645722Y-85238732D01*
X175564125Y-85150095D01*
X175496772Y-85076930D01*
X175496767Y-85076925D01*
X175493240Y-85073094D01*
X175315576Y-84934811D01*
X175310997Y-84932333D01*
X175310994Y-84932331D01*
X175122159Y-84830139D01*
X175122156Y-84830137D01*
X175117574Y-84827658D01*
X175112650Y-84825967D01*
X175112642Y-84825964D01*
X174909565Y-84756248D01*
X174909559Y-84756246D01*
X174904635Y-84754556D01*
X174899498Y-84753698D01*
X174899495Y-84753698D01*
X174687706Y-84718357D01*
X174687703Y-84718356D01*
X174682569Y-84717500D01*
X174457431Y-84717500D01*
X174452297Y-84718356D01*
X174452293Y-84718357D01*
X174240504Y-84753698D01*
X174240498Y-84753699D01*
X174235365Y-84754556D01*
X174230443Y-84756245D01*
X174230434Y-84756248D01*
X174027357Y-84825964D01*
X174027344Y-84825969D01*
X174022426Y-84827658D01*
X174017847Y-84830135D01*
X174017840Y-84830139D01*
X173829005Y-84932331D01*
X173828997Y-84932336D01*
X173824424Y-84934811D01*
X173820313Y-84938010D01*
X173820311Y-84938012D01*
X173650878Y-85069888D01*
X173650872Y-85069893D01*
X173646760Y-85073094D01*
X173643237Y-85076919D01*
X173643227Y-85076930D01*
X173497806Y-85234899D01*
X173497802Y-85234902D01*
X173494278Y-85238732D01*
X173491430Y-85243090D01*
X173491427Y-85243095D01*
X173405483Y-85374643D01*
X173359969Y-85416542D01*
X173300000Y-85431728D01*
X173240031Y-85416542D01*
X173194517Y-85374643D01*
X173161365Y-85323900D01*
X173105722Y-85238732D01*
X173024125Y-85150095D01*
X172956772Y-85076930D01*
X172956767Y-85076925D01*
X172953240Y-85073094D01*
X172775576Y-84934811D01*
X172770997Y-84932333D01*
X172770994Y-84932331D01*
X172582159Y-84830139D01*
X172582156Y-84830137D01*
X172577574Y-84827658D01*
X172572650Y-84825967D01*
X172572642Y-84825964D01*
X172369565Y-84756248D01*
X172369559Y-84756246D01*
X172364635Y-84754556D01*
X172359498Y-84753698D01*
X172359495Y-84753698D01*
X172147706Y-84718357D01*
X172147703Y-84718356D01*
X172142569Y-84717500D01*
X171917431Y-84717500D01*
X171912297Y-84718356D01*
X171912293Y-84718357D01*
X171700504Y-84753698D01*
X171700498Y-84753699D01*
X171695365Y-84754556D01*
X171690443Y-84756245D01*
X171690434Y-84756248D01*
X171487357Y-84825964D01*
X171487344Y-84825969D01*
X171482426Y-84827658D01*
X171477847Y-84830135D01*
X171477840Y-84830139D01*
X171289005Y-84932331D01*
X171288997Y-84932336D01*
X171284424Y-84934811D01*
X171280313Y-84938010D01*
X171280311Y-84938012D01*
X171110878Y-85069888D01*
X171110872Y-85069893D01*
X171106760Y-85073094D01*
X171103237Y-85076919D01*
X171103227Y-85076930D01*
X170957806Y-85234899D01*
X170957802Y-85234902D01*
X170954278Y-85238732D01*
X170951430Y-85243090D01*
X170951427Y-85243095D01*
X170865483Y-85374643D01*
X170819969Y-85416542D01*
X170760000Y-85431728D01*
X170700031Y-85416542D01*
X170654517Y-85374643D01*
X170621365Y-85323900D01*
X170565722Y-85238732D01*
X170484125Y-85150095D01*
X170416772Y-85076930D01*
X170416767Y-85076925D01*
X170413240Y-85073094D01*
X170235576Y-84934811D01*
X170230997Y-84932333D01*
X170230994Y-84932331D01*
X170042159Y-84830139D01*
X170042156Y-84830137D01*
X170037574Y-84827658D01*
X170032650Y-84825967D01*
X170032642Y-84825964D01*
X169829565Y-84756248D01*
X169829559Y-84756246D01*
X169824635Y-84754556D01*
X169819498Y-84753698D01*
X169819495Y-84753698D01*
X169607706Y-84718357D01*
X169607703Y-84718356D01*
X169602569Y-84717500D01*
X169377431Y-84717500D01*
X169372297Y-84718356D01*
X169372293Y-84718357D01*
X169160504Y-84753698D01*
X169160498Y-84753699D01*
X169155365Y-84754556D01*
X169150443Y-84756245D01*
X169150434Y-84756248D01*
X168947357Y-84825964D01*
X168947344Y-84825969D01*
X168942426Y-84827658D01*
X168937847Y-84830135D01*
X168937840Y-84830139D01*
X168749005Y-84932331D01*
X168748997Y-84932336D01*
X168744424Y-84934811D01*
X168740313Y-84938010D01*
X168740311Y-84938012D01*
X168570878Y-85069888D01*
X168570872Y-85069893D01*
X168566760Y-85073094D01*
X168563237Y-85076919D01*
X168563227Y-85076930D01*
X168417806Y-85234899D01*
X168417802Y-85234902D01*
X168414278Y-85238732D01*
X168411431Y-85243090D01*
X168325183Y-85375102D01*
X168279669Y-85417000D01*
X168219700Y-85432186D01*
X168159731Y-85417000D01*
X168114218Y-85375102D01*
X168080764Y-85323898D01*
X168072670Y-85316051D01*
X168063138Y-85322070D01*
X167320938Y-86064271D01*
X167314167Y-86075999D01*
X166585832Y-86075999D01*
X166579060Y-86064270D01*
X165836860Y-85322070D01*
X165827328Y-85316051D01*
X165819232Y-85323900D01*
X165785780Y-85375102D01*
X165740266Y-85416999D01*
X165680297Y-85432185D01*
X165620328Y-85416998D01*
X165574816Y-85375101D01*
X165485722Y-85238732D01*
X165404125Y-85150095D01*
X165336772Y-85076930D01*
X165336767Y-85076925D01*
X165333240Y-85073094D01*
X165176973Y-84951465D01*
X166190210Y-84951465D01*
X166196979Y-84963769D01*
X166938270Y-85705060D01*
X166949999Y-85711832D01*
X166961730Y-85705059D01*
X167703022Y-84963766D01*
X167709788Y-84951466D01*
X167701551Y-84940096D01*
X167699411Y-84938431D01*
X167690720Y-84932753D01*
X167501957Y-84830599D01*
X167492440Y-84826424D01*
X167289442Y-84756735D01*
X167279372Y-84754185D01*
X167067664Y-84718857D01*
X167057316Y-84718000D01*
X166842684Y-84718000D01*
X166832335Y-84718857D01*
X166620627Y-84754185D01*
X166610557Y-84756735D01*
X166407559Y-84826424D01*
X166398042Y-84830599D01*
X166209277Y-84932754D01*
X166200591Y-84938428D01*
X166198445Y-84940098D01*
X166190210Y-84951465D01*
X165176973Y-84951465D01*
X165155576Y-84934811D01*
X165151003Y-84932336D01*
X165150995Y-84932331D01*
X165109531Y-84909893D01*
X165061259Y-84863577D01*
X165043500Y-84799079D01*
X165043500Y-72096921D01*
X165061259Y-72032423D01*
X165109531Y-71986107D01*
X165150995Y-71963668D01*
X165150994Y-71963668D01*
X165155576Y-71961189D01*
X165263108Y-71877492D01*
X165327502Y-71851595D01*
X165395839Y-71863726D01*
X165447385Y-71910202D01*
X165466500Y-71976923D01*
X165466500Y-74581233D01*
X165465972Y-74592416D01*
X165464298Y-74599909D01*
X165464547Y-74607833D01*
X165464547Y-74607835D01*
X165466438Y-74667986D01*
X165466500Y-74671945D01*
X165466500Y-74699856D01*
X165466995Y-74703774D01*
X165466997Y-74703806D01*
X165467008Y-74703888D01*
X165467937Y-74715697D01*
X165469077Y-74751969D01*
X165469078Y-74751976D01*
X165469327Y-74759889D01*
X165471537Y-74767498D01*
X165471538Y-74767500D01*
X165474978Y-74779342D01*
X165478986Y-74798693D01*
X165481526Y-74818797D01*
X165484444Y-74826169D01*
X165484445Y-74826170D01*
X165497800Y-74859901D01*
X165501645Y-74871130D01*
X165511771Y-74905986D01*
X165511773Y-74905992D01*
X165513982Y-74913593D01*
X165518014Y-74920411D01*
X165518015Y-74920413D01*
X165524293Y-74931029D01*
X165532990Y-74948782D01*
X165534332Y-74952172D01*
X165540448Y-74967617D01*
X165545107Y-74974030D01*
X165545108Y-74974031D01*
X165566432Y-75003381D01*
X165572948Y-75013301D01*
X165585521Y-75034560D01*
X165595458Y-75051362D01*
X165601063Y-75056966D01*
X165601063Y-75056967D01*
X165609778Y-75065682D01*
X165622618Y-75080715D01*
X165628124Y-75088294D01*
X165634528Y-75097107D01*
X165640635Y-75102159D01*
X165640636Y-75102160D01*
X165668598Y-75125292D01*
X165677378Y-75133282D01*
X169676342Y-79132246D01*
X169683884Y-79140533D01*
X169688000Y-79147018D01*
X169693779Y-79152444D01*
X169693780Y-79152446D01*
X169737667Y-79193658D01*
X169740509Y-79196413D01*
X169760230Y-79216134D01*
X169763414Y-79218604D01*
X169772437Y-79226309D01*
X169804679Y-79256586D01*
X169811628Y-79260406D01*
X169822429Y-79266344D01*
X169838959Y-79277202D01*
X169848694Y-79284754D01*
X169848697Y-79284756D01*
X169854959Y-79289613D01*
X169895536Y-79307172D01*
X169906171Y-79312381D01*
X169944940Y-79333695D01*
X169964566Y-79338734D01*
X169983259Y-79345134D01*
X170001855Y-79353181D01*
X170045518Y-79360095D01*
X170057129Y-79362500D01*
X170099970Y-79373500D01*
X170120231Y-79373500D01*
X170139939Y-79375050D01*
X170159943Y-79378219D01*
X170167835Y-79377473D01*
X170173062Y-79376979D01*
X170203954Y-79374058D01*
X170215811Y-79373500D01*
X179631800Y-79373500D01*
X179683047Y-79384392D01*
X179718724Y-79410312D01*
X179719420Y-79409540D01*
X179724331Y-79413962D01*
X179728747Y-79418866D01*
X179883248Y-79531118D01*
X180057712Y-79608794D01*
X180244513Y-79648500D01*
X180428884Y-79648500D01*
X180435487Y-79648500D01*
X180622288Y-79608794D01*
X180796752Y-79531118D01*
X180951253Y-79418866D01*
X181079040Y-79276944D01*
X181174527Y-79111556D01*
X181233542Y-78929928D01*
X181253504Y-78740000D01*
X181233542Y-78550072D01*
X181185969Y-78403659D01*
X181176569Y-78374728D01*
X181176568Y-78374726D01*
X181174527Y-78368444D01*
X181079040Y-78203056D01*
X180951253Y-78061134D01*
X180945911Y-78057253D01*
X180945908Y-78057250D01*
X180848431Y-77986429D01*
X180796752Y-77948882D01*
X180622288Y-77871206D01*
X180615835Y-77869834D01*
X180615831Y-77869833D01*
X180441943Y-77832872D01*
X180441940Y-77832871D01*
X180435487Y-77831500D01*
X180244513Y-77831500D01*
X180238060Y-77832871D01*
X180238056Y-77832872D01*
X180064168Y-77869833D01*
X180064161Y-77869835D01*
X180057712Y-77871206D01*
X180051682Y-77873890D01*
X180051681Y-77873891D01*
X179889278Y-77946197D01*
X179889275Y-77946198D01*
X179883248Y-77948882D01*
X179877907Y-77952762D01*
X179877906Y-77952763D01*
X179734086Y-78057254D01*
X179734080Y-78057259D01*
X179728747Y-78061134D01*
X179724333Y-78066035D01*
X179719420Y-78070460D01*
X179718724Y-78069687D01*
X179683047Y-78095608D01*
X179631800Y-78106500D01*
X170494595Y-78106500D01*
X170446377Y-78096909D01*
X170405500Y-78069595D01*
X166866362Y-74530457D01*
X166834646Y-74477148D01*
X166832210Y-74415165D01*
X166859646Y-74359531D01*
X166910303Y-74323731D01*
X166971904Y-74316440D01*
X167029517Y-74339425D01*
X167183248Y-74451118D01*
X167357712Y-74528794D01*
X167544513Y-74568500D01*
X167600404Y-74568500D01*
X167648622Y-74578091D01*
X167689499Y-74605404D01*
X167861351Y-74777255D01*
X167868888Y-74785538D01*
X167873000Y-74792018D01*
X167878778Y-74797444D01*
X167878779Y-74797445D01*
X167922651Y-74838643D01*
X167925493Y-74841398D01*
X167945230Y-74861135D01*
X167948360Y-74863563D01*
X167948432Y-74863619D01*
X167957440Y-74871313D01*
X167989679Y-74901586D01*
X167996627Y-74905405D01*
X167996629Y-74905407D01*
X168007426Y-74911343D01*
X168023950Y-74922197D01*
X168033694Y-74929755D01*
X168033697Y-74929757D01*
X168039959Y-74934614D01*
X168069660Y-74947466D01*
X168080535Y-74952172D01*
X168091200Y-74957397D01*
X168129940Y-74978695D01*
X168149560Y-74983732D01*
X168168252Y-74990130D01*
X168186855Y-74998181D01*
X168230525Y-75005097D01*
X168242125Y-75007498D01*
X168284970Y-75018500D01*
X168305224Y-75018500D01*
X168324934Y-75020050D01*
X168344943Y-75023220D01*
X168388961Y-75019058D01*
X168400819Y-75018500D01*
X188706233Y-75018500D01*
X188717416Y-75019027D01*
X188724909Y-75020702D01*
X188792985Y-75018562D01*
X188796945Y-75018500D01*
X188820894Y-75018500D01*
X188824856Y-75018500D01*
X188828856Y-75017994D01*
X188840699Y-75017061D01*
X188884889Y-75015673D01*
X188904333Y-75010023D01*
X188923702Y-75006012D01*
X188943797Y-75003474D01*
X188984915Y-74987193D01*
X188996117Y-74983357D01*
X189038593Y-74971018D01*
X189056039Y-74960699D01*
X189073769Y-74952013D01*
X189092617Y-74944552D01*
X189128387Y-74918561D01*
X189138298Y-74912051D01*
X189176362Y-74889542D01*
X189190688Y-74875215D01*
X189205717Y-74862378D01*
X189222107Y-74850472D01*
X189250294Y-74816397D01*
X189258272Y-74807630D01*
X191892559Y-72173343D01*
X191948205Y-72140960D01*
X192012040Y-72140302D01*
X192015365Y-72141444D01*
X192237431Y-72178500D01*
X192457358Y-72178500D01*
X192462569Y-72178500D01*
X192684635Y-72141444D01*
X192897574Y-72068342D01*
X193095576Y-71961189D01*
X193273240Y-71822906D01*
X193425722Y-71657268D01*
X193514518Y-71521354D01*
X193560030Y-71479457D01*
X193620000Y-71464271D01*
X193679970Y-71479457D01*
X193725481Y-71521354D01*
X193814278Y-71657268D01*
X193817806Y-71661100D01*
X193963227Y-71819069D01*
X193963231Y-71819073D01*
X193966760Y-71822906D01*
X194144424Y-71961189D01*
X194342426Y-72068342D01*
X194347355Y-72070034D01*
X194347357Y-72070035D01*
X194425674Y-72096921D01*
X194555365Y-72141444D01*
X194777431Y-72178500D01*
X194997358Y-72178500D01*
X195002569Y-72178500D01*
X195224635Y-72141444D01*
X195437574Y-72068342D01*
X195635576Y-71961189D01*
X195813240Y-71822906D01*
X195965722Y-71657268D01*
X196088860Y-71468791D01*
X196179296Y-71262616D01*
X196234564Y-71044368D01*
X196253156Y-70820000D01*
X196234564Y-70595632D01*
X196189157Y-70416324D01*
X196189961Y-70351445D01*
X196222945Y-70295566D01*
X196279361Y-70263510D01*
X196344247Y-70263779D01*
X196400396Y-70296300D01*
X197172877Y-71068781D01*
X197197508Y-71103631D01*
X197209092Y-71144705D01*
X197220953Y-71257554D01*
X197226458Y-71309928D01*
X197228495Y-71316200D01*
X197228497Y-71316205D01*
X197283430Y-71485271D01*
X197283433Y-71485278D01*
X197285473Y-71491556D01*
X197380960Y-71656944D01*
X197508747Y-71798866D01*
X197663248Y-71911118D01*
X197837712Y-71988794D01*
X198024513Y-72028500D01*
X198208884Y-72028500D01*
X198215487Y-72028500D01*
X198402288Y-71988794D01*
X198576752Y-71911118D01*
X198731253Y-71798866D01*
X198769864Y-71755983D01*
X198819580Y-71722197D01*
X198879292Y-71715288D01*
X198935410Y-71736829D01*
X198975162Y-71781919D01*
X198989500Y-71840294D01*
X198989500Y-88763500D01*
X198972619Y-88826500D01*
X198926500Y-88872619D01*
X198863500Y-88889500D01*
X134756500Y-88889500D01*
X134693500Y-88872619D01*
X134647381Y-88826500D01*
X134630500Y-88763500D01*
X134630500Y-86360000D01*
X135844494Y-86360000D01*
X135844973Y-86365475D01*
X135863999Y-86582957D01*
X135864000Y-86582965D01*
X135864479Y-86588435D01*
X135865899Y-86593737D01*
X135865901Y-86593744D01*
X135922405Y-86804618D01*
X135922407Y-86804624D01*
X135923829Y-86809930D01*
X135926151Y-86814909D01*
X135926153Y-86814915D01*
X136014675Y-87004750D01*
X136020738Y-87017753D01*
X136023891Y-87022256D01*
X136023894Y-87022261D01*
X136060871Y-87075069D01*
X136152264Y-87205591D01*
X136314409Y-87367736D01*
X136502247Y-87499262D01*
X136710070Y-87596171D01*
X136931565Y-87655521D01*
X137160000Y-87675506D01*
X137388435Y-87655521D01*
X137609930Y-87596171D01*
X137817753Y-87499262D01*
X138005591Y-87367736D01*
X138167736Y-87205591D01*
X138299262Y-87017753D01*
X138396171Y-86809930D01*
X138455521Y-86588435D01*
X138475506Y-86360000D01*
X138455521Y-86131565D01*
X138396171Y-85910070D01*
X138299262Y-85702247D01*
X138167736Y-85514409D01*
X138005591Y-85352264D01*
X137849918Y-85243260D01*
X137822261Y-85223894D01*
X137822256Y-85223891D01*
X137817753Y-85220738D01*
X137812765Y-85218412D01*
X137614915Y-85126153D01*
X137614909Y-85126151D01*
X137609930Y-85123829D01*
X137604624Y-85122407D01*
X137604618Y-85122405D01*
X137393744Y-85065901D01*
X137393737Y-85065899D01*
X137388435Y-85064479D01*
X137382965Y-85064000D01*
X137382957Y-85063999D01*
X137165475Y-85044973D01*
X137160000Y-85044494D01*
X137154525Y-85044973D01*
X136937042Y-85063999D01*
X136937032Y-85064000D01*
X136931565Y-85064479D01*
X136926263Y-85065899D01*
X136926255Y-85065901D01*
X136715381Y-85122405D01*
X136715371Y-85122408D01*
X136710070Y-85123829D01*
X136705093Y-85126149D01*
X136705084Y-85126153D01*
X136507234Y-85218412D01*
X136507229Y-85218414D01*
X136502247Y-85220738D01*
X136497748Y-85223888D01*
X136497738Y-85223894D01*
X136318920Y-85349105D01*
X136318917Y-85349107D01*
X136314409Y-85352264D01*
X136310517Y-85356155D01*
X136310511Y-85356161D01*
X136156161Y-85510511D01*
X136156155Y-85510517D01*
X136152264Y-85514409D01*
X136149107Y-85518917D01*
X136149105Y-85518920D01*
X136023894Y-85697738D01*
X136023888Y-85697748D01*
X136020738Y-85702247D01*
X136018414Y-85707229D01*
X136018412Y-85707234D01*
X135926153Y-85905084D01*
X135926149Y-85905093D01*
X135923829Y-85910070D01*
X135922408Y-85915371D01*
X135922405Y-85915381D01*
X135865901Y-86126255D01*
X135865899Y-86126263D01*
X135864479Y-86131565D01*
X135864000Y-86137032D01*
X135863999Y-86137042D01*
X135849711Y-86300368D01*
X135844494Y-86360000D01*
X134630500Y-86360000D01*
X134630500Y-79857704D01*
X135696501Y-79857704D01*
X135716461Y-80098588D01*
X135775797Y-80332901D01*
X135872891Y-80554253D01*
X135875739Y-80558612D01*
X135875740Y-80558614D01*
X136002241Y-80752238D01*
X136002244Y-80752242D01*
X136005094Y-80756604D01*
X136008629Y-80760444D01*
X136165266Y-80930598D01*
X136165271Y-80930602D01*
X136168799Y-80934435D01*
X136359542Y-81082896D01*
X136572119Y-81197937D01*
X136577048Y-81199629D01*
X136577050Y-81199630D01*
X136630805Y-81218084D01*
X136800732Y-81276420D01*
X137039145Y-81316204D01*
X137275644Y-81316204D01*
X137280855Y-81316204D01*
X137519268Y-81276420D01*
X137747881Y-81197937D01*
X137960458Y-81082896D01*
X138151201Y-80934435D01*
X138314906Y-80756604D01*
X138447109Y-80554253D01*
X138544203Y-80332901D01*
X138603539Y-80098588D01*
X138623499Y-79857704D01*
X138603539Y-79616820D01*
X138544203Y-79382507D01*
X138447109Y-79161155D01*
X138355089Y-79020309D01*
X138317758Y-78963169D01*
X138317756Y-78963167D01*
X138314906Y-78958804D01*
X138271173Y-78911297D01*
X138154733Y-78784809D01*
X138154728Y-78784804D01*
X138151201Y-78780973D01*
X138147092Y-78777775D01*
X138147089Y-78777772D01*
X138038324Y-78693117D01*
X138000857Y-78645489D01*
X137989957Y-78585880D01*
X137991873Y-78554998D01*
X137984278Y-78541192D01*
X137171729Y-77728643D01*
X137159999Y-77721871D01*
X137148271Y-77728642D01*
X136335719Y-78541193D01*
X136328125Y-78554998D01*
X136330042Y-78585879D01*
X136319142Y-78645489D01*
X136281675Y-78693116D01*
X136172917Y-78777766D01*
X136172904Y-78777777D01*
X136168799Y-78780973D01*
X136165277Y-78784798D01*
X136165266Y-78784809D01*
X136008629Y-78954963D01*
X136008624Y-78954969D01*
X136005094Y-78958804D01*
X136002248Y-78963159D01*
X136002241Y-78963169D01*
X135875740Y-79156793D01*
X135875735Y-79156800D01*
X135872891Y-79161155D01*
X135870798Y-79165924D01*
X135870797Y-79165928D01*
X135777890Y-79377734D01*
X135777887Y-79377740D01*
X135775797Y-79382507D01*
X135774519Y-79387551D01*
X135774517Y-79387559D01*
X135737484Y-79533802D01*
X135716461Y-79616820D01*
X135716031Y-79622008D01*
X135716030Y-79622015D01*
X135698005Y-79839544D01*
X135696501Y-79857704D01*
X134630500Y-79857704D01*
X134630500Y-60788135D01*
X139536523Y-60788135D01*
X139552595Y-60884449D01*
X139555145Y-60894519D01*
X139632368Y-61119464D01*
X139636542Y-61128978D01*
X139749744Y-61338156D01*
X139755415Y-61346837D01*
X139901495Y-61534521D01*
X139908539Y-61542173D01*
X140083507Y-61703242D01*
X140091713Y-61709630D01*
X140290817Y-61839711D01*
X140299952Y-61844654D01*
X140517752Y-61940190D01*
X140527577Y-61943563D01*
X140758125Y-62001945D01*
X140768379Y-62003657D01*
X140946033Y-62018378D01*
X140951248Y-62018594D01*
X141730002Y-62018594D01*
X141743085Y-62015087D01*
X141746592Y-62002004D01*
X142254592Y-62002004D01*
X142258098Y-62015087D01*
X142271182Y-62018594D01*
X143049936Y-62018594D01*
X143055150Y-62018378D01*
X143232804Y-62003657D01*
X143243058Y-62001945D01*
X143473606Y-61943563D01*
X143483431Y-61940190D01*
X143701231Y-61844654D01*
X143710366Y-61839711D01*
X143909470Y-61709630D01*
X143917676Y-61703242D01*
X144092644Y-61542173D01*
X144099688Y-61534521D01*
X144245768Y-61346837D01*
X144251439Y-61338156D01*
X144364641Y-61128978D01*
X144368815Y-61119464D01*
X144446038Y-60894519D01*
X144448588Y-60884449D01*
X144464660Y-60788135D01*
X144464084Y-60776995D01*
X144453193Y-60774594D01*
X142271182Y-60774594D01*
X142258098Y-60778100D01*
X142254592Y-60791184D01*
X142254592Y-62002004D01*
X141746592Y-62002004D01*
X141746592Y-60791184D01*
X141743085Y-60778100D01*
X141730002Y-60774594D01*
X139547991Y-60774594D01*
X139537099Y-60776995D01*
X139536523Y-60788135D01*
X134630500Y-60788135D01*
X134630500Y-60253052D01*
X139536523Y-60253052D01*
X139537099Y-60264192D01*
X139547991Y-60266594D01*
X141730002Y-60266594D01*
X141743085Y-60263087D01*
X141746592Y-60250004D01*
X142254592Y-60250004D01*
X142258098Y-60263087D01*
X142271182Y-60266594D01*
X144453193Y-60266594D01*
X144464084Y-60264192D01*
X144464660Y-60253052D01*
X144448588Y-60156738D01*
X144446038Y-60146668D01*
X144368815Y-59921723D01*
X144364641Y-59912209D01*
X144251439Y-59703031D01*
X144245768Y-59694350D01*
X144099688Y-59506666D01*
X144092644Y-59499014D01*
X143917676Y-59337945D01*
X143909470Y-59331557D01*
X143710366Y-59201476D01*
X143701231Y-59196533D01*
X143483431Y-59100997D01*
X143473606Y-59097624D01*
X143243058Y-59039242D01*
X143232804Y-59037530D01*
X143055150Y-59022809D01*
X143049936Y-59022594D01*
X142271182Y-59022594D01*
X142258098Y-59026100D01*
X142254592Y-59039184D01*
X142254592Y-60250004D01*
X141746592Y-60250004D01*
X141746592Y-59039184D01*
X141743085Y-59026100D01*
X141730002Y-59022594D01*
X140951248Y-59022594D01*
X140946033Y-59022809D01*
X140768379Y-59037530D01*
X140758125Y-59039242D01*
X140527577Y-59097624D01*
X140517752Y-59100997D01*
X140299952Y-59196533D01*
X140290817Y-59201476D01*
X140091713Y-59331557D01*
X140083507Y-59337945D01*
X139908539Y-59499014D01*
X139901495Y-59506666D01*
X139755415Y-59694350D01*
X139749744Y-59703031D01*
X139636542Y-59912209D01*
X139632368Y-59921723D01*
X139555145Y-60146668D01*
X139552595Y-60156738D01*
X139536523Y-60253052D01*
X134630500Y-60253052D01*
X134630500Y-52388089D01*
X137619220Y-52388089D01*
X137619579Y-52391436D01*
X137619580Y-52391439D01*
X137624888Y-52440818D01*
X137624889Y-52440824D01*
X137625731Y-52448652D01*
X137628482Y-52456029D01*
X137628483Y-52456031D01*
X137673682Y-52577214D01*
X137673684Y-52577217D01*
X137676831Y-52585655D01*
X137682228Y-52592865D01*
X137682230Y-52592868D01*
X137742950Y-52673980D01*
X137764459Y-52702712D01*
X137881516Y-52790340D01*
X138018519Y-52841440D01*
X138079082Y-52847951D01*
X140152989Y-52847951D01*
X140156358Y-52847951D01*
X140216921Y-52841440D01*
X140353924Y-52790340D01*
X140470981Y-52702712D01*
X140558609Y-52585655D01*
X140609709Y-52448652D01*
X140616220Y-52388089D01*
X140616220Y-51411432D01*
X142619220Y-51411432D01*
X142619434Y-51414021D01*
X142619435Y-51414032D01*
X142634161Y-51591748D01*
X142634162Y-51591756D01*
X142634592Y-51596941D01*
X142635868Y-51601981D01*
X142635870Y-51601991D01*
X142685634Y-51798505D01*
X142695555Y-51837681D01*
X142795312Y-52065103D01*
X142798160Y-52069462D01*
X142798161Y-52069464D01*
X142928287Y-52268637D01*
X142928290Y-52268641D01*
X142931140Y-52273003D01*
X142934675Y-52276843D01*
X143095802Y-52451875D01*
X143095807Y-52451879D01*
X143099335Y-52455712D01*
X143103444Y-52458910D01*
X143103446Y-52458912D01*
X143148274Y-52493803D01*
X143295309Y-52608245D01*
X143513716Y-52726441D01*
X143518644Y-52728133D01*
X143518647Y-52728134D01*
X143609600Y-52759358D01*
X143748599Y-52807076D01*
X143993551Y-52847951D01*
X144236678Y-52847951D01*
X144241889Y-52847951D01*
X144486841Y-52807076D01*
X144721724Y-52726441D01*
X144940131Y-52608245D01*
X145136105Y-52455712D01*
X145304300Y-52273003D01*
X145440128Y-52065103D01*
X145539885Y-51837681D01*
X145600848Y-51596941D01*
X145616220Y-51411432D01*
X145616220Y-49307470D01*
X145600848Y-49121961D01*
X145539885Y-48881221D01*
X145440128Y-48653799D01*
X145304300Y-48445899D01*
X145201458Y-48334182D01*
X145139637Y-48267026D01*
X145139632Y-48267021D01*
X145136105Y-48263190D01*
X145131996Y-48259992D01*
X145131993Y-48259989D01*
X144944241Y-48113856D01*
X144940131Y-48110657D01*
X144778896Y-48023401D01*
X144726309Y-47994942D01*
X144726306Y-47994940D01*
X144721724Y-47992461D01*
X144716800Y-47990770D01*
X144716792Y-47990767D01*
X144491771Y-47913518D01*
X144491765Y-47913516D01*
X144486841Y-47911826D01*
X144481704Y-47910968D01*
X144481701Y-47910968D01*
X144247026Y-47871808D01*
X144247023Y-47871807D01*
X144241889Y-47870951D01*
X143993551Y-47870951D01*
X143988417Y-47871807D01*
X143988413Y-47871808D01*
X143753738Y-47910968D01*
X143753732Y-47910969D01*
X143748599Y-47911826D01*
X143743676Y-47913515D01*
X143743668Y-47913518D01*
X143518647Y-47990767D01*
X143518634Y-47990772D01*
X143513716Y-47992461D01*
X143509138Y-47994938D01*
X143509130Y-47994942D01*
X143299891Y-48108177D01*
X143299887Y-48108179D01*
X143295309Y-48110657D01*
X143291203Y-48113852D01*
X143291198Y-48113856D01*
X143103446Y-48259989D01*
X143103437Y-48259997D01*
X143099335Y-48263190D01*
X143095813Y-48267015D01*
X143095802Y-48267026D01*
X142934675Y-48442058D01*
X142934670Y-48442064D01*
X142931140Y-48445899D01*
X142928294Y-48450254D01*
X142928287Y-48450264D01*
X142798161Y-48649437D01*
X142798156Y-48649444D01*
X142795312Y-48653799D01*
X142793219Y-48658568D01*
X142793218Y-48658572D01*
X142697647Y-48876450D01*
X142697644Y-48876458D01*
X142695555Y-48881221D01*
X142694278Y-48886261D01*
X142694277Y-48886266D01*
X142635870Y-49116910D01*
X142635867Y-49116922D01*
X142634592Y-49121961D01*
X142634162Y-49127143D01*
X142634161Y-49127153D01*
X142619435Y-49304869D01*
X142619434Y-49304881D01*
X142619220Y-49307470D01*
X142619220Y-51411432D01*
X140616220Y-51411432D01*
X140616220Y-48330813D01*
X140609709Y-48270250D01*
X140558609Y-48133247D01*
X140541698Y-48110657D01*
X140476379Y-48023401D01*
X140470981Y-48016190D01*
X140391428Y-47956637D01*
X140361137Y-47933961D01*
X140361134Y-47933959D01*
X140353924Y-47928562D01*
X140345486Y-47925415D01*
X140345483Y-47925413D01*
X140224300Y-47880214D01*
X140224298Y-47880213D01*
X140216921Y-47877462D01*
X140209093Y-47876620D01*
X140209087Y-47876619D01*
X140159708Y-47871311D01*
X140159705Y-47871310D01*
X140156358Y-47870951D01*
X138079082Y-47870951D01*
X138075735Y-47871310D01*
X138075731Y-47871311D01*
X138026352Y-47876619D01*
X138026345Y-47876620D01*
X138018519Y-47877462D01*
X138011143Y-47880212D01*
X138011139Y-47880214D01*
X137889956Y-47925413D01*
X137889950Y-47925416D01*
X137881516Y-47928562D01*
X137874308Y-47933957D01*
X137874302Y-47933961D01*
X137771670Y-48010791D01*
X137771666Y-48010794D01*
X137764459Y-48016190D01*
X137759063Y-48023397D01*
X137759060Y-48023401D01*
X137682230Y-48126033D01*
X137682226Y-48126039D01*
X137676831Y-48133247D01*
X137673685Y-48141681D01*
X137673682Y-48141687D01*
X137628483Y-48262870D01*
X137628481Y-48262874D01*
X137625731Y-48270250D01*
X137624889Y-48278076D01*
X137624888Y-48278083D01*
X137619580Y-48327462D01*
X137619220Y-48330813D01*
X137619220Y-52388089D01*
X134630500Y-52388089D01*
X134630500Y-45005341D01*
X160609241Y-45005341D01*
X160609720Y-45010816D01*
X160628746Y-45228298D01*
X160628747Y-45228306D01*
X160629226Y-45233776D01*
X160630646Y-45239078D01*
X160630648Y-45239085D01*
X160687152Y-45449959D01*
X160687154Y-45449965D01*
X160688576Y-45455271D01*
X160690898Y-45460250D01*
X160690900Y-45460256D01*
X160754727Y-45597133D01*
X160785485Y-45663094D01*
X160788638Y-45667597D01*
X160788641Y-45667602D01*
X160862612Y-45773243D01*
X160917011Y-45850932D01*
X161079156Y-46013077D01*
X161266994Y-46144603D01*
X161474817Y-46241512D01*
X161696312Y-46300862D01*
X161924747Y-46320847D01*
X162153182Y-46300862D01*
X162374677Y-46241512D01*
X162582500Y-46144603D01*
X162770338Y-46013077D01*
X162932483Y-45850932D01*
X163064009Y-45663094D01*
X163160918Y-45455271D01*
X163220268Y-45233776D01*
X163240253Y-45005341D01*
X163234919Y-44944368D01*
X195504494Y-44944368D01*
X195504973Y-44949843D01*
X195523999Y-45167325D01*
X195524000Y-45167333D01*
X195524479Y-45172803D01*
X195525899Y-45178105D01*
X195525901Y-45178112D01*
X195582405Y-45388986D01*
X195582407Y-45388992D01*
X195583829Y-45394298D01*
X195586151Y-45399277D01*
X195586153Y-45399283D01*
X195674675Y-45589118D01*
X195680738Y-45602121D01*
X195683891Y-45606624D01*
X195683894Y-45606629D01*
X195714327Y-45650091D01*
X195812264Y-45789959D01*
X195974409Y-45952104D01*
X196162247Y-46083630D01*
X196370070Y-46180539D01*
X196591565Y-46239889D01*
X196820000Y-46259874D01*
X197048435Y-46239889D01*
X197269930Y-46180539D01*
X197477753Y-46083630D01*
X197665591Y-45952104D01*
X197827736Y-45789959D01*
X197959262Y-45602121D01*
X198056171Y-45394298D01*
X198115521Y-45172803D01*
X198135506Y-44944368D01*
X198115521Y-44715933D01*
X198056171Y-44494438D01*
X197959262Y-44286615D01*
X197827736Y-44098777D01*
X197665591Y-43936632D01*
X197591632Y-43884845D01*
X197482261Y-43808262D01*
X197482256Y-43808259D01*
X197477753Y-43805106D01*
X197453093Y-43793607D01*
X197274915Y-43710521D01*
X197274909Y-43710519D01*
X197269930Y-43708197D01*
X197264624Y-43706775D01*
X197264618Y-43706773D01*
X197053744Y-43650269D01*
X197053737Y-43650267D01*
X197048435Y-43648847D01*
X197042965Y-43648368D01*
X197042957Y-43648367D01*
X196825475Y-43629341D01*
X196820000Y-43628862D01*
X196814525Y-43629341D01*
X196597042Y-43648367D01*
X196597032Y-43648368D01*
X196591565Y-43648847D01*
X196586263Y-43650267D01*
X196586255Y-43650269D01*
X196375381Y-43706773D01*
X196375371Y-43706776D01*
X196370070Y-43708197D01*
X196365093Y-43710517D01*
X196365084Y-43710521D01*
X196167234Y-43802780D01*
X196167229Y-43802782D01*
X196162247Y-43805106D01*
X196157748Y-43808256D01*
X196157738Y-43808262D01*
X195978920Y-43933473D01*
X195978917Y-43933475D01*
X195974409Y-43936632D01*
X195970517Y-43940523D01*
X195970511Y-43940529D01*
X195816161Y-44094879D01*
X195816155Y-44094885D01*
X195812264Y-44098777D01*
X195809107Y-44103285D01*
X195809105Y-44103288D01*
X195683894Y-44282106D01*
X195683888Y-44282116D01*
X195680738Y-44286615D01*
X195678414Y-44291597D01*
X195678412Y-44291602D01*
X195586153Y-44489452D01*
X195586149Y-44489461D01*
X195583829Y-44494438D01*
X195582408Y-44499739D01*
X195582405Y-44499749D01*
X195525901Y-44710623D01*
X195525899Y-44710631D01*
X195524479Y-44715933D01*
X195524000Y-44721400D01*
X195523999Y-44721410D01*
X195505217Y-44936093D01*
X195504494Y-44944368D01*
X163234919Y-44944368D01*
X163220268Y-44776906D01*
X163160918Y-44555411D01*
X163064009Y-44347588D01*
X162932483Y-44159750D01*
X162770338Y-43997605D01*
X162614665Y-43888601D01*
X162587008Y-43869235D01*
X162587003Y-43869232D01*
X162582500Y-43866079D01*
X162577512Y-43863753D01*
X162379662Y-43771494D01*
X162379656Y-43771492D01*
X162374677Y-43769170D01*
X162369371Y-43767748D01*
X162369365Y-43767746D01*
X162158491Y-43711242D01*
X162158484Y-43711240D01*
X162153182Y-43709820D01*
X162147712Y-43709341D01*
X162147704Y-43709340D01*
X161930222Y-43690314D01*
X161924747Y-43689835D01*
X161919272Y-43690314D01*
X161701789Y-43709340D01*
X161701779Y-43709341D01*
X161696312Y-43709820D01*
X161691010Y-43711240D01*
X161691002Y-43711242D01*
X161480128Y-43767746D01*
X161480118Y-43767749D01*
X161474817Y-43769170D01*
X161469840Y-43771490D01*
X161469831Y-43771494D01*
X161271981Y-43863753D01*
X161271976Y-43863755D01*
X161266994Y-43866079D01*
X161262495Y-43869229D01*
X161262485Y-43869235D01*
X161083667Y-43994446D01*
X161083664Y-43994448D01*
X161079156Y-43997605D01*
X161075264Y-44001496D01*
X161075258Y-44001502D01*
X160920908Y-44155852D01*
X160920902Y-44155858D01*
X160917011Y-44159750D01*
X160913854Y-44164258D01*
X160913852Y-44164261D01*
X160788641Y-44343079D01*
X160788635Y-44343089D01*
X160785485Y-44347588D01*
X160783161Y-44352570D01*
X160783159Y-44352575D01*
X160690900Y-44550425D01*
X160690896Y-44550434D01*
X160688576Y-44555411D01*
X160687155Y-44560712D01*
X160687152Y-44560722D01*
X160630648Y-44771596D01*
X160630646Y-44771604D01*
X160629226Y-44776906D01*
X160628747Y-44782373D01*
X160628746Y-44782383D01*
X160615054Y-44938893D01*
X160609241Y-45005341D01*
X134630500Y-45005341D01*
X134630500Y-43316500D01*
X134647381Y-43253500D01*
X134693500Y-43207381D01*
X134756500Y-43190500D01*
X160017912Y-43190500D01*
X160022088Y-43190500D01*
X198863500Y-43190500D01*
X198926500Y-43207381D01*
G37*
G04 #@! TD.AperFunction*
M02*
