G04 #@! TF.GenerationSoftware,KiCad,Pcbnew,7.0.0*
G04 #@! TF.CreationDate,2023-02-20T20:21:07-05:00*
G04 #@! TF.ProjectId,PCB,5043422e-6b69-4636-9164-5f7063625858,rev?*
G04 #@! TF.SameCoordinates,Original*
G04 #@! TF.FileFunction,Copper,L1,Top*
G04 #@! TF.FilePolarity,Positive*
%FSLAX46Y46*%
G04 Gerber Fmt 4.6, Leading zero omitted, Abs format (unit mm)*
G04 Created by KiCad (PCBNEW 7.0.0) date 2023-02-20 20:21:07*
%MOMM*%
%LPD*%
G01*
G04 APERTURE LIST*
G04 #@! TA.AperFunction,ComponentPad*
%ADD10C,1.400000*%
G04 #@! TD*
G04 #@! TA.AperFunction,ComponentPad*
%ADD11O,1.400000X1.400000*%
G04 #@! TD*
G04 #@! TA.AperFunction,ComponentPad*
%ADD12R,1.800000X1.800000*%
G04 #@! TD*
G04 #@! TA.AperFunction,ComponentPad*
%ADD13C,1.800000*%
G04 #@! TD*
G04 #@! TA.AperFunction,ComponentPad*
%ADD14R,1.350000X1.350000*%
G04 #@! TD*
G04 #@! TA.AperFunction,ComponentPad*
%ADD15O,1.350000X1.350000*%
G04 #@! TD*
G04 #@! TA.AperFunction,ComponentPad*
%ADD16R,1.980000X3.960000*%
G04 #@! TD*
G04 #@! TA.AperFunction,ComponentPad*
%ADD17O,1.980000X3.960000*%
G04 #@! TD*
G04 #@! TA.AperFunction,ComponentPad*
%ADD18R,1.700000X1.700000*%
G04 #@! TD*
G04 #@! TA.AperFunction,ComponentPad*
%ADD19O,1.700000X1.700000*%
G04 #@! TD*
G04 #@! TA.AperFunction,ComponentPad*
%ADD20R,3.960000X1.980000*%
G04 #@! TD*
G04 #@! TA.AperFunction,ComponentPad*
%ADD21O,3.960000X1.980000*%
G04 #@! TD*
G04 #@! TA.AperFunction,ComponentPad*
%ADD22R,1.900000X1.900000*%
G04 #@! TD*
G04 #@! TA.AperFunction,ComponentPad*
%ADD23C,1.900000*%
G04 #@! TD*
G04 #@! TA.AperFunction,ComponentPad*
%ADD24C,1.700000*%
G04 #@! TD*
G04 #@! TA.AperFunction,ViaPad*
%ADD25C,0.800000*%
G04 #@! TD*
G04 #@! TA.AperFunction,Conductor*
%ADD26C,0.250000*%
G04 #@! TD*
G04 APERTURE END LIST*
D10*
X146250044Y-70161250D03*
D11*
X146250043Y-77781249D03*
D12*
X142239999Y-82089999D03*
D13*
X144780000Y-82090000D03*
D14*
X196575807Y-51280577D03*
D15*
X196575807Y-53280577D03*
X196575807Y-55280577D03*
X196575807Y-57280577D03*
X196575807Y-59280577D03*
X196575807Y-61280577D03*
D16*
X150889355Y-50325320D03*
D17*
X155889355Y-50325320D03*
D18*
X188713765Y-65940924D03*
D19*
X186173765Y-65940924D03*
X183633765Y-65940924D03*
X181093765Y-65940924D03*
X178553765Y-65940924D03*
X176013765Y-65940924D03*
X173473765Y-65940924D03*
X170933765Y-65940924D03*
D20*
X142000591Y-65520593D03*
D21*
X142000591Y-60520593D03*
D16*
X139117719Y-50359450D03*
D17*
X144117719Y-50359450D03*
D10*
X141599153Y-70187193D03*
D11*
X141599152Y-77807192D03*
D14*
X157479999Y-65499999D03*
D15*
X157479999Y-63499999D03*
X157479999Y-61499999D03*
X157479999Y-59499999D03*
D22*
X137159999Y-74857703D03*
D23*
X137160000Y-77357704D03*
X137160000Y-79857704D03*
D10*
X143952579Y-70177101D03*
D11*
X143952578Y-77797100D03*
D24*
X169490000Y-86076000D03*
X172030000Y-86076000D03*
X192350000Y-70820000D03*
X174570000Y-86076000D03*
X177110000Y-86076000D03*
X166950000Y-70820000D03*
X179650000Y-86076000D03*
X182190000Y-86076000D03*
X184730000Y-86076000D03*
X187270000Y-86076000D03*
X189810000Y-86076000D03*
X192350000Y-86076000D03*
X194890000Y-86076000D03*
X194890000Y-70820000D03*
X187270000Y-70820000D03*
X184730000Y-70820000D03*
X182190000Y-70820000D03*
X179650000Y-70820000D03*
X177110000Y-70820000D03*
X174570000Y-70820000D03*
X189810000Y-70820000D03*
X161870000Y-70820000D03*
X166950000Y-86076000D03*
X156790000Y-70820000D03*
D18*
X154249999Y-86075999D03*
D24*
X169490000Y-70820000D03*
X172030000Y-70820000D03*
X164410000Y-70820000D03*
X164410000Y-86076000D03*
X161870000Y-86076000D03*
X154250000Y-70820000D03*
X156790000Y-86076000D03*
X159330000Y-86076000D03*
X159330000Y-70820000D03*
D25*
X160020000Y-78740000D03*
X180340000Y-78740000D03*
X160020000Y-55880000D03*
X160020000Y-76200000D03*
X160020000Y-48260000D03*
X162560000Y-75284500D03*
X152400000Y-74834500D03*
X150566754Y-74384500D03*
X167640000Y-73660000D03*
X149860000Y-73660000D03*
X187960000Y-60960000D03*
X147320000Y-73660000D03*
X178309964Y-70006893D03*
X182880000Y-73660000D03*
X198120000Y-71120000D03*
X195580000Y-67855500D03*
D26*
X169490000Y-70820000D02*
X172030000Y-70820000D01*
X169490000Y-80590000D02*
X167640000Y-78740000D01*
X169490000Y-86076000D02*
X169490000Y-80590000D01*
X167640000Y-78740000D02*
X165100000Y-76200000D01*
X165100000Y-76200000D02*
X160020000Y-76200000D01*
X160020000Y-55880000D02*
X149638269Y-55880000D01*
X149638269Y-55880000D02*
X144117720Y-50359451D01*
X168540000Y-77100000D02*
X167640000Y-77100000D01*
X172030000Y-86076000D02*
X172030000Y-80590000D01*
X164727208Y-75010000D02*
X162834500Y-75010000D01*
X166817208Y-77100000D02*
X164727208Y-75010000D01*
X157480000Y-45720000D02*
X143757171Y-45720000D01*
X170180000Y-78740000D02*
X168540000Y-77100000D01*
X172030000Y-80590000D02*
X170180000Y-78740000D01*
X167640000Y-77100000D02*
X166817208Y-77100000D01*
X160020000Y-48260000D02*
X157480000Y-45720000D01*
X162834500Y-75010000D02*
X162560000Y-75284500D01*
X143757171Y-45720000D02*
X139117720Y-50359451D01*
X174570000Y-80590000D02*
X172720000Y-78740000D01*
X152674500Y-74560000D02*
X152400000Y-74834500D01*
X174570000Y-86076000D02*
X174570000Y-80590000D01*
X170630000Y-76650000D02*
X167640000Y-76650000D01*
X167003604Y-76650000D02*
X164913604Y-74560000D01*
X167640000Y-76650000D02*
X167003604Y-76650000D01*
X172720000Y-78740000D02*
X170630000Y-76650000D01*
X164913604Y-74560000D02*
X152674500Y-74560000D01*
X150841254Y-74110000D02*
X150566754Y-74384500D01*
X177110000Y-80590000D02*
X172720000Y-76200000D01*
X177110000Y-86076000D02*
X177110000Y-80590000D01*
X167190000Y-76200000D02*
X165100000Y-74110000D01*
X165100000Y-74110000D02*
X150841254Y-74110000D01*
X172720000Y-76200000D02*
X167190000Y-76200000D01*
X167640000Y-73660000D02*
X149860000Y-73660000D01*
X187960000Y-60960000D02*
X158940000Y-60960000D01*
X158940000Y-60960000D02*
X157480000Y-59500000D01*
X152400000Y-72895000D02*
X180340000Y-72895000D01*
X147320000Y-73660000D02*
X148085000Y-72895000D01*
X148085000Y-72895000D02*
X152400000Y-72895000D01*
X180340000Y-72895000D02*
X181105000Y-73660000D01*
X181105000Y-73660000D02*
X182880000Y-73660000D01*
X178309964Y-70006893D02*
X181093766Y-67223091D01*
X181093766Y-67223091D02*
X181093766Y-65940925D01*
X196795000Y-72445000D02*
X198120000Y-71120000D01*
X175260000Y-72445000D02*
X196795000Y-72445000D01*
X143952579Y-74487421D02*
X144780000Y-73660000D01*
X145995000Y-72445000D02*
X175260000Y-72445000D01*
X143952579Y-77797101D02*
X143952579Y-74487421D01*
X144780000Y-73660000D02*
X145995000Y-72445000D01*
X141599153Y-70187193D02*
X143406960Y-71995000D01*
X143406960Y-71995000D02*
X181015000Y-71995000D01*
X181015000Y-71995000D02*
X182190000Y-70820000D01*
X195854500Y-67855500D02*
X195580000Y-67855500D01*
X197670000Y-66040000D02*
X195854500Y-67855500D01*
X196575808Y-59280578D02*
X197670000Y-60374770D01*
X197670000Y-60374770D02*
X197670000Y-66040000D01*
X186970000Y-68580000D02*
X198120000Y-68580000D01*
X198120000Y-58824770D02*
X196575808Y-57280578D01*
X184730000Y-70820000D02*
X186970000Y-68580000D01*
X198120000Y-68580000D02*
X198120000Y-58824770D01*
X183633766Y-65940925D02*
X179650000Y-69924691D01*
X179650000Y-69924691D02*
X179650000Y-70820000D01*
G04 #@! TA.AperFunction,Conductor*
G36*
X198926500Y-43207381D02*
G01*
X198972619Y-43253500D01*
X198989500Y-43316500D01*
X198989500Y-58650333D01*
X198973918Y-58711028D01*
X198931026Y-58756711D01*
X198871432Y-58776083D01*
X198809877Y-58764353D01*
X198761584Y-58724422D01*
X198744293Y-58680787D01*
X198741440Y-58681520D01*
X198739467Y-58673839D01*
X198738474Y-58665973D01*
X198722197Y-58624863D01*
X198718351Y-58613630D01*
X198708229Y-58578789D01*
X198706018Y-58571177D01*
X198695707Y-58553743D01*
X198687008Y-58535985D01*
X198682469Y-58524521D01*
X198679552Y-58517153D01*
X198653561Y-58481380D01*
X198647050Y-58471468D01*
X198624542Y-58433407D01*
X198610218Y-58419083D01*
X198597376Y-58404047D01*
X198590134Y-58394079D01*
X198590131Y-58394076D01*
X198585472Y-58387663D01*
X198551405Y-58359480D01*
X198542626Y-58351491D01*
X197781382Y-57590247D01*
X197751965Y-57543942D01*
X197745015Y-57489529D01*
X197764378Y-57280578D01*
X197744140Y-57062179D01*
X197684117Y-56851217D01*
X197586351Y-56654877D01*
X197513847Y-56558866D01*
X197457684Y-56484494D01*
X197457681Y-56484490D01*
X197454172Y-56479844D01*
X197449866Y-56475919D01*
X197449861Y-56475913D01*
X197337730Y-56373693D01*
X197301425Y-56315060D01*
X197301425Y-56246096D01*
X197337730Y-56187463D01*
X197449861Y-56085242D01*
X197449866Y-56085237D01*
X197454172Y-56081312D01*
X197586351Y-55906279D01*
X197684117Y-55709939D01*
X197744140Y-55498977D01*
X197764378Y-55280578D01*
X197760211Y-55235608D01*
X197744678Y-55067984D01*
X197744677Y-55067983D01*
X197744140Y-55062179D01*
X197684117Y-54851217D01*
X197586351Y-54654877D01*
X197454172Y-54479844D01*
X197337357Y-54373354D01*
X197301054Y-54314722D01*
X197301054Y-54245758D01*
X197337359Y-54187125D01*
X197449490Y-54084904D01*
X197457313Y-54076323D01*
X197582412Y-53910665D01*
X197588520Y-53900800D01*
X197681053Y-53714969D01*
X197685241Y-53704157D01*
X197729490Y-53548639D01*
X197730019Y-53537198D01*
X197718875Y-53534578D01*
X195432741Y-53534578D01*
X195421596Y-53537198D01*
X195422125Y-53548639D01*
X195466374Y-53704157D01*
X195470562Y-53714969D01*
X195563095Y-53900800D01*
X195569203Y-53910665D01*
X195694302Y-54076323D01*
X195702120Y-54084899D01*
X195814257Y-54187125D01*
X195850561Y-54245759D01*
X195850561Y-54314722D01*
X195814257Y-54373355D01*
X195701749Y-54475918D01*
X195701740Y-54475926D01*
X195697444Y-54479844D01*
X195693939Y-54484484D01*
X195693931Y-54484494D01*
X195568776Y-54650226D01*
X195568770Y-54650235D01*
X195565265Y-54654877D01*
X195562671Y-54660084D01*
X195562668Y-54660091D01*
X195470095Y-54846003D01*
X195467499Y-54851217D01*
X195465904Y-54856819D01*
X195465904Y-54856822D01*
X195422370Y-55009833D01*
X195407476Y-55062179D01*
X195406939Y-55067972D01*
X195406937Y-55067984D01*
X195390396Y-55246500D01*
X195387238Y-55280578D01*
X195387776Y-55286384D01*
X195406937Y-55493171D01*
X195406938Y-55493181D01*
X195407476Y-55498977D01*
X195467499Y-55709939D01*
X195470095Y-55715152D01*
X195555448Y-55886565D01*
X195565265Y-55906279D01*
X195568773Y-55910925D01*
X195568776Y-55910929D01*
X195693931Y-56076661D01*
X195693935Y-56076665D01*
X195697444Y-56081312D01*
X195701746Y-56085234D01*
X195701749Y-56085237D01*
X195813886Y-56187463D01*
X195850190Y-56246096D01*
X195850190Y-56315060D01*
X195813886Y-56373693D01*
X195701749Y-56475918D01*
X195701740Y-56475926D01*
X195697444Y-56479844D01*
X195693939Y-56484484D01*
X195693931Y-56484494D01*
X195568776Y-56650226D01*
X195568770Y-56650235D01*
X195565265Y-56654877D01*
X195562671Y-56660084D01*
X195562668Y-56660091D01*
X195499412Y-56787127D01*
X195467499Y-56851217D01*
X195407476Y-57062179D01*
X195406939Y-57067972D01*
X195406937Y-57067984D01*
X195387776Y-57274772D01*
X195387238Y-57280578D01*
X195387776Y-57286384D01*
X195406937Y-57493171D01*
X195406938Y-57493181D01*
X195407476Y-57498977D01*
X195467499Y-57709939D01*
X195565265Y-57906279D01*
X195568773Y-57910925D01*
X195568776Y-57910929D01*
X195693931Y-58076661D01*
X195693935Y-58076665D01*
X195697444Y-58081312D01*
X195701748Y-58085236D01*
X195701754Y-58085242D01*
X195813885Y-58187462D01*
X195850190Y-58246095D01*
X195850190Y-58315058D01*
X195813886Y-58373692D01*
X195701750Y-58475918D01*
X195701746Y-58475921D01*
X195697444Y-58479844D01*
X195693939Y-58484484D01*
X195693931Y-58484494D01*
X195568776Y-58650226D01*
X195568770Y-58650235D01*
X195565265Y-58654877D01*
X195562671Y-58660084D01*
X195562668Y-58660091D01*
X195470095Y-58846003D01*
X195467499Y-58851217D01*
X195465904Y-58856819D01*
X195465904Y-58856822D01*
X195414144Y-59038744D01*
X195407476Y-59062179D01*
X195406939Y-59067972D01*
X195406937Y-59067984D01*
X195387776Y-59274772D01*
X195387238Y-59280578D01*
X195387776Y-59286384D01*
X195406937Y-59493171D01*
X195406938Y-59493181D01*
X195407476Y-59498977D01*
X195467499Y-59709939D01*
X195565265Y-59906279D01*
X195568773Y-59910925D01*
X195568776Y-59910929D01*
X195693931Y-60076661D01*
X195693935Y-60076665D01*
X195697444Y-60081312D01*
X195701746Y-60085234D01*
X195701749Y-60085237D01*
X195813886Y-60187463D01*
X195850190Y-60246096D01*
X195850190Y-60315060D01*
X195813886Y-60373693D01*
X195701749Y-60475918D01*
X195701740Y-60475926D01*
X195697444Y-60479844D01*
X195693939Y-60484484D01*
X195693931Y-60484494D01*
X195568776Y-60650226D01*
X195568770Y-60650235D01*
X195565265Y-60654877D01*
X195562671Y-60660084D01*
X195562668Y-60660091D01*
X195470095Y-60846003D01*
X195467499Y-60851217D01*
X195465904Y-60856819D01*
X195465904Y-60856822D01*
X195439950Y-60948044D01*
X195407476Y-61062179D01*
X195406939Y-61067972D01*
X195406937Y-61067984D01*
X195387776Y-61274772D01*
X195387238Y-61280578D01*
X195387776Y-61286384D01*
X195406937Y-61493171D01*
X195406938Y-61493181D01*
X195407476Y-61498977D01*
X195467499Y-61709939D01*
X195470095Y-61715152D01*
X195545769Y-61867127D01*
X195565265Y-61906279D01*
X195568773Y-61910925D01*
X195568776Y-61910929D01*
X195693931Y-62076661D01*
X195693935Y-62076665D01*
X195697444Y-62081312D01*
X195701746Y-62085234D01*
X195701749Y-62085237D01*
X195751237Y-62130351D01*
X195859535Y-62229077D01*
X195901491Y-62255055D01*
X196041063Y-62341475D01*
X196041066Y-62341476D01*
X196046017Y-62344542D01*
X196250540Y-62423775D01*
X196466141Y-62464078D01*
X196679648Y-62464078D01*
X196685475Y-62464078D01*
X196887348Y-62426341D01*
X196942173Y-62428242D01*
X196990995Y-62453260D01*
X197024558Y-62496653D01*
X197036500Y-62550196D01*
X197036500Y-65725405D01*
X197026909Y-65773623D01*
X196999595Y-65814501D01*
X195881880Y-66932213D01*
X195828571Y-66963928D01*
X195766588Y-66966364D01*
X195681943Y-66948372D01*
X195681940Y-66948371D01*
X195675487Y-66947000D01*
X195484513Y-66947000D01*
X195478060Y-66948371D01*
X195478056Y-66948372D01*
X195304168Y-66985333D01*
X195304161Y-66985335D01*
X195297712Y-66986706D01*
X195291682Y-66989390D01*
X195291681Y-66989391D01*
X195129278Y-67061697D01*
X195129275Y-67061698D01*
X195123248Y-67064382D01*
X195117907Y-67068262D01*
X195117906Y-67068263D01*
X194974091Y-67172750D01*
X194974083Y-67172756D01*
X194968747Y-67176634D01*
X194964330Y-67181539D01*
X194964325Y-67181544D01*
X194845379Y-67313648D01*
X194840960Y-67318556D01*
X194837661Y-67324269D01*
X194837658Y-67324274D01*
X194813341Y-67366393D01*
X194745473Y-67483944D01*
X194743434Y-67490218D01*
X194743430Y-67490228D01*
X194688497Y-67659294D01*
X194688495Y-67659301D01*
X194686458Y-67665572D01*
X194685768Y-67672131D01*
X194685768Y-67672134D01*
X194668790Y-67833671D01*
X194647939Y-67890958D01*
X194602633Y-67931751D01*
X194543480Y-67946500D01*
X187048763Y-67946500D01*
X187037579Y-67945972D01*
X187030091Y-67944299D01*
X187022176Y-67944547D01*
X187022168Y-67944547D01*
X186962033Y-67946438D01*
X186958075Y-67946500D01*
X186930144Y-67946500D01*
X186926232Y-67946993D01*
X186926199Y-67946996D01*
X186926101Y-67947009D01*
X186914300Y-67947937D01*
X186878030Y-67949077D01*
X186878022Y-67949078D01*
X186870110Y-67949327D01*
X186862504Y-67951536D01*
X186862501Y-67951537D01*
X186850655Y-67954979D01*
X186831306Y-67958986D01*
X186824234Y-67959879D01*
X186811203Y-67961526D01*
X186803844Y-67964439D01*
X186803834Y-67964442D01*
X186770082Y-67977805D01*
X186758860Y-67981647D01*
X186724014Y-67991771D01*
X186724010Y-67991772D01*
X186716406Y-67993982D01*
X186709585Y-67998015D01*
X186709582Y-67998017D01*
X186698968Y-68004294D01*
X186681218Y-68012990D01*
X186669756Y-68017528D01*
X186669751Y-68017530D01*
X186662383Y-68020448D01*
X186655974Y-68025104D01*
X186655969Y-68025107D01*
X186626615Y-68046434D01*
X186616697Y-68052948D01*
X186585464Y-68071419D01*
X186585456Y-68071425D01*
X186578637Y-68075458D01*
X186573035Y-68081058D01*
X186573028Y-68081065D01*
X186564304Y-68089789D01*
X186549282Y-68102618D01*
X186539311Y-68109863D01*
X186539302Y-68109871D01*
X186532893Y-68114528D01*
X186527846Y-68120628D01*
X186527838Y-68120636D01*
X186504710Y-68148593D01*
X186496723Y-68157370D01*
X185187439Y-69466654D01*
X185131790Y-69499039D01*
X185067956Y-69499696D01*
X185064635Y-69498556D01*
X185059501Y-69497699D01*
X185059500Y-69497699D01*
X184847706Y-69462357D01*
X184847703Y-69462356D01*
X184842569Y-69461500D01*
X184617431Y-69461500D01*
X184612297Y-69462356D01*
X184612293Y-69462357D01*
X184400504Y-69497698D01*
X184400498Y-69497699D01*
X184395365Y-69498556D01*
X184390443Y-69500245D01*
X184390434Y-69500248D01*
X184187357Y-69569964D01*
X184187344Y-69569969D01*
X184182426Y-69571658D01*
X184177847Y-69574135D01*
X184177840Y-69574139D01*
X183989005Y-69676331D01*
X183988997Y-69676336D01*
X183984424Y-69678811D01*
X183980313Y-69682010D01*
X183980311Y-69682012D01*
X183810878Y-69813888D01*
X183810872Y-69813893D01*
X183806760Y-69817094D01*
X183803237Y-69820919D01*
X183803227Y-69820930D01*
X183657806Y-69978899D01*
X183657802Y-69978902D01*
X183654278Y-69982732D01*
X183651430Y-69987090D01*
X183651427Y-69987095D01*
X183565483Y-70118643D01*
X183519969Y-70160542D01*
X183460000Y-70175728D01*
X183400031Y-70160542D01*
X183354517Y-70118643D01*
X183321365Y-70067900D01*
X183265722Y-69982732D01*
X183204956Y-69916723D01*
X183116772Y-69820930D01*
X183116767Y-69820925D01*
X183113240Y-69817094D01*
X182935576Y-69678811D01*
X182930997Y-69676333D01*
X182930994Y-69676331D01*
X182742159Y-69574139D01*
X182742156Y-69574137D01*
X182737574Y-69571658D01*
X182732650Y-69569967D01*
X182732642Y-69569964D01*
X182529565Y-69500248D01*
X182529559Y-69500246D01*
X182524635Y-69498556D01*
X182519498Y-69497698D01*
X182519495Y-69497698D01*
X182307706Y-69462357D01*
X182307703Y-69462356D01*
X182302569Y-69461500D01*
X182077431Y-69461500D01*
X182072297Y-69462356D01*
X182072293Y-69462357D01*
X181860504Y-69497698D01*
X181860498Y-69497699D01*
X181855365Y-69498556D01*
X181850443Y-69500245D01*
X181850434Y-69500248D01*
X181647357Y-69569964D01*
X181647344Y-69569969D01*
X181642426Y-69571658D01*
X181637847Y-69574135D01*
X181637840Y-69574139D01*
X181449005Y-69676331D01*
X181448997Y-69676336D01*
X181444424Y-69678811D01*
X181440313Y-69682010D01*
X181440311Y-69682012D01*
X181270878Y-69813888D01*
X181270872Y-69813893D01*
X181266760Y-69817094D01*
X181263237Y-69820919D01*
X181263227Y-69820930D01*
X181117806Y-69978899D01*
X181117802Y-69978902D01*
X181114278Y-69982732D01*
X181111430Y-69987090D01*
X181111427Y-69987095D01*
X181025483Y-70118643D01*
X180979969Y-70160542D01*
X180920000Y-70175728D01*
X180860031Y-70160542D01*
X180814517Y-70118643D01*
X180781365Y-70067900D01*
X180725722Y-69982732D01*
X180693591Y-69947829D01*
X180663733Y-69891737D01*
X180665046Y-69828206D01*
X180697195Y-69773398D01*
X183176326Y-67294268D01*
X183231974Y-67261885D01*
X183295806Y-67261227D01*
X183299131Y-67262369D01*
X183521197Y-67299425D01*
X183741124Y-67299425D01*
X183746335Y-67299425D01*
X183968401Y-67262369D01*
X184181340Y-67189267D01*
X184379342Y-67082114D01*
X184557006Y-66943831D01*
X184709488Y-66778193D01*
X184798284Y-66642279D01*
X184843796Y-66600382D01*
X184903766Y-66585196D01*
X184963736Y-66600382D01*
X185009247Y-66642279D01*
X185098044Y-66778193D01*
X185101572Y-66782025D01*
X185246993Y-66939994D01*
X185246997Y-66939998D01*
X185250526Y-66943831D01*
X185428190Y-67082114D01*
X185626192Y-67189267D01*
X185631121Y-67190959D01*
X185631123Y-67190960D01*
X185732661Y-67225817D01*
X185839131Y-67262369D01*
X186061197Y-67299425D01*
X186281124Y-67299425D01*
X186286335Y-67299425D01*
X186508401Y-67262369D01*
X186721340Y-67189267D01*
X186919342Y-67082114D01*
X187097006Y-66943831D01*
X187140428Y-66896662D01*
X187158010Y-66877564D01*
X187211482Y-66843163D01*
X187274944Y-66839253D01*
X187332235Y-66866829D01*
X187368766Y-66918868D01*
X187409725Y-67028682D01*
X187409729Y-67028690D01*
X187412877Y-67037129D01*
X187418274Y-67044339D01*
X187418276Y-67044342D01*
X187444155Y-67078912D01*
X187500505Y-67154186D01*
X187507716Y-67159584D01*
X187543437Y-67186325D01*
X187617562Y-67241814D01*
X187754565Y-67292914D01*
X187815128Y-67299425D01*
X189609035Y-67299425D01*
X189612404Y-67299425D01*
X189672967Y-67292914D01*
X189809970Y-67241814D01*
X189927027Y-67154186D01*
X190014655Y-67037129D01*
X190065755Y-66900126D01*
X190072266Y-66839563D01*
X190072266Y-65042287D01*
X190065755Y-64981724D01*
X190014655Y-64844721D01*
X189983689Y-64803356D01*
X189932425Y-64734875D01*
X189927027Y-64727664D01*
X189919815Y-64722265D01*
X189817183Y-64645435D01*
X189817180Y-64645433D01*
X189809970Y-64640036D01*
X189801532Y-64636889D01*
X189801529Y-64636887D01*
X189680346Y-64591688D01*
X189680344Y-64591687D01*
X189672967Y-64588936D01*
X189665139Y-64588094D01*
X189665133Y-64588093D01*
X189615754Y-64582785D01*
X189615751Y-64582784D01*
X189612404Y-64582425D01*
X187815128Y-64582425D01*
X187811781Y-64582784D01*
X187811777Y-64582785D01*
X187762398Y-64588093D01*
X187762391Y-64588094D01*
X187754565Y-64588936D01*
X187747189Y-64591686D01*
X187747185Y-64591688D01*
X187626002Y-64636887D01*
X187625996Y-64636890D01*
X187617562Y-64640036D01*
X187610354Y-64645431D01*
X187610348Y-64645435D01*
X187507716Y-64722265D01*
X187507712Y-64722268D01*
X187500505Y-64727664D01*
X187495109Y-64734871D01*
X187495106Y-64734875D01*
X187418276Y-64837507D01*
X187418272Y-64837513D01*
X187412877Y-64844721D01*
X187409730Y-64853156D01*
X187409726Y-64853165D01*
X187368766Y-64962982D01*
X187332234Y-65015020D01*
X187274944Y-65042596D01*
X187211483Y-65038686D01*
X187158010Y-65004286D01*
X187100538Y-64941856D01*
X187100537Y-64941855D01*
X187097006Y-64938019D01*
X186919342Y-64799736D01*
X186914763Y-64797258D01*
X186914760Y-64797256D01*
X186725925Y-64695064D01*
X186725922Y-64695062D01*
X186721340Y-64692583D01*
X186716416Y-64690892D01*
X186716408Y-64690889D01*
X186513331Y-64621173D01*
X186513325Y-64621171D01*
X186508401Y-64619481D01*
X186503264Y-64618623D01*
X186503261Y-64618623D01*
X186291472Y-64583282D01*
X186291469Y-64583281D01*
X186286335Y-64582425D01*
X186061197Y-64582425D01*
X186056063Y-64583281D01*
X186056059Y-64583282D01*
X185844270Y-64618623D01*
X185844264Y-64618624D01*
X185839131Y-64619481D01*
X185834209Y-64621170D01*
X185834200Y-64621173D01*
X185631123Y-64690889D01*
X185631110Y-64690894D01*
X185626192Y-64692583D01*
X185621613Y-64695060D01*
X185621606Y-64695064D01*
X185432771Y-64797256D01*
X185432763Y-64797261D01*
X185428190Y-64799736D01*
X185424079Y-64802935D01*
X185424077Y-64802937D01*
X185254644Y-64934813D01*
X185254638Y-64934818D01*
X185250526Y-64938019D01*
X185247003Y-64941844D01*
X185246993Y-64941855D01*
X185101572Y-65099824D01*
X185101568Y-65099827D01*
X185098044Y-65103657D01*
X185095196Y-65108015D01*
X185095193Y-65108020D01*
X185009249Y-65239568D01*
X184963735Y-65281467D01*
X184903766Y-65296653D01*
X184843797Y-65281467D01*
X184798283Y-65239568D01*
X184712542Y-65108332D01*
X184709488Y-65103657D01*
X184590446Y-64974344D01*
X184560538Y-64941855D01*
X184560533Y-64941850D01*
X184557006Y-64938019D01*
X184379342Y-64799736D01*
X184374763Y-64797258D01*
X184374760Y-64797256D01*
X184185925Y-64695064D01*
X184185922Y-64695062D01*
X184181340Y-64692583D01*
X184176416Y-64690892D01*
X184176408Y-64690889D01*
X183973331Y-64621173D01*
X183973325Y-64621171D01*
X183968401Y-64619481D01*
X183963264Y-64618623D01*
X183963261Y-64618623D01*
X183751472Y-64583282D01*
X183751469Y-64583281D01*
X183746335Y-64582425D01*
X183521197Y-64582425D01*
X183516063Y-64583281D01*
X183516059Y-64583282D01*
X183304270Y-64618623D01*
X183304264Y-64618624D01*
X183299131Y-64619481D01*
X183294209Y-64621170D01*
X183294200Y-64621173D01*
X183091123Y-64690889D01*
X183091110Y-64690894D01*
X183086192Y-64692583D01*
X183081613Y-64695060D01*
X183081606Y-64695064D01*
X182892771Y-64797256D01*
X182892763Y-64797261D01*
X182888190Y-64799736D01*
X182884079Y-64802935D01*
X182884077Y-64802937D01*
X182714644Y-64934813D01*
X182714638Y-64934818D01*
X182710526Y-64938019D01*
X182707003Y-64941844D01*
X182706993Y-64941855D01*
X182561572Y-65099824D01*
X182561568Y-65099827D01*
X182558044Y-65103657D01*
X182555196Y-65108015D01*
X182555193Y-65108020D01*
X182469249Y-65239568D01*
X182423735Y-65281467D01*
X182363766Y-65296653D01*
X182303797Y-65281467D01*
X182258283Y-65239568D01*
X182172542Y-65108332D01*
X182169488Y-65103657D01*
X182050446Y-64974344D01*
X182020538Y-64941855D01*
X182020533Y-64941850D01*
X182017006Y-64938019D01*
X181839342Y-64799736D01*
X181834763Y-64797258D01*
X181834760Y-64797256D01*
X181645925Y-64695064D01*
X181645922Y-64695062D01*
X181641340Y-64692583D01*
X181636416Y-64690892D01*
X181636408Y-64690889D01*
X181433331Y-64621173D01*
X181433325Y-64621171D01*
X181428401Y-64619481D01*
X181423264Y-64618623D01*
X181423261Y-64618623D01*
X181211472Y-64583282D01*
X181211469Y-64583281D01*
X181206335Y-64582425D01*
X180981197Y-64582425D01*
X180976063Y-64583281D01*
X180976059Y-64583282D01*
X180764270Y-64618623D01*
X180764264Y-64618624D01*
X180759131Y-64619481D01*
X180754209Y-64621170D01*
X180754200Y-64621173D01*
X180551123Y-64690889D01*
X180551110Y-64690894D01*
X180546192Y-64692583D01*
X180541613Y-64695060D01*
X180541606Y-64695064D01*
X180352771Y-64797256D01*
X180352763Y-64797261D01*
X180348190Y-64799736D01*
X180344079Y-64802935D01*
X180344077Y-64802937D01*
X180174644Y-64934813D01*
X180174638Y-64934818D01*
X180170526Y-64938019D01*
X180167003Y-64941844D01*
X180166993Y-64941855D01*
X180021572Y-65099824D01*
X180021568Y-65099827D01*
X180018044Y-65103657D01*
X180015196Y-65108015D01*
X180015193Y-65108020D01*
X179929249Y-65239568D01*
X179883735Y-65281467D01*
X179823766Y-65296653D01*
X179763797Y-65281467D01*
X179718283Y-65239568D01*
X179632542Y-65108332D01*
X179629488Y-65103657D01*
X179510446Y-64974344D01*
X179480538Y-64941855D01*
X179480533Y-64941850D01*
X179477006Y-64938019D01*
X179299342Y-64799736D01*
X179294763Y-64797258D01*
X179294760Y-64797256D01*
X179105925Y-64695064D01*
X179105922Y-64695062D01*
X179101340Y-64692583D01*
X179096416Y-64690892D01*
X179096408Y-64690889D01*
X178893331Y-64621173D01*
X178893325Y-64621171D01*
X178888401Y-64619481D01*
X178883264Y-64618623D01*
X178883261Y-64618623D01*
X178671472Y-64583282D01*
X178671469Y-64583281D01*
X178666335Y-64582425D01*
X178441197Y-64582425D01*
X178436063Y-64583281D01*
X178436059Y-64583282D01*
X178224270Y-64618623D01*
X178224264Y-64618624D01*
X178219131Y-64619481D01*
X178214209Y-64621170D01*
X178214200Y-64621173D01*
X178011123Y-64690889D01*
X178011110Y-64690894D01*
X178006192Y-64692583D01*
X178001613Y-64695060D01*
X178001606Y-64695064D01*
X177812771Y-64797256D01*
X177812763Y-64797261D01*
X177808190Y-64799736D01*
X177804079Y-64802935D01*
X177804077Y-64802937D01*
X177634644Y-64934813D01*
X177634638Y-64934818D01*
X177630526Y-64938019D01*
X177627003Y-64941844D01*
X177626993Y-64941855D01*
X177481572Y-65099824D01*
X177481568Y-65099827D01*
X177478044Y-65103657D01*
X177475196Y-65108015D01*
X177475193Y-65108020D01*
X177389249Y-65239568D01*
X177343735Y-65281467D01*
X177283766Y-65296653D01*
X177223797Y-65281467D01*
X177178283Y-65239568D01*
X177092542Y-65108332D01*
X177089488Y-65103657D01*
X176970446Y-64974344D01*
X176940538Y-64941855D01*
X176940533Y-64941850D01*
X176937006Y-64938019D01*
X176759342Y-64799736D01*
X176754763Y-64797258D01*
X176754760Y-64797256D01*
X176565925Y-64695064D01*
X176565922Y-64695062D01*
X176561340Y-64692583D01*
X176556416Y-64690892D01*
X176556408Y-64690889D01*
X176353331Y-64621173D01*
X176353325Y-64621171D01*
X176348401Y-64619481D01*
X176343264Y-64618623D01*
X176343261Y-64618623D01*
X176131472Y-64583282D01*
X176131469Y-64583281D01*
X176126335Y-64582425D01*
X175901197Y-64582425D01*
X175896063Y-64583281D01*
X175896059Y-64583282D01*
X175684270Y-64618623D01*
X175684264Y-64618624D01*
X175679131Y-64619481D01*
X175674209Y-64621170D01*
X175674200Y-64621173D01*
X175471123Y-64690889D01*
X175471110Y-64690894D01*
X175466192Y-64692583D01*
X175461613Y-64695060D01*
X175461606Y-64695064D01*
X175272771Y-64797256D01*
X175272763Y-64797261D01*
X175268190Y-64799736D01*
X175264079Y-64802935D01*
X175264077Y-64802937D01*
X175094644Y-64934813D01*
X175094638Y-64934818D01*
X175090526Y-64938019D01*
X175087003Y-64941844D01*
X175086993Y-64941855D01*
X174941572Y-65099824D01*
X174941568Y-65099827D01*
X174938044Y-65103657D01*
X174935196Y-65108015D01*
X174935193Y-65108020D01*
X174849249Y-65239568D01*
X174803735Y-65281467D01*
X174743766Y-65296653D01*
X174683797Y-65281467D01*
X174638283Y-65239568D01*
X174552542Y-65108332D01*
X174549488Y-65103657D01*
X174430446Y-64974344D01*
X174400538Y-64941855D01*
X174400533Y-64941850D01*
X174397006Y-64938019D01*
X174219342Y-64799736D01*
X174214763Y-64797258D01*
X174214760Y-64797256D01*
X174025925Y-64695064D01*
X174025922Y-64695062D01*
X174021340Y-64692583D01*
X174016416Y-64690892D01*
X174016408Y-64690889D01*
X173813331Y-64621173D01*
X173813325Y-64621171D01*
X173808401Y-64619481D01*
X173803264Y-64618623D01*
X173803261Y-64618623D01*
X173591472Y-64583282D01*
X173591469Y-64583281D01*
X173586335Y-64582425D01*
X173361197Y-64582425D01*
X173356063Y-64583281D01*
X173356059Y-64583282D01*
X173144270Y-64618623D01*
X173144264Y-64618624D01*
X173139131Y-64619481D01*
X173134209Y-64621170D01*
X173134200Y-64621173D01*
X172931123Y-64690889D01*
X172931110Y-64690894D01*
X172926192Y-64692583D01*
X172921613Y-64695060D01*
X172921606Y-64695064D01*
X172732771Y-64797256D01*
X172732763Y-64797261D01*
X172728190Y-64799736D01*
X172724079Y-64802935D01*
X172724077Y-64802937D01*
X172554644Y-64934813D01*
X172554638Y-64934818D01*
X172550526Y-64938019D01*
X172547003Y-64941844D01*
X172546993Y-64941855D01*
X172401572Y-65099824D01*
X172401568Y-65099827D01*
X172398044Y-65103657D01*
X172394990Y-65108332D01*
X172308950Y-65240026D01*
X172263436Y-65281924D01*
X172203467Y-65297110D01*
X172143498Y-65281924D01*
X172097984Y-65240026D01*
X172011943Y-65108332D01*
X172005555Y-65100125D01*
X171860198Y-64942224D01*
X171852554Y-64935187D01*
X171683177Y-64803356D01*
X171674484Y-64797677D01*
X171485723Y-64695524D01*
X171476206Y-64691349D01*
X171273208Y-64621660D01*
X171263138Y-64619110D01*
X171201304Y-64608792D01*
X171190167Y-64609368D01*
X171187766Y-64620261D01*
X171187766Y-67261589D01*
X171190167Y-67272481D01*
X171201304Y-67273057D01*
X171263138Y-67262739D01*
X171273208Y-67260189D01*
X171476206Y-67190500D01*
X171485723Y-67186325D01*
X171674484Y-67084172D01*
X171683177Y-67078493D01*
X171852554Y-66946662D01*
X171860198Y-66939625D01*
X172005555Y-66781724D01*
X172011947Y-66773512D01*
X172097984Y-66641824D01*
X172143498Y-66599925D01*
X172203467Y-66584739D01*
X172263436Y-66599925D01*
X172308949Y-66641823D01*
X172398044Y-66778193D01*
X172401572Y-66782025D01*
X172546993Y-66939994D01*
X172546997Y-66939998D01*
X172550526Y-66943831D01*
X172728190Y-67082114D01*
X172926192Y-67189267D01*
X172931121Y-67190959D01*
X172931123Y-67190960D01*
X173032661Y-67225817D01*
X173139131Y-67262369D01*
X173361197Y-67299425D01*
X173581124Y-67299425D01*
X173586335Y-67299425D01*
X173808401Y-67262369D01*
X174021340Y-67189267D01*
X174219342Y-67082114D01*
X174397006Y-66943831D01*
X174549488Y-66778193D01*
X174638284Y-66642279D01*
X174683796Y-66600382D01*
X174743766Y-66585196D01*
X174803736Y-66600382D01*
X174849247Y-66642279D01*
X174938044Y-66778193D01*
X174941572Y-66782025D01*
X175086993Y-66939994D01*
X175086997Y-66939998D01*
X175090526Y-66943831D01*
X175268190Y-67082114D01*
X175466192Y-67189267D01*
X175471121Y-67190959D01*
X175471123Y-67190960D01*
X175572661Y-67225817D01*
X175679131Y-67262369D01*
X175901197Y-67299425D01*
X176121124Y-67299425D01*
X176126335Y-67299425D01*
X176348401Y-67262369D01*
X176561340Y-67189267D01*
X176759342Y-67082114D01*
X176937006Y-66943831D01*
X177089488Y-66778193D01*
X177178284Y-66642279D01*
X177223796Y-66600382D01*
X177283766Y-66585196D01*
X177343736Y-66600382D01*
X177389247Y-66642279D01*
X177478044Y-66778193D01*
X177481572Y-66782025D01*
X177626993Y-66939994D01*
X177626997Y-66939998D01*
X177630526Y-66943831D01*
X177808190Y-67082114D01*
X178006192Y-67189267D01*
X178011121Y-67190959D01*
X178011123Y-67190960D01*
X178112661Y-67225817D01*
X178219131Y-67262369D01*
X178441197Y-67299425D01*
X178661124Y-67299425D01*
X178666335Y-67299425D01*
X178888401Y-67262369D01*
X179101340Y-67189267D01*
X179299342Y-67082114D01*
X179477006Y-66943831D01*
X179629488Y-66778193D01*
X179718284Y-66642279D01*
X179763796Y-66600382D01*
X179823766Y-66585196D01*
X179883736Y-66600382D01*
X179929247Y-66642279D01*
X180018044Y-66778193D01*
X180021572Y-66782025D01*
X180166993Y-66939994D01*
X180166997Y-66939998D01*
X180170526Y-66943831D01*
X180230339Y-66990386D01*
X180271544Y-67047265D01*
X180275896Y-67117369D01*
X180242041Y-67178910D01*
X178359464Y-69061488D01*
X178318587Y-69088802D01*
X178270369Y-69098393D01*
X178214477Y-69098393D01*
X178208024Y-69099764D01*
X178208020Y-69099765D01*
X178034132Y-69136726D01*
X178034125Y-69136728D01*
X178027676Y-69138099D01*
X178021646Y-69140783D01*
X178021645Y-69140784D01*
X177859242Y-69213090D01*
X177859239Y-69213091D01*
X177853212Y-69215775D01*
X177847871Y-69219655D01*
X177847870Y-69219656D01*
X177704055Y-69324143D01*
X177704047Y-69324149D01*
X177698711Y-69328027D01*
X177694296Y-69332930D01*
X177694293Y-69332933D01*
X177577044Y-69463152D01*
X177520025Y-69499403D01*
X177452476Y-69500985D01*
X177449556Y-69500245D01*
X177444635Y-69498556D01*
X177439507Y-69497700D01*
X177439502Y-69497699D01*
X177227706Y-69462357D01*
X177227703Y-69462356D01*
X177222569Y-69461500D01*
X176997431Y-69461500D01*
X176992297Y-69462356D01*
X176992293Y-69462357D01*
X176780504Y-69497698D01*
X176780498Y-69497699D01*
X176775365Y-69498556D01*
X176770443Y-69500245D01*
X176770434Y-69500248D01*
X176567357Y-69569964D01*
X176567344Y-69569969D01*
X176562426Y-69571658D01*
X176557847Y-69574135D01*
X176557840Y-69574139D01*
X176369005Y-69676331D01*
X176368997Y-69676336D01*
X176364424Y-69678811D01*
X176360313Y-69682010D01*
X176360311Y-69682012D01*
X176190878Y-69813888D01*
X176190872Y-69813893D01*
X176186760Y-69817094D01*
X176183237Y-69820919D01*
X176183227Y-69820930D01*
X176037806Y-69978899D01*
X176037802Y-69978902D01*
X176034278Y-69982732D01*
X176031430Y-69987090D01*
X176031427Y-69987095D01*
X175945483Y-70118643D01*
X175899969Y-70160542D01*
X175840000Y-70175728D01*
X175780031Y-70160542D01*
X175734517Y-70118643D01*
X175701365Y-70067900D01*
X175645722Y-69982732D01*
X175584956Y-69916723D01*
X175496772Y-69820930D01*
X175496767Y-69820925D01*
X175493240Y-69817094D01*
X175315576Y-69678811D01*
X175310997Y-69676333D01*
X175310994Y-69676331D01*
X175122159Y-69574139D01*
X175122156Y-69574137D01*
X175117574Y-69571658D01*
X175112650Y-69569967D01*
X175112642Y-69569964D01*
X174909565Y-69500248D01*
X174909559Y-69500246D01*
X174904635Y-69498556D01*
X174899498Y-69497698D01*
X174899495Y-69497698D01*
X174687706Y-69462357D01*
X174687703Y-69462356D01*
X174682569Y-69461500D01*
X174457431Y-69461500D01*
X174452297Y-69462356D01*
X174452293Y-69462357D01*
X174240504Y-69497698D01*
X174240498Y-69497699D01*
X174235365Y-69498556D01*
X174230443Y-69500245D01*
X174230434Y-69500248D01*
X174027357Y-69569964D01*
X174027344Y-69569969D01*
X174022426Y-69571658D01*
X174017847Y-69574135D01*
X174017840Y-69574139D01*
X173829005Y-69676331D01*
X173828997Y-69676336D01*
X173824424Y-69678811D01*
X173820313Y-69682010D01*
X173820311Y-69682012D01*
X173650878Y-69813888D01*
X173650872Y-69813893D01*
X173646760Y-69817094D01*
X173643237Y-69820919D01*
X173643227Y-69820930D01*
X173497806Y-69978899D01*
X173497802Y-69978902D01*
X173494278Y-69982732D01*
X173491430Y-69987090D01*
X173491427Y-69987095D01*
X173405483Y-70118643D01*
X173359969Y-70160542D01*
X173300000Y-70175728D01*
X173240031Y-70160542D01*
X173194517Y-70118643D01*
X173161365Y-70067900D01*
X173105722Y-69982732D01*
X173044956Y-69916723D01*
X172956772Y-69820930D01*
X172956767Y-69820925D01*
X172953240Y-69817094D01*
X172775576Y-69678811D01*
X172770997Y-69676333D01*
X172770994Y-69676331D01*
X172582159Y-69574139D01*
X172582156Y-69574137D01*
X172577574Y-69571658D01*
X172572650Y-69569967D01*
X172572642Y-69569964D01*
X172369565Y-69500248D01*
X172369559Y-69500246D01*
X172364635Y-69498556D01*
X172359498Y-69497698D01*
X172359495Y-69497698D01*
X172147706Y-69462357D01*
X172147703Y-69462356D01*
X172142569Y-69461500D01*
X171917431Y-69461500D01*
X171912297Y-69462356D01*
X171912293Y-69462357D01*
X171700504Y-69497698D01*
X171700498Y-69497699D01*
X171695365Y-69498556D01*
X171690443Y-69500245D01*
X171690434Y-69500248D01*
X171487357Y-69569964D01*
X171487344Y-69569969D01*
X171482426Y-69571658D01*
X171477847Y-69574135D01*
X171477840Y-69574139D01*
X171289005Y-69676331D01*
X171288997Y-69676336D01*
X171284424Y-69678811D01*
X171280313Y-69682010D01*
X171280311Y-69682012D01*
X171110878Y-69813888D01*
X171110872Y-69813893D01*
X171106760Y-69817094D01*
X171103237Y-69820919D01*
X171103227Y-69820930D01*
X170957806Y-69978899D01*
X170957802Y-69978902D01*
X170954278Y-69982732D01*
X170951430Y-69987090D01*
X170951427Y-69987095D01*
X170865483Y-70118643D01*
X170819969Y-70160542D01*
X170760000Y-70175728D01*
X170700031Y-70160542D01*
X170654517Y-70118643D01*
X170621365Y-70067900D01*
X170565722Y-69982732D01*
X170504956Y-69916723D01*
X170416772Y-69820930D01*
X170416767Y-69820925D01*
X170413240Y-69817094D01*
X170235576Y-69678811D01*
X170230997Y-69676333D01*
X170230994Y-69676331D01*
X170042159Y-69574139D01*
X170042156Y-69574137D01*
X170037574Y-69571658D01*
X170032650Y-69569967D01*
X170032642Y-69569964D01*
X169829565Y-69500248D01*
X169829559Y-69500246D01*
X169824635Y-69498556D01*
X169819498Y-69497698D01*
X169819495Y-69497698D01*
X169607706Y-69462357D01*
X169607703Y-69462356D01*
X169602569Y-69461500D01*
X169377431Y-69461500D01*
X169372297Y-69462356D01*
X169372293Y-69462357D01*
X169160504Y-69497698D01*
X169160498Y-69497699D01*
X169155365Y-69498556D01*
X169150443Y-69500245D01*
X169150434Y-69500248D01*
X168947357Y-69569964D01*
X168947344Y-69569969D01*
X168942426Y-69571658D01*
X168937847Y-69574135D01*
X168937840Y-69574139D01*
X168749005Y-69676331D01*
X168748997Y-69676336D01*
X168744424Y-69678811D01*
X168740313Y-69682010D01*
X168740311Y-69682012D01*
X168570878Y-69813888D01*
X168570872Y-69813893D01*
X168566760Y-69817094D01*
X168563237Y-69820919D01*
X168563227Y-69820930D01*
X168417806Y-69978899D01*
X168417802Y-69978902D01*
X168414278Y-69982732D01*
X168411431Y-69987090D01*
X168325183Y-70119102D01*
X168279669Y-70161000D01*
X168219700Y-70176186D01*
X168159731Y-70161000D01*
X168114218Y-70119102D01*
X168080764Y-70067898D01*
X168072670Y-70060051D01*
X168063138Y-70066070D01*
X167039094Y-71090114D01*
X166982610Y-71122726D01*
X166917388Y-71122726D01*
X166860904Y-71090114D01*
X165836860Y-70066070D01*
X165827328Y-70060051D01*
X165819232Y-70067900D01*
X165785780Y-70119102D01*
X165740266Y-70160999D01*
X165680297Y-70176185D01*
X165620328Y-70160998D01*
X165574816Y-70119101D01*
X165485722Y-69982732D01*
X165424956Y-69916723D01*
X165336772Y-69820930D01*
X165336767Y-69820925D01*
X165333240Y-69817094D01*
X165176973Y-69695465D01*
X166190210Y-69695465D01*
X166196979Y-69707769D01*
X166938270Y-70449060D01*
X166949999Y-70455832D01*
X166961730Y-70449059D01*
X167703022Y-69707766D01*
X167709788Y-69695466D01*
X167701551Y-69684096D01*
X167699411Y-69682431D01*
X167690720Y-69676753D01*
X167501957Y-69574599D01*
X167492440Y-69570424D01*
X167289442Y-69500735D01*
X167279372Y-69498185D01*
X167067664Y-69462857D01*
X167057316Y-69462000D01*
X166842684Y-69462000D01*
X166832335Y-69462857D01*
X166620627Y-69498185D01*
X166610557Y-69500735D01*
X166407559Y-69570424D01*
X166398042Y-69574599D01*
X166209277Y-69676754D01*
X166200591Y-69682428D01*
X166198445Y-69684098D01*
X166190210Y-69695465D01*
X165176973Y-69695465D01*
X165155576Y-69678811D01*
X165150997Y-69676333D01*
X165150994Y-69676331D01*
X164962159Y-69574139D01*
X164962156Y-69574137D01*
X164957574Y-69571658D01*
X164952650Y-69569967D01*
X164952642Y-69569964D01*
X164749565Y-69500248D01*
X164749559Y-69500246D01*
X164744635Y-69498556D01*
X164739498Y-69497698D01*
X164739495Y-69497698D01*
X164527706Y-69462357D01*
X164527703Y-69462356D01*
X164522569Y-69461500D01*
X164297431Y-69461500D01*
X164292297Y-69462356D01*
X164292293Y-69462357D01*
X164080504Y-69497698D01*
X164080498Y-69497699D01*
X164075365Y-69498556D01*
X164070443Y-69500245D01*
X164070434Y-69500248D01*
X163867357Y-69569964D01*
X163867344Y-69569969D01*
X163862426Y-69571658D01*
X163857847Y-69574135D01*
X163857840Y-69574139D01*
X163669005Y-69676331D01*
X163668997Y-69676336D01*
X163664424Y-69678811D01*
X163660313Y-69682010D01*
X163660311Y-69682012D01*
X163490878Y-69813888D01*
X163490872Y-69813893D01*
X163486760Y-69817094D01*
X163483237Y-69820919D01*
X163483227Y-69820930D01*
X163337806Y-69978899D01*
X163337802Y-69978902D01*
X163334278Y-69982732D01*
X163331430Y-69987090D01*
X163331427Y-69987095D01*
X163245483Y-70118643D01*
X163199969Y-70160542D01*
X163140000Y-70175728D01*
X163080031Y-70160542D01*
X163034517Y-70118643D01*
X163001365Y-70067900D01*
X162945722Y-69982732D01*
X162884956Y-69916723D01*
X162796772Y-69820930D01*
X162796767Y-69820925D01*
X162793240Y-69817094D01*
X162615576Y-69678811D01*
X162610997Y-69676333D01*
X162610994Y-69676331D01*
X162422159Y-69574139D01*
X162422156Y-69574137D01*
X162417574Y-69571658D01*
X162412650Y-69569967D01*
X162412642Y-69569964D01*
X162209565Y-69500248D01*
X162209559Y-69500246D01*
X162204635Y-69498556D01*
X162199498Y-69497698D01*
X162199495Y-69497698D01*
X161987706Y-69462357D01*
X161987703Y-69462356D01*
X161982569Y-69461500D01*
X161757431Y-69461500D01*
X161752297Y-69462356D01*
X161752293Y-69462357D01*
X161540504Y-69497698D01*
X161540498Y-69497699D01*
X161535365Y-69498556D01*
X161530443Y-69500245D01*
X161530434Y-69500248D01*
X161327357Y-69569964D01*
X161327344Y-69569969D01*
X161322426Y-69571658D01*
X161317847Y-69574135D01*
X161317840Y-69574139D01*
X161129005Y-69676331D01*
X161128997Y-69676336D01*
X161124424Y-69678811D01*
X161120313Y-69682010D01*
X161120311Y-69682012D01*
X160950878Y-69813888D01*
X160950872Y-69813893D01*
X160946760Y-69817094D01*
X160943237Y-69820919D01*
X160943227Y-69820930D01*
X160797806Y-69978899D01*
X160797802Y-69978902D01*
X160794278Y-69982732D01*
X160791430Y-69987090D01*
X160791427Y-69987095D01*
X160705483Y-70118643D01*
X160659969Y-70160542D01*
X160600000Y-70175728D01*
X160540031Y-70160542D01*
X160494517Y-70118643D01*
X160461365Y-70067900D01*
X160405722Y-69982732D01*
X160344956Y-69916723D01*
X160256772Y-69820930D01*
X160256767Y-69820925D01*
X160253240Y-69817094D01*
X160075576Y-69678811D01*
X160070997Y-69676333D01*
X160070994Y-69676331D01*
X159882159Y-69574139D01*
X159882156Y-69574137D01*
X159877574Y-69571658D01*
X159872650Y-69569967D01*
X159872642Y-69569964D01*
X159669565Y-69500248D01*
X159669559Y-69500246D01*
X159664635Y-69498556D01*
X159659498Y-69497698D01*
X159659495Y-69497698D01*
X159447706Y-69462357D01*
X159447703Y-69462356D01*
X159442569Y-69461500D01*
X159217431Y-69461500D01*
X159212297Y-69462356D01*
X159212293Y-69462357D01*
X159000504Y-69497698D01*
X159000498Y-69497699D01*
X158995365Y-69498556D01*
X158990443Y-69500245D01*
X158990434Y-69500248D01*
X158787357Y-69569964D01*
X158787344Y-69569969D01*
X158782426Y-69571658D01*
X158777847Y-69574135D01*
X158777840Y-69574139D01*
X158589005Y-69676331D01*
X158588997Y-69676336D01*
X158584424Y-69678811D01*
X158580313Y-69682010D01*
X158580311Y-69682012D01*
X158410878Y-69813888D01*
X158410872Y-69813893D01*
X158406760Y-69817094D01*
X158403237Y-69820919D01*
X158403227Y-69820930D01*
X158257806Y-69978899D01*
X158257802Y-69978902D01*
X158254278Y-69982732D01*
X158251430Y-69987090D01*
X158251427Y-69987095D01*
X158165483Y-70118643D01*
X158119969Y-70160542D01*
X158060000Y-70175728D01*
X158000031Y-70160542D01*
X157954517Y-70118643D01*
X157921365Y-70067900D01*
X157865722Y-69982732D01*
X157804956Y-69916723D01*
X157716772Y-69820930D01*
X157716767Y-69820925D01*
X157713240Y-69817094D01*
X157535576Y-69678811D01*
X157530997Y-69676333D01*
X157530994Y-69676331D01*
X157342159Y-69574139D01*
X157342156Y-69574137D01*
X157337574Y-69571658D01*
X157332650Y-69569967D01*
X157332642Y-69569964D01*
X157129565Y-69500248D01*
X157129559Y-69500246D01*
X157124635Y-69498556D01*
X157119498Y-69497698D01*
X157119495Y-69497698D01*
X156907706Y-69462357D01*
X156907703Y-69462356D01*
X156902569Y-69461500D01*
X156677431Y-69461500D01*
X156672297Y-69462356D01*
X156672293Y-69462357D01*
X156460504Y-69497698D01*
X156460498Y-69497699D01*
X156455365Y-69498556D01*
X156450443Y-69500245D01*
X156450434Y-69500248D01*
X156247357Y-69569964D01*
X156247344Y-69569969D01*
X156242426Y-69571658D01*
X156237847Y-69574135D01*
X156237840Y-69574139D01*
X156049005Y-69676331D01*
X156048997Y-69676336D01*
X156044424Y-69678811D01*
X156040313Y-69682010D01*
X156040311Y-69682012D01*
X155870878Y-69813888D01*
X155870872Y-69813893D01*
X155866760Y-69817094D01*
X155863237Y-69820919D01*
X155863227Y-69820930D01*
X155717806Y-69978899D01*
X155717802Y-69978902D01*
X155714278Y-69982732D01*
X155711430Y-69987090D01*
X155711427Y-69987095D01*
X155625483Y-70118643D01*
X155579969Y-70160542D01*
X155520000Y-70175728D01*
X155460031Y-70160542D01*
X155414517Y-70118643D01*
X155381365Y-70067900D01*
X155325722Y-69982732D01*
X155264956Y-69916723D01*
X155176772Y-69820930D01*
X155176767Y-69820925D01*
X155173240Y-69817094D01*
X154995576Y-69678811D01*
X154990997Y-69676333D01*
X154990994Y-69676331D01*
X154802159Y-69574139D01*
X154802156Y-69574137D01*
X154797574Y-69571658D01*
X154792650Y-69569967D01*
X154792642Y-69569964D01*
X154589565Y-69500248D01*
X154589559Y-69500246D01*
X154584635Y-69498556D01*
X154579498Y-69497698D01*
X154579495Y-69497698D01*
X154367706Y-69462357D01*
X154367703Y-69462356D01*
X154362569Y-69461500D01*
X154137431Y-69461500D01*
X154132297Y-69462356D01*
X154132293Y-69462357D01*
X153920504Y-69497698D01*
X153920498Y-69497699D01*
X153915365Y-69498556D01*
X153910443Y-69500245D01*
X153910434Y-69500248D01*
X153707357Y-69569964D01*
X153707344Y-69569969D01*
X153702426Y-69571658D01*
X153697847Y-69574135D01*
X153697840Y-69574139D01*
X153509005Y-69676331D01*
X153508997Y-69676336D01*
X153504424Y-69678811D01*
X153500313Y-69682010D01*
X153500311Y-69682012D01*
X153330878Y-69813888D01*
X153330872Y-69813893D01*
X153326760Y-69817094D01*
X153323237Y-69820919D01*
X153323227Y-69820930D01*
X153177806Y-69978899D01*
X153177802Y-69978902D01*
X153174278Y-69982732D01*
X153171430Y-69987090D01*
X153171427Y-69987095D01*
X153053992Y-70166843D01*
X153051140Y-70171209D01*
X153049048Y-70175978D01*
X153049046Y-70175982D01*
X152962799Y-70372606D01*
X152962796Y-70372614D01*
X152960704Y-70377384D01*
X152959423Y-70382440D01*
X152959422Y-70382445D01*
X152909105Y-70581142D01*
X152905436Y-70595632D01*
X152905006Y-70600820D01*
X152905005Y-70600827D01*
X152889918Y-70782906D01*
X152886844Y-70820000D01*
X152887274Y-70825189D01*
X152898648Y-70962457D01*
X152905436Y-71044368D01*
X152946005Y-71204571D01*
X152947178Y-71261357D01*
X152923292Y-71312891D01*
X152879199Y-71348697D01*
X152823860Y-71361500D01*
X147042485Y-71361500D01*
X146981399Y-71345702D01*
X146935631Y-71302270D01*
X146916658Y-71242094D01*
X146929237Y-71180265D01*
X146970213Y-71132287D01*
X147029820Y-71090551D01*
X147179345Y-70941026D01*
X147300633Y-70767808D01*
X147390000Y-70576160D01*
X147444730Y-70371905D01*
X147463160Y-70161250D01*
X147444730Y-69950595D01*
X147390000Y-69746340D01*
X147300633Y-69554692D01*
X147297478Y-69550186D01*
X147182504Y-69385985D01*
X147182501Y-69385982D01*
X147179345Y-69381474D01*
X147029820Y-69231949D01*
X147025312Y-69228793D01*
X147025308Y-69228789D01*
X146861107Y-69113815D01*
X146861103Y-69113813D01*
X146856602Y-69110661D01*
X146851623Y-69108339D01*
X146851621Y-69108338D01*
X146669936Y-69023617D01*
X146669934Y-69023616D01*
X146664954Y-69021294D01*
X146659645Y-69019871D01*
X146659644Y-69019871D01*
X146518064Y-68981935D01*
X146460699Y-68966564D01*
X146455223Y-68966084D01*
X146455218Y-68966084D01*
X146255519Y-68948613D01*
X146250044Y-68948134D01*
X146244569Y-68948613D01*
X146044869Y-68966084D01*
X146044862Y-68966085D01*
X146039389Y-68966564D01*
X146034075Y-68967987D01*
X146034074Y-68967988D01*
X145840443Y-69019871D01*
X145840438Y-69019872D01*
X145835134Y-69021294D01*
X145830156Y-69023614D01*
X145830151Y-69023617D01*
X145648466Y-69108338D01*
X145648458Y-69108342D01*
X145643486Y-69110661D01*
X145638989Y-69113809D01*
X145638980Y-69113815D01*
X145474779Y-69228789D01*
X145474769Y-69228797D01*
X145470268Y-69231949D01*
X145466378Y-69235838D01*
X145466372Y-69235844D01*
X145324638Y-69377578D01*
X145324632Y-69377584D01*
X145320743Y-69381474D01*
X145317591Y-69385975D01*
X145317583Y-69385985D01*
X145199455Y-69554692D01*
X145197763Y-69553507D01*
X145161140Y-69590912D01*
X145101278Y-69609054D01*
X145040068Y-69596173D01*
X144992595Y-69555443D01*
X144885039Y-69401836D01*
X144885036Y-69401833D01*
X144881880Y-69397325D01*
X144732355Y-69247800D01*
X144727847Y-69244644D01*
X144727843Y-69244640D01*
X144563642Y-69129666D01*
X144563638Y-69129664D01*
X144559137Y-69126512D01*
X144554158Y-69124190D01*
X144554156Y-69124189D01*
X144372471Y-69039468D01*
X144372469Y-69039467D01*
X144367489Y-69037145D01*
X144362180Y-69035722D01*
X144362179Y-69035722D01*
X144237080Y-69002202D01*
X144163234Y-68982415D01*
X144157758Y-68981935D01*
X144157753Y-68981935D01*
X143958054Y-68964464D01*
X143952579Y-68963985D01*
X143947104Y-68964464D01*
X143747404Y-68981935D01*
X143747397Y-68981936D01*
X143741924Y-68982415D01*
X143736610Y-68983838D01*
X143736609Y-68983839D01*
X143542978Y-69035722D01*
X143542973Y-69035723D01*
X143537669Y-69037145D01*
X143532691Y-69039465D01*
X143532686Y-69039468D01*
X143351001Y-69124189D01*
X143350993Y-69124193D01*
X143346021Y-69126512D01*
X143341524Y-69129660D01*
X143341515Y-69129666D01*
X143177314Y-69244640D01*
X143177304Y-69244648D01*
X143172803Y-69247800D01*
X143168913Y-69251689D01*
X143168907Y-69251695D01*
X143027173Y-69393429D01*
X143027167Y-69393435D01*
X143023278Y-69397325D01*
X143020126Y-69401826D01*
X143020118Y-69401836D01*
X142905144Y-69566037D01*
X142905138Y-69566046D01*
X142901990Y-69570543D01*
X142899669Y-69575520D01*
X142899664Y-69575529D01*
X142887707Y-69601171D01*
X142841212Y-69654188D01*
X142773513Y-69673920D01*
X142705814Y-69654188D01*
X142659319Y-69601172D01*
X142652065Y-69585617D01*
X142652064Y-69585615D01*
X142649742Y-69580635D01*
X142645516Y-69574599D01*
X142531613Y-69411928D01*
X142531610Y-69411925D01*
X142528454Y-69407417D01*
X142378929Y-69257892D01*
X142374421Y-69254736D01*
X142374417Y-69254732D01*
X142210216Y-69139758D01*
X142210212Y-69139756D01*
X142205711Y-69136604D01*
X142200732Y-69134282D01*
X142200730Y-69134281D01*
X142019045Y-69049560D01*
X142019043Y-69049559D01*
X142014063Y-69047237D01*
X142008754Y-69045814D01*
X142008753Y-69045814D01*
X141845990Y-69002202D01*
X141809808Y-68992507D01*
X141804332Y-68992027D01*
X141804327Y-68992027D01*
X141604628Y-68974556D01*
X141599153Y-68974077D01*
X141593678Y-68974556D01*
X141393978Y-68992027D01*
X141393971Y-68992028D01*
X141388498Y-68992507D01*
X141383184Y-68993930D01*
X141383183Y-68993931D01*
X141189552Y-69045814D01*
X141189547Y-69045815D01*
X141184243Y-69047237D01*
X141179265Y-69049557D01*
X141179260Y-69049560D01*
X140997575Y-69134281D01*
X140997567Y-69134285D01*
X140992595Y-69136604D01*
X140988098Y-69139752D01*
X140988089Y-69139758D01*
X140823888Y-69254732D01*
X140823878Y-69254740D01*
X140819377Y-69257892D01*
X140815487Y-69261781D01*
X140815481Y-69261787D01*
X140673747Y-69403521D01*
X140673741Y-69403527D01*
X140669852Y-69407417D01*
X140666700Y-69411918D01*
X140666692Y-69411928D01*
X140551718Y-69576129D01*
X140551712Y-69576138D01*
X140548564Y-69580635D01*
X140546245Y-69585607D01*
X140546241Y-69585615D01*
X140461520Y-69767300D01*
X140461517Y-69767305D01*
X140459197Y-69772283D01*
X140457775Y-69777587D01*
X140457774Y-69777592D01*
X140411418Y-69950595D01*
X140404467Y-69976538D01*
X140403988Y-69982011D01*
X140403987Y-69982018D01*
X140396634Y-70066070D01*
X140386037Y-70187193D01*
X140386516Y-70192668D01*
X140402676Y-70377384D01*
X140404467Y-70397848D01*
X140417381Y-70446044D01*
X140456107Y-70590573D01*
X140459197Y-70602103D01*
X140461519Y-70607083D01*
X140461520Y-70607085D01*
X140536466Y-70767808D01*
X140548564Y-70793751D01*
X140551716Y-70798252D01*
X140551718Y-70798256D01*
X140666692Y-70962457D01*
X140666696Y-70962461D01*
X140669852Y-70966969D01*
X140819377Y-71116494D01*
X140823885Y-71119650D01*
X140823888Y-71119653D01*
X140955544Y-71211839D01*
X140992595Y-71237782D01*
X141184243Y-71327149D01*
X141388498Y-71381879D01*
X141599153Y-71400309D01*
X141809808Y-71381879D01*
X141815124Y-71380454D01*
X141819709Y-71379646D01*
X141879481Y-71383560D01*
X141930691Y-71414635D01*
X142903302Y-72387246D01*
X142910844Y-72395533D01*
X142914960Y-72402018D01*
X142920739Y-72407444D01*
X142920740Y-72407446D01*
X142964627Y-72448658D01*
X142967469Y-72451413D01*
X142987190Y-72471134D01*
X142990374Y-72473604D01*
X142999397Y-72481309D01*
X143031639Y-72511586D01*
X143038588Y-72515406D01*
X143049389Y-72521344D01*
X143065919Y-72532202D01*
X143075654Y-72539754D01*
X143075657Y-72539756D01*
X143081919Y-72544613D01*
X143122496Y-72562172D01*
X143133131Y-72567381D01*
X143171900Y-72588695D01*
X143191526Y-72593734D01*
X143210219Y-72600134D01*
X143228815Y-72608181D01*
X143236646Y-72609421D01*
X143236649Y-72609422D01*
X143253088Y-72612025D01*
X143272485Y-72615097D01*
X143284085Y-72617498D01*
X143326930Y-72628500D01*
X143347184Y-72628500D01*
X143366894Y-72630050D01*
X143386903Y-72633220D01*
X143430921Y-72629058D01*
X143442779Y-72628500D01*
X144611405Y-72628500D01*
X144668608Y-72642233D01*
X144713341Y-72680439D01*
X144735854Y-72734789D01*
X144731238Y-72793436D01*
X144700499Y-72843595D01*
X144303865Y-73240230D01*
X144303861Y-73240234D01*
X143900463Y-73643632D01*
X143560326Y-73983769D01*
X143552039Y-73991309D01*
X143545561Y-73995421D01*
X143540141Y-74001192D01*
X143540138Y-74001195D01*
X143498949Y-74045057D01*
X143496200Y-74047893D01*
X143479246Y-74064848D01*
X143479239Y-74064855D01*
X143476444Y-74067651D01*
X143474021Y-74070773D01*
X143474005Y-74070792D01*
X143473944Y-74070872D01*
X143466269Y-74079856D01*
X143441417Y-74106323D01*
X143441414Y-74106325D01*
X143435993Y-74112100D01*
X143432179Y-74119035D01*
X143432171Y-74119048D01*
X143426229Y-74129857D01*
X143415382Y-74146370D01*
X143407822Y-74156116D01*
X143407816Y-74156125D01*
X143402965Y-74162380D01*
X143399821Y-74169644D01*
X143399817Y-74169652D01*
X143385403Y-74202961D01*
X143380183Y-74213616D01*
X143362704Y-74245410D01*
X143362700Y-74245418D01*
X143358884Y-74252361D01*
X143356912Y-74260037D01*
X143356910Y-74260045D01*
X143353845Y-74271983D01*
X143347444Y-74290680D01*
X143342547Y-74301997D01*
X143342545Y-74302002D01*
X143339398Y-74309276D01*
X143338158Y-74317101D01*
X143338156Y-74317110D01*
X143332480Y-74352945D01*
X143330074Y-74364565D01*
X143321050Y-74399710D01*
X143321048Y-74399718D01*
X143319079Y-74407391D01*
X143319079Y-74415320D01*
X143319079Y-74427645D01*
X143317528Y-74447356D01*
X143315598Y-74459535D01*
X143315597Y-74459542D01*
X143314359Y-74467364D01*
X143315104Y-74475247D01*
X143315104Y-74475255D01*
X143318520Y-74511382D01*
X143319079Y-74523240D01*
X143319079Y-76699786D01*
X143304842Y-76757966D01*
X143265349Y-76802999D01*
X143177314Y-76864640D01*
X143177304Y-76864648D01*
X143172803Y-76867800D01*
X143168913Y-76871689D01*
X143168907Y-76871695D01*
X143027173Y-77013429D01*
X143027167Y-77013435D01*
X143023278Y-77017325D01*
X143020126Y-77021826D01*
X143020118Y-77021836D01*
X142905144Y-77186037D01*
X142905138Y-77186046D01*
X142901990Y-77190543D01*
X142899669Y-77195520D01*
X142899664Y-77195529D01*
X142887707Y-77221171D01*
X142841212Y-77274188D01*
X142773513Y-77293920D01*
X142705814Y-77274188D01*
X142659319Y-77221172D01*
X142652065Y-77205617D01*
X142652064Y-77205615D01*
X142649742Y-77200635D01*
X142642676Y-77190543D01*
X142531613Y-77031928D01*
X142531610Y-77031925D01*
X142528454Y-77027417D01*
X142378929Y-76877892D01*
X142374421Y-76874736D01*
X142374417Y-76874732D01*
X142210216Y-76759758D01*
X142210212Y-76759756D01*
X142205711Y-76756604D01*
X142200732Y-76754282D01*
X142200730Y-76754281D01*
X142019045Y-76669560D01*
X142019043Y-76669559D01*
X142014063Y-76667237D01*
X142008754Y-76665814D01*
X142008753Y-76665814D01*
X141815122Y-76613931D01*
X141815123Y-76613931D01*
X141809808Y-76612507D01*
X141804332Y-76612027D01*
X141804327Y-76612027D01*
X141604628Y-76594556D01*
X141599153Y-76594077D01*
X141593678Y-76594556D01*
X141393978Y-76612027D01*
X141393971Y-76612028D01*
X141388498Y-76612507D01*
X141383184Y-76613930D01*
X141383183Y-76613931D01*
X141189552Y-76665814D01*
X141189547Y-76665815D01*
X141184243Y-76667237D01*
X141179265Y-76669557D01*
X141179260Y-76669560D01*
X140997575Y-76754281D01*
X140997567Y-76754285D01*
X140992595Y-76756604D01*
X140988098Y-76759752D01*
X140988089Y-76759758D01*
X140823888Y-76874732D01*
X140823878Y-76874740D01*
X140819377Y-76877892D01*
X140815487Y-76881781D01*
X140815481Y-76881787D01*
X140673747Y-77023521D01*
X140673741Y-77023527D01*
X140669852Y-77027417D01*
X140666700Y-77031918D01*
X140666692Y-77031928D01*
X140551718Y-77196129D01*
X140551712Y-77196138D01*
X140548564Y-77200635D01*
X140546245Y-77205607D01*
X140546241Y-77205615D01*
X140461520Y-77387300D01*
X140461517Y-77387305D01*
X140459197Y-77392283D01*
X140457775Y-77397587D01*
X140457774Y-77397592D01*
X140411418Y-77570595D01*
X140404467Y-77596538D01*
X140403988Y-77602011D01*
X140403987Y-77602018D01*
X140388786Y-77775775D01*
X140386037Y-77807193D01*
X140386516Y-77812668D01*
X140401717Y-77986424D01*
X140404467Y-78017848D01*
X140417381Y-78066044D01*
X140455625Y-78208774D01*
X140459197Y-78222103D01*
X140461519Y-78227083D01*
X140461520Y-78227085D01*
X140545958Y-78408164D01*
X140548564Y-78413751D01*
X140551716Y-78418252D01*
X140551718Y-78418256D01*
X140666692Y-78582457D01*
X140666696Y-78582461D01*
X140669852Y-78586969D01*
X140819377Y-78736494D01*
X140823885Y-78739650D01*
X140823888Y-78739653D01*
X140973676Y-78844535D01*
X140992595Y-78857782D01*
X141184243Y-78947149D01*
X141388498Y-79001879D01*
X141599153Y-79020309D01*
X141809808Y-79001879D01*
X142014063Y-78947149D01*
X142205711Y-78857782D01*
X142378929Y-78736494D01*
X142528454Y-78586969D01*
X142649742Y-78413751D01*
X142664023Y-78383124D01*
X142710515Y-78330108D01*
X142778214Y-78310373D01*
X142845914Y-78330103D01*
X142892411Y-78383119D01*
X142896699Y-78392313D01*
X142901990Y-78403659D01*
X142905142Y-78408160D01*
X142905144Y-78408164D01*
X143020118Y-78572365D01*
X143020122Y-78572369D01*
X143023278Y-78576877D01*
X143172803Y-78726402D01*
X143177311Y-78729558D01*
X143177314Y-78729561D01*
X143256217Y-78784809D01*
X143346021Y-78847690D01*
X143537669Y-78937057D01*
X143741924Y-78991787D01*
X143952579Y-79010217D01*
X144163234Y-78991787D01*
X144367489Y-78937057D01*
X144559137Y-78847690D01*
X144732355Y-78726402D01*
X144881880Y-78576877D01*
X145003168Y-78403659D01*
X145004886Y-78404862D01*
X145041354Y-78367515D01*
X145101245Y-78349300D01*
X145162509Y-78362155D01*
X145210026Y-78402905D01*
X145234348Y-78437641D01*
X145317583Y-78556514D01*
X145320743Y-78561026D01*
X145470268Y-78710551D01*
X145474776Y-78713707D01*
X145474779Y-78713710D01*
X145566261Y-78777766D01*
X145643486Y-78831839D01*
X145835134Y-78921206D01*
X146039389Y-78975936D01*
X146250044Y-78994366D01*
X146460699Y-78975936D01*
X146664954Y-78921206D01*
X146856602Y-78831839D01*
X146987762Y-78740000D01*
X159106496Y-78740000D01*
X159107186Y-78746565D01*
X159117814Y-78847690D01*
X159126458Y-78929928D01*
X159128495Y-78936200D01*
X159128497Y-78936205D01*
X159183430Y-79105271D01*
X159183433Y-79105278D01*
X159185473Y-79111556D01*
X159280960Y-79276944D01*
X159408747Y-79418866D01*
X159563248Y-79531118D01*
X159737712Y-79608794D01*
X159924513Y-79648500D01*
X160108884Y-79648500D01*
X160115487Y-79648500D01*
X160302288Y-79608794D01*
X160476752Y-79531118D01*
X160631253Y-79418866D01*
X160759040Y-79276944D01*
X160854527Y-79111556D01*
X160913542Y-78929928D01*
X160933504Y-78740000D01*
X160913542Y-78550072D01*
X160865969Y-78403659D01*
X160856569Y-78374728D01*
X160856568Y-78374726D01*
X160854527Y-78368444D01*
X160759040Y-78203056D01*
X160631253Y-78061134D01*
X160625911Y-78057253D01*
X160625908Y-78057250D01*
X160528424Y-77986424D01*
X160476752Y-77948882D01*
X160302288Y-77871206D01*
X160295835Y-77869834D01*
X160295831Y-77869833D01*
X160121943Y-77832872D01*
X160121940Y-77832871D01*
X160115487Y-77831500D01*
X159924513Y-77831500D01*
X159918060Y-77832871D01*
X159918056Y-77832872D01*
X159744168Y-77869833D01*
X159744161Y-77869835D01*
X159737712Y-77871206D01*
X159731682Y-77873890D01*
X159731681Y-77873891D01*
X159569278Y-77946197D01*
X159569275Y-77946198D01*
X159563248Y-77948882D01*
X159557907Y-77952762D01*
X159557906Y-77952763D01*
X159414091Y-78057250D01*
X159414083Y-78057256D01*
X159408747Y-78061134D01*
X159404330Y-78066039D01*
X159404325Y-78066044D01*
X159309525Y-78171331D01*
X159280960Y-78203056D01*
X159277661Y-78208769D01*
X159277658Y-78208774D01*
X159219000Y-78310373D01*
X159185473Y-78368444D01*
X159183434Y-78374718D01*
X159183430Y-78374728D01*
X159128497Y-78543794D01*
X159128495Y-78543801D01*
X159126458Y-78550072D01*
X159125768Y-78556633D01*
X159125768Y-78556635D01*
X159120401Y-78607704D01*
X159106496Y-78740000D01*
X146987762Y-78740000D01*
X147029820Y-78710551D01*
X147179345Y-78561026D01*
X147300633Y-78387808D01*
X147390000Y-78196160D01*
X147444730Y-77991905D01*
X147463160Y-77781250D01*
X147444730Y-77570595D01*
X147390000Y-77366340D01*
X147300633Y-77174692D01*
X147297478Y-77170186D01*
X147182504Y-77005985D01*
X147182501Y-77005982D01*
X147179345Y-77001474D01*
X147029820Y-76851949D01*
X147025312Y-76848793D01*
X147025308Y-76848789D01*
X146861107Y-76733815D01*
X146861103Y-76733813D01*
X146856602Y-76730661D01*
X146851623Y-76728339D01*
X146851621Y-76728338D01*
X146669936Y-76643617D01*
X146669934Y-76643616D01*
X146664954Y-76641294D01*
X146659645Y-76639871D01*
X146659644Y-76639871D01*
X146540098Y-76607839D01*
X146460699Y-76586564D01*
X146455223Y-76586084D01*
X146455218Y-76586084D01*
X146255519Y-76568613D01*
X146250044Y-76568134D01*
X146244569Y-76568613D01*
X146044869Y-76586084D01*
X146044862Y-76586085D01*
X146039389Y-76586564D01*
X146034075Y-76587987D01*
X146034074Y-76587988D01*
X145840443Y-76639871D01*
X145840438Y-76639872D01*
X145835134Y-76641294D01*
X145830156Y-76643614D01*
X145830151Y-76643617D01*
X145648466Y-76728338D01*
X145648458Y-76728342D01*
X145643486Y-76730661D01*
X145638989Y-76733809D01*
X145638980Y-76733815D01*
X145474779Y-76848789D01*
X145474769Y-76848797D01*
X145470268Y-76851949D01*
X145466378Y-76855838D01*
X145466372Y-76855844D01*
X145324638Y-76997578D01*
X145324632Y-76997584D01*
X145320743Y-77001474D01*
X145317591Y-77005975D01*
X145317583Y-77005985D01*
X145199455Y-77174692D01*
X145197763Y-77173507D01*
X145161140Y-77210912D01*
X145101278Y-77229054D01*
X145040068Y-77216173D01*
X144992595Y-77175443D01*
X144885039Y-77021836D01*
X144885036Y-77021833D01*
X144881880Y-77017325D01*
X144732355Y-76867800D01*
X144727847Y-76864644D01*
X144727843Y-76864640D01*
X144639809Y-76802999D01*
X144600316Y-76757966D01*
X144586079Y-76699786D01*
X144586079Y-74802016D01*
X144595670Y-74753798D01*
X144622984Y-74712920D01*
X144920584Y-74415320D01*
X145256135Y-74079770D01*
X145256138Y-74079765D01*
X146220501Y-73115402D01*
X146261376Y-73088091D01*
X146309594Y-73078500D01*
X146388446Y-73078500D01*
X146451446Y-73095381D01*
X146497565Y-73141500D01*
X146514446Y-73204500D01*
X146497564Y-73267500D01*
X146485473Y-73288444D01*
X146483434Y-73294718D01*
X146483430Y-73294728D01*
X146428497Y-73463794D01*
X146428495Y-73463801D01*
X146426458Y-73470072D01*
X146425768Y-73476633D01*
X146425768Y-73476635D01*
X146411879Y-73608781D01*
X146406496Y-73660000D01*
X146426458Y-73849928D01*
X146428495Y-73856200D01*
X146428497Y-73856205D01*
X146483430Y-74025271D01*
X146483433Y-74025278D01*
X146485473Y-74031556D01*
X146580960Y-74196944D01*
X146708747Y-74338866D01*
X146714089Y-74342747D01*
X146714091Y-74342749D01*
X146728125Y-74352945D01*
X146863248Y-74451118D01*
X147037712Y-74528794D01*
X147224513Y-74568500D01*
X147408884Y-74568500D01*
X147415487Y-74568500D01*
X147602288Y-74528794D01*
X147776752Y-74451118D01*
X147931253Y-74338866D01*
X148059040Y-74196944D01*
X148154527Y-74031556D01*
X148213542Y-73849928D01*
X148230907Y-73684705D01*
X148242491Y-73643632D01*
X148267123Y-73608781D01*
X148310501Y-73565404D01*
X148351378Y-73538091D01*
X148399595Y-73528500D01*
X148821186Y-73528500D01*
X148884186Y-73545381D01*
X148930305Y-73591500D01*
X148947105Y-73654199D01*
X148946496Y-73660000D01*
X148966458Y-73849928D01*
X148968495Y-73856200D01*
X148968497Y-73856205D01*
X149023430Y-74025271D01*
X149023433Y-74025278D01*
X149025473Y-74031556D01*
X149120960Y-74196944D01*
X149248747Y-74338866D01*
X149254089Y-74342747D01*
X149254091Y-74342749D01*
X149268125Y-74352945D01*
X149403248Y-74451118D01*
X149577712Y-74528794D01*
X149593207Y-74532087D01*
X149651324Y-74561696D01*
X149686848Y-74616397D01*
X149732227Y-74756056D01*
X149827714Y-74921444D01*
X149955501Y-75063366D01*
X150110002Y-75175618D01*
X150284466Y-75253294D01*
X150471267Y-75293000D01*
X150655638Y-75293000D01*
X150662241Y-75293000D01*
X150849042Y-75253294D01*
X151023506Y-75175618D01*
X151178007Y-75063366D01*
X151286430Y-74942949D01*
X151333675Y-74910113D01*
X151390600Y-74901706D01*
X151445327Y-74919485D01*
X151486442Y-74959743D01*
X151505370Y-75014083D01*
X151505767Y-75017861D01*
X151505768Y-75017868D01*
X151506458Y-75024428D01*
X151508495Y-75030700D01*
X151508497Y-75030705D01*
X151563430Y-75199771D01*
X151563433Y-75199778D01*
X151565473Y-75206056D01*
X151660960Y-75371444D01*
X151788747Y-75513366D01*
X151794089Y-75517247D01*
X151794091Y-75517249D01*
X151811084Y-75529595D01*
X151943248Y-75625618D01*
X152117712Y-75703294D01*
X152304513Y-75743000D01*
X152488884Y-75743000D01*
X152495487Y-75743000D01*
X152682288Y-75703294D01*
X152856752Y-75625618D01*
X153011253Y-75513366D01*
X153139040Y-75371444D01*
X153205403Y-75256499D01*
X153251522Y-75210381D01*
X153314522Y-75193500D01*
X159471908Y-75193500D01*
X159532609Y-75209085D01*
X159578293Y-75251986D01*
X159597659Y-75311588D01*
X159585916Y-75373148D01*
X159545969Y-75421436D01*
X159414091Y-75517250D01*
X159414087Y-75517254D01*
X159408747Y-75521134D01*
X159404330Y-75526039D01*
X159404325Y-75526044D01*
X159310303Y-75630467D01*
X159280960Y-75663056D01*
X159277661Y-75668769D01*
X159277658Y-75668774D01*
X159197426Y-75807741D01*
X159185473Y-75828444D01*
X159183434Y-75834718D01*
X159183430Y-75834728D01*
X159128497Y-76003794D01*
X159128495Y-76003801D01*
X159126458Y-76010072D01*
X159125768Y-76016633D01*
X159125768Y-76016635D01*
X159110306Y-76163753D01*
X159106496Y-76200000D01*
X159107186Y-76206565D01*
X159117000Y-76299945D01*
X159126458Y-76389928D01*
X159128495Y-76396200D01*
X159128497Y-76396205D01*
X159183430Y-76565271D01*
X159183433Y-76565278D01*
X159185473Y-76571556D01*
X159227078Y-76643617D01*
X159277332Y-76730661D01*
X159280960Y-76736944D01*
X159408747Y-76878866D01*
X159414089Y-76882747D01*
X159414091Y-76882749D01*
X159457298Y-76914141D01*
X159563248Y-76991118D01*
X159737712Y-77068794D01*
X159924513Y-77108500D01*
X160108884Y-77108500D01*
X160115487Y-77108500D01*
X160302288Y-77068794D01*
X160476752Y-76991118D01*
X160631253Y-76878866D01*
X160635669Y-76873961D01*
X160640580Y-76869540D01*
X160641275Y-76870312D01*
X160676953Y-76844392D01*
X160728200Y-76833500D01*
X164785406Y-76833500D01*
X164833624Y-76843091D01*
X164874501Y-76870405D01*
X167135458Y-79131362D01*
X168819595Y-80815500D01*
X168846909Y-80856377D01*
X168856500Y-80904595D01*
X168856500Y-84799079D01*
X168838741Y-84863577D01*
X168790469Y-84909893D01*
X168749004Y-84932331D01*
X168748991Y-84932339D01*
X168744424Y-84934811D01*
X168740313Y-84938010D01*
X168740311Y-84938012D01*
X168570878Y-85069888D01*
X168570872Y-85069893D01*
X168566760Y-85073094D01*
X168563237Y-85076919D01*
X168563227Y-85076930D01*
X168417806Y-85234899D01*
X168417802Y-85234902D01*
X168414278Y-85238732D01*
X168411430Y-85243090D01*
X168411427Y-85243095D01*
X168325483Y-85374643D01*
X168279969Y-85416542D01*
X168220000Y-85431728D01*
X168160031Y-85416542D01*
X168114517Y-85374643D01*
X168028572Y-85243095D01*
X168025722Y-85238732D01*
X167944125Y-85150095D01*
X167876772Y-85076930D01*
X167876767Y-85076925D01*
X167873240Y-85073094D01*
X167695576Y-84934811D01*
X167690997Y-84932333D01*
X167690994Y-84932331D01*
X167502159Y-84830139D01*
X167502156Y-84830137D01*
X167497574Y-84827658D01*
X167492650Y-84825967D01*
X167492642Y-84825964D01*
X167289565Y-84756248D01*
X167289559Y-84756246D01*
X167284635Y-84754556D01*
X167279498Y-84753698D01*
X167279495Y-84753698D01*
X167067706Y-84718357D01*
X167067703Y-84718356D01*
X167062569Y-84717500D01*
X166837431Y-84717500D01*
X166832297Y-84718356D01*
X166832293Y-84718357D01*
X166620504Y-84753698D01*
X166620498Y-84753699D01*
X166615365Y-84754556D01*
X166610443Y-84756245D01*
X166610434Y-84756248D01*
X166407357Y-84825964D01*
X166407344Y-84825969D01*
X166402426Y-84827658D01*
X166397847Y-84830135D01*
X166397840Y-84830139D01*
X166209005Y-84932331D01*
X166208997Y-84932336D01*
X166204424Y-84934811D01*
X166200313Y-84938010D01*
X166200311Y-84938012D01*
X166030878Y-85069888D01*
X166030872Y-85069893D01*
X166026760Y-85073094D01*
X166023237Y-85076919D01*
X166023227Y-85076930D01*
X165877806Y-85234899D01*
X165877802Y-85234902D01*
X165874278Y-85238732D01*
X165871430Y-85243090D01*
X165871427Y-85243095D01*
X165785483Y-85374643D01*
X165739969Y-85416542D01*
X165680000Y-85431728D01*
X165620031Y-85416542D01*
X165574517Y-85374643D01*
X165488572Y-85243095D01*
X165485722Y-85238732D01*
X165404125Y-85150095D01*
X165336772Y-85076930D01*
X165336767Y-85076925D01*
X165333240Y-85073094D01*
X165155576Y-84934811D01*
X165150997Y-84932333D01*
X165150994Y-84932331D01*
X164962159Y-84830139D01*
X164962156Y-84830137D01*
X164957574Y-84827658D01*
X164952650Y-84825967D01*
X164952642Y-84825964D01*
X164749565Y-84756248D01*
X164749559Y-84756246D01*
X164744635Y-84754556D01*
X164739498Y-84753698D01*
X164739495Y-84753698D01*
X164527706Y-84718357D01*
X164527703Y-84718356D01*
X164522569Y-84717500D01*
X164297431Y-84717500D01*
X164292297Y-84718356D01*
X164292293Y-84718357D01*
X164080504Y-84753698D01*
X164080498Y-84753699D01*
X164075365Y-84754556D01*
X164070443Y-84756245D01*
X164070434Y-84756248D01*
X163867357Y-84825964D01*
X163867344Y-84825969D01*
X163862426Y-84827658D01*
X163857847Y-84830135D01*
X163857840Y-84830139D01*
X163669005Y-84932331D01*
X163668997Y-84932336D01*
X163664424Y-84934811D01*
X163660313Y-84938010D01*
X163660311Y-84938012D01*
X163490878Y-85069888D01*
X163490872Y-85069893D01*
X163486760Y-85073094D01*
X163483237Y-85076919D01*
X163483227Y-85076930D01*
X163337806Y-85234899D01*
X163337802Y-85234902D01*
X163334278Y-85238732D01*
X163331430Y-85243090D01*
X163331427Y-85243095D01*
X163245483Y-85374643D01*
X163199969Y-85416542D01*
X163140000Y-85431728D01*
X163080031Y-85416542D01*
X163034517Y-85374643D01*
X162948572Y-85243095D01*
X162945722Y-85238732D01*
X162864125Y-85150095D01*
X162796772Y-85076930D01*
X162796767Y-85076925D01*
X162793240Y-85073094D01*
X162615576Y-84934811D01*
X162610997Y-84932333D01*
X162610994Y-84932331D01*
X162422159Y-84830139D01*
X162422156Y-84830137D01*
X162417574Y-84827658D01*
X162412650Y-84825967D01*
X162412642Y-84825964D01*
X162209565Y-84756248D01*
X162209559Y-84756246D01*
X162204635Y-84754556D01*
X162199498Y-84753698D01*
X162199495Y-84753698D01*
X161987706Y-84718357D01*
X161987703Y-84718356D01*
X161982569Y-84717500D01*
X161757431Y-84717500D01*
X161752297Y-84718356D01*
X161752293Y-84718357D01*
X161540504Y-84753698D01*
X161540498Y-84753699D01*
X161535365Y-84754556D01*
X161530443Y-84756245D01*
X161530434Y-84756248D01*
X161327357Y-84825964D01*
X161327344Y-84825969D01*
X161322426Y-84827658D01*
X161317847Y-84830135D01*
X161317840Y-84830139D01*
X161129005Y-84932331D01*
X161128997Y-84932336D01*
X161124424Y-84934811D01*
X161120313Y-84938010D01*
X161120311Y-84938012D01*
X160950878Y-85069888D01*
X160950872Y-85069893D01*
X160946760Y-85073094D01*
X160943237Y-85076919D01*
X160943227Y-85076930D01*
X160797806Y-85234899D01*
X160797802Y-85234902D01*
X160794278Y-85238732D01*
X160791430Y-85243090D01*
X160791427Y-85243095D01*
X160705483Y-85374643D01*
X160659969Y-85416542D01*
X160600000Y-85431728D01*
X160540031Y-85416542D01*
X160494517Y-85374643D01*
X160408572Y-85243095D01*
X160405722Y-85238732D01*
X160324125Y-85150095D01*
X160256772Y-85076930D01*
X160256767Y-85076925D01*
X160253240Y-85073094D01*
X160075576Y-84934811D01*
X160070997Y-84932333D01*
X160070994Y-84932331D01*
X159882159Y-84830139D01*
X159882156Y-84830137D01*
X159877574Y-84827658D01*
X159872650Y-84825967D01*
X159872642Y-84825964D01*
X159669565Y-84756248D01*
X159669559Y-84756246D01*
X159664635Y-84754556D01*
X159659498Y-84753698D01*
X159659495Y-84753698D01*
X159447706Y-84718357D01*
X159447703Y-84718356D01*
X159442569Y-84717500D01*
X159217431Y-84717500D01*
X159212297Y-84718356D01*
X159212293Y-84718357D01*
X159000504Y-84753698D01*
X159000498Y-84753699D01*
X158995365Y-84754556D01*
X158990443Y-84756245D01*
X158990434Y-84756248D01*
X158787357Y-84825964D01*
X158787344Y-84825969D01*
X158782426Y-84827658D01*
X158777847Y-84830135D01*
X158777840Y-84830139D01*
X158589005Y-84932331D01*
X158588997Y-84932336D01*
X158584424Y-84934811D01*
X158580313Y-84938010D01*
X158580311Y-84938012D01*
X158410878Y-85069888D01*
X158410872Y-85069893D01*
X158406760Y-85073094D01*
X158403237Y-85076919D01*
X158403227Y-85076930D01*
X158257806Y-85234899D01*
X158257802Y-85234902D01*
X158254278Y-85238732D01*
X158251430Y-85243090D01*
X158251427Y-85243095D01*
X158165483Y-85374643D01*
X158119969Y-85416542D01*
X158060000Y-85431728D01*
X158000031Y-85416542D01*
X157954517Y-85374643D01*
X157868572Y-85243095D01*
X157865722Y-85238732D01*
X157784125Y-85150095D01*
X157716772Y-85076930D01*
X157716767Y-85076925D01*
X157713240Y-85073094D01*
X157535576Y-84934811D01*
X157530997Y-84932333D01*
X157530994Y-84932331D01*
X157342159Y-84830139D01*
X157342156Y-84830137D01*
X157337574Y-84827658D01*
X157332650Y-84825967D01*
X157332642Y-84825964D01*
X157129565Y-84756248D01*
X157129559Y-84756246D01*
X157124635Y-84754556D01*
X157119498Y-84753698D01*
X157119495Y-84753698D01*
X156907706Y-84718357D01*
X156907703Y-84718356D01*
X156902569Y-84717500D01*
X156677431Y-84717500D01*
X156672297Y-84718356D01*
X156672293Y-84718357D01*
X156460504Y-84753698D01*
X156460498Y-84753699D01*
X156455365Y-84754556D01*
X156450443Y-84756245D01*
X156450434Y-84756248D01*
X156247357Y-84825964D01*
X156247344Y-84825969D01*
X156242426Y-84827658D01*
X156237847Y-84830135D01*
X156237840Y-84830139D01*
X156049005Y-84932331D01*
X156048997Y-84932336D01*
X156044424Y-84934811D01*
X156040313Y-84938010D01*
X156040311Y-84938012D01*
X155870878Y-85069888D01*
X155870872Y-85069893D01*
X155866760Y-85073094D01*
X155863237Y-85076920D01*
X155863226Y-85076931D01*
X155805754Y-85139362D01*
X155752281Y-85173761D01*
X155688820Y-85177671D01*
X155631530Y-85150095D01*
X155594998Y-85098056D01*
X155554037Y-84988236D01*
X155554036Y-84988235D01*
X155550889Y-84979796D01*
X155463261Y-84862739D01*
X155419713Y-84830139D01*
X155353417Y-84780510D01*
X155353414Y-84780508D01*
X155346204Y-84775111D01*
X155337766Y-84771964D01*
X155337763Y-84771962D01*
X155216580Y-84726763D01*
X155216578Y-84726762D01*
X155209201Y-84724011D01*
X155201373Y-84723169D01*
X155201367Y-84723168D01*
X155151988Y-84717860D01*
X155151985Y-84717859D01*
X155148638Y-84717500D01*
X153351362Y-84717500D01*
X153348015Y-84717859D01*
X153348011Y-84717860D01*
X153298632Y-84723168D01*
X153298625Y-84723169D01*
X153290799Y-84724011D01*
X153283423Y-84726761D01*
X153283419Y-84726763D01*
X153162236Y-84771962D01*
X153162230Y-84771965D01*
X153153796Y-84775111D01*
X153146588Y-84780506D01*
X153146582Y-84780510D01*
X153043950Y-84857340D01*
X153043946Y-84857343D01*
X153036739Y-84862739D01*
X153031343Y-84869946D01*
X153031340Y-84869950D01*
X152954510Y-84972582D01*
X152954506Y-84972588D01*
X152949111Y-84979796D01*
X152945965Y-84988230D01*
X152945962Y-84988236D01*
X152900763Y-85109419D01*
X152900761Y-85109423D01*
X152898011Y-85116799D01*
X152897169Y-85124625D01*
X152897168Y-85124632D01*
X152894431Y-85150095D01*
X152891500Y-85177362D01*
X152891500Y-86974638D01*
X152891859Y-86977985D01*
X152891860Y-86977988D01*
X152897168Y-87027367D01*
X152897169Y-87027373D01*
X152898011Y-87035201D01*
X152900762Y-87042578D01*
X152900763Y-87042580D01*
X152945962Y-87163763D01*
X152945964Y-87163766D01*
X152949111Y-87172204D01*
X152954508Y-87179414D01*
X152954510Y-87179417D01*
X152980389Y-87213987D01*
X153036739Y-87289261D01*
X153043950Y-87294659D01*
X153145787Y-87370894D01*
X153153796Y-87376889D01*
X153290799Y-87427989D01*
X153351362Y-87434500D01*
X155145269Y-87434500D01*
X155148638Y-87434500D01*
X155209201Y-87427989D01*
X155346204Y-87376889D01*
X155463261Y-87289261D01*
X155550889Y-87172204D01*
X155594998Y-87053943D01*
X155631530Y-87001904D01*
X155688820Y-86974328D01*
X155752282Y-86978238D01*
X155805755Y-87012638D01*
X155826526Y-87035201D01*
X155866760Y-87078906D01*
X156044424Y-87217189D01*
X156242426Y-87324342D01*
X156247355Y-87326034D01*
X156247357Y-87326035D01*
X156348895Y-87360893D01*
X156455365Y-87397444D01*
X156677431Y-87434500D01*
X156897358Y-87434500D01*
X156902569Y-87434500D01*
X157124635Y-87397444D01*
X157337574Y-87324342D01*
X157535576Y-87217189D01*
X157713240Y-87078906D01*
X157865722Y-86913268D01*
X157954518Y-86777354D01*
X158000030Y-86735457D01*
X158060000Y-86720271D01*
X158119970Y-86735457D01*
X158165481Y-86777354D01*
X158254278Y-86913268D01*
X158257806Y-86917100D01*
X158403227Y-87075069D01*
X158403231Y-87075073D01*
X158406760Y-87078906D01*
X158584424Y-87217189D01*
X158782426Y-87324342D01*
X158787355Y-87326034D01*
X158787357Y-87326035D01*
X158888895Y-87360893D01*
X158995365Y-87397444D01*
X159217431Y-87434500D01*
X159437358Y-87434500D01*
X159442569Y-87434500D01*
X159664635Y-87397444D01*
X159877574Y-87324342D01*
X160075576Y-87217189D01*
X160253240Y-87078906D01*
X160405722Y-86913268D01*
X160494518Y-86777354D01*
X160540030Y-86735457D01*
X160600000Y-86720271D01*
X160659970Y-86735457D01*
X160705481Y-86777354D01*
X160794278Y-86913268D01*
X160797806Y-86917100D01*
X160943227Y-87075069D01*
X160943231Y-87075073D01*
X160946760Y-87078906D01*
X161124424Y-87217189D01*
X161322426Y-87324342D01*
X161327355Y-87326034D01*
X161327357Y-87326035D01*
X161428895Y-87360893D01*
X161535365Y-87397444D01*
X161757431Y-87434500D01*
X161977358Y-87434500D01*
X161982569Y-87434500D01*
X162204635Y-87397444D01*
X162417574Y-87324342D01*
X162615576Y-87217189D01*
X162793240Y-87078906D01*
X162945722Y-86913268D01*
X163034518Y-86777354D01*
X163080030Y-86735457D01*
X163140000Y-86720271D01*
X163199970Y-86735457D01*
X163245481Y-86777354D01*
X163334278Y-86913268D01*
X163337806Y-86917100D01*
X163483227Y-87075069D01*
X163483231Y-87075073D01*
X163486760Y-87078906D01*
X163664424Y-87217189D01*
X163862426Y-87324342D01*
X163867355Y-87326034D01*
X163867357Y-87326035D01*
X163968895Y-87360893D01*
X164075365Y-87397444D01*
X164297431Y-87434500D01*
X164517358Y-87434500D01*
X164522569Y-87434500D01*
X164744635Y-87397444D01*
X164957574Y-87324342D01*
X165155576Y-87217189D01*
X165333240Y-87078906D01*
X165485722Y-86913268D01*
X165574518Y-86777354D01*
X165620030Y-86735457D01*
X165680000Y-86720271D01*
X165739970Y-86735457D01*
X165785481Y-86777354D01*
X165874278Y-86913268D01*
X165877806Y-86917100D01*
X166023227Y-87075069D01*
X166023231Y-87075073D01*
X166026760Y-87078906D01*
X166204424Y-87217189D01*
X166402426Y-87324342D01*
X166407355Y-87326034D01*
X166407357Y-87326035D01*
X166508895Y-87360893D01*
X166615365Y-87397444D01*
X166837431Y-87434500D01*
X167057358Y-87434500D01*
X167062569Y-87434500D01*
X167284635Y-87397444D01*
X167497574Y-87324342D01*
X167695576Y-87217189D01*
X167873240Y-87078906D01*
X168025722Y-86913268D01*
X168114518Y-86777354D01*
X168160030Y-86735457D01*
X168220000Y-86720271D01*
X168279970Y-86735457D01*
X168325481Y-86777354D01*
X168414278Y-86913268D01*
X168417806Y-86917100D01*
X168563227Y-87075069D01*
X168563231Y-87075073D01*
X168566760Y-87078906D01*
X168744424Y-87217189D01*
X168942426Y-87324342D01*
X168947355Y-87326034D01*
X168947357Y-87326035D01*
X169048895Y-87360893D01*
X169155365Y-87397444D01*
X169377431Y-87434500D01*
X169597358Y-87434500D01*
X169602569Y-87434500D01*
X169824635Y-87397444D01*
X170037574Y-87324342D01*
X170235576Y-87217189D01*
X170413240Y-87078906D01*
X170565722Y-86913268D01*
X170654518Y-86777354D01*
X170700030Y-86735457D01*
X170760000Y-86720271D01*
X170819970Y-86735457D01*
X170865481Y-86777354D01*
X170954278Y-86913268D01*
X170957806Y-86917100D01*
X171103227Y-87075069D01*
X171103231Y-87075073D01*
X171106760Y-87078906D01*
X171284424Y-87217189D01*
X171482426Y-87324342D01*
X171487355Y-87326034D01*
X171487357Y-87326035D01*
X171588895Y-87360893D01*
X171695365Y-87397444D01*
X171917431Y-87434500D01*
X172137358Y-87434500D01*
X172142569Y-87434500D01*
X172364635Y-87397444D01*
X172577574Y-87324342D01*
X172775576Y-87217189D01*
X172953240Y-87078906D01*
X173105722Y-86913268D01*
X173194518Y-86777354D01*
X173240030Y-86735457D01*
X173300000Y-86720271D01*
X173359970Y-86735457D01*
X173405481Y-86777354D01*
X173494278Y-86913268D01*
X173497806Y-86917100D01*
X173643227Y-87075069D01*
X173643231Y-87075073D01*
X173646760Y-87078906D01*
X173824424Y-87217189D01*
X174022426Y-87324342D01*
X174027355Y-87326034D01*
X174027357Y-87326035D01*
X174128895Y-87360893D01*
X174235365Y-87397444D01*
X174457431Y-87434500D01*
X174677358Y-87434500D01*
X174682569Y-87434500D01*
X174904635Y-87397444D01*
X175117574Y-87324342D01*
X175315576Y-87217189D01*
X175493240Y-87078906D01*
X175645722Y-86913268D01*
X175734518Y-86777354D01*
X175780030Y-86735457D01*
X175840000Y-86720271D01*
X175899970Y-86735457D01*
X175945481Y-86777354D01*
X176034278Y-86913268D01*
X176037806Y-86917100D01*
X176183227Y-87075069D01*
X176183231Y-87075073D01*
X176186760Y-87078906D01*
X176364424Y-87217189D01*
X176562426Y-87324342D01*
X176567355Y-87326034D01*
X176567357Y-87326035D01*
X176668895Y-87360893D01*
X176775365Y-87397444D01*
X176997431Y-87434500D01*
X177217358Y-87434500D01*
X177222569Y-87434500D01*
X177444635Y-87397444D01*
X177657574Y-87324342D01*
X177855576Y-87217189D01*
X178033240Y-87078906D01*
X178185722Y-86913268D01*
X178274518Y-86777354D01*
X178320030Y-86735457D01*
X178380000Y-86720271D01*
X178439970Y-86735457D01*
X178485481Y-86777354D01*
X178574278Y-86913268D01*
X178577806Y-86917100D01*
X178723227Y-87075069D01*
X178723231Y-87075073D01*
X178726760Y-87078906D01*
X178904424Y-87217189D01*
X179102426Y-87324342D01*
X179107355Y-87326034D01*
X179107357Y-87326035D01*
X179208895Y-87360893D01*
X179315365Y-87397444D01*
X179537431Y-87434500D01*
X179757358Y-87434500D01*
X179762569Y-87434500D01*
X179984635Y-87397444D01*
X180197574Y-87324342D01*
X180395576Y-87217189D01*
X180573240Y-87078906D01*
X180725722Y-86913268D01*
X180814518Y-86777354D01*
X180860030Y-86735457D01*
X180920000Y-86720271D01*
X180979970Y-86735457D01*
X181025481Y-86777354D01*
X181114278Y-86913268D01*
X181117806Y-86917100D01*
X181263227Y-87075069D01*
X181263231Y-87075073D01*
X181266760Y-87078906D01*
X181444424Y-87217189D01*
X181642426Y-87324342D01*
X181647355Y-87326034D01*
X181647357Y-87326035D01*
X181748895Y-87360893D01*
X181855365Y-87397444D01*
X182077431Y-87434500D01*
X182297358Y-87434500D01*
X182302569Y-87434500D01*
X182524635Y-87397444D01*
X182737574Y-87324342D01*
X182935576Y-87217189D01*
X183113240Y-87078906D01*
X183265722Y-86913268D01*
X183354518Y-86777354D01*
X183400030Y-86735457D01*
X183460000Y-86720271D01*
X183519970Y-86735457D01*
X183565481Y-86777354D01*
X183654278Y-86913268D01*
X183657806Y-86917100D01*
X183803227Y-87075069D01*
X183803231Y-87075073D01*
X183806760Y-87078906D01*
X183984424Y-87217189D01*
X184182426Y-87324342D01*
X184187355Y-87326034D01*
X184187357Y-87326035D01*
X184288895Y-87360893D01*
X184395365Y-87397444D01*
X184617431Y-87434500D01*
X184837358Y-87434500D01*
X184842569Y-87434500D01*
X185064635Y-87397444D01*
X185277574Y-87324342D01*
X185475576Y-87217189D01*
X185653240Y-87078906D01*
X185805722Y-86913268D01*
X185894518Y-86777354D01*
X185940030Y-86735457D01*
X186000000Y-86720271D01*
X186059970Y-86735457D01*
X186105481Y-86777354D01*
X186194278Y-86913268D01*
X186197806Y-86917100D01*
X186343227Y-87075069D01*
X186343231Y-87075073D01*
X186346760Y-87078906D01*
X186524424Y-87217189D01*
X186722426Y-87324342D01*
X186727355Y-87326034D01*
X186727357Y-87326035D01*
X186828895Y-87360893D01*
X186935365Y-87397444D01*
X187157431Y-87434500D01*
X187377358Y-87434500D01*
X187382569Y-87434500D01*
X187604635Y-87397444D01*
X187817574Y-87324342D01*
X188015576Y-87217189D01*
X188193240Y-87078906D01*
X188345722Y-86913268D01*
X188434518Y-86777354D01*
X188480030Y-86735457D01*
X188540000Y-86720271D01*
X188599970Y-86735457D01*
X188645481Y-86777354D01*
X188734278Y-86913268D01*
X188737806Y-86917100D01*
X188883227Y-87075069D01*
X188883231Y-87075073D01*
X188886760Y-87078906D01*
X189064424Y-87217189D01*
X189262426Y-87324342D01*
X189267355Y-87326034D01*
X189267357Y-87326035D01*
X189368895Y-87360893D01*
X189475365Y-87397444D01*
X189697431Y-87434500D01*
X189917358Y-87434500D01*
X189922569Y-87434500D01*
X190144635Y-87397444D01*
X190357574Y-87324342D01*
X190555576Y-87217189D01*
X190733240Y-87078906D01*
X190885722Y-86913268D01*
X190974518Y-86777354D01*
X191020030Y-86735457D01*
X191080000Y-86720271D01*
X191139970Y-86735457D01*
X191185481Y-86777354D01*
X191274278Y-86913268D01*
X191277806Y-86917100D01*
X191423227Y-87075069D01*
X191423231Y-87075073D01*
X191426760Y-87078906D01*
X191604424Y-87217189D01*
X191802426Y-87324342D01*
X191807355Y-87326034D01*
X191807357Y-87326035D01*
X191908895Y-87360893D01*
X192015365Y-87397444D01*
X192237431Y-87434500D01*
X192457358Y-87434500D01*
X192462569Y-87434500D01*
X192684635Y-87397444D01*
X192897574Y-87324342D01*
X193095576Y-87217189D01*
X193273240Y-87078906D01*
X193425722Y-86913268D01*
X193514518Y-86777354D01*
X193560030Y-86735457D01*
X193620000Y-86720271D01*
X193679970Y-86735457D01*
X193725481Y-86777354D01*
X193814278Y-86913268D01*
X193817806Y-86917100D01*
X193963227Y-87075069D01*
X193963231Y-87075073D01*
X193966760Y-87078906D01*
X194144424Y-87217189D01*
X194342426Y-87324342D01*
X194347355Y-87326034D01*
X194347357Y-87326035D01*
X194448895Y-87360893D01*
X194555365Y-87397444D01*
X194777431Y-87434500D01*
X194997358Y-87434500D01*
X195002569Y-87434500D01*
X195224635Y-87397444D01*
X195437574Y-87324342D01*
X195635576Y-87217189D01*
X195813240Y-87078906D01*
X195965722Y-86913268D01*
X196088860Y-86724791D01*
X196179296Y-86518616D01*
X196234564Y-86300368D01*
X196253156Y-86076000D01*
X196234564Y-85851632D01*
X196179296Y-85633384D01*
X196088860Y-85427209D01*
X195965722Y-85238732D01*
X195884125Y-85150095D01*
X195816772Y-85076930D01*
X195816767Y-85076925D01*
X195813240Y-85073094D01*
X195635576Y-84934811D01*
X195630997Y-84932333D01*
X195630994Y-84932331D01*
X195442159Y-84830139D01*
X195442156Y-84830137D01*
X195437574Y-84827658D01*
X195432650Y-84825967D01*
X195432642Y-84825964D01*
X195229565Y-84756248D01*
X195229559Y-84756246D01*
X195224635Y-84754556D01*
X195219498Y-84753698D01*
X195219495Y-84753698D01*
X195007706Y-84718357D01*
X195007703Y-84718356D01*
X195002569Y-84717500D01*
X194777431Y-84717500D01*
X194772297Y-84718356D01*
X194772293Y-84718357D01*
X194560504Y-84753698D01*
X194560498Y-84753699D01*
X194555365Y-84754556D01*
X194550443Y-84756245D01*
X194550434Y-84756248D01*
X194347357Y-84825964D01*
X194347344Y-84825969D01*
X194342426Y-84827658D01*
X194337847Y-84830135D01*
X194337840Y-84830139D01*
X194149005Y-84932331D01*
X194148997Y-84932336D01*
X194144424Y-84934811D01*
X194140313Y-84938010D01*
X194140311Y-84938012D01*
X193970878Y-85069888D01*
X193970872Y-85069893D01*
X193966760Y-85073094D01*
X193963237Y-85076919D01*
X193963227Y-85076930D01*
X193817806Y-85234899D01*
X193817802Y-85234902D01*
X193814278Y-85238732D01*
X193811430Y-85243090D01*
X193811427Y-85243095D01*
X193725483Y-85374643D01*
X193679969Y-85416542D01*
X193620000Y-85431728D01*
X193560031Y-85416542D01*
X193514517Y-85374643D01*
X193428572Y-85243095D01*
X193425722Y-85238732D01*
X193344125Y-85150095D01*
X193276772Y-85076930D01*
X193276767Y-85076925D01*
X193273240Y-85073094D01*
X193095576Y-84934811D01*
X193090997Y-84932333D01*
X193090994Y-84932331D01*
X192902159Y-84830139D01*
X192902156Y-84830137D01*
X192897574Y-84827658D01*
X192892650Y-84825967D01*
X192892642Y-84825964D01*
X192689565Y-84756248D01*
X192689559Y-84756246D01*
X192684635Y-84754556D01*
X192679498Y-84753698D01*
X192679495Y-84753698D01*
X192467706Y-84718357D01*
X192467703Y-84718356D01*
X192462569Y-84717500D01*
X192237431Y-84717500D01*
X192232297Y-84718356D01*
X192232293Y-84718357D01*
X192020504Y-84753698D01*
X192020498Y-84753699D01*
X192015365Y-84754556D01*
X192010443Y-84756245D01*
X192010434Y-84756248D01*
X191807357Y-84825964D01*
X191807344Y-84825969D01*
X191802426Y-84827658D01*
X191797847Y-84830135D01*
X191797840Y-84830139D01*
X191609005Y-84932331D01*
X191608997Y-84932336D01*
X191604424Y-84934811D01*
X191600313Y-84938010D01*
X191600311Y-84938012D01*
X191430878Y-85069888D01*
X191430872Y-85069893D01*
X191426760Y-85073094D01*
X191423237Y-85076919D01*
X191423227Y-85076930D01*
X191277806Y-85234899D01*
X191277802Y-85234902D01*
X191274278Y-85238732D01*
X191271430Y-85243090D01*
X191271427Y-85243095D01*
X191185483Y-85374643D01*
X191139969Y-85416542D01*
X191080000Y-85431728D01*
X191020031Y-85416542D01*
X190974517Y-85374643D01*
X190888572Y-85243095D01*
X190885722Y-85238732D01*
X190804125Y-85150095D01*
X190736772Y-85076930D01*
X190736767Y-85076925D01*
X190733240Y-85073094D01*
X190555576Y-84934811D01*
X190550997Y-84932333D01*
X190550994Y-84932331D01*
X190362159Y-84830139D01*
X190362156Y-84830137D01*
X190357574Y-84827658D01*
X190352650Y-84825967D01*
X190352642Y-84825964D01*
X190149565Y-84756248D01*
X190149559Y-84756246D01*
X190144635Y-84754556D01*
X190139498Y-84753698D01*
X190139495Y-84753698D01*
X189927706Y-84718357D01*
X189927703Y-84718356D01*
X189922569Y-84717500D01*
X189697431Y-84717500D01*
X189692297Y-84718356D01*
X189692293Y-84718357D01*
X189480504Y-84753698D01*
X189480498Y-84753699D01*
X189475365Y-84754556D01*
X189470443Y-84756245D01*
X189470434Y-84756248D01*
X189267357Y-84825964D01*
X189267344Y-84825969D01*
X189262426Y-84827658D01*
X189257847Y-84830135D01*
X189257840Y-84830139D01*
X189069005Y-84932331D01*
X189068997Y-84932336D01*
X189064424Y-84934811D01*
X189060313Y-84938010D01*
X189060311Y-84938012D01*
X188890878Y-85069888D01*
X188890872Y-85069893D01*
X188886760Y-85073094D01*
X188883237Y-85076919D01*
X188883227Y-85076930D01*
X188737806Y-85234899D01*
X188737802Y-85234902D01*
X188734278Y-85238732D01*
X188731430Y-85243090D01*
X188731427Y-85243095D01*
X188645483Y-85374643D01*
X188599969Y-85416542D01*
X188540000Y-85431728D01*
X188480031Y-85416542D01*
X188434517Y-85374643D01*
X188348572Y-85243095D01*
X188345722Y-85238732D01*
X188264125Y-85150095D01*
X188196772Y-85076930D01*
X188196767Y-85076925D01*
X188193240Y-85073094D01*
X188015576Y-84934811D01*
X188010997Y-84932333D01*
X188010994Y-84932331D01*
X187822159Y-84830139D01*
X187822156Y-84830137D01*
X187817574Y-84827658D01*
X187812650Y-84825967D01*
X187812642Y-84825964D01*
X187609565Y-84756248D01*
X187609559Y-84756246D01*
X187604635Y-84754556D01*
X187599498Y-84753698D01*
X187599495Y-84753698D01*
X187387706Y-84718357D01*
X187387703Y-84718356D01*
X187382569Y-84717500D01*
X187157431Y-84717500D01*
X187152297Y-84718356D01*
X187152293Y-84718357D01*
X186940504Y-84753698D01*
X186940498Y-84753699D01*
X186935365Y-84754556D01*
X186930443Y-84756245D01*
X186930434Y-84756248D01*
X186727357Y-84825964D01*
X186727344Y-84825969D01*
X186722426Y-84827658D01*
X186717847Y-84830135D01*
X186717840Y-84830139D01*
X186529005Y-84932331D01*
X186528997Y-84932336D01*
X186524424Y-84934811D01*
X186520313Y-84938010D01*
X186520311Y-84938012D01*
X186350878Y-85069888D01*
X186350872Y-85069893D01*
X186346760Y-85073094D01*
X186343237Y-85076919D01*
X186343227Y-85076930D01*
X186197806Y-85234899D01*
X186197802Y-85234902D01*
X186194278Y-85238732D01*
X186191430Y-85243090D01*
X186191427Y-85243095D01*
X186105483Y-85374643D01*
X186059969Y-85416542D01*
X186000000Y-85431728D01*
X185940031Y-85416542D01*
X185894517Y-85374643D01*
X185808572Y-85243095D01*
X185805722Y-85238732D01*
X185724125Y-85150095D01*
X185656772Y-85076930D01*
X185656767Y-85076925D01*
X185653240Y-85073094D01*
X185475576Y-84934811D01*
X185470997Y-84932333D01*
X185470994Y-84932331D01*
X185282159Y-84830139D01*
X185282156Y-84830137D01*
X185277574Y-84827658D01*
X185272650Y-84825967D01*
X185272642Y-84825964D01*
X185069565Y-84756248D01*
X185069559Y-84756246D01*
X185064635Y-84754556D01*
X185059498Y-84753698D01*
X185059495Y-84753698D01*
X184847706Y-84718357D01*
X184847703Y-84718356D01*
X184842569Y-84717500D01*
X184617431Y-84717500D01*
X184612297Y-84718356D01*
X184612293Y-84718357D01*
X184400504Y-84753698D01*
X184400498Y-84753699D01*
X184395365Y-84754556D01*
X184390443Y-84756245D01*
X184390434Y-84756248D01*
X184187357Y-84825964D01*
X184187344Y-84825969D01*
X184182426Y-84827658D01*
X184177847Y-84830135D01*
X184177840Y-84830139D01*
X183989005Y-84932331D01*
X183988997Y-84932336D01*
X183984424Y-84934811D01*
X183980313Y-84938010D01*
X183980311Y-84938012D01*
X183810878Y-85069888D01*
X183810872Y-85069893D01*
X183806760Y-85073094D01*
X183803237Y-85076919D01*
X183803227Y-85076930D01*
X183657806Y-85234899D01*
X183657802Y-85234902D01*
X183654278Y-85238732D01*
X183651430Y-85243090D01*
X183651427Y-85243095D01*
X183565483Y-85374643D01*
X183519969Y-85416542D01*
X183460000Y-85431728D01*
X183400031Y-85416542D01*
X183354517Y-85374643D01*
X183268572Y-85243095D01*
X183265722Y-85238732D01*
X183184125Y-85150095D01*
X183116772Y-85076930D01*
X183116767Y-85076925D01*
X183113240Y-85073094D01*
X182935576Y-84934811D01*
X182930997Y-84932333D01*
X182930994Y-84932331D01*
X182742159Y-84830139D01*
X182742156Y-84830137D01*
X182737574Y-84827658D01*
X182732650Y-84825967D01*
X182732642Y-84825964D01*
X182529565Y-84756248D01*
X182529559Y-84756246D01*
X182524635Y-84754556D01*
X182519498Y-84753698D01*
X182519495Y-84753698D01*
X182307706Y-84718357D01*
X182307703Y-84718356D01*
X182302569Y-84717500D01*
X182077431Y-84717500D01*
X182072297Y-84718356D01*
X182072293Y-84718357D01*
X181860504Y-84753698D01*
X181860498Y-84753699D01*
X181855365Y-84754556D01*
X181850443Y-84756245D01*
X181850434Y-84756248D01*
X181647357Y-84825964D01*
X181647344Y-84825969D01*
X181642426Y-84827658D01*
X181637847Y-84830135D01*
X181637840Y-84830139D01*
X181449005Y-84932331D01*
X181448997Y-84932336D01*
X181444424Y-84934811D01*
X181440313Y-84938010D01*
X181440311Y-84938012D01*
X181270878Y-85069888D01*
X181270872Y-85069893D01*
X181266760Y-85073094D01*
X181263237Y-85076919D01*
X181263227Y-85076930D01*
X181117806Y-85234899D01*
X181117802Y-85234902D01*
X181114278Y-85238732D01*
X181111430Y-85243090D01*
X181111427Y-85243095D01*
X181025483Y-85374643D01*
X180979969Y-85416542D01*
X180920000Y-85431728D01*
X180860031Y-85416542D01*
X180814517Y-85374643D01*
X180728572Y-85243095D01*
X180725722Y-85238732D01*
X180644125Y-85150095D01*
X180576772Y-85076930D01*
X180576767Y-85076925D01*
X180573240Y-85073094D01*
X180395576Y-84934811D01*
X180390997Y-84932333D01*
X180390994Y-84932331D01*
X180202159Y-84830139D01*
X180202156Y-84830137D01*
X180197574Y-84827658D01*
X180192650Y-84825967D01*
X180192642Y-84825964D01*
X179989565Y-84756248D01*
X179989559Y-84756246D01*
X179984635Y-84754556D01*
X179979498Y-84753698D01*
X179979495Y-84753698D01*
X179767706Y-84718357D01*
X179767703Y-84718356D01*
X179762569Y-84717500D01*
X179537431Y-84717500D01*
X179532297Y-84718356D01*
X179532293Y-84718357D01*
X179320504Y-84753698D01*
X179320498Y-84753699D01*
X179315365Y-84754556D01*
X179310443Y-84756245D01*
X179310434Y-84756248D01*
X179107357Y-84825964D01*
X179107344Y-84825969D01*
X179102426Y-84827658D01*
X179097847Y-84830135D01*
X179097840Y-84830139D01*
X178909005Y-84932331D01*
X178908997Y-84932336D01*
X178904424Y-84934811D01*
X178900313Y-84938010D01*
X178900311Y-84938012D01*
X178730878Y-85069888D01*
X178730872Y-85069893D01*
X178726760Y-85073094D01*
X178723237Y-85076919D01*
X178723227Y-85076930D01*
X178577806Y-85234899D01*
X178577802Y-85234902D01*
X178574278Y-85238732D01*
X178571430Y-85243090D01*
X178571427Y-85243095D01*
X178485483Y-85374643D01*
X178439969Y-85416542D01*
X178380000Y-85431728D01*
X178320031Y-85416542D01*
X178274517Y-85374643D01*
X178188572Y-85243095D01*
X178185722Y-85238732D01*
X178104125Y-85150095D01*
X178036772Y-85076930D01*
X178036767Y-85076925D01*
X178033240Y-85073094D01*
X177855576Y-84934811D01*
X177851003Y-84932336D01*
X177850995Y-84932331D01*
X177809531Y-84909893D01*
X177761259Y-84863577D01*
X177743500Y-84799079D01*
X177743500Y-80668768D01*
X177744027Y-80657584D01*
X177745702Y-80650092D01*
X177743561Y-80582001D01*
X177743500Y-80578044D01*
X177743500Y-80554109D01*
X177743500Y-80554108D01*
X177743500Y-80550144D01*
X177742995Y-80546150D01*
X177742062Y-80534305D01*
X177742062Y-80534297D01*
X177740674Y-80490111D01*
X177735017Y-80470642D01*
X177731013Y-80451302D01*
X177728474Y-80431203D01*
X177725554Y-80423829D01*
X177712202Y-80390105D01*
X177708356Y-80378872D01*
X177698230Y-80344017D01*
X177698229Y-80344016D01*
X177696019Y-80336407D01*
X177685703Y-80318964D01*
X177677005Y-80301209D01*
X177669552Y-80282383D01*
X177643561Y-80246609D01*
X177637055Y-80236705D01*
X177614542Y-80198638D01*
X177600218Y-80184314D01*
X177587382Y-80169286D01*
X177575472Y-80152893D01*
X177569367Y-80147842D01*
X177569360Y-80147835D01*
X177541394Y-80124700D01*
X177532615Y-80116711D01*
X173223646Y-75807741D01*
X173216112Y-75799463D01*
X173212000Y-75792982D01*
X173162348Y-75746356D01*
X173159506Y-75743601D01*
X173142574Y-75726669D01*
X173142573Y-75726668D01*
X173139770Y-75723865D01*
X173136575Y-75721386D01*
X173127554Y-75713682D01*
X173101097Y-75688838D01*
X173095321Y-75683414D01*
X173088377Y-75679596D01*
X173088371Y-75679592D01*
X173077566Y-75673652D01*
X173061047Y-75662801D01*
X173045041Y-75650386D01*
X173037766Y-75647238D01*
X173037763Y-75647236D01*
X173004466Y-75632828D01*
X172993804Y-75627605D01*
X172962007Y-75610124D01*
X172962005Y-75610123D01*
X172955060Y-75606305D01*
X172947383Y-75604334D01*
X172947381Y-75604333D01*
X172935438Y-75601267D01*
X172916734Y-75594863D01*
X172905420Y-75589967D01*
X172905418Y-75589966D01*
X172898145Y-75586819D01*
X172890319Y-75585579D01*
X172890318Y-75585579D01*
X172854475Y-75579902D01*
X172842859Y-75577496D01*
X172800030Y-75566500D01*
X172792101Y-75566500D01*
X172779776Y-75566500D01*
X172760065Y-75564949D01*
X172747885Y-75563019D01*
X172747878Y-75563018D01*
X172740057Y-75561780D01*
X172732173Y-75562525D01*
X172732165Y-75562525D01*
X172696039Y-75565941D01*
X172684181Y-75566500D01*
X167504595Y-75566500D01*
X167456377Y-75556909D01*
X167415500Y-75529595D01*
X166394500Y-74508595D01*
X166363762Y-74458436D01*
X166359146Y-74399789D01*
X166381659Y-74345439D01*
X166426392Y-74307233D01*
X166483595Y-74293500D01*
X166931800Y-74293500D01*
X166983047Y-74304392D01*
X167018724Y-74330312D01*
X167019420Y-74329540D01*
X167024331Y-74333962D01*
X167028747Y-74338866D01*
X167183248Y-74451118D01*
X167357712Y-74528794D01*
X167544513Y-74568500D01*
X167728884Y-74568500D01*
X167735487Y-74568500D01*
X167922288Y-74528794D01*
X168096752Y-74451118D01*
X168251253Y-74338866D01*
X168379040Y-74196944D01*
X168474527Y-74031556D01*
X168533542Y-73849928D01*
X168553504Y-73660000D01*
X168552894Y-73654199D01*
X168569695Y-73591500D01*
X168615814Y-73545381D01*
X168678814Y-73528500D01*
X180025406Y-73528500D01*
X180073624Y-73538091D01*
X180114501Y-73565405D01*
X180601342Y-74052246D01*
X180608884Y-74060533D01*
X180613000Y-74067018D01*
X180618779Y-74072444D01*
X180618780Y-74072446D01*
X180662667Y-74113658D01*
X180665508Y-74116412D01*
X180685230Y-74136134D01*
X180688414Y-74138604D01*
X180697437Y-74146309D01*
X180729679Y-74176586D01*
X180736628Y-74180406D01*
X180747429Y-74186344D01*
X180763959Y-74197202D01*
X180773694Y-74204754D01*
X180773697Y-74204756D01*
X180779959Y-74209613D01*
X180820536Y-74227172D01*
X180831171Y-74232381D01*
X180869940Y-74253695D01*
X180889566Y-74258734D01*
X180908259Y-74265134D01*
X180926855Y-74273181D01*
X180970518Y-74280095D01*
X180982129Y-74282500D01*
X181024970Y-74293500D01*
X181045231Y-74293500D01*
X181064939Y-74295050D01*
X181084943Y-74298219D01*
X181092835Y-74297473D01*
X181098062Y-74296979D01*
X181128954Y-74294058D01*
X181140811Y-74293500D01*
X182171800Y-74293500D01*
X182223047Y-74304392D01*
X182258724Y-74330312D01*
X182259420Y-74329540D01*
X182264331Y-74333962D01*
X182268747Y-74338866D01*
X182423248Y-74451118D01*
X182597712Y-74528794D01*
X182784513Y-74568500D01*
X182968884Y-74568500D01*
X182975487Y-74568500D01*
X183162288Y-74528794D01*
X183336752Y-74451118D01*
X183491253Y-74338866D01*
X183619040Y-74196944D01*
X183714527Y-74031556D01*
X183773542Y-73849928D01*
X183793504Y-73660000D01*
X183773542Y-73470072D01*
X183714527Y-73288444D01*
X183702435Y-73267500D01*
X183685554Y-73204500D01*
X183702435Y-73141500D01*
X183748554Y-73095381D01*
X183811554Y-73078500D01*
X196716233Y-73078500D01*
X196727416Y-73079027D01*
X196734909Y-73080702D01*
X196802985Y-73078562D01*
X196806945Y-73078500D01*
X196830894Y-73078500D01*
X196834856Y-73078500D01*
X196838856Y-73077994D01*
X196850699Y-73077061D01*
X196894889Y-73075673D01*
X196914333Y-73070023D01*
X196933702Y-73066012D01*
X196953797Y-73063474D01*
X196994915Y-73047193D01*
X197006117Y-73043357D01*
X197048593Y-73031018D01*
X197066039Y-73020699D01*
X197083769Y-73012013D01*
X197102617Y-73004552D01*
X197138387Y-72978561D01*
X197148298Y-72972051D01*
X197186362Y-72949542D01*
X197200688Y-72935215D01*
X197215717Y-72922378D01*
X197232107Y-72910472D01*
X197260298Y-72876393D01*
X197268268Y-72867634D01*
X198070500Y-72065404D01*
X198111378Y-72038091D01*
X198159596Y-72028500D01*
X198208884Y-72028500D01*
X198215487Y-72028500D01*
X198402288Y-71988794D01*
X198576752Y-71911118D01*
X198731253Y-71798866D01*
X198769864Y-71755983D01*
X198819580Y-71722197D01*
X198879292Y-71715288D01*
X198935410Y-71736829D01*
X198975162Y-71781919D01*
X198989500Y-71840294D01*
X198989500Y-88763500D01*
X198972619Y-88826500D01*
X198926500Y-88872619D01*
X198863500Y-88889500D01*
X134756500Y-88889500D01*
X134693500Y-88872619D01*
X134647381Y-88826500D01*
X134630500Y-88763500D01*
X134630500Y-86360000D01*
X135844494Y-86360000D01*
X135844973Y-86365475D01*
X135863999Y-86582957D01*
X135864000Y-86582965D01*
X135864479Y-86588435D01*
X135865899Y-86593737D01*
X135865901Y-86593744D01*
X135922405Y-86804618D01*
X135922407Y-86804624D01*
X135923829Y-86809930D01*
X135926151Y-86814909D01*
X135926153Y-86814915D01*
X136014675Y-87004750D01*
X136020738Y-87017753D01*
X136023891Y-87022256D01*
X136023894Y-87022261D01*
X136060871Y-87075069D01*
X136152264Y-87205591D01*
X136314409Y-87367736D01*
X136502247Y-87499262D01*
X136710070Y-87596171D01*
X136931565Y-87655521D01*
X137160000Y-87675506D01*
X137388435Y-87655521D01*
X137609930Y-87596171D01*
X137817753Y-87499262D01*
X138005591Y-87367736D01*
X138167736Y-87205591D01*
X138299262Y-87017753D01*
X138396171Y-86809930D01*
X138455521Y-86588435D01*
X138475506Y-86360000D01*
X138455521Y-86131565D01*
X138396171Y-85910070D01*
X138299262Y-85702247D01*
X138167736Y-85514409D01*
X138005591Y-85352264D01*
X137849918Y-85243260D01*
X137822261Y-85223894D01*
X137822256Y-85223891D01*
X137817753Y-85220738D01*
X137812765Y-85218412D01*
X137614915Y-85126153D01*
X137614909Y-85126151D01*
X137609930Y-85123829D01*
X137604624Y-85122407D01*
X137604618Y-85122405D01*
X137393744Y-85065901D01*
X137393737Y-85065899D01*
X137388435Y-85064479D01*
X137382965Y-85064000D01*
X137382957Y-85063999D01*
X137165475Y-85044973D01*
X137160000Y-85044494D01*
X137154525Y-85044973D01*
X136937042Y-85063999D01*
X136937032Y-85064000D01*
X136931565Y-85064479D01*
X136926263Y-85065899D01*
X136926255Y-85065901D01*
X136715381Y-85122405D01*
X136715371Y-85122408D01*
X136710070Y-85123829D01*
X136705093Y-85126149D01*
X136705084Y-85126153D01*
X136507234Y-85218412D01*
X136507229Y-85218414D01*
X136502247Y-85220738D01*
X136497748Y-85223888D01*
X136497738Y-85223894D01*
X136318920Y-85349105D01*
X136318917Y-85349107D01*
X136314409Y-85352264D01*
X136310517Y-85356155D01*
X136310511Y-85356161D01*
X136156161Y-85510511D01*
X136156155Y-85510517D01*
X136152264Y-85514409D01*
X136149107Y-85518917D01*
X136149105Y-85518920D01*
X136023894Y-85697738D01*
X136023888Y-85697748D01*
X136020738Y-85702247D01*
X136018414Y-85707229D01*
X136018412Y-85707234D01*
X135926153Y-85905084D01*
X135926149Y-85905093D01*
X135923829Y-85910070D01*
X135922408Y-85915371D01*
X135922405Y-85915381D01*
X135865901Y-86126255D01*
X135865899Y-86126263D01*
X135864479Y-86131565D01*
X135864000Y-86137032D01*
X135863999Y-86137042D01*
X135849711Y-86300368D01*
X135844494Y-86360000D01*
X134630500Y-86360000D01*
X134630500Y-83035223D01*
X140832000Y-83035223D01*
X140832359Y-83041938D01*
X140837662Y-83091257D01*
X140841259Y-83106478D01*
X140886405Y-83227519D01*
X140894954Y-83243175D01*
X140971697Y-83345692D01*
X140984307Y-83358302D01*
X141086824Y-83435045D01*
X141102480Y-83443594D01*
X141223521Y-83488740D01*
X141238742Y-83492337D01*
X141288061Y-83497640D01*
X141294777Y-83498000D01*
X141969410Y-83498000D01*
X141982493Y-83494493D01*
X141986000Y-83481410D01*
X142494000Y-83481410D01*
X142497506Y-83494493D01*
X142510590Y-83498000D01*
X143185223Y-83498000D01*
X143191938Y-83497640D01*
X143241257Y-83492337D01*
X143256478Y-83488740D01*
X143377519Y-83443594D01*
X143393175Y-83435045D01*
X143495692Y-83358302D01*
X143508302Y-83345692D01*
X143585045Y-83243175D01*
X143593594Y-83227520D01*
X143613963Y-83172909D01*
X143648526Y-83122575D01*
X143702697Y-83094400D01*
X143763753Y-83095003D01*
X143817357Y-83124240D01*
X143819245Y-83125978D01*
X143822780Y-83129818D01*
X144006983Y-83273190D01*
X144212273Y-83384287D01*
X144433049Y-83460080D01*
X144663288Y-83498500D01*
X144891501Y-83498500D01*
X144896712Y-83498500D01*
X145126951Y-83460080D01*
X145347727Y-83384287D01*
X145553017Y-83273190D01*
X145737220Y-83129818D01*
X145895314Y-82958083D01*
X146022984Y-82762669D01*
X146116749Y-82548907D01*
X146174051Y-82322626D01*
X146193327Y-82090000D01*
X146174051Y-81857374D01*
X146116749Y-81631093D01*
X146022984Y-81417331D01*
X145895314Y-81221917D01*
X145818119Y-81138061D01*
X145740752Y-81054018D01*
X145740747Y-81054013D01*
X145737220Y-81050182D01*
X145681856Y-81007090D01*
X145557130Y-80910011D01*
X145557127Y-80910009D01*
X145553017Y-80906810D01*
X145548438Y-80904332D01*
X145548435Y-80904330D01*
X145352312Y-80798194D01*
X145352309Y-80798192D01*
X145347727Y-80795713D01*
X145342799Y-80794021D01*
X145342794Y-80794019D01*
X145131881Y-80721612D01*
X145131875Y-80721610D01*
X145126951Y-80719920D01*
X145121814Y-80719062D01*
X145121811Y-80719062D01*
X144901849Y-80682357D01*
X144901846Y-80682356D01*
X144896712Y-80681500D01*
X144663288Y-80681500D01*
X144658154Y-80682356D01*
X144658150Y-80682357D01*
X144438188Y-80719062D01*
X144438182Y-80719063D01*
X144433049Y-80719920D01*
X144428127Y-80721609D01*
X144428118Y-80721612D01*
X144217205Y-80794019D01*
X144217196Y-80794022D01*
X144212273Y-80795713D01*
X144207694Y-80798190D01*
X144207687Y-80798194D01*
X144011564Y-80904330D01*
X144011556Y-80904335D01*
X144006983Y-80906810D01*
X144002877Y-80910005D01*
X144002869Y-80910011D01*
X143826898Y-81046976D01*
X143826892Y-81046981D01*
X143822780Y-81050182D01*
X143819249Y-81054017D01*
X143817353Y-81055763D01*
X143763749Y-81084997D01*
X143702694Y-81085598D01*
X143648526Y-81057424D01*
X143613963Y-81007090D01*
X143593594Y-80952480D01*
X143585045Y-80936824D01*
X143508302Y-80834307D01*
X143495692Y-80821697D01*
X143393175Y-80744954D01*
X143377519Y-80736405D01*
X143256478Y-80691259D01*
X143241257Y-80687662D01*
X143191938Y-80682359D01*
X143185223Y-80682000D01*
X142510590Y-80682000D01*
X142497506Y-80685506D01*
X142494000Y-80698590D01*
X142494000Y-83481410D01*
X141986000Y-83481410D01*
X141986000Y-82360590D01*
X141982493Y-82347506D01*
X141969410Y-82344000D01*
X140848590Y-82344000D01*
X140835506Y-82347506D01*
X140832000Y-82360590D01*
X140832000Y-83035223D01*
X134630500Y-83035223D01*
X134630500Y-81819410D01*
X140832000Y-81819410D01*
X140835506Y-81832493D01*
X140848590Y-81836000D01*
X141969410Y-81836000D01*
X141982493Y-81832493D01*
X141986000Y-81819410D01*
X141986000Y-80698590D01*
X141982493Y-80685506D01*
X141969410Y-80682000D01*
X141294777Y-80682000D01*
X141288061Y-80682359D01*
X141238742Y-80687662D01*
X141223521Y-80691259D01*
X141102480Y-80736405D01*
X141086824Y-80744954D01*
X140984307Y-80821697D01*
X140971697Y-80834307D01*
X140894954Y-80936824D01*
X140886405Y-80952480D01*
X140841259Y-81073521D01*
X140837662Y-81088742D01*
X140832359Y-81138061D01*
X140832000Y-81144777D01*
X140832000Y-81819410D01*
X134630500Y-81819410D01*
X134630500Y-79857704D01*
X135696501Y-79857704D01*
X135716461Y-80098588D01*
X135728932Y-80147835D01*
X135772267Y-80318964D01*
X135775797Y-80332901D01*
X135777889Y-80337670D01*
X135777890Y-80337673D01*
X135836222Y-80470657D01*
X135872891Y-80554253D01*
X135875739Y-80558612D01*
X135875740Y-80558614D01*
X136002241Y-80752238D01*
X136002244Y-80752242D01*
X136005094Y-80756604D01*
X136008629Y-80760444D01*
X136165266Y-80930598D01*
X136165271Y-80930602D01*
X136168799Y-80934435D01*
X136359542Y-81082896D01*
X136572119Y-81197937D01*
X136577048Y-81199629D01*
X136577050Y-81199630D01*
X136630805Y-81218084D01*
X136800732Y-81276420D01*
X137039145Y-81316204D01*
X137275644Y-81316204D01*
X137280855Y-81316204D01*
X137519268Y-81276420D01*
X137747881Y-81197937D01*
X137960458Y-81082896D01*
X138151201Y-80934435D01*
X138314906Y-80756604D01*
X138447109Y-80554253D01*
X138544203Y-80332901D01*
X138603539Y-80098588D01*
X138623499Y-79857704D01*
X138603539Y-79616820D01*
X138544203Y-79382507D01*
X138447109Y-79161155D01*
X138355089Y-79020309D01*
X138317758Y-78963169D01*
X138317756Y-78963167D01*
X138314906Y-78958804D01*
X138278155Y-78918882D01*
X138154733Y-78784809D01*
X138154728Y-78784804D01*
X138151201Y-78780973D01*
X138056334Y-78707135D01*
X138020529Y-78663043D01*
X138007726Y-78607704D01*
X138020529Y-78552365D01*
X138056335Y-78508272D01*
X138151201Y-78434435D01*
X138314906Y-78256604D01*
X138447109Y-78054253D01*
X138544203Y-77832901D01*
X138603539Y-77598588D01*
X138623499Y-77357704D01*
X138603539Y-77116820D01*
X138544203Y-76882507D01*
X138447109Y-76661155D01*
X138314906Y-76458804D01*
X138311371Y-76454964D01*
X138308178Y-76450862D01*
X138309581Y-76449769D01*
X138286377Y-76409021D01*
X138282764Y-76352434D01*
X138304330Y-76299993D01*
X138346705Y-76262318D01*
X138347756Y-76261743D01*
X138356204Y-76258593D01*
X138473261Y-76170965D01*
X138560889Y-76053908D01*
X138611989Y-75916905D01*
X138618500Y-75856342D01*
X138618500Y-73859066D01*
X138611989Y-73798503D01*
X138560889Y-73661500D01*
X138547843Y-73644073D01*
X138478659Y-73551654D01*
X138473261Y-73544443D01*
X138451964Y-73528500D01*
X138363417Y-73462214D01*
X138363414Y-73462212D01*
X138356204Y-73456815D01*
X138347766Y-73453668D01*
X138347763Y-73453666D01*
X138226580Y-73408467D01*
X138226578Y-73408466D01*
X138219201Y-73405715D01*
X138211373Y-73404873D01*
X138211367Y-73404872D01*
X138161988Y-73399564D01*
X138161985Y-73399563D01*
X138158638Y-73399204D01*
X136161362Y-73399204D01*
X136158015Y-73399563D01*
X136158011Y-73399564D01*
X136108632Y-73404872D01*
X136108625Y-73404873D01*
X136100799Y-73405715D01*
X136093423Y-73408465D01*
X136093419Y-73408467D01*
X135972236Y-73453666D01*
X135972230Y-73453669D01*
X135963796Y-73456815D01*
X135956588Y-73462210D01*
X135956582Y-73462214D01*
X135853950Y-73539044D01*
X135853946Y-73539047D01*
X135846739Y-73544443D01*
X135841343Y-73551650D01*
X135841340Y-73551654D01*
X135764510Y-73654286D01*
X135764506Y-73654292D01*
X135759111Y-73661500D01*
X135755965Y-73669934D01*
X135755962Y-73669940D01*
X135710763Y-73791123D01*
X135710761Y-73791127D01*
X135708011Y-73798503D01*
X135707169Y-73806329D01*
X135707168Y-73806336D01*
X135703188Y-73843364D01*
X135701500Y-73859066D01*
X135701500Y-75856342D01*
X135701859Y-75859689D01*
X135701860Y-75859692D01*
X135707168Y-75909071D01*
X135707169Y-75909077D01*
X135708011Y-75916905D01*
X135710762Y-75924282D01*
X135710763Y-75924284D01*
X135755962Y-76045467D01*
X135755964Y-76045470D01*
X135759111Y-76053908D01*
X135764508Y-76061118D01*
X135764510Y-76061121D01*
X135841340Y-76163753D01*
X135846739Y-76170965D01*
X135963796Y-76258593D01*
X135972242Y-76261743D01*
X135973293Y-76262317D01*
X136015635Y-76299945D01*
X136037215Y-76352318D01*
X136033671Y-76408852D01*
X136010448Y-76449787D01*
X136011824Y-76450858D01*
X136008622Y-76454970D01*
X136005094Y-76458804D01*
X136002246Y-76463163D01*
X136002243Y-76463167D01*
X135875740Y-76656793D01*
X135875735Y-76656800D01*
X135872891Y-76661155D01*
X135870798Y-76665924D01*
X135870797Y-76665928D01*
X135777890Y-76877734D01*
X135777887Y-76877740D01*
X135775797Y-76882507D01*
X135774519Y-76887551D01*
X135774517Y-76887559D01*
X135718568Y-77108500D01*
X135716461Y-77116820D01*
X135716031Y-77122008D01*
X135716030Y-77122015D01*
X135710352Y-77190543D01*
X135696501Y-77357704D01*
X135696931Y-77362893D01*
X135715850Y-77591223D01*
X135716461Y-77598588D01*
X135717742Y-77603646D01*
X135764103Y-77786725D01*
X135775797Y-77832901D01*
X135872891Y-78054253D01*
X135875739Y-78058612D01*
X135875740Y-78058614D01*
X136002241Y-78252238D01*
X136002244Y-78252242D01*
X136005094Y-78256604D01*
X136008629Y-78260444D01*
X136165266Y-78430598D01*
X136165271Y-78430602D01*
X136168799Y-78434435D01*
X136172909Y-78437634D01*
X136172917Y-78437641D01*
X136263664Y-78508273D01*
X136299470Y-78552365D01*
X136312273Y-78607704D01*
X136299470Y-78663043D01*
X136263664Y-78707135D01*
X136172917Y-78777766D01*
X136172904Y-78777777D01*
X136168799Y-78780973D01*
X136165277Y-78784798D01*
X136165266Y-78784809D01*
X136008629Y-78954963D01*
X136008624Y-78954969D01*
X136005094Y-78958804D01*
X136002248Y-78963159D01*
X136002241Y-78963169D01*
X135875740Y-79156793D01*
X135875735Y-79156800D01*
X135872891Y-79161155D01*
X135870798Y-79165924D01*
X135870797Y-79165928D01*
X135777890Y-79377734D01*
X135777887Y-79377740D01*
X135775797Y-79382507D01*
X135774519Y-79387551D01*
X135774517Y-79387559D01*
X135737484Y-79533802D01*
X135716461Y-79616820D01*
X135716031Y-79622008D01*
X135716030Y-79622015D01*
X135698005Y-79839544D01*
X135696501Y-79857704D01*
X134630500Y-79857704D01*
X134630500Y-66559232D01*
X139512092Y-66559232D01*
X139512451Y-66562579D01*
X139512452Y-66562582D01*
X139517760Y-66611961D01*
X139517761Y-66611967D01*
X139518603Y-66619795D01*
X139521354Y-66627172D01*
X139521355Y-66627174D01*
X139566554Y-66748357D01*
X139566556Y-66748360D01*
X139569703Y-66756798D01*
X139575100Y-66764008D01*
X139575102Y-66764011D01*
X139629138Y-66836194D01*
X139657331Y-66873855D01*
X139664542Y-66879253D01*
X139756873Y-66948372D01*
X139774388Y-66961483D01*
X139911391Y-67012583D01*
X139971954Y-67019094D01*
X144025861Y-67019094D01*
X144029230Y-67019094D01*
X144089793Y-67012583D01*
X144226796Y-66961483D01*
X144343853Y-66873855D01*
X144431481Y-66756798D01*
X144482581Y-66619795D01*
X144489092Y-66559232D01*
X144489092Y-66223638D01*
X156296500Y-66223638D01*
X156296859Y-66226985D01*
X156296860Y-66226988D01*
X156302168Y-66276367D01*
X156302169Y-66276373D01*
X156303011Y-66284201D01*
X156305762Y-66291578D01*
X156305763Y-66291580D01*
X156350962Y-66412763D01*
X156350964Y-66412766D01*
X156354111Y-66421204D01*
X156359508Y-66428414D01*
X156359510Y-66428417D01*
X156436340Y-66531049D01*
X156441739Y-66538261D01*
X156448950Y-66543659D01*
X156524722Y-66600382D01*
X156558796Y-66625889D01*
X156695799Y-66676989D01*
X156756362Y-66683500D01*
X158200269Y-66683500D01*
X158203638Y-66683500D01*
X158264201Y-66676989D01*
X158401204Y-66625889D01*
X158518261Y-66538261D01*
X158605889Y-66421204D01*
X158656989Y-66284201D01*
X158663500Y-66223638D01*
X158663500Y-66197490D01*
X169600517Y-66197490D01*
X169600752Y-66208868D01*
X169643666Y-66378333D01*
X169647036Y-66388148D01*
X169733254Y-66584703D01*
X169738197Y-66593838D01*
X169855588Y-66773518D01*
X169861976Y-66781724D01*
X170007333Y-66939625D01*
X170014977Y-66946662D01*
X170184354Y-67078493D01*
X170193047Y-67084172D01*
X170381808Y-67186325D01*
X170391325Y-67190500D01*
X170594323Y-67260189D01*
X170604393Y-67262739D01*
X170666227Y-67273057D01*
X170677364Y-67272481D01*
X170679766Y-67261589D01*
X170679766Y-66211515D01*
X170676259Y-66198431D01*
X170663176Y-66194925D01*
X169611606Y-66194925D01*
X169600517Y-66197490D01*
X158663500Y-66197490D01*
X158663500Y-65684359D01*
X169600517Y-65684359D01*
X169611606Y-65686925D01*
X170663176Y-65686925D01*
X170676259Y-65683418D01*
X170679766Y-65670335D01*
X170679766Y-64620261D01*
X170677364Y-64609368D01*
X170666227Y-64608792D01*
X170604393Y-64619110D01*
X170594323Y-64621660D01*
X170391325Y-64691349D01*
X170381808Y-64695524D01*
X170193047Y-64797677D01*
X170184354Y-64803356D01*
X170014977Y-64935187D01*
X170007333Y-64942224D01*
X169861976Y-65100125D01*
X169855588Y-65108331D01*
X169738197Y-65288011D01*
X169733254Y-65297146D01*
X169647036Y-65493701D01*
X169643666Y-65503516D01*
X169600752Y-65672981D01*
X169600517Y-65684359D01*
X158663500Y-65684359D01*
X158663500Y-64776362D01*
X158656989Y-64715799D01*
X158605889Y-64578796D01*
X158518261Y-64461739D01*
X158511049Y-64456340D01*
X158439328Y-64402650D01*
X158398941Y-64351219D01*
X158389771Y-64286473D01*
X158414287Y-64225850D01*
X158486604Y-64130087D01*
X158492712Y-64120222D01*
X158585245Y-63934391D01*
X158589433Y-63923579D01*
X158633682Y-63768061D01*
X158634211Y-63756620D01*
X158623067Y-63754000D01*
X156336933Y-63754000D01*
X156325788Y-63756620D01*
X156326317Y-63768061D01*
X156370566Y-63923579D01*
X156374754Y-63934391D01*
X156467287Y-64120222D01*
X156473395Y-64130087D01*
X156545712Y-64225850D01*
X156570229Y-64286473D01*
X156561058Y-64351219D01*
X156520672Y-64402649D01*
X156448951Y-64456339D01*
X156448946Y-64456343D01*
X156441739Y-64461739D01*
X156436343Y-64468946D01*
X156436340Y-64468950D01*
X156359510Y-64571582D01*
X156359506Y-64571588D01*
X156354111Y-64578796D01*
X156350965Y-64587230D01*
X156350962Y-64587236D01*
X156305763Y-64708419D01*
X156305761Y-64708423D01*
X156303011Y-64715799D01*
X156302169Y-64723625D01*
X156302168Y-64723632D01*
X156296860Y-64773011D01*
X156296500Y-64776362D01*
X156296500Y-66223638D01*
X144489092Y-66223638D01*
X144489092Y-64481956D01*
X144482581Y-64421393D01*
X144431481Y-64284390D01*
X144387658Y-64225850D01*
X144349251Y-64174544D01*
X144343853Y-64167333D01*
X144336641Y-64161934D01*
X144234009Y-64085104D01*
X144234006Y-64085102D01*
X144226796Y-64079705D01*
X144218358Y-64076558D01*
X144218355Y-64076556D01*
X144097172Y-64031357D01*
X144097170Y-64031356D01*
X144089793Y-64028605D01*
X144081965Y-64027763D01*
X144081959Y-64027762D01*
X144032580Y-64022454D01*
X144032577Y-64022453D01*
X144029230Y-64022094D01*
X139971954Y-64022094D01*
X139968607Y-64022453D01*
X139968603Y-64022454D01*
X139919224Y-64027762D01*
X139919217Y-64027763D01*
X139911391Y-64028605D01*
X139904015Y-64031355D01*
X139904011Y-64031357D01*
X139782828Y-64076556D01*
X139782822Y-64076559D01*
X139774388Y-64079705D01*
X139767180Y-64085100D01*
X139767174Y-64085104D01*
X139664542Y-64161934D01*
X139664538Y-64161937D01*
X139657331Y-64167333D01*
X139651935Y-64174540D01*
X139651932Y-64174544D01*
X139575102Y-64277176D01*
X139575098Y-64277182D01*
X139569703Y-64284390D01*
X139566557Y-64292824D01*
X139566554Y-64292830D01*
X139521355Y-64414013D01*
X139521353Y-64414017D01*
X139518603Y-64421393D01*
X139517761Y-64429219D01*
X139517760Y-64429226D01*
X139514265Y-64461739D01*
X139512092Y-64481956D01*
X139512092Y-66559232D01*
X134630500Y-66559232D01*
X134630500Y-60644763D01*
X139512092Y-60644763D01*
X139512948Y-60649897D01*
X139512949Y-60649900D01*
X139551264Y-60879513D01*
X139552967Y-60889715D01*
X139554657Y-60894639D01*
X139554659Y-60894645D01*
X139631908Y-61119666D01*
X139631911Y-61119674D01*
X139633602Y-61124598D01*
X139636081Y-61129180D01*
X139636083Y-61129183D01*
X139646361Y-61148175D01*
X139751798Y-61343005D01*
X139754997Y-61347115D01*
X139871613Y-61496944D01*
X139904331Y-61538979D01*
X139908162Y-61542506D01*
X139908167Y-61542511D01*
X140058193Y-61680618D01*
X140087040Y-61707174D01*
X140091403Y-61710024D01*
X140091405Y-61710026D01*
X140148359Y-61747236D01*
X140294940Y-61843002D01*
X140522362Y-61942759D01*
X140763102Y-62003722D01*
X140948611Y-62019094D01*
X143049959Y-62019094D01*
X143052573Y-62019094D01*
X143238082Y-62003722D01*
X143478822Y-61942759D01*
X143706244Y-61843002D01*
X143914144Y-61707174D01*
X144038394Y-61592794D01*
X151407763Y-61592794D01*
X151408242Y-61598269D01*
X151427268Y-61815751D01*
X151427269Y-61815759D01*
X151427748Y-61821229D01*
X151429168Y-61826531D01*
X151429170Y-61826538D01*
X151485674Y-62037412D01*
X151485676Y-62037418D01*
X151487098Y-62042724D01*
X151489420Y-62047703D01*
X151489422Y-62047709D01*
X151527959Y-62130351D01*
X151584007Y-62250547D01*
X151587160Y-62255050D01*
X151587163Y-62255055D01*
X151619148Y-62300734D01*
X151715533Y-62438385D01*
X151877678Y-62600530D01*
X152065516Y-62732056D01*
X152273339Y-62828965D01*
X152494834Y-62888315D01*
X152723269Y-62908300D01*
X152951704Y-62888315D01*
X153173199Y-62828965D01*
X153381022Y-62732056D01*
X153568860Y-62600530D01*
X153731005Y-62438385D01*
X153862531Y-62250547D01*
X153959440Y-62042724D01*
X154018790Y-61821229D01*
X154038775Y-61592794D01*
X154030657Y-61500000D01*
X156291430Y-61500000D01*
X156291968Y-61505806D01*
X156311129Y-61712593D01*
X156311130Y-61712603D01*
X156311668Y-61718399D01*
X156371691Y-61929361D01*
X156469457Y-62125701D01*
X156472965Y-62130347D01*
X156472968Y-62130351D01*
X156598123Y-62296083D01*
X156598127Y-62296087D01*
X156601636Y-62300734D01*
X156718449Y-62407222D01*
X156754753Y-62465855D01*
X156754753Y-62534818D01*
X156718449Y-62593452D01*
X156606313Y-62695678D01*
X156598494Y-62704254D01*
X156473395Y-62869912D01*
X156467287Y-62879777D01*
X156374754Y-63065608D01*
X156370566Y-63076420D01*
X156326317Y-63231938D01*
X156325788Y-63243379D01*
X156336933Y-63246000D01*
X158623067Y-63246000D01*
X158634211Y-63243379D01*
X158633682Y-63231938D01*
X158589433Y-63076420D01*
X158585245Y-63065608D01*
X158492712Y-62879777D01*
X158486604Y-62869912D01*
X158361505Y-62704254D01*
X158353687Y-62695678D01*
X158241550Y-62593452D01*
X158205246Y-62534818D01*
X158205246Y-62465855D01*
X158241548Y-62407225D01*
X158358364Y-62300734D01*
X158490543Y-62125701D01*
X158588309Y-61929361D01*
X158648332Y-61718399D01*
X158650832Y-61691413D01*
X158675045Y-61628041D01*
X158728611Y-61586409D01*
X158796001Y-61578589D01*
X158799264Y-61579105D01*
X158805521Y-61580096D01*
X158817125Y-61582498D01*
X158859970Y-61593500D01*
X158880224Y-61593500D01*
X158899934Y-61595050D01*
X158919943Y-61598220D01*
X158963961Y-61594058D01*
X158975819Y-61593500D01*
X187251800Y-61593500D01*
X187303047Y-61604392D01*
X187338724Y-61630312D01*
X187339420Y-61629540D01*
X187344331Y-61633962D01*
X187348747Y-61638866D01*
X187503248Y-61751118D01*
X187677712Y-61828794D01*
X187864513Y-61868500D01*
X188048884Y-61868500D01*
X188055487Y-61868500D01*
X188242288Y-61828794D01*
X188416752Y-61751118D01*
X188571253Y-61638866D01*
X188699040Y-61496944D01*
X188794527Y-61331556D01*
X188853542Y-61149928D01*
X188873504Y-60960000D01*
X188853542Y-60770072D01*
X188814601Y-60650226D01*
X188796569Y-60594728D01*
X188796568Y-60594726D01*
X188794527Y-60588444D01*
X188699040Y-60423056D01*
X188571253Y-60281134D01*
X188565911Y-60277253D01*
X188565908Y-60277250D01*
X188442326Y-60187463D01*
X188416752Y-60168882D01*
X188242288Y-60091206D01*
X188235835Y-60089834D01*
X188235831Y-60089833D01*
X188061943Y-60052872D01*
X188061940Y-60052871D01*
X188055487Y-60051500D01*
X187864513Y-60051500D01*
X187858060Y-60052871D01*
X187858056Y-60052872D01*
X187684168Y-60089833D01*
X187684161Y-60089835D01*
X187677712Y-60091206D01*
X187671682Y-60093890D01*
X187671681Y-60093891D01*
X187509278Y-60166197D01*
X187509275Y-60166198D01*
X187503248Y-60168882D01*
X187497907Y-60172762D01*
X187497906Y-60172763D01*
X187354086Y-60277254D01*
X187354080Y-60277259D01*
X187348747Y-60281134D01*
X187344333Y-60286035D01*
X187339420Y-60290460D01*
X187338724Y-60289687D01*
X187303047Y-60315608D01*
X187251800Y-60326500D01*
X159254594Y-60326500D01*
X159206376Y-60316909D01*
X159165499Y-60289595D01*
X158685574Y-59809670D01*
X158656157Y-59763365D01*
X158649207Y-59708952D01*
X158668570Y-59500000D01*
X158653189Y-59334014D01*
X158648870Y-59287406D01*
X158648869Y-59287405D01*
X158648332Y-59281601D01*
X158588309Y-59070639D01*
X158490543Y-58874299D01*
X158477345Y-58856822D01*
X158361876Y-58703916D01*
X158361873Y-58703912D01*
X158358364Y-58699266D01*
X158354061Y-58695343D01*
X158354058Y-58695340D01*
X158254313Y-58604411D01*
X158196273Y-58551501D01*
X158130450Y-58510745D01*
X158014744Y-58439102D01*
X158014737Y-58439098D01*
X158009791Y-58436036D01*
X158004360Y-58433932D01*
X158004358Y-58433931D01*
X157810703Y-58358908D01*
X157810697Y-58358906D01*
X157805268Y-58356803D01*
X157799548Y-58355733D01*
X157799542Y-58355732D01*
X157595392Y-58317570D01*
X157595389Y-58317569D01*
X157589667Y-58316500D01*
X157370333Y-58316500D01*
X157364611Y-58317569D01*
X157364607Y-58317570D01*
X157160457Y-58355732D01*
X157160448Y-58355734D01*
X157154732Y-58356803D01*
X157149305Y-58358905D01*
X157149296Y-58358908D01*
X156955641Y-58433931D01*
X156955635Y-58433933D01*
X156950209Y-58436036D01*
X156945266Y-58439096D01*
X156945255Y-58439102D01*
X156768678Y-58548435D01*
X156768674Y-58548437D01*
X156763727Y-58551501D01*
X156759426Y-58555421D01*
X156759423Y-58555424D01*
X156605941Y-58695340D01*
X156605932Y-58695348D01*
X156601636Y-58699266D01*
X156598131Y-58703906D01*
X156598123Y-58703916D01*
X156472968Y-58869648D01*
X156472962Y-58869657D01*
X156469457Y-58874299D01*
X156466863Y-58879506D01*
X156466860Y-58879513D01*
X156374287Y-59065425D01*
X156371691Y-59070639D01*
X156370096Y-59076241D01*
X156370096Y-59076244D01*
X156334591Y-59201035D01*
X156311668Y-59281601D01*
X156311131Y-59287394D01*
X156311129Y-59287406D01*
X156292063Y-59493171D01*
X156291430Y-59500000D01*
X156291968Y-59505806D01*
X156311129Y-59712593D01*
X156311130Y-59712603D01*
X156311668Y-59718399D01*
X156371691Y-59929361D01*
X156469457Y-60125701D01*
X156472965Y-60130347D01*
X156472968Y-60130351D01*
X156598123Y-60296083D01*
X156598127Y-60296087D01*
X156601636Y-60300734D01*
X156605938Y-60304656D01*
X156605941Y-60304659D01*
X156718078Y-60406885D01*
X156754382Y-60465518D01*
X156754382Y-60534482D01*
X156718078Y-60593115D01*
X156605941Y-60695340D01*
X156605932Y-60695348D01*
X156601636Y-60699266D01*
X156598131Y-60703906D01*
X156598123Y-60703916D01*
X156472968Y-60869648D01*
X156472962Y-60869657D01*
X156469457Y-60874299D01*
X156466863Y-60879506D01*
X156466860Y-60879513D01*
X156374287Y-61065425D01*
X156371691Y-61070639D01*
X156370096Y-61076241D01*
X156370096Y-61076244D01*
X156347346Y-61156205D01*
X156311668Y-61281601D01*
X156311131Y-61287394D01*
X156311129Y-61287406D01*
X156292243Y-61491225D01*
X156291430Y-61500000D01*
X154030657Y-61500000D01*
X154018790Y-61364359D01*
X153959440Y-61142864D01*
X153862531Y-60935041D01*
X153731005Y-60747203D01*
X153568860Y-60585058D01*
X153447385Y-60500000D01*
X153385530Y-60456688D01*
X153385525Y-60456685D01*
X153381022Y-60453532D01*
X153315666Y-60423056D01*
X153178184Y-60358947D01*
X153178178Y-60358945D01*
X153173199Y-60356623D01*
X153167893Y-60355201D01*
X153167887Y-60355199D01*
X152957013Y-60298695D01*
X152957006Y-60298693D01*
X152951704Y-60297273D01*
X152946234Y-60296794D01*
X152946226Y-60296793D01*
X152728744Y-60277767D01*
X152723269Y-60277288D01*
X152717794Y-60277767D01*
X152500311Y-60296793D01*
X152500301Y-60296794D01*
X152494834Y-60297273D01*
X152489532Y-60298693D01*
X152489524Y-60298695D01*
X152278650Y-60355199D01*
X152278640Y-60355202D01*
X152273339Y-60356623D01*
X152268362Y-60358943D01*
X152268353Y-60358947D01*
X152070503Y-60451206D01*
X152070498Y-60451208D01*
X152065516Y-60453532D01*
X152061017Y-60456682D01*
X152061007Y-60456688D01*
X151882189Y-60581899D01*
X151882186Y-60581901D01*
X151877678Y-60585058D01*
X151873786Y-60588949D01*
X151873780Y-60588955D01*
X151719430Y-60743305D01*
X151719424Y-60743311D01*
X151715533Y-60747203D01*
X151712376Y-60751711D01*
X151712374Y-60751714D01*
X151587163Y-60930532D01*
X151587157Y-60930542D01*
X151584007Y-60935041D01*
X151581683Y-60940023D01*
X151581681Y-60940028D01*
X151489422Y-61137878D01*
X151489418Y-61137887D01*
X151487098Y-61142864D01*
X151485677Y-61148165D01*
X151485674Y-61148175D01*
X151429170Y-61359049D01*
X151429168Y-61359057D01*
X151427748Y-61364359D01*
X151427269Y-61369826D01*
X151427268Y-61369836D01*
X151415881Y-61500000D01*
X151407763Y-61592794D01*
X144038394Y-61592794D01*
X144096853Y-61538979D01*
X144249386Y-61343005D01*
X144367582Y-61124598D01*
X144448217Y-60889715D01*
X144489092Y-60644763D01*
X144489092Y-60396425D01*
X144448217Y-60151473D01*
X144367582Y-59916590D01*
X144249386Y-59698183D01*
X144096853Y-59502209D01*
X144093020Y-59498681D01*
X144093016Y-59498676D01*
X143917984Y-59337549D01*
X143914144Y-59334014D01*
X143909782Y-59331164D01*
X143909778Y-59331161D01*
X143710605Y-59201035D01*
X143710603Y-59201034D01*
X143706244Y-59198186D01*
X143658397Y-59177198D01*
X143483592Y-59100521D01*
X143483588Y-59100519D01*
X143478822Y-59098429D01*
X143473778Y-59097151D01*
X143473776Y-59097151D01*
X143243132Y-59038744D01*
X143243122Y-59038742D01*
X143238082Y-59037466D01*
X143232897Y-59037036D01*
X143232889Y-59037035D01*
X143055173Y-59022309D01*
X143055162Y-59022308D01*
X143052573Y-59022094D01*
X140948611Y-59022094D01*
X140946022Y-59022308D01*
X140946010Y-59022309D01*
X140768294Y-59037035D01*
X140768284Y-59037036D01*
X140763102Y-59037466D01*
X140758063Y-59038741D01*
X140758051Y-59038744D01*
X140527407Y-59097151D01*
X140527402Y-59097152D01*
X140522362Y-59098429D01*
X140517599Y-59100518D01*
X140517591Y-59100521D01*
X140299713Y-59196092D01*
X140299709Y-59196093D01*
X140294940Y-59198186D01*
X140290585Y-59201030D01*
X140290578Y-59201035D01*
X140091405Y-59331161D01*
X140091395Y-59331168D01*
X140087040Y-59334014D01*
X140083205Y-59337544D01*
X140083199Y-59337549D01*
X139908167Y-59498676D01*
X139908156Y-59498687D01*
X139904331Y-59502209D01*
X139901138Y-59506311D01*
X139901130Y-59506320D01*
X139754997Y-59694072D01*
X139754993Y-59694077D01*
X139751798Y-59698183D01*
X139749320Y-59702761D01*
X139749318Y-59702765D01*
X139636083Y-59912004D01*
X139636079Y-59912012D01*
X139633602Y-59916590D01*
X139631913Y-59921508D01*
X139631908Y-59921521D01*
X139554659Y-60146542D01*
X139554656Y-60146550D01*
X139552967Y-60151473D01*
X139552110Y-60156606D01*
X139552109Y-60156612D01*
X139518346Y-60358947D01*
X139512092Y-60396425D01*
X139512092Y-60644763D01*
X134630500Y-60644763D01*
X134630500Y-52388089D01*
X137619220Y-52388089D01*
X137619579Y-52391436D01*
X137619580Y-52391439D01*
X137624888Y-52440818D01*
X137624889Y-52440824D01*
X137625731Y-52448652D01*
X137628482Y-52456029D01*
X137628483Y-52456031D01*
X137673682Y-52577214D01*
X137673684Y-52577217D01*
X137676831Y-52585655D01*
X137682228Y-52592865D01*
X137682230Y-52592868D01*
X137742950Y-52673980D01*
X137764459Y-52702712D01*
X137771670Y-52708110D01*
X137856018Y-52771253D01*
X137881516Y-52790340D01*
X138018519Y-52841440D01*
X138079082Y-52847951D01*
X140152989Y-52847951D01*
X140156358Y-52847951D01*
X140216921Y-52841440D01*
X140353924Y-52790340D01*
X140470981Y-52702712D01*
X140558609Y-52585655D01*
X140609709Y-52448652D01*
X140616220Y-52388089D01*
X140616220Y-51411432D01*
X142619220Y-51411432D01*
X142619434Y-51414021D01*
X142619435Y-51414032D01*
X142634161Y-51591748D01*
X142634162Y-51591756D01*
X142634592Y-51596941D01*
X142635868Y-51601981D01*
X142635870Y-51601991D01*
X142685634Y-51798505D01*
X142695555Y-51837681D01*
X142795312Y-52065103D01*
X142798160Y-52069462D01*
X142798161Y-52069464D01*
X142928287Y-52268637D01*
X142928290Y-52268641D01*
X142931140Y-52273003D01*
X142934675Y-52276843D01*
X143095802Y-52451875D01*
X143095807Y-52451879D01*
X143099335Y-52455712D01*
X143103444Y-52458910D01*
X143103446Y-52458912D01*
X143148661Y-52494104D01*
X143295309Y-52608245D01*
X143513716Y-52726441D01*
X143518644Y-52728133D01*
X143518647Y-52728134D01*
X143609600Y-52759358D01*
X143748599Y-52807076D01*
X143993551Y-52847951D01*
X144236678Y-52847951D01*
X144241889Y-52847951D01*
X144486841Y-52807076D01*
X144721724Y-52726441D01*
X144940131Y-52608245D01*
X145136105Y-52455712D01*
X145139637Y-52451874D01*
X145141600Y-52450068D01*
X145197692Y-52420208D01*
X145261224Y-52421520D01*
X145316036Y-52453671D01*
X149134611Y-56272246D01*
X149142153Y-56280533D01*
X149146269Y-56287018D01*
X149194254Y-56332079D01*
X149195936Y-56333658D01*
X149198778Y-56336413D01*
X149218499Y-56356134D01*
X149221683Y-56358604D01*
X149230706Y-56366309D01*
X149262948Y-56396586D01*
X149269897Y-56400406D01*
X149280698Y-56406344D01*
X149297228Y-56417202D01*
X149306963Y-56424754D01*
X149306966Y-56424756D01*
X149313228Y-56429613D01*
X149353805Y-56447172D01*
X149364440Y-56452381D01*
X149403209Y-56473695D01*
X149422835Y-56478734D01*
X149441528Y-56485134D01*
X149460124Y-56493181D01*
X149467955Y-56494421D01*
X149467958Y-56494422D01*
X149484397Y-56497025D01*
X149503794Y-56500097D01*
X149515394Y-56502498D01*
X149558239Y-56513500D01*
X149578493Y-56513500D01*
X149598203Y-56515050D01*
X149618212Y-56518220D01*
X149662230Y-56514058D01*
X149674088Y-56513500D01*
X159311800Y-56513500D01*
X159363047Y-56524392D01*
X159398724Y-56550312D01*
X159399420Y-56549540D01*
X159404331Y-56553962D01*
X159408747Y-56558866D01*
X159563248Y-56671118D01*
X159737712Y-56748794D01*
X159924513Y-56788500D01*
X160108884Y-56788500D01*
X160115487Y-56788500D01*
X160302288Y-56748794D01*
X160476752Y-56671118D01*
X160631253Y-56558866D01*
X160759040Y-56416944D01*
X160854527Y-56251556D01*
X160913542Y-56069928D01*
X160933504Y-55880000D01*
X160913542Y-55690072D01*
X160854527Y-55508444D01*
X160759040Y-55343056D01*
X160631253Y-55201134D01*
X160625911Y-55197253D01*
X160625908Y-55197250D01*
X160548057Y-55140688D01*
X160476752Y-55088882D01*
X160302288Y-55011206D01*
X160295835Y-55009834D01*
X160295831Y-55009833D01*
X160121943Y-54972872D01*
X160121940Y-54972871D01*
X160115487Y-54971500D01*
X159924513Y-54971500D01*
X159918060Y-54972871D01*
X159918056Y-54972872D01*
X159744168Y-55009833D01*
X159744161Y-55009835D01*
X159737712Y-55011206D01*
X159731682Y-55013890D01*
X159731681Y-55013891D01*
X159569278Y-55086197D01*
X159569275Y-55086198D01*
X159563248Y-55088882D01*
X159557907Y-55092762D01*
X159557906Y-55092763D01*
X159414086Y-55197254D01*
X159414080Y-55197259D01*
X159408747Y-55201134D01*
X159404333Y-55206035D01*
X159399420Y-55210460D01*
X159398724Y-55209687D01*
X159363047Y-55235608D01*
X159311800Y-55246500D01*
X149952864Y-55246500D01*
X149904646Y-55236909D01*
X149863769Y-55209595D01*
X147008133Y-52353959D01*
X149390856Y-52353959D01*
X149391215Y-52357306D01*
X149391216Y-52357309D01*
X149396524Y-52406688D01*
X149396525Y-52406694D01*
X149397367Y-52414522D01*
X149400118Y-52421899D01*
X149400119Y-52421901D01*
X149445318Y-52543084D01*
X149445320Y-52543087D01*
X149448467Y-52551525D01*
X149453864Y-52558735D01*
X149453866Y-52558738D01*
X149490927Y-52608245D01*
X149536095Y-52668582D01*
X149653152Y-52756210D01*
X149790155Y-52807310D01*
X149850718Y-52813821D01*
X151924625Y-52813821D01*
X151927994Y-52813821D01*
X151988557Y-52807310D01*
X152125560Y-52756210D01*
X152242617Y-52668582D01*
X152330245Y-52551525D01*
X152381345Y-52414522D01*
X152387856Y-52353959D01*
X152387856Y-51377302D01*
X154390856Y-51377302D01*
X154391070Y-51379891D01*
X154391071Y-51379902D01*
X154405797Y-51557618D01*
X154405798Y-51557626D01*
X154406228Y-51562811D01*
X154407504Y-51567851D01*
X154407506Y-51567861D01*
X154465913Y-51798505D01*
X154467191Y-51803551D01*
X154566948Y-52030973D01*
X154569796Y-52035332D01*
X154569797Y-52035334D01*
X154699923Y-52234507D01*
X154699926Y-52234511D01*
X154702776Y-52238873D01*
X154706311Y-52242713D01*
X154867438Y-52417745D01*
X154867443Y-52417749D01*
X154870971Y-52421582D01*
X155066945Y-52574115D01*
X155285352Y-52692311D01*
X155290280Y-52694003D01*
X155290283Y-52694004D01*
X155294641Y-52695500D01*
X155520235Y-52772946D01*
X155765187Y-52813821D01*
X156008314Y-52813821D01*
X156013525Y-52813821D01*
X156258477Y-52772946D01*
X156493360Y-52692311D01*
X156711767Y-52574115D01*
X156907741Y-52421582D01*
X157075936Y-52238873D01*
X157211764Y-52030973D01*
X157223501Y-52004216D01*
X195392308Y-52004216D01*
X195392667Y-52007563D01*
X195392668Y-52007566D01*
X195397976Y-52056945D01*
X195397977Y-52056951D01*
X195398819Y-52064779D01*
X195401570Y-52072156D01*
X195401571Y-52072158D01*
X195446770Y-52193341D01*
X195446772Y-52193344D01*
X195449919Y-52201782D01*
X195455316Y-52208992D01*
X195455318Y-52208995D01*
X195506109Y-52276843D01*
X195537547Y-52318839D01*
X195544758Y-52324237D01*
X195616479Y-52377927D01*
X195656866Y-52429357D01*
X195666037Y-52494103D01*
X195641521Y-52554726D01*
X195569202Y-52650492D01*
X195563095Y-52660355D01*
X195470562Y-52846186D01*
X195466374Y-52856998D01*
X195422125Y-53012516D01*
X195421596Y-53023957D01*
X195432741Y-53026578D01*
X197718875Y-53026578D01*
X197730019Y-53023957D01*
X197729490Y-53012516D01*
X197685241Y-52856998D01*
X197681053Y-52846186D01*
X197588520Y-52660355D01*
X197582412Y-52650490D01*
X197510095Y-52554727D01*
X197485578Y-52494104D01*
X197494749Y-52429357D01*
X197535132Y-52377930D01*
X197614069Y-52318839D01*
X197701697Y-52201782D01*
X197752797Y-52064779D01*
X197759308Y-52004216D01*
X197759308Y-50556940D01*
X197752797Y-50496377D01*
X197701697Y-50359374D01*
X197614069Y-50242317D01*
X197606857Y-50236918D01*
X197504225Y-50160088D01*
X197504222Y-50160086D01*
X197497012Y-50154689D01*
X197488574Y-50151542D01*
X197488571Y-50151540D01*
X197367388Y-50106341D01*
X197367386Y-50106340D01*
X197360009Y-50103589D01*
X197352181Y-50102747D01*
X197352175Y-50102746D01*
X197302796Y-50097438D01*
X197302793Y-50097437D01*
X197299446Y-50097078D01*
X195852170Y-50097078D01*
X195848823Y-50097437D01*
X195848819Y-50097438D01*
X195799440Y-50102746D01*
X195799433Y-50102747D01*
X195791607Y-50103589D01*
X195784231Y-50106339D01*
X195784227Y-50106341D01*
X195663044Y-50151540D01*
X195663038Y-50151543D01*
X195654604Y-50154689D01*
X195647396Y-50160084D01*
X195647390Y-50160088D01*
X195544758Y-50236918D01*
X195544754Y-50236921D01*
X195537547Y-50242317D01*
X195532151Y-50249524D01*
X195532148Y-50249528D01*
X195455318Y-50352160D01*
X195455314Y-50352166D01*
X195449919Y-50359374D01*
X195446773Y-50367808D01*
X195446770Y-50367814D01*
X195401571Y-50488997D01*
X195401569Y-50489001D01*
X195398819Y-50496377D01*
X195397977Y-50504203D01*
X195397976Y-50504210D01*
X195392668Y-50553589D01*
X195392308Y-50556940D01*
X195392308Y-52004216D01*
X157223501Y-52004216D01*
X157311521Y-51803551D01*
X157372484Y-51562811D01*
X157387856Y-51377302D01*
X157387856Y-49273340D01*
X157372484Y-49087831D01*
X157311521Y-48847091D01*
X157211764Y-48619669D01*
X157075936Y-48411769D01*
X157049380Y-48382922D01*
X156911273Y-48232896D01*
X156911268Y-48232891D01*
X156907741Y-48229060D01*
X156903632Y-48225862D01*
X156903629Y-48225859D01*
X156715877Y-48079726D01*
X156711767Y-48076527D01*
X156556427Y-47992461D01*
X156497945Y-47960812D01*
X156497942Y-47960810D01*
X156493360Y-47958331D01*
X156488436Y-47956640D01*
X156488428Y-47956637D01*
X156263407Y-47879388D01*
X156263401Y-47879386D01*
X156258477Y-47877696D01*
X156253340Y-47876838D01*
X156253337Y-47876838D01*
X156018662Y-47837678D01*
X156018659Y-47837677D01*
X156013525Y-47836821D01*
X155765187Y-47836821D01*
X155760053Y-47837677D01*
X155760049Y-47837678D01*
X155525374Y-47876838D01*
X155525368Y-47876839D01*
X155520235Y-47877696D01*
X155515312Y-47879385D01*
X155515304Y-47879388D01*
X155290283Y-47956637D01*
X155290270Y-47956642D01*
X155285352Y-47958331D01*
X155280774Y-47960808D01*
X155280766Y-47960812D01*
X155071527Y-48074047D01*
X155071523Y-48074049D01*
X155066945Y-48076527D01*
X155062839Y-48079722D01*
X155062834Y-48079726D01*
X154875082Y-48225859D01*
X154875073Y-48225867D01*
X154870971Y-48229060D01*
X154867449Y-48232885D01*
X154867438Y-48232896D01*
X154706311Y-48407928D01*
X154706306Y-48407934D01*
X154702776Y-48411769D01*
X154699930Y-48416124D01*
X154699923Y-48416134D01*
X154569797Y-48615307D01*
X154569792Y-48615314D01*
X154566948Y-48619669D01*
X154564855Y-48624438D01*
X154564854Y-48624442D01*
X154469283Y-48842320D01*
X154469280Y-48842328D01*
X154467191Y-48847091D01*
X154465914Y-48852131D01*
X154465913Y-48852136D01*
X154407506Y-49082780D01*
X154407503Y-49082792D01*
X154406228Y-49087831D01*
X154405798Y-49093013D01*
X154405797Y-49093023D01*
X154391071Y-49270739D01*
X154391070Y-49270751D01*
X154390856Y-49273340D01*
X154390856Y-51377302D01*
X152387856Y-51377302D01*
X152387856Y-48296683D01*
X152381345Y-48236120D01*
X152330245Y-48099117D01*
X152313334Y-48076527D01*
X152248015Y-47989271D01*
X152242617Y-47982060D01*
X152208656Y-47956637D01*
X152132773Y-47899831D01*
X152132770Y-47899829D01*
X152125560Y-47894432D01*
X152117122Y-47891285D01*
X152117119Y-47891283D01*
X151995936Y-47846084D01*
X151995934Y-47846083D01*
X151988557Y-47843332D01*
X151980729Y-47842490D01*
X151980723Y-47842489D01*
X151931344Y-47837181D01*
X151931341Y-47837180D01*
X151927994Y-47836821D01*
X149850718Y-47836821D01*
X149847371Y-47837180D01*
X149847367Y-47837181D01*
X149797988Y-47842489D01*
X149797981Y-47842490D01*
X149790155Y-47843332D01*
X149782779Y-47846082D01*
X149782775Y-47846084D01*
X149661592Y-47891283D01*
X149661586Y-47891286D01*
X149653152Y-47894432D01*
X149645944Y-47899827D01*
X149645938Y-47899831D01*
X149543306Y-47976661D01*
X149543302Y-47976664D01*
X149536095Y-47982060D01*
X149530699Y-47989267D01*
X149530696Y-47989271D01*
X149453866Y-48091903D01*
X149453862Y-48091909D01*
X149448467Y-48099117D01*
X149445321Y-48107551D01*
X149445318Y-48107557D01*
X149400119Y-48228740D01*
X149400117Y-48228744D01*
X149397367Y-48236120D01*
X149396525Y-48243946D01*
X149396524Y-48243953D01*
X149391216Y-48293332D01*
X149390856Y-48296683D01*
X149390856Y-52353959D01*
X147008133Y-52353959D01*
X145653125Y-50998951D01*
X145625811Y-50958074D01*
X145616220Y-50909856D01*
X145616220Y-49310084D01*
X145616220Y-49307470D01*
X145600848Y-49121961D01*
X145539885Y-48881221D01*
X145440128Y-48653799D01*
X145304300Y-48445899D01*
X145201458Y-48334182D01*
X145139637Y-48267026D01*
X145139632Y-48267021D01*
X145136105Y-48263190D01*
X145131996Y-48259992D01*
X145131993Y-48259989D01*
X144944241Y-48113856D01*
X144940131Y-48110657D01*
X144778896Y-48023401D01*
X144726309Y-47994942D01*
X144726306Y-47994940D01*
X144721724Y-47992461D01*
X144716800Y-47990770D01*
X144716792Y-47990767D01*
X144491771Y-47913518D01*
X144491765Y-47913516D01*
X144486841Y-47911826D01*
X144481704Y-47910968D01*
X144481701Y-47910968D01*
X144247026Y-47871808D01*
X144247023Y-47871807D01*
X144241889Y-47870951D01*
X143993551Y-47870951D01*
X143988417Y-47871807D01*
X143988413Y-47871808D01*
X143753738Y-47910968D01*
X143753732Y-47910969D01*
X143748599Y-47911826D01*
X143743676Y-47913515D01*
X143743668Y-47913518D01*
X143518647Y-47990767D01*
X143518634Y-47990772D01*
X143513716Y-47992461D01*
X143509138Y-47994938D01*
X143509130Y-47994942D01*
X143299891Y-48108177D01*
X143299887Y-48108179D01*
X143295309Y-48110657D01*
X143291203Y-48113852D01*
X143291198Y-48113856D01*
X143103446Y-48259989D01*
X143103437Y-48259997D01*
X143099335Y-48263190D01*
X143095813Y-48267015D01*
X143095802Y-48267026D01*
X142934675Y-48442058D01*
X142934670Y-48442064D01*
X142931140Y-48445899D01*
X142928294Y-48450254D01*
X142928287Y-48450264D01*
X142798161Y-48649437D01*
X142798156Y-48649444D01*
X142795312Y-48653799D01*
X142793219Y-48658568D01*
X142793218Y-48658572D01*
X142697647Y-48876450D01*
X142697644Y-48876458D01*
X142695555Y-48881221D01*
X142694278Y-48886261D01*
X142694277Y-48886266D01*
X142635870Y-49116910D01*
X142635867Y-49116922D01*
X142634592Y-49121961D01*
X142634162Y-49127143D01*
X142634161Y-49127153D01*
X142619435Y-49304869D01*
X142619434Y-49304881D01*
X142619220Y-49307470D01*
X142619220Y-51411432D01*
X140616220Y-51411432D01*
X140616220Y-49809045D01*
X140625811Y-49760827D01*
X140653125Y-49719950D01*
X143982670Y-46390405D01*
X144023547Y-46363091D01*
X144071765Y-46353500D01*
X157165406Y-46353500D01*
X157213624Y-46363091D01*
X157254501Y-46390405D01*
X159072877Y-48208781D01*
X159097508Y-48243631D01*
X159109092Y-48284705D01*
X159122447Y-48411769D01*
X159126458Y-48449928D01*
X159128495Y-48456200D01*
X159128497Y-48456205D01*
X159183430Y-48625271D01*
X159183433Y-48625278D01*
X159185473Y-48631556D01*
X159280960Y-48796944D01*
X159408747Y-48938866D01*
X159563248Y-49051118D01*
X159737712Y-49128794D01*
X159924513Y-49168500D01*
X160108884Y-49168500D01*
X160115487Y-49168500D01*
X160302288Y-49128794D01*
X160476752Y-49051118D01*
X160631253Y-48938866D01*
X160759040Y-48796944D01*
X160854527Y-48631556D01*
X160913542Y-48449928D01*
X160933504Y-48260000D01*
X160913542Y-48070072D01*
X160876684Y-47956637D01*
X160856569Y-47894728D01*
X160856568Y-47894726D01*
X160854527Y-47888444D01*
X160759040Y-47723056D01*
X160631253Y-47581134D01*
X160625911Y-47577253D01*
X160625908Y-47577250D01*
X160548057Y-47520688D01*
X160476752Y-47468882D01*
X160302288Y-47391206D01*
X160295835Y-47389834D01*
X160295831Y-47389833D01*
X160121943Y-47352872D01*
X160121940Y-47352871D01*
X160115487Y-47351500D01*
X160108884Y-47351500D01*
X160059595Y-47351500D01*
X160011377Y-47341909D01*
X159970500Y-47314595D01*
X157983646Y-45327741D01*
X157976112Y-45319463D01*
X157972000Y-45312982D01*
X157922348Y-45266356D01*
X157919506Y-45263601D01*
X157902574Y-45246669D01*
X157902573Y-45246668D01*
X157899770Y-45243865D01*
X157896575Y-45241386D01*
X157887554Y-45233682D01*
X157881820Y-45228298D01*
X157855321Y-45203414D01*
X157848377Y-45199596D01*
X157848371Y-45199592D01*
X157837566Y-45193652D01*
X157821047Y-45182801D01*
X157805041Y-45170386D01*
X157797766Y-45167238D01*
X157797763Y-45167236D01*
X157764466Y-45152828D01*
X157753804Y-45147605D01*
X157722007Y-45130124D01*
X157722005Y-45130123D01*
X157715060Y-45126305D01*
X157707383Y-45124334D01*
X157707381Y-45124333D01*
X157695438Y-45121267D01*
X157676734Y-45114863D01*
X157665420Y-45109967D01*
X157665418Y-45109966D01*
X157658145Y-45106819D01*
X157650319Y-45105579D01*
X157650318Y-45105579D01*
X157614475Y-45099902D01*
X157602859Y-45097496D01*
X157560030Y-45086500D01*
X157552101Y-45086500D01*
X157539776Y-45086500D01*
X157520065Y-45084949D01*
X157507885Y-45083019D01*
X157507878Y-45083018D01*
X157500057Y-45081780D01*
X157492173Y-45082525D01*
X157492165Y-45082525D01*
X157456039Y-45085941D01*
X157444181Y-45086500D01*
X143835939Y-45086500D01*
X143824755Y-45085972D01*
X143817263Y-45084298D01*
X143809337Y-45084547D01*
X143749173Y-45086438D01*
X143745215Y-45086500D01*
X143717315Y-45086500D01*
X143713390Y-45086995D01*
X143713369Y-45086997D01*
X143713295Y-45087007D01*
X143701484Y-45087936D01*
X143665206Y-45089076D01*
X143665198Y-45089077D01*
X143657282Y-45089326D01*
X143649668Y-45091537D01*
X143649666Y-45091538D01*
X143637820Y-45094979D01*
X143618474Y-45098986D01*
X143606231Y-45100533D01*
X143606229Y-45100533D01*
X143598374Y-45101526D01*
X143591014Y-45104439D01*
X143591009Y-45104441D01*
X143557264Y-45117801D01*
X143546042Y-45121643D01*
X143511189Y-45131769D01*
X143511184Y-45131770D01*
X143503578Y-45133981D01*
X143496758Y-45138013D01*
X143496756Y-45138015D01*
X143486134Y-45144297D01*
X143468385Y-45152991D01*
X143456931Y-45157526D01*
X143456923Y-45157529D01*
X143449554Y-45160448D01*
X143443139Y-45165107D01*
X143443138Y-45165109D01*
X143413784Y-45186435D01*
X143403870Y-45192947D01*
X143372631Y-45211423D01*
X143372629Y-45211424D01*
X143365809Y-45215458D01*
X143360210Y-45221055D01*
X143360203Y-45221062D01*
X143351479Y-45229786D01*
X143336458Y-45242615D01*
X143326478Y-45249866D01*
X143326469Y-45249873D01*
X143320064Y-45254528D01*
X143315016Y-45260628D01*
X143315007Y-45260638D01*
X143291871Y-45288604D01*
X143283884Y-45297381D01*
X140601994Y-47979271D01*
X140551264Y-48010193D01*
X140492004Y-48014431D01*
X140437390Y-47991044D01*
X140361137Y-47933961D01*
X140361134Y-47933959D01*
X140353924Y-47928562D01*
X140345486Y-47925415D01*
X140345483Y-47925413D01*
X140224300Y-47880214D01*
X140224298Y-47880213D01*
X140216921Y-47877462D01*
X140209093Y-47876620D01*
X140209087Y-47876619D01*
X140159708Y-47871311D01*
X140159705Y-47871310D01*
X140156358Y-47870951D01*
X138079082Y-47870951D01*
X138075735Y-47871310D01*
X138075731Y-47871311D01*
X138026352Y-47876619D01*
X138026345Y-47876620D01*
X138018519Y-47877462D01*
X138011143Y-47880212D01*
X138011139Y-47880214D01*
X137889956Y-47925413D01*
X137889950Y-47925416D01*
X137881516Y-47928562D01*
X137874308Y-47933957D01*
X137874302Y-47933961D01*
X137771670Y-48010791D01*
X137771666Y-48010794D01*
X137764459Y-48016190D01*
X137759063Y-48023397D01*
X137759060Y-48023401D01*
X137682230Y-48126033D01*
X137682226Y-48126039D01*
X137676831Y-48133247D01*
X137673685Y-48141681D01*
X137673682Y-48141687D01*
X137628483Y-48262870D01*
X137628481Y-48262874D01*
X137625731Y-48270250D01*
X137624889Y-48278076D01*
X137624888Y-48278083D01*
X137619580Y-48327462D01*
X137619220Y-48330813D01*
X137619220Y-52388089D01*
X134630500Y-52388089D01*
X134630500Y-45005341D01*
X160609241Y-45005341D01*
X160609720Y-45010816D01*
X160628746Y-45228298D01*
X160628747Y-45228306D01*
X160629226Y-45233776D01*
X160630646Y-45239078D01*
X160630648Y-45239085D01*
X160687152Y-45449959D01*
X160687154Y-45449965D01*
X160688576Y-45455271D01*
X160690898Y-45460250D01*
X160690900Y-45460256D01*
X160754727Y-45597133D01*
X160785485Y-45663094D01*
X160788638Y-45667597D01*
X160788641Y-45667602D01*
X160862612Y-45773243D01*
X160917011Y-45850932D01*
X161079156Y-46013077D01*
X161266994Y-46144603D01*
X161474817Y-46241512D01*
X161696312Y-46300862D01*
X161924747Y-46320847D01*
X162153182Y-46300862D01*
X162374677Y-46241512D01*
X162582500Y-46144603D01*
X162770338Y-46013077D01*
X162932483Y-45850932D01*
X163064009Y-45663094D01*
X163160918Y-45455271D01*
X163220268Y-45233776D01*
X163240253Y-45005341D01*
X163234919Y-44944368D01*
X195504494Y-44944368D01*
X195504973Y-44949843D01*
X195523999Y-45167325D01*
X195524000Y-45167333D01*
X195524479Y-45172803D01*
X195525899Y-45178105D01*
X195525901Y-45178112D01*
X195582405Y-45388986D01*
X195582407Y-45388992D01*
X195583829Y-45394298D01*
X195586151Y-45399277D01*
X195586153Y-45399283D01*
X195674675Y-45589118D01*
X195680738Y-45602121D01*
X195683891Y-45606624D01*
X195683894Y-45606629D01*
X195714327Y-45650091D01*
X195812264Y-45789959D01*
X195974409Y-45952104D01*
X196162247Y-46083630D01*
X196370070Y-46180539D01*
X196591565Y-46239889D01*
X196820000Y-46259874D01*
X197048435Y-46239889D01*
X197269930Y-46180539D01*
X197477753Y-46083630D01*
X197665591Y-45952104D01*
X197827736Y-45789959D01*
X197959262Y-45602121D01*
X198056171Y-45394298D01*
X198115521Y-45172803D01*
X198135506Y-44944368D01*
X198115521Y-44715933D01*
X198056171Y-44494438D01*
X197959262Y-44286615D01*
X197827736Y-44098777D01*
X197665591Y-43936632D01*
X197591632Y-43884845D01*
X197482261Y-43808262D01*
X197482256Y-43808259D01*
X197477753Y-43805106D01*
X197453093Y-43793607D01*
X197274915Y-43710521D01*
X197274909Y-43710519D01*
X197269930Y-43708197D01*
X197264624Y-43706775D01*
X197264618Y-43706773D01*
X197053744Y-43650269D01*
X197053737Y-43650267D01*
X197048435Y-43648847D01*
X197042965Y-43648368D01*
X197042957Y-43648367D01*
X196825475Y-43629341D01*
X196820000Y-43628862D01*
X196814525Y-43629341D01*
X196597042Y-43648367D01*
X196597032Y-43648368D01*
X196591565Y-43648847D01*
X196586263Y-43650267D01*
X196586255Y-43650269D01*
X196375381Y-43706773D01*
X196375371Y-43706776D01*
X196370070Y-43708197D01*
X196365093Y-43710517D01*
X196365084Y-43710521D01*
X196167234Y-43802780D01*
X196167229Y-43802782D01*
X196162247Y-43805106D01*
X196157748Y-43808256D01*
X196157738Y-43808262D01*
X195978920Y-43933473D01*
X195978917Y-43933475D01*
X195974409Y-43936632D01*
X195970517Y-43940523D01*
X195970511Y-43940529D01*
X195816161Y-44094879D01*
X195816155Y-44094885D01*
X195812264Y-44098777D01*
X195809107Y-44103285D01*
X195809105Y-44103288D01*
X195683894Y-44282106D01*
X195683888Y-44282116D01*
X195680738Y-44286615D01*
X195678414Y-44291597D01*
X195678412Y-44291602D01*
X195586153Y-44489452D01*
X195586149Y-44489461D01*
X195583829Y-44494438D01*
X195582408Y-44499739D01*
X195582405Y-44499749D01*
X195525901Y-44710623D01*
X195525899Y-44710631D01*
X195524479Y-44715933D01*
X195524000Y-44721400D01*
X195523999Y-44721410D01*
X195505217Y-44936093D01*
X195504494Y-44944368D01*
X163234919Y-44944368D01*
X163220268Y-44776906D01*
X163160918Y-44555411D01*
X163064009Y-44347588D01*
X162932483Y-44159750D01*
X162770338Y-43997605D01*
X162614665Y-43888601D01*
X162587008Y-43869235D01*
X162587003Y-43869232D01*
X162582500Y-43866079D01*
X162577512Y-43863753D01*
X162379662Y-43771494D01*
X162379656Y-43771492D01*
X162374677Y-43769170D01*
X162369371Y-43767748D01*
X162369365Y-43767746D01*
X162158491Y-43711242D01*
X162158484Y-43711240D01*
X162153182Y-43709820D01*
X162147712Y-43709341D01*
X162147704Y-43709340D01*
X161930222Y-43690314D01*
X161924747Y-43689835D01*
X161919272Y-43690314D01*
X161701789Y-43709340D01*
X161701779Y-43709341D01*
X161696312Y-43709820D01*
X161691010Y-43711240D01*
X161691002Y-43711242D01*
X161480128Y-43767746D01*
X161480118Y-43767749D01*
X161474817Y-43769170D01*
X161469840Y-43771490D01*
X161469831Y-43771494D01*
X161271981Y-43863753D01*
X161271976Y-43863755D01*
X161266994Y-43866079D01*
X161262495Y-43869229D01*
X161262485Y-43869235D01*
X161083667Y-43994446D01*
X161083664Y-43994448D01*
X161079156Y-43997605D01*
X161075264Y-44001496D01*
X161075258Y-44001502D01*
X160920908Y-44155852D01*
X160920902Y-44155858D01*
X160917011Y-44159750D01*
X160913854Y-44164258D01*
X160913852Y-44164261D01*
X160788641Y-44343079D01*
X160788635Y-44343089D01*
X160785485Y-44347588D01*
X160783161Y-44352570D01*
X160783159Y-44352575D01*
X160690900Y-44550425D01*
X160690896Y-44550434D01*
X160688576Y-44555411D01*
X160687155Y-44560712D01*
X160687152Y-44560722D01*
X160630648Y-44771596D01*
X160630646Y-44771604D01*
X160629226Y-44776906D01*
X160628747Y-44782373D01*
X160628746Y-44782383D01*
X160615054Y-44938893D01*
X160609241Y-45005341D01*
X134630500Y-45005341D01*
X134630500Y-43316500D01*
X134647381Y-43253500D01*
X134693500Y-43207381D01*
X134756500Y-43190500D01*
X160017912Y-43190500D01*
X160022088Y-43190500D01*
X198863500Y-43190500D01*
X198926500Y-43207381D01*
G37*
G04 #@! TD.AperFunction*
M02*
