G04 #@! TF.GenerationSoftware,KiCad,Pcbnew,7.0.0*
G04 #@! TF.CreationDate,2023-02-20T20:21:08-05:00*
G04 #@! TF.ProjectId,PCB,5043422e-6b69-4636-9164-5f7063625858,rev?*
G04 #@! TF.SameCoordinates,Original*
G04 #@! TF.FileFunction,Legend,Bot*
G04 #@! TF.FilePolarity,Positive*
%FSLAX46Y46*%
G04 Gerber Fmt 4.6, Leading zero omitted, Abs format (unit mm)*
G04 Created by KiCad (PCBNEW 7.0.0) date 2023-02-20 20:21:08*
%MOMM*%
%LPD*%
G01*
G04 APERTURE LIST*
%ADD10C,0.150000*%
%ADD11C,0.120000*%
%ADD12C,1.400000*%
%ADD13O,1.400000X1.400000*%
%ADD14R,1.800000X1.800000*%
%ADD15C,1.800000*%
%ADD16R,1.350000X1.350000*%
%ADD17O,1.350000X1.350000*%
%ADD18R,1.980000X3.960000*%
%ADD19O,1.980000X3.960000*%
%ADD20R,1.700000X1.700000*%
%ADD21O,1.700000X1.700000*%
%ADD22R,3.960000X1.980000*%
%ADD23O,3.960000X1.980000*%
%ADD24R,1.900000X1.900000*%
%ADD25C,1.900000*%
%ADD26C,1.700000*%
G04 APERTURE END LIST*
D10*
X197717223Y-48180878D02*
X160717223Y-48180878D01*
X160717223Y-48180878D02*
X160717223Y-64180878D01*
X160717223Y-64180878D02*
X197717223Y-64180878D01*
X197717223Y-64180878D02*
X197717223Y-48180878D01*
X193809141Y-48647958D02*
X193809141Y-49362244D01*
X193809141Y-49362244D02*
X193856760Y-49505101D01*
X193856760Y-49505101D02*
X193951998Y-49600339D01*
X193951998Y-49600339D02*
X194094855Y-49647958D01*
X194094855Y-49647958D02*
X194190093Y-49647958D01*
X192809141Y-49647958D02*
X193380569Y-49647958D01*
X193094855Y-49647958D02*
X193094855Y-48647958D01*
X193094855Y-48647958D02*
X193190093Y-48790816D01*
X193190093Y-48790816D02*
X193285331Y-48886054D01*
X193285331Y-48886054D02*
X193380569Y-48933673D01*
D11*
X195135808Y-54280578D02*
X193515808Y-54280578D01*
X189315808Y-54970578D02*
X189315808Y-55590578D01*
X195135808Y-60280578D02*
X193515808Y-60280578D01*
X195693694Y-60970578D02*
X195135808Y-60970578D01*
X197575808Y-51280578D02*
X197575808Y-50280578D01*
X193515808Y-56970578D02*
X189315808Y-56970578D01*
X189315808Y-61590578D02*
X193515808Y-61590578D01*
X193515808Y-51390578D02*
X189315808Y-51390578D01*
X189315808Y-51590578D02*
X193515808Y-51590578D01*
X195693694Y-57590578D02*
X195135808Y-57590578D01*
X193515808Y-54970578D02*
X189315808Y-54970578D01*
X189315808Y-50970578D02*
X189315808Y-51590578D01*
X189315808Y-57590578D02*
X193515808Y-57590578D01*
X195693694Y-53590578D02*
X195135808Y-53590578D01*
X195693694Y-59590578D02*
X195135808Y-59590578D01*
X195135808Y-50220578D02*
X195135808Y-62340578D01*
X189315808Y-59590578D02*
X193515808Y-59590578D01*
X193515808Y-62340578D02*
X193515808Y-50220578D01*
X193515808Y-50970578D02*
X189315808Y-50970578D01*
X195693694Y-54970578D02*
X195135808Y-54970578D01*
X195693694Y-56970578D02*
X195135808Y-56970578D01*
X193515808Y-51030578D02*
X189315808Y-51030578D01*
X189315808Y-53590578D02*
X193515808Y-53590578D01*
X195693694Y-55590578D02*
X195135808Y-55590578D01*
X193515808Y-58970578D02*
X189315808Y-58970578D01*
X189315808Y-52970578D02*
X189315808Y-53590578D01*
X195640808Y-51590578D02*
X195135808Y-51590578D01*
X189315808Y-56970578D02*
X189315808Y-57590578D01*
X189315808Y-60970578D02*
X189315808Y-61590578D01*
X195693694Y-58970578D02*
X195135808Y-58970578D01*
X195135808Y-62340578D02*
X193515808Y-62340578D01*
X195693694Y-61590578D02*
X195135808Y-61590578D01*
X195135808Y-58280578D02*
X193515808Y-58280578D01*
X193515808Y-51270578D02*
X189315808Y-51270578D01*
X193515808Y-51510578D02*
X189315808Y-51510578D01*
X189315808Y-55590578D02*
X193515808Y-55590578D01*
X195693694Y-52970578D02*
X195135808Y-52970578D01*
X193515808Y-50220578D02*
X195135808Y-50220578D01*
X193515808Y-60970578D02*
X189315808Y-60970578D01*
X195135808Y-52280578D02*
X193515808Y-52280578D01*
X195640808Y-50970578D02*
X195135808Y-50970578D01*
X197575808Y-50280578D02*
X196575808Y-50280578D01*
X195135808Y-56280578D02*
X193515808Y-56280578D01*
X193515808Y-52970578D02*
X189315808Y-52970578D01*
X193515808Y-51150578D02*
X189315808Y-51150578D01*
X189315808Y-58970578D02*
X189315808Y-59590578D01*
%LPC*%
D12*
X146250044Y-70161250D03*
D13*
X146250043Y-77781249D03*
D14*
X142239999Y-82089999D03*
D15*
X144780000Y-82090000D03*
D16*
X196575807Y-51280577D03*
D17*
X196575807Y-53280577D03*
X196575807Y-55280577D03*
X196575807Y-57280577D03*
X196575807Y-59280577D03*
X196575807Y-61280577D03*
D18*
X150889355Y-50325320D03*
D19*
X155889355Y-50325320D03*
D20*
X188713765Y-65940924D03*
D21*
X186173765Y-65940924D03*
X183633765Y-65940924D03*
X181093765Y-65940924D03*
X178553765Y-65940924D03*
X176013765Y-65940924D03*
X173473765Y-65940924D03*
X170933765Y-65940924D03*
D22*
X142000591Y-65520593D03*
D23*
X142000591Y-60520593D03*
D18*
X139117719Y-50359450D03*
D19*
X144117719Y-50359450D03*
D12*
X141599153Y-70187193D03*
D13*
X141599152Y-77807192D03*
D16*
X157479999Y-65499999D03*
D17*
X157479999Y-63499999D03*
X157479999Y-61499999D03*
X157479999Y-59499999D03*
D24*
X137159999Y-74857703D03*
D25*
X137160000Y-77357704D03*
X137160000Y-79857704D03*
D12*
X143952579Y-70177101D03*
D13*
X143952578Y-77797100D03*
D26*
X169490000Y-86076000D03*
X172030000Y-86076000D03*
X192350000Y-70820000D03*
X174570000Y-86076000D03*
X177110000Y-86076000D03*
X166950000Y-70820000D03*
X179650000Y-86076000D03*
X182190000Y-86076000D03*
X184730000Y-86076000D03*
X187270000Y-86076000D03*
X189810000Y-86076000D03*
X192350000Y-86076000D03*
X194890000Y-86076000D03*
X194890000Y-70820000D03*
X187270000Y-70820000D03*
X184730000Y-70820000D03*
X182190000Y-70820000D03*
X179650000Y-70820000D03*
X177110000Y-70820000D03*
X174570000Y-70820000D03*
X189810000Y-70820000D03*
X161870000Y-70820000D03*
X166950000Y-86076000D03*
X156790000Y-70820000D03*
D20*
X154249999Y-86075999D03*
D26*
X169490000Y-70820000D03*
X172030000Y-70820000D03*
X164410000Y-70820000D03*
X164410000Y-86076000D03*
X161870000Y-86076000D03*
X154250000Y-70820000D03*
X156790000Y-86076000D03*
X159330000Y-86076000D03*
X159330000Y-70820000D03*
M02*
