G04 #@! TF.GenerationSoftware,KiCad,Pcbnew,7.0.0*
G04 #@! TF.CreationDate,2023-02-20T20:21:08-05:00*
G04 #@! TF.ProjectId,PCB,5043422e-6b69-4636-9164-5f7063625858,rev?*
G04 #@! TF.SameCoordinates,Original*
G04 #@! TF.FileFunction,Legend,Top*
G04 #@! TF.FilePolarity,Positive*
%FSLAX46Y46*%
G04 Gerber Fmt 4.6, Leading zero omitted, Abs format (unit mm)*
G04 Created by KiCad (PCBNEW 7.0.0) date 2023-02-20 20:21:08*
%MOMM*%
%LPD*%
G01*
G04 APERTURE LIST*
%ADD10C,0.150000*%
%ADD11C,0.120000*%
%ADD12C,0.100000*%
%ADD13C,1.400000*%
%ADD14O,1.400000X1.400000*%
%ADD15R,1.800000X1.800000*%
%ADD16C,1.800000*%
%ADD17R,1.350000X1.350000*%
%ADD18O,1.350000X1.350000*%
%ADD19R,1.980000X3.960000*%
%ADD20O,1.980000X3.960000*%
%ADD21R,1.700000X1.700000*%
%ADD22O,1.700000X1.700000*%
%ADD23R,3.960000X1.980000*%
%ADD24O,3.960000X1.980000*%
%ADD25R,1.900000X1.900000*%
%ADD26C,1.900000*%
%ADD27C,1.700000*%
G04 APERTURE END LIST*
D10*
X161840000Y-45720000D02*
X198840000Y-45720000D01*
X198840000Y-45720000D02*
X198840000Y-67720000D01*
X198840000Y-67720000D02*
X161840000Y-67720000D01*
X161840000Y-67720000D02*
X161840000Y-45720000D01*
X142771905Y-80497380D02*
X142771905Y-79497380D01*
X142771905Y-79497380D02*
X143010000Y-79497380D01*
X143010000Y-79497380D02*
X143152857Y-79545000D01*
X143152857Y-79545000D02*
X143248095Y-79640238D01*
X143248095Y-79640238D02*
X143295714Y-79735476D01*
X143295714Y-79735476D02*
X143343333Y-79925952D01*
X143343333Y-79925952D02*
X143343333Y-80068809D01*
X143343333Y-80068809D02*
X143295714Y-80259285D01*
X143295714Y-80259285D02*
X143248095Y-80354523D01*
X143248095Y-80354523D02*
X143152857Y-80449761D01*
X143152857Y-80449761D02*
X143010000Y-80497380D01*
X143010000Y-80497380D02*
X142771905Y-80497380D01*
X144295714Y-80497380D02*
X143724286Y-80497380D01*
X144010000Y-80497380D02*
X144010000Y-79497380D01*
X144010000Y-79497380D02*
X143914762Y-79640238D01*
X143914762Y-79640238D02*
X143819524Y-79735476D01*
X143819524Y-79735476D02*
X143724286Y-79783095D01*
X153568602Y-52722330D02*
X153568602Y-53436616D01*
X153568602Y-53436616D02*
X153520983Y-53579473D01*
X153520983Y-53579473D02*
X153425745Y-53674711D01*
X153425745Y-53674711D02*
X153282888Y-53722330D01*
X153282888Y-53722330D02*
X153187650Y-53722330D01*
X154520983Y-52722330D02*
X154044793Y-52722330D01*
X154044793Y-52722330D02*
X153997174Y-53198521D01*
X153997174Y-53198521D02*
X154044793Y-53150902D01*
X154044793Y-53150902D02*
X154140031Y-53103283D01*
X154140031Y-53103283D02*
X154378126Y-53103283D01*
X154378126Y-53103283D02*
X154473364Y-53150902D01*
X154473364Y-53150902D02*
X154520983Y-53198521D01*
X154520983Y-53198521D02*
X154568602Y-53293759D01*
X154568602Y-53293759D02*
X154568602Y-53531854D01*
X154568602Y-53531854D02*
X154520983Y-53627092D01*
X154520983Y-53627092D02*
X154473364Y-53674711D01*
X154473364Y-53674711D02*
X154378126Y-53722330D01*
X154378126Y-53722330D02*
X154140031Y-53722330D01*
X154140031Y-53722330D02*
X154044793Y-53674711D01*
X154044793Y-53674711D02*
X153997174Y-53627092D01*
X190851146Y-66274258D02*
X191565432Y-66274258D01*
X191565432Y-66274258D02*
X191708289Y-66321877D01*
X191708289Y-66321877D02*
X191803527Y-66417115D01*
X191803527Y-66417115D02*
X191851146Y-66559972D01*
X191851146Y-66559972D02*
X191851146Y-66655210D01*
X190946385Y-65845686D02*
X190898766Y-65798067D01*
X190898766Y-65798067D02*
X190851146Y-65702829D01*
X190851146Y-65702829D02*
X190851146Y-65464734D01*
X190851146Y-65464734D02*
X190898766Y-65369496D01*
X190898766Y-65369496D02*
X190946385Y-65321877D01*
X190946385Y-65321877D02*
X191041623Y-65274258D01*
X191041623Y-65274258D02*
X191136861Y-65274258D01*
X191136861Y-65274258D02*
X191279718Y-65321877D01*
X191279718Y-65321877D02*
X191851146Y-65893305D01*
X191851146Y-65893305D02*
X191851146Y-65274258D01*
X144361947Y-62558830D02*
X145076233Y-62558830D01*
X145076233Y-62558830D02*
X145219090Y-62606449D01*
X145219090Y-62606449D02*
X145314328Y-62701687D01*
X145314328Y-62701687D02*
X145361947Y-62844544D01*
X145361947Y-62844544D02*
X145361947Y-62939782D01*
X144361947Y-62177877D02*
X144361947Y-61511211D01*
X144361947Y-61511211D02*
X145361947Y-61939782D01*
X141906666Y-52707380D02*
X141906666Y-53421666D01*
X141906666Y-53421666D02*
X141859047Y-53564523D01*
X141859047Y-53564523D02*
X141763809Y-53659761D01*
X141763809Y-53659761D02*
X141620952Y-53707380D01*
X141620952Y-53707380D02*
X141525714Y-53707380D01*
X142811428Y-52707380D02*
X142620952Y-52707380D01*
X142620952Y-52707380D02*
X142525714Y-52755000D01*
X142525714Y-52755000D02*
X142478095Y-52802619D01*
X142478095Y-52802619D02*
X142382857Y-52945476D01*
X142382857Y-52945476D02*
X142335238Y-53135952D01*
X142335238Y-53135952D02*
X142335238Y-53516904D01*
X142335238Y-53516904D02*
X142382857Y-53612142D01*
X142382857Y-53612142D02*
X142430476Y-53659761D01*
X142430476Y-53659761D02*
X142525714Y-53707380D01*
X142525714Y-53707380D02*
X142716190Y-53707380D01*
X142716190Y-53707380D02*
X142811428Y-53659761D01*
X142811428Y-53659761D02*
X142859047Y-53612142D01*
X142859047Y-53612142D02*
X142906666Y-53516904D01*
X142906666Y-53516904D02*
X142906666Y-53278809D01*
X142906666Y-53278809D02*
X142859047Y-53183571D01*
X142859047Y-53183571D02*
X142811428Y-53135952D01*
X142811428Y-53135952D02*
X142716190Y-53088333D01*
X142716190Y-53088333D02*
X142525714Y-53088333D01*
X142525714Y-53088333D02*
X142430476Y-53135952D01*
X142430476Y-53135952D02*
X142382857Y-53183571D01*
X142382857Y-53183571D02*
X142335238Y-53278809D01*
X159387380Y-66373333D02*
X160101666Y-66373333D01*
X160101666Y-66373333D02*
X160244523Y-66420952D01*
X160244523Y-66420952D02*
X160339761Y-66516190D01*
X160339761Y-66516190D02*
X160387380Y-66659047D01*
X160387380Y-66659047D02*
X160387380Y-66754285D01*
X159387380Y-65992380D02*
X159387380Y-65373333D01*
X159387380Y-65373333D02*
X159768333Y-65706666D01*
X159768333Y-65706666D02*
X159768333Y-65563809D01*
X159768333Y-65563809D02*
X159815952Y-65468571D01*
X159815952Y-65468571D02*
X159863571Y-65420952D01*
X159863571Y-65420952D02*
X159958809Y-65373333D01*
X159958809Y-65373333D02*
X160196904Y-65373333D01*
X160196904Y-65373333D02*
X160292142Y-65420952D01*
X160292142Y-65420952D02*
X160339761Y-65468571D01*
X160339761Y-65468571D02*
X160387380Y-65563809D01*
X160387380Y-65563809D02*
X160387380Y-65849523D01*
X160387380Y-65849523D02*
X160339761Y-65944761D01*
X160339761Y-65944761D02*
X160292142Y-65992380D01*
X140499761Y-78109608D02*
X140547380Y-77966751D01*
X140547380Y-77966751D02*
X140547380Y-77728656D01*
X140547380Y-77728656D02*
X140499761Y-77633418D01*
X140499761Y-77633418D02*
X140452142Y-77585799D01*
X140452142Y-77585799D02*
X140356904Y-77538180D01*
X140356904Y-77538180D02*
X140261666Y-77538180D01*
X140261666Y-77538180D02*
X140166428Y-77585799D01*
X140166428Y-77585799D02*
X140118809Y-77633418D01*
X140118809Y-77633418D02*
X140071190Y-77728656D01*
X140071190Y-77728656D02*
X140023571Y-77919132D01*
X140023571Y-77919132D02*
X139975952Y-78014370D01*
X139975952Y-78014370D02*
X139928333Y-78061989D01*
X139928333Y-78061989D02*
X139833095Y-78109608D01*
X139833095Y-78109608D02*
X139737857Y-78109608D01*
X139737857Y-78109608D02*
X139642619Y-78061989D01*
X139642619Y-78061989D02*
X139595000Y-78014370D01*
X139595000Y-78014370D02*
X139547380Y-77919132D01*
X139547380Y-77919132D02*
X139547380Y-77681037D01*
X139547380Y-77681037D02*
X139595000Y-77538180D01*
X140547380Y-76585799D02*
X140547380Y-77157227D01*
X140547380Y-76871513D02*
X139547380Y-76871513D01*
X139547380Y-76871513D02*
X139690238Y-76966751D01*
X139690238Y-76966751D02*
X139785476Y-77061989D01*
X139785476Y-77061989D02*
X139833095Y-77157227D01*
X176124761Y-76094548D02*
X176124761Y-77470739D01*
X176124761Y-77470739D02*
X176205714Y-77632643D01*
X176205714Y-77632643D02*
X176286666Y-77713596D01*
X176286666Y-77713596D02*
X176448571Y-77794548D01*
X176448571Y-77794548D02*
X176772380Y-77794548D01*
X176772380Y-77794548D02*
X176934285Y-77713596D01*
X176934285Y-77713596D02*
X177015238Y-77632643D01*
X177015238Y-77632643D02*
X177096190Y-77470739D01*
X177096190Y-77470739D02*
X177096190Y-76094548D01*
X178796190Y-77794548D02*
X177824761Y-77794548D01*
X178310475Y-77794548D02*
X178310475Y-76094548D01*
X178310475Y-76094548D02*
X178148571Y-76337405D01*
X178148571Y-76337405D02*
X177986666Y-76499310D01*
X177986666Y-76499310D02*
X177824761Y-76580262D01*
X197107380Y-79701904D02*
X197916904Y-79701904D01*
X197916904Y-79701904D02*
X198012142Y-79654285D01*
X198012142Y-79654285D02*
X198059761Y-79606666D01*
X198059761Y-79606666D02*
X198107380Y-79511428D01*
X198107380Y-79511428D02*
X198107380Y-79320952D01*
X198107380Y-79320952D02*
X198059761Y-79225714D01*
X198059761Y-79225714D02*
X198012142Y-79178095D01*
X198012142Y-79178095D02*
X197916904Y-79130476D01*
X197916904Y-79130476D02*
X197107380Y-79130476D01*
X198059761Y-78701904D02*
X198107380Y-78559047D01*
X198107380Y-78559047D02*
X198107380Y-78320952D01*
X198107380Y-78320952D02*
X198059761Y-78225714D01*
X198059761Y-78225714D02*
X198012142Y-78178095D01*
X198012142Y-78178095D02*
X197916904Y-78130476D01*
X197916904Y-78130476D02*
X197821666Y-78130476D01*
X197821666Y-78130476D02*
X197726428Y-78178095D01*
X197726428Y-78178095D02*
X197678809Y-78225714D01*
X197678809Y-78225714D02*
X197631190Y-78320952D01*
X197631190Y-78320952D02*
X197583571Y-78511428D01*
X197583571Y-78511428D02*
X197535952Y-78606666D01*
X197535952Y-78606666D02*
X197488333Y-78654285D01*
X197488333Y-78654285D02*
X197393095Y-78701904D01*
X197393095Y-78701904D02*
X197297857Y-78701904D01*
X197297857Y-78701904D02*
X197202619Y-78654285D01*
X197202619Y-78654285D02*
X197155000Y-78606666D01*
X197155000Y-78606666D02*
X197107380Y-78511428D01*
X197107380Y-78511428D02*
X197107380Y-78273333D01*
X197107380Y-78273333D02*
X197155000Y-78130476D01*
X197583571Y-77368571D02*
X197631190Y-77225714D01*
X197631190Y-77225714D02*
X197678809Y-77178095D01*
X197678809Y-77178095D02*
X197774047Y-77130476D01*
X197774047Y-77130476D02*
X197916904Y-77130476D01*
X197916904Y-77130476D02*
X198012142Y-77178095D01*
X198012142Y-77178095D02*
X198059761Y-77225714D01*
X198059761Y-77225714D02*
X198107380Y-77320952D01*
X198107380Y-77320952D02*
X198107380Y-77701904D01*
X198107380Y-77701904D02*
X197107380Y-77701904D01*
X197107380Y-77701904D02*
X197107380Y-77368571D01*
X197107380Y-77368571D02*
X197155000Y-77273333D01*
X197155000Y-77273333D02*
X197202619Y-77225714D01*
X197202619Y-77225714D02*
X197297857Y-77178095D01*
X197297857Y-77178095D02*
X197393095Y-77178095D01*
X197393095Y-77178095D02*
X197488333Y-77225714D01*
X197488333Y-77225714D02*
X197535952Y-77273333D01*
X197535952Y-77273333D02*
X197583571Y-77368571D01*
X197583571Y-77368571D02*
X197583571Y-77701904D01*
D11*
X145330044Y-75891250D02*
X147170044Y-75891250D01*
X147170044Y-75891250D02*
X147170044Y-72051250D01*
X145330044Y-72051250D02*
X145330044Y-75891250D01*
X146250044Y-76841250D02*
X146250044Y-75891250D01*
X147170044Y-72051250D02*
X145330044Y-72051250D01*
X146250044Y-71101250D02*
X146250044Y-72051250D01*
X144780000Y-83300000D02*
X144780000Y-83170000D01*
X142240000Y-83300000D02*
X142240000Y-83170000D01*
X144780000Y-83170000D02*
X144780000Y-83170000D01*
X145470000Y-83300000D02*
X145470000Y-84420000D01*
X142240000Y-83170000D02*
X142240000Y-83170000D01*
X141950000Y-83300000D02*
X145070000Y-83300000D01*
X144780000Y-83170000D02*
X144780000Y-83300000D01*
X145470000Y-84420000D02*
X145070000Y-84420000D01*
X141950000Y-83300000D02*
X141950000Y-87160000D01*
X144780000Y-83300000D02*
X144780000Y-83300000D01*
X145070000Y-83300000D02*
X145470000Y-83300000D01*
X145070000Y-84420000D02*
X145070000Y-83300000D01*
X142240000Y-83170000D02*
X142240000Y-83300000D01*
X145070000Y-83300000D02*
X145070000Y-87160000D01*
X142240000Y-83300000D02*
X142240000Y-83300000D01*
X141950000Y-87160000D02*
G75*
G03*
X145070000Y-87160000I1560000J0D01*
G01*
X148239356Y-44025321D02*
X148239356Y-56625321D01*
X148239356Y-56625321D02*
X158589356Y-56625321D01*
X158589356Y-48825321D02*
X159089356Y-49125321D01*
X158589356Y-54225321D02*
X158589356Y-48825321D01*
X158589356Y-55675321D02*
X159089356Y-55925321D01*
X158589356Y-56625321D02*
X158589356Y-55675321D01*
X159089356Y-44025321D02*
X148239356Y-44025321D01*
X159089356Y-49125321D02*
X159089356Y-44025321D01*
X159089356Y-53975321D02*
X158589356Y-54225321D01*
X159089356Y-54025321D02*
X159089356Y-53975321D01*
X159089356Y-55925321D02*
X159089356Y-54025321D01*
X187443766Y-64610925D02*
X169603766Y-64610925D01*
X187443766Y-64610925D02*
X187443766Y-67270925D01*
X169603766Y-64610925D02*
X169603766Y-67270925D01*
X190043766Y-65940925D02*
X190043766Y-67270925D01*
X190043766Y-67270925D02*
X188713766Y-67270925D01*
X187443766Y-67270925D02*
X169603766Y-67270925D01*
X135700592Y-68170594D02*
X148300592Y-68170594D01*
X148300592Y-68170594D02*
X148300592Y-57820594D01*
X140500592Y-57820594D02*
X140800592Y-57320594D01*
X145900592Y-57820594D02*
X140500592Y-57820594D01*
X147350592Y-57820594D02*
X147600592Y-57320594D01*
X148300592Y-57820594D02*
X147350592Y-57820594D01*
X135700592Y-57320594D02*
X135700592Y-68170594D01*
X140800592Y-57320594D02*
X135700592Y-57320594D01*
X145650592Y-57320594D02*
X145900592Y-57820594D01*
X145700592Y-57320594D02*
X145650592Y-57320594D01*
X147600592Y-57320594D02*
X145700592Y-57320594D01*
X136467720Y-44059451D02*
X136467720Y-56659451D01*
X136467720Y-56659451D02*
X146817720Y-56659451D01*
X146817720Y-48859451D02*
X147317720Y-49159451D01*
X146817720Y-54259451D02*
X146817720Y-48859451D01*
X146817720Y-55709451D02*
X147317720Y-55959451D01*
X146817720Y-56659451D02*
X146817720Y-55709451D01*
X147317720Y-44059451D02*
X136467720Y-44059451D01*
X147317720Y-49159451D02*
X147317720Y-44059451D01*
X147317720Y-54009451D02*
X146817720Y-54259451D01*
X147317720Y-54059451D02*
X147317720Y-54009451D01*
X147317720Y-55959451D02*
X147317720Y-54059451D01*
X141599153Y-71127193D02*
X141599153Y-72077193D01*
X142519153Y-72077193D02*
X140679153Y-72077193D01*
X140679153Y-72077193D02*
X140679153Y-75917193D01*
X142519153Y-75917193D02*
X142519153Y-72077193D01*
X140679153Y-75917193D02*
X142519153Y-75917193D01*
X141599153Y-76867193D02*
X141599153Y-75917193D01*
X158540000Y-66560000D02*
X157480000Y-66560000D01*
X158540000Y-65500000D02*
X158540000Y-66560000D01*
X158540000Y-64500000D02*
X158540000Y-58440000D01*
X158540000Y-64500000D02*
X156420000Y-64500000D01*
X158540000Y-58440000D02*
X156420000Y-58440000D01*
X156420000Y-64500000D02*
X156420000Y-58440000D01*
D12*
X139260000Y-71257704D02*
X138760000Y-71257704D01*
X139260000Y-71257704D02*
X139260000Y-71757704D01*
X135060000Y-71257704D02*
X135560000Y-71257704D01*
X135060000Y-71257704D02*
X135060000Y-71757704D01*
X139260000Y-83157704D02*
X139260000Y-82657704D01*
X139260000Y-83157704D02*
X138760000Y-83157704D01*
X135060000Y-83157704D02*
X135060000Y-82657704D01*
X135060000Y-83157704D02*
X135560000Y-83157704D01*
D11*
X143952579Y-71117101D02*
X143952579Y-72067101D01*
X144872579Y-72067101D02*
X143032579Y-72067101D01*
X143032579Y-72067101D02*
X143032579Y-75907101D01*
X144872579Y-75907101D02*
X144872579Y-72067101D01*
X143032579Y-75907101D02*
X144872579Y-75907101D01*
X143952579Y-76857101D02*
X143952579Y-75907101D01*
D10*
X150750000Y-69330000D02*
X198750000Y-69330000D01*
X150750000Y-87330000D02*
X150750000Y-69330000D01*
X195962000Y-75900000D02*
X198756000Y-75900000D01*
X195962000Y-80980000D02*
X195962000Y-75900000D01*
X198750000Y-69330000D02*
X198750000Y-87330000D01*
X198750000Y-87330000D02*
X150750000Y-87330000D01*
X198756000Y-80980000D02*
X195962000Y-80980000D01*
X152250000Y-70820000D02*
G75*
G03*
X152250000Y-70820000I-500000J0D01*
G01*
X152250000Y-86076000D02*
G75*
G03*
X152250000Y-86076000I-500000J0D01*
G01*
X198250000Y-70820000D02*
G75*
G03*
X198250000Y-70820000I-500000J0D01*
G01*
X198250000Y-86076000D02*
G75*
G03*
X198250000Y-86076000I-500000J0D01*
G01*
%LPC*%
D13*
X146250044Y-70161250D03*
D14*
X146250043Y-77781249D03*
D15*
X142239999Y-82089999D03*
D16*
X144780000Y-82090000D03*
D17*
X196575807Y-51280577D03*
D18*
X196575807Y-53280577D03*
X196575807Y-55280577D03*
X196575807Y-57280577D03*
X196575807Y-59280577D03*
X196575807Y-61280577D03*
D19*
X150889355Y-50325320D03*
D20*
X155889355Y-50325320D03*
D21*
X188713765Y-65940924D03*
D22*
X186173765Y-65940924D03*
X183633765Y-65940924D03*
X181093765Y-65940924D03*
X178553765Y-65940924D03*
X176013765Y-65940924D03*
X173473765Y-65940924D03*
X170933765Y-65940924D03*
D23*
X142000591Y-65520593D03*
D24*
X142000591Y-60520593D03*
D19*
X139117719Y-50359450D03*
D20*
X144117719Y-50359450D03*
D13*
X141599153Y-70187193D03*
D14*
X141599152Y-77807192D03*
D17*
X157479999Y-65499999D03*
D18*
X157479999Y-63499999D03*
X157479999Y-61499999D03*
X157479999Y-59499999D03*
D25*
X137159999Y-74857703D03*
D26*
X137160000Y-77357704D03*
X137160000Y-79857704D03*
D13*
X143952579Y-70177101D03*
D14*
X143952578Y-77797100D03*
D27*
X169490000Y-86076000D03*
X172030000Y-86076000D03*
X192350000Y-70820000D03*
X174570000Y-86076000D03*
X177110000Y-86076000D03*
X166950000Y-70820000D03*
X179650000Y-86076000D03*
X182190000Y-86076000D03*
X184730000Y-86076000D03*
X187270000Y-86076000D03*
X189810000Y-86076000D03*
X192350000Y-86076000D03*
X194890000Y-86076000D03*
X194890000Y-70820000D03*
X187270000Y-70820000D03*
X184730000Y-70820000D03*
X182190000Y-70820000D03*
X179650000Y-70820000D03*
X177110000Y-70820000D03*
X174570000Y-70820000D03*
X189810000Y-70820000D03*
X161870000Y-70820000D03*
X166950000Y-86076000D03*
X156790000Y-70820000D03*
D21*
X154249999Y-86075999D03*
D27*
X169490000Y-70820000D03*
X172030000Y-70820000D03*
X164410000Y-70820000D03*
X164410000Y-86076000D03*
X161870000Y-86076000D03*
X154250000Y-70820000D03*
X156790000Y-86076000D03*
X159330000Y-86076000D03*
X159330000Y-70820000D03*
M02*
