M48
; DRILL file {KiCad 7.0.0} date Mon 20 Feb 2023 08:22:08 PM EST
; FORMAT={-:-/ absolute / metric / decimal}
; #@! TF.CreationDate,2023-02-20T20:22:08-05:00
; #@! TF.GenerationSoftware,Kicad,Pcbnew,7.0.0
; #@! TF.FileFunction,Plated,1,2,PTH
FMAT,2
METRIC
; #@! TA.AperFunction,Plated,PTH,ViaDrill
T1C0.400
; #@! TA.AperFunction,Plated,PTH,ComponentDrill
T2C0.700
; #@! TA.AperFunction,Plated,PTH,ComponentDrill
T3C0.800
; #@! TA.AperFunction,Plated,PTH,ComponentDrill
T4C0.900
; #@! TA.AperFunction,Plated,PTH,ComponentDrill
T5C1.000
; #@! TA.AperFunction,Plated,PTH,ComponentDrill
T6C1.320
%
G90
G05
T1
X147.32Y-73.66
X149.86Y-73.66
X150.567Y-74.385
X152.4Y-74.834
X160.02Y-48.26
X160.02Y-55.88
X160.02Y-76.2
X160.02Y-78.74
X162.56Y-75.284
X167.64Y-73.66
X178.31Y-70.007
X180.34Y-78.74
X182.88Y-73.66
X187.96Y-60.96
X195.58Y-67.855
X198.12Y-71.12
T2
X141.599Y-70.187
X141.599Y-77.807
X143.953Y-70.177
X143.953Y-77.797
X146.25Y-70.161
X146.25Y-77.781
T3
X157.48Y-59.5
X157.48Y-61.5
X157.48Y-63.5
X157.48Y-65.5
X196.576Y-51.281
X196.576Y-53.281
X196.576Y-55.281
X196.576Y-57.281
X196.576Y-59.281
X196.576Y-61.281
T4
X137.16Y-74.858
X137.16Y-77.358
X137.16Y-79.858
X142.24Y-82.09
X144.78Y-82.09
T5
X154.25Y-70.82
X154.25Y-86.076
X156.79Y-70.82
X156.79Y-86.076
X159.33Y-70.82
X159.33Y-86.076
X161.87Y-70.82
X161.87Y-86.076
X164.41Y-70.82
X164.41Y-86.076
X166.95Y-70.82
X166.95Y-86.076
X169.49Y-70.82
X169.49Y-86.076
X170.934Y-65.941
X172.03Y-70.82
X172.03Y-86.076
X173.474Y-65.941
X174.57Y-70.82
X174.57Y-86.076
X176.014Y-65.941
X177.11Y-70.82
X177.11Y-86.076
X178.554Y-65.941
X179.65Y-70.82
X179.65Y-86.076
X181.094Y-65.941
X182.19Y-70.82
X182.19Y-86.076
X183.634Y-65.941
X184.73Y-70.82
X184.73Y-86.076
X186.174Y-65.941
X187.27Y-70.82
X187.27Y-86.076
X188.714Y-65.941
X189.81Y-70.82
X189.81Y-86.076
X192.35Y-70.82
X192.35Y-86.076
X194.89Y-70.82
X194.89Y-86.076
T6
X139.118Y-50.359
X142.001Y-60.521
X142.001Y-65.521
X144.118Y-50.359
X150.889Y-50.325
X155.889Y-50.325
T0
M30
